<svg fill="none" height="25" viewBox="0 0 31 25" width="31" xmlns="http://www.w3.org/2000/svg"><path d="m8.22217 2c0-1.104569.89543-2 2.00003-2h18.2222c1.1046 0 2 .895431 2 2v15.5449c0 1.4001-1.4016 2.3669-2.7104 1.8696l-18.22227-6.9245c-.77632-.295-1.28956-1.039-1.28956-1.8695z" fill="#a3232e"/><path d="m22.2222 23c0 1.1046-.8955 2-2 2h-18.22226c-1.104565 0-1.9999946-.8954-1.9999946-2v-15.54491c0-1.40014 1.4016146-2.36692 2.7104346-1.86957l18.22222 6.92448c.7763.295 1.2896 1.039 1.2896 1.8695z" fill="#c52d3a"/></svg>