<svg class="custom-logo" xmlns="http://www.w3.org/2000/svg" viewBox="0 0 160.27 40.7"><g id="Layer_2" data-name="Layer 2"><g id="Artwork" fill="#ee3441"><path d="M20 10.43a1.89 1.89 0 00-1.87 1.65h3.77a1.8 1.8 0 00-1.9-1.65zm44.64 13.84l-2.06 6.09h1.22l.44-1.43h1.93l.45 1.43h1.22l-2.07-6.09zm-.07 3.61l.64-2.11.64 2.11zm8.79-2.63a1.49 1.49 0 011.51 1.06l1-.26a2.37 2.37 0 00-2.52-1.84 2.85 2.85 0 00-2.88 3.11 2.86 2.86 0 002.88 3.11 2.38 2.38 0 002.52-1.84l-1-.26a1.5 1.5 0 01-1.51 1.06c-.94 0-1.73-.66-1.73-2.07s.79-2.07 1.73-2.07zm4.53 1.44V26h-1.08v4.38h1.08v-1.57c0-1.42.55-1.94 1.17-1.94a.82.82 0 01.45.13l.2-1a1.49 1.49 0 00-1.82.69zm5.24 1.04c0 1.15-.48 1.78-1 1.78-.36 0-.63-.2-.63-.72V26h-1.07v3.13a1.22 1.22 0 001.34 1.32 1.65 1.65 0 001.36-.77v.7h1.08V26h-1.08zm7.25.34l-1.44-3.8h-1.27v6.09h1.13v-3.75l1.17 3.2h.82l1.16-3.2v3.75h1.13v-6.09h-1.27l-1.43 3.8zM94.93 24a.69.69 0 00-.7.7.7.7 0 001.4 0 .69.69 0 00-.7-.7zm-.54 1.98h1.08v4.38h-1.08zm4.7-.07a1.65 1.65 0 00-1.35.77V26h-1.08v4.38h1.08v-1.77c0-1.15.48-1.78 1-1.78.36 0 .62.2.62.72v2.81h1.08v-3.13a1.23 1.23 0 00-1.35-1.32zm2.54.07h1.08v4.38h-1.08zm.54-1.98a.68.68 0 00-.69.7.67.67 0 00.69.69.68.68 0 00.7-.69.69.69 0 00-.7-.7zm3.54 3.78c-.74-.27-.89-.43-.89-.62s.2-.33.42-.33a.85.85 0 01.71.38l.64-.59a1.55 1.55 0 00-1.37-.71 1.29 1.29 0 00-1.39 1.23 1.37 1.37 0 001 1.28c.46.19.9.37.9.66a.44.44 0 01-.5.43.94.94 0 01-.87-.72l-.86.46a1.73 1.73 0 001.73 1.18 1.39 1.39 0 001.5-1.42c.05-.65-.39-1.01-1.02-1.23zm3.85 1.73c-.36 0-.57-.17-.57-.71v-1.9h1.16V26H109v-1.79l-1.08.67V26h-.68v.92h.68v1.91a1.46 1.46 0 001.61 1.62 1.68 1.68 0 00.71-.15l-.25-.87a.92.92 0 01-.43.08zm2.5-2.82V26H111v4.38h1.08v-1.57c0-1.42.54-1.94 1.17-1.94a.82.82 0 01.45.13l.2-1a1.55 1.55 0 00-.53-.09 1.53 1.53 0 00-1.31.78zm4.36 1.99l-1-2.7h-1.09l1.59 4.09-.75 2.07h1.04l2.26-6.16h-1.07l-.98 2.7z"></path><path d="M53 0H2.7A2.7 2.7 0 000 2.7v20.68A2.71 2.71 0 002 26l52.36 14.66a1 1 0 001.29-1V2.7A2.7 2.7 0 0053 0zM14 13.18c0 3.11-1.34 4.37-3.83 4.37a3.43 3.43 0 01-3.77-3.11L8.6 14c.18 1 .7 1.52 1.51 1.52 1 0 1.6-.55 1.6-2.07v-8h2.23zm10.14.59h-6a2 2 0 002 2 2.36 2.36 0 002.1-1.34L24 15a4 4 0 01-4 2.55c-3 0-4.16-2.41-4.16-4.47S17.07 8.61 20 8.61a3.72 3.72 0 013.11 1.44 4.84 4.84 0 01.93 2.84zM31 16.71a3 3 0 01-2.21.84 3.39 3.39 0 01-2.15-.71 4 4 0 01-1.29-1.63L27 14.3a1.83 1.83 0 001.74 1.43c.7 0 1.06-.31 1.06-.93a.69.69 0 00-.46-.65 2.81 2.81 0 00-.48-.21c-.3-.14-.9-.33-1.22-.47a2.43 2.43 0 01-1-4.12 2.73 2.73 0 012-.74A3.23 3.23 0 0131.38 10l-1.27 1.17a1.78 1.78 0 00-1.44-.76.72.72 0 00-.79.72c0 .37.27.64.82.85l.62.22.74.26a5.39 5.39 0 01.62.32 2.11 2.11 0 01.62.45 2.19 2.19 0 01.53 1.41 2.78 2.78 0 01-.83 2.07zm10.19.7H39V16a3.17 3.17 0 01-2.68 1.53 2.42 2.42 0 01-2.66-2.61V8.75h2.13v5.55c0 .95.41 1.43 1.24 1.43 1.1 0 2-1.34 2-3.53V8.75h2.13zm7.24-.7a3 3 0 01-2.22.84 3.43 3.43 0 01-2.21-.71 3.89 3.89 0 01-1.28-1.63l1.7-.91a1.83 1.83 0 001.73 1.43c.71 0 1.07-.31 1.07-.93a.69.69 0 00-.47-.65 2.26 2.26 0 00-.48-.21c-.29-.14-.89-.33-1.22-.47a2.36 2.36 0 01-1.75-2.33 2.4 2.4 0 01.77-1.79 2.77 2.77 0 012-.74A3.23 3.23 0 0148.81 10l-1.27 1.17a1.79 1.79 0 00-1.44-.76.72.72 0 00-.79.72c0 .37.27.64.82.85l.62.22.74.26a6.37 6.37 0 01.62.32 2 2 0 011.15 1.86 2.78 2.78 0 01-.86 2.07zm14.07.7h2.23v-5.16h4.33v-2.06h-4.33V7.44h5.38V5.38H62.5v12.03zM73.8 7.12a1.23 1.23 0 10-1.74 0 1.24 1.24 0 001.74 0zm-1.94 1.63h2.13v8.66h-2.13zm4.47-3.51h2.13v12.17h-2.13zm11.58 12.17V14c0-2.34.78-3.61 1.88-3.61.7 0 1.06.4 1.06 1.21v5.77H93v-6.09a2.42 2.42 0 00-2.57-2.67 3 3 0 00-2.65 1.79 2.41 2.41 0 00-2.42-1.79 3 3 0 00-2.49 1.53V8.75h-2.16v8.66h2.14v-3.18c0-2.47.77-3.8 1.87-3.8.7 0 1.06.4 1.06 1.21v5.77zm16.46-12.03h-4.53v12h2.23V12.7h2.3a3.41 3.41 0 003.77-3.7 3.41 3.41 0 00-3.77-3.62zm-.08 5.26h-2.22v-3.2h2.22A1.41 1.41 0 01105.87 9a1.41 1.41 0 01-1.58 1.64zm11.2-1.86a3.43 3.43 0 00-1-.17 3.06 3.06 0 00-2.56 1.55V8.75h-2.13v8.66h2.13v-3.08c0-2.63 1-3.81 2.32-3.81a1.71 1.71 0 01.9.24zm8.63 1.1a4.7 4.7 0 00-6.43 0 4.49 4.49 0 00-1.18 3.2 4.51 4.51 0 001.18 3.21 4.73 4.73 0 006.43 0 4.52 4.52 0 001.19-3.21 4.49 4.49 0 00-1.19-3.2zM122.49 15a2 2 0 01-3.16 0 3 3 0 01-.59-1.89 2.89 2.89 0 01.59-1.87 2 2 0 013.16 0 2.94 2.94 0 01.58 1.87 3.06 3.06 0 01-.58 1.89zm4.83 1.67a2.25 2.25 0 01-2 2.51l.51 1.87c2.48-.56 3.63-1.94 3.63-4.64V8.75h-2.13zm7.95-8.06c-3 0-4.16 2.41-4.16 4.47s1.19 4.47 4.16 4.47A3.94 3.94 0 00139.2 15l-1.71-.64a2.36 2.36 0 01-2.1 1.35 2 2 0 01-2-2h6v-.88a4.84 4.84 0 00-.93-2.84 3.74 3.74 0 00-3.19-1.38zm-1.87 3.47a1.89 1.89 0 011.87-1.65 1.79 1.79 0 011.85 1.65zm11.6-1.65a2.2 2.2 0 012 1.43l1.91-.77A3.85 3.85 0 00145 8.61a3.94 3.94 0 00-3.13 1.27 4.72 4.72 0 00-1.09 3.2 4.72 4.72 0 001.09 3.2 3.94 3.94 0 003.13 1.27 3.85 3.85 0 003.94-2.48L147 14.3a2.22 2.22 0 01-2 1.43c-1.3 0-2-1.07-2-2.65s.68-2.65 2-2.65zm9.72 5.3c-.75 0-1.13-.38-1.13-1.41v-3.75h2.28V8.75h-2.28V5.24l-2.13 1.34v2.17h-1.34v1.82h1.34v3.78a2.88 2.88 0 003.18 3.2 3.41 3.41 0 001.41-.31l-.5-1.72a1.71 1.71 0 01-.83.21zm-27.2-10.34a1.22 1.22 0 101.73 1.73 1.22 1.22 0 00-1.73-1.73zm31.05-.05a1.69 1.69 0 00-1.7 1.76 1.7 1.7 0 103.4 0 1.69 1.69 0 00-1.7-1.76zm0 3.17a1.33 1.33 0 01-1.35-1.41 1.35 1.35 0 112.7 0 1.33 1.33 0 01-1.35 1.41z"></path><path d="M159.22 6.69a.53.53 0 00-.61-.55h-.68V8h.33v-.8h.2l.54.8h.35l-.55-.82a.51.51 0 00.42-.49zm-1 .26v-.53h.34a.25.25 0 01.29.27c0 .17-.1.26-.29.26z"></path></g></g></svg>