<svg fill="none" height="174" viewBox="0 0 113 174" width="113" xmlns="http://www.w3.org/2000/svg"><rect fill="#dcdde5" height="173.193" rx="14" width="112" x=".5" y=".385742"/><g fill="#aaacbb"><rect height="7" rx="2" width="55" x="14.5" y="77.1929"/><rect height="7" rx="2" width="84" x="14.5" y="88.1929"/><rect height="7" rx="2" width="79" x="14.5" y="99.1929"/><rect height="7" rx="2" width="68" x="14.5" y="110.193"/><rect height="7" rx="2" width="28" x="71.5" y="132"/></g><path clip-rule="evenodd" d="m49.871 30.7574c.2399-.2362.5687-.3717.9147-.3717h11.7143c.5523 0 1 .4478 1 1v10.5h-12.7143c-.4455 0-.8824.0896-1.2857.2592v-10.5092c0-.3264.1316-.6426.371-.8783zm-.371 14.3783c0 .3264.1316.6427.371.8784.2399.2362.5687.3716.9147.3716h11.4875l-.5206-.5856c-.3368-.3789-.3368-.9498 0-1.3287l.5206-.5857h-11.4875c-.346 0-.6748.1355-.9147.3717-.2394.2357-.371.5519-.371.8783zm15.7446-1.5824-1.4066 1.5824 1.4094 1.5857c.2616.2943.3262.7148.1648 1.074-.1613.3592-.5184.5903-.9122.5903h-13.7143c-.8664 0-1.7004-.3386-2.3177-.9463-.6179-.6083-.968-1.4366-.968-2.3037v-13.5c0-.867.3501-1.6954.968-2.3036.6173-.6077 1.4513-.9464 2.3177-.9464h11.7143c1.6569 0 3 1.3432 3 3v11.5c0 .2566-.0966.4906-.2554.6676zm-7.7446-10.7926c0-.5522-.4477-1-1-1s-1 .4478-1 1v1.25h-1.2857c-.5523 0-1 .4478-1 1 0 .5523.4477 1 1 1h1.2857v3.5c0 .5523.4477 1 1 1s1-.4477 1-1v-3.5h1.2857c.5523 0 1-.4477 1-1 0-.5522-.4477-1-1-1h-1.2857z" fill="#6d7080" fill-rule="evenodd"/></svg>