<svg width="89" height="134" viewBox="0 0 89 134" fill="none" xmlns="http://www.w3.org/2000/svg">
<rect x="0.5" y="0.5" width="88" height="133" rx="7.5" fill="#F0F0F0" stroke="#B5B5B5"/>
<g opacity="0.32" clip-path="url(#clip0_4207_1953)">
<path d="M52.8944 38.0826V24.6495C52.8944 23.594 52.0145 22.7305 50.9391 22.7305H37.2519C36.1765 22.7305 35.2966 23.594 35.2966 24.6495V38.0826C35.2966 39.138 36.1765 40.0016 37.2519 40.0016H50.9391C52.0145 40.0016 52.8944 39.138 52.8944 38.0826ZM41.0648 33.2658L43.1178 35.6934L46.1486 31.865C46.3441 31.6155 46.7352 31.6155 46.9307 31.8746L50.3622 36.3651C50.6067 36.6817 50.372 37.1327 49.9712 37.1327H38.2491C37.8385 37.1327 37.6137 36.6721 37.8679 36.3555L40.3022 33.285C40.488 33.0356 40.8595 33.026 41.0648 33.2658Z" fill="#323232"/>
</g>
<path opacity="0.3" d="M0 71.2601L89 50.6221V126C89 130.418 85.4183 134 81 134H8C3.58172 134 0 130.418 0 126V71.2601Z" fill="#C4C4C4"/>
<defs>
<clipPath id="clip0_4207_1953">
<rect width="23.4636" height="23.0281" fill="white" transform="translate(32.3636 19.8521)"/>
</clipPath>
</defs>
</svg>
