<svg width="148" height="27" viewBox="0 0 148 27" fill="none" xmlns="http://www.w3.org/2000/svg">
<path d="M42.4229 16.3574V7.84668C42.4229 7.66895 42.4844 7.51628 42.6074 7.38867C42.7305 7.26107 42.8809 7.19727 43.0586 7.19727H45.0684C45.2279 7.19727 45.3965 7.26107 45.5742 7.38867C45.752 7.51628 45.8978 7.66895 46.0117 7.84668L50.1406 14.1973V7.83301C50.1406 7.65527 50.2021 7.50488 50.3252 7.38184C50.4528 7.25879 50.6055 7.19727 50.7832 7.19727H51.959C52.1367 7.19727 52.2871 7.25879 52.4102 7.38184C52.5378 7.50488 52.6016 7.65983 52.6016 7.84668V16.3574C52.6016 16.5352 52.5378 16.6878 52.4102 16.8154C52.2871 16.9385 52.1367 17 51.959 17H49.6895C49.5117 17 49.3294 16.9385 49.1426 16.8154C48.9557 16.6878 48.8076 16.5352 48.6982 16.3574L44.918 10.4922V16.3574C44.918 16.5352 44.8542 16.6878 44.7266 16.8154C44.6035 16.9385 44.4531 17 44.2754 17H43.0723C42.8945 17 42.7419 16.9385 42.6143 16.8154C42.4867 16.6878 42.4229 16.5352 42.4229 16.3574ZM55.7135 16.3438V7.83301C55.7135 7.65527 55.7773 7.50488 55.9049 7.38184C56.0325 7.25879 56.1852 7.19727 56.3629 7.19727H64.2447C64.4225 7.19727 64.5729 7.26107 64.6959 7.38867C64.8235 7.51628 64.8873 7.66895 64.8873 7.84668V8.48926C64.8873 8.66699 64.8235 8.81966 64.6959 8.94727C64.5729 9.07031 64.4225 9.13184 64.2447 9.13184H58.2906V11.1211H63.4176C63.5953 11.1211 63.7457 11.1849 63.8687 11.3125C63.9964 11.4355 64.0602 11.5859 64.0602 11.7637V12.4062C64.0602 12.584 63.9964 12.7367 63.8687 12.8643C63.7457 12.9873 63.5953 13.0488 63.4176 13.0488H58.2906V15.0654H64.2311C64.4042 15.0654 64.5523 15.127 64.6754 15.25C64.7984 15.373 64.86 15.5234 64.86 15.7012V16.3574C64.86 16.5352 64.7962 16.6878 64.6686 16.8154C64.541 16.9385 64.3883 17 64.2105 17H56.3629C56.1852 17 56.0325 16.9385 55.9049 16.8154C55.7773 16.6878 55.7135 16.5306 55.7135 16.3438ZM66.8371 17C66.6092 17 66.4816 16.8975 66.4543 16.6924C66.4543 16.5921 66.5021 16.4805 66.5979 16.3574L70.0432 11.9619L66.7961 7.84668C66.7004 7.72819 66.6525 7.61654 66.6525 7.51172C66.6525 7.30208 66.7779 7.19727 67.0285 7.19727H68.4982C68.954 7.19727 69.3527 7.41374 69.6945 7.84668L71.5676 10.2256L73.4406 7.84668C73.7779 7.41829 74.1766 7.20182 74.6369 7.19727H76.1066C76.3573 7.19727 76.4826 7.30208 76.4826 7.51172C76.4826 7.61198 76.4348 7.72363 76.3391 7.84668L73.092 11.9619L76.5373 16.3574C76.633 16.4759 76.6809 16.5716 76.6809 16.6445C76.6809 16.7174 76.6717 16.7699 76.6535 16.8018C76.6034 16.9339 76.4849 17 76.298 17H74.842C74.3863 17 73.9898 16.7858 73.6525 16.3574L71.5676 13.6982L69.4826 16.3574C69.1454 16.7858 68.7489 17 68.2932 17H66.8371ZM78.1043 8.48926V7.84668C78.1043 7.65983 78.1658 7.50488 78.2889 7.38184C78.4119 7.25879 78.5669 7.19727 78.7537 7.19727H87.4285C87.6154 7.19727 87.7703 7.25879 87.8934 7.38184C88.0164 7.50488 88.0779 7.65983 88.0779 7.84668V8.48926C88.0779 8.67611 88.0164 8.83105 87.8934 8.9541C87.7703 9.07259 87.6154 9.13184 87.4285 9.13184H84.3797V16.3711C84.3797 16.5488 84.3159 16.6992 84.1883 16.8223C84.0652 16.9408 83.9148 17 83.7371 17H82.4451C82.2674 17 82.1147 16.9408 81.9871 16.8223C81.8641 16.6992 81.8025 16.5488 81.8025 16.3711V9.13184H78.7537C78.5669 9.13184 78.4119 9.07259 78.2889 8.9541C78.1658 8.83105 78.1043 8.67611 78.1043 8.48926ZM89.6518 14.4912C89.6518 14.2223 89.7315 14.0309 89.891 13.917C90.0505 13.7985 90.2055 13.7393 90.3559 13.7393H91.1693C91.5795 13.7393 91.8917 13.9626 92.1059 14.4092C92.3201 14.8558 92.8008 15.0791 93.5482 15.0791L95.9408 15.127C96.7429 15.127 97.1439 14.8649 97.1439 14.3408C97.1439 13.9443 96.654 13.6322 95.6742 13.4043C95.2367 13.2995 94.7536 13.1969 94.225 13.0967C93.6964 12.9919 93.17 12.862 92.6459 12.707C92.1264 12.5521 91.6479 12.3698 91.2104 12.1602C90.7729 11.9505 90.4174 11.6634 90.1439 11.2988C89.8751 10.9297 89.7406 10.4967 89.7406 10C89.7406 9.08398 90.0665 8.37988 90.7182 7.8877C91.3699 7.39095 92.4909 7.14258 94.0814 7.14258L95.8178 7.18359C96.752 7.18359 97.5928 7.42513 98.3402 7.9082C99.0922 8.38672 99.4682 8.986 99.4682 9.70605C99.4682 9.97493 99.3884 10.1686 99.2289 10.2871C99.0694 10.4056 98.9167 10.4648 98.7709 10.4648H97.9574C97.5473 10.4648 97.2351 10.2415 97.0209 9.79492C96.8067 9.34375 96.3259 9.11816 95.5785 9.11816L93.5209 9.07715C92.7188 9.07715 92.3178 9.33919 92.3178 9.86328C92.3178 10.1504 92.5707 10.3851 93.0766 10.5674C93.587 10.7497 94.2022 10.9115 94.9223 11.0527C95.6469 11.1895 96.3738 11.3558 97.1029 11.5518C97.8321 11.7477 98.4496 12.0713 98.9555 12.5225C99.4659 12.9691 99.7211 13.5273 99.7211 14.1973C99.7211 15.1133 99.393 15.8197 98.7367 16.3164C98.085 16.8086 96.9662 17.0547 95.3803 17.0547L93.309 17.0137C92.3747 17.0137 91.5316 16.7744 90.7797 16.2959C90.0277 15.8128 89.6518 15.2113 89.6518 14.4912ZM101.227 8.48926V7.84668C101.227 7.65983 101.288 7.50488 101.411 7.38184C101.534 7.25879 101.689 7.19727 101.876 7.19727H110.551C110.738 7.19727 110.893 7.25879 111.016 7.38184C111.139 7.50488 111.2 7.65983 111.2 7.84668V8.48926C111.2 8.67611 111.139 8.83105 111.016 8.9541C110.893 9.07259 110.738 9.13184 110.551 9.13184H107.502V16.3711C107.502 16.5488 107.438 16.6992 107.311 16.8223C107.188 16.9408 107.037 17 106.859 17H105.567C105.39 17 105.237 16.9408 105.109 16.8223C104.986 16.6992 104.925 16.5488 104.925 16.3711V9.13184H101.876C101.689 9.13184 101.534 9.07259 101.411 8.9541C101.288 8.83105 101.227 8.67611 101.227 8.48926ZM113.471 16.3438V7.83301C113.471 7.65527 113.535 7.50488 113.663 7.38184C113.79 7.25879 113.943 7.19727 114.121 7.19727H122.003C122.18 7.19727 122.331 7.26107 122.454 7.38867C122.581 7.51628 122.645 7.66895 122.645 7.84668V8.48926C122.645 8.66699 122.581 8.81966 122.454 8.94727C122.331 9.07031 122.18 9.13184 122.003 9.13184H116.048V11.1211H121.175C121.353 11.1211 121.504 11.1849 121.627 11.3125C121.754 11.4355 121.818 11.5859 121.818 11.7637V12.4062C121.818 12.584 121.754 12.7367 121.627 12.8643C121.504 12.9873 121.353 13.0488 121.175 13.0488H116.048V15.0654H121.989C122.162 15.0654 122.31 15.127 122.433 15.25C122.556 15.373 122.618 15.5234 122.618 15.7012V16.3574C122.618 16.5352 122.554 16.6878 122.426 16.8154C122.299 16.9385 122.146 17 121.968 17H114.121C113.943 17 113.79 16.9385 113.663 16.8154C113.535 16.6878 113.471 16.5306 113.471 16.3438ZM125.053 16.3574V7.84668C125.053 7.66895 125.114 7.51628 125.238 7.38867C125.361 7.26107 125.511 7.19727 125.689 7.19727H130.904C133.662 7.19727 135.04 8.46875 135.04 11.0117C135.04 13.5501 133.662 14.8193 130.904 14.8193H127.63V16.3574C127.63 16.5352 127.566 16.6878 127.439 16.8154C127.316 16.9385 127.165 17 126.988 17H125.702C125.525 17 125.372 16.9385 125.244 16.8154C125.117 16.6878 125.053 16.5352 125.053 16.3574ZM127.63 12.8848H130.125C130.891 12.8848 131.472 12.7572 131.868 12.502C132.265 12.2422 132.463 11.7454 132.463 11.0117C132.463 10.2734 132.265 9.77669 131.868 9.52148C131.472 9.26172 130.891 9.13184 130.125 9.13184H127.63V12.8848ZM136.894 14.4912C136.894 14.2223 136.974 14.0309 137.134 13.917C137.293 13.7985 137.448 13.7393 137.598 13.7393H138.412C138.822 13.7393 139.134 13.9626 139.348 14.4092C139.563 14.8558 140.043 15.0791 140.791 15.0791L143.183 15.127C143.985 15.127 144.387 14.8649 144.387 14.3408C144.387 13.9443 143.897 13.6322 142.917 13.4043C142.479 13.2995 141.996 13.1969 141.468 13.0967C140.939 12.9919 140.413 12.862 139.888 12.707C139.369 12.5521 138.89 12.3698 138.453 12.1602C138.015 11.9505 137.66 11.6634 137.387 11.2988C137.118 10.9297 136.983 10.4967 136.983 10C136.983 9.08398 137.309 8.37988 137.961 7.8877C138.612 7.39095 139.734 7.14258 141.324 7.14258L143.06 7.18359C143.995 7.18359 144.835 7.42513 145.583 7.9082C146.335 8.38672 146.711 8.986 146.711 9.70605C146.711 9.97493 146.631 10.1686 146.471 10.2871C146.312 10.4056 146.159 10.4648 146.013 10.4648H145.2C144.79 10.4648 144.478 10.2415 144.263 9.79492C144.049 9.34375 143.568 9.11816 142.821 9.11816L140.763 9.07715C139.961 9.07715 139.56 9.33919 139.56 9.86328C139.56 10.1504 139.813 10.3851 140.319 10.5674C140.83 10.7497 141.445 10.9115 142.165 11.0527C142.889 11.1895 143.616 11.3558 144.346 11.5518C145.075 11.7477 145.692 12.0713 146.198 12.5225C146.708 12.9691 146.964 13.5273 146.964 14.1973C146.964 15.1133 146.636 15.8197 145.979 16.3164C145.328 16.8086 144.209 17.0547 142.623 17.0547L140.552 17.0137C139.617 17.0137 138.774 16.7744 138.022 16.2959C137.27 15.8128 136.894 15.2113 136.894 14.4912Z" fill="black"/>
<path d="M9.21875 4C9.21875 2.89543 10.1142 2 11.2188 2H29.441C30.5455 2 31.441 2.89543 31.441 4V19.5449C31.441 20.945 30.0394 21.9118 28.7305 21.4145L10.5083 14.49C9.73199 14.195 9.21875 13.451 9.21875 12.6205V4Z" fill="#A3232E"/>
<path d="M23.2188 25C23.2188 26.1046 22.3233 27 21.2188 27H2.99653C1.89196 27 0.996527 26.1046 0.996527 25V9.45509C0.996527 8.05495 2.39814 7.08817 3.70696 7.58552L21.9292 14.51C22.7055 14.805 23.2188 15.549 23.2188 16.3795V25Z" fill="#C52D3A"/>
</svg>
