<svg width="139" height="36" viewBox="0 0 139 36" fill="none" xmlns="http://www.w3.org/2000/svg">
<path fill-rule="evenodd" clip-rule="evenodd" d="M57.0263 24.1454L56.4693 22.3154L55.9123 24.1454H57.0263ZM55.9793 21.0204H56.9593L58.7433 26.2914H57.6893L57.3053 25.0494H55.6333L55.2493 26.2914H54.1943L55.9793 21.0204Z" fill="#EF3340"/>
<path fill-rule="evenodd" clip-rule="evenodd" d="M61.0356 23.6561C61.0356 21.8931 62.2106 20.9601 63.5286 20.9601C64.6736 20.9601 65.4636 21.5471 65.7126 22.5561L64.8316 22.7821C64.6276 22.2471 64.2586 21.8641 63.5286 21.8641C62.7146 21.8641 62.0296 22.4361 62.0296 23.6561C62.0296 24.8761 62.7146 25.4481 63.5286 25.4481C64.2586 25.4481 64.6276 25.0641 64.8316 24.5301L65.7126 24.7561C65.4636 25.7641 64.6736 26.3521 63.5286 26.3521C62.2106 26.3521 61.0356 25.4181 61.0356 23.6561Z" fill="#EF3340"/>
<path fill-rule="evenodd" clip-rule="evenodd" d="M66.5146 22.4965H67.4486V23.1135C67.7196 22.6695 68.1406 22.4355 68.5706 22.4355C68.7366 22.4355 68.8796 22.4665 69.0296 22.5115L68.8566 23.3775C68.7436 23.3095 68.6226 23.2715 68.4646 23.2715C67.9226 23.2715 67.4486 23.7165 67.4486 24.9435V26.2915H66.5146V22.4965Z" fill="#EF3340"/>
<path fill-rule="evenodd" clip-rule="evenodd" d="M69.6464 25.2074V22.4964H70.5804V24.9284C70.5804 25.3804 70.8064 25.5534 71.1224 25.5534C71.5744 25.5534 71.9884 25.0114 71.9884 24.0104V22.4964H72.9224V26.2914H71.9884V25.6824C71.7094 26.0814 71.3034 26.3524 70.8134 26.3524C70.1364 26.3524 69.6464 25.9684 69.6464 25.2074Z" fill="#EF3340"/>
<path fill-rule="evenodd" clip-rule="evenodd" d="M75.9223 21.0199H77.0223L78.2643 24.3119L79.5073 21.0199H80.6073V26.2919H79.6283V23.0389L78.6183 25.8099H77.9103L76.9013 23.0389V26.2919H75.9223V21.0199Z" fill="#EF3340"/>
<mask id="mask0_1_55" style="mask-type:luminance" maskUnits="userSpaceOnUse" x="0" y="0" width="139" height="36">
<path fill-rule="evenodd" clip-rule="evenodd" d="M0 35.241H138.792V0H0V35.241Z" fill="white"/>
</mask>
<g mask="url(#mask0_1_55)">
<path fill-rule="evenodd" clip-rule="evenodd" d="M81.74 26.292H82.674V22.497H81.74V26.292ZM81.604 21.404C81.604 21.066 81.86 20.802 82.206 20.802C82.553 20.802 82.809 21.066 82.809 21.404C82.809 21.743 82.553 22.007 82.206 22.007C81.86 22.007 81.604 21.743 81.604 21.404Z" fill="#EF3340"/>
<path fill-rule="evenodd" clip-rule="evenodd" d="M83.7031 22.4965H84.6371V23.1065C84.9151 22.7065 85.3221 22.4355 85.8121 22.4355C86.4901 22.4355 86.9791 22.8205 86.9791 23.5805V26.2915H86.0451V23.8595C86.0451 23.4075 85.8191 23.2345 85.5031 23.2345C85.0511 23.2345 84.6371 23.7765 84.6371 24.7785V26.2915H83.7031V22.4965Z" fill="#EF3340"/>
<path fill-rule="evenodd" clip-rule="evenodd" d="M88.011 26.292H88.945V22.497H88.011V26.292ZM87.876 21.404C87.876 21.066 88.132 20.802 88.478 20.802C88.825 20.802 89.08 21.066 89.08 21.404C89.08 21.743 88.825 22.007 88.478 22.007C88.132 22.007 87.876 21.743 87.876 21.404Z" fill="#EF3340"/>
<path fill-rule="evenodd" clip-rule="evenodd" d="M89.6669 25.328L90.4129 24.929C90.5479 25.298 90.7959 25.554 91.1659 25.554C91.3839 25.554 91.6019 25.441 91.6019 25.185C91.6019 24.929 91.2179 24.771 90.8189 24.612C90.2919 24.402 89.9149 24.085 89.9149 23.498C89.9149 22.911 90.4129 22.436 91.1129 22.436C91.6249 22.436 92.0689 22.662 92.3029 23.054L91.7459 23.566C91.5799 23.325 91.3689 23.234 91.1349 23.234C90.9469 23.234 90.7659 23.34 90.7659 23.52C90.7659 23.686 90.9019 23.822 91.5419 24.055C92.0839 24.251 92.4679 24.56 92.4679 25.124C92.4679 25.87 91.9259 26.352 91.1729 26.352C90.3299 26.352 89.8169 25.832 89.6669 25.328Z" fill="#EF3340"/>
<path fill-rule="evenodd" clip-rule="evenodd" d="M93.4467 24.9515V23.2945H92.8597V22.4965H93.4467V21.5475L94.3807 20.9595V22.4965H95.3817V23.2945H94.3807V24.9365C94.3807 25.4035 94.5607 25.5535 94.8777 25.5535C95.0057 25.5535 95.1107 25.5315 95.2387 25.4635L95.4577 26.2165C95.2467 26.3145 95.0437 26.3525 94.8397 26.3525C93.9817 26.3525 93.4467 25.8925 93.4467 24.9515Z" fill="#EF3340"/>
<path fill-rule="evenodd" clip-rule="evenodd" d="M96.1025 22.4965H97.0365V23.1135C97.3075 22.6695 97.7285 22.4355 98.1585 22.4355C98.3245 22.4355 98.4675 22.4665 98.6175 22.5115L98.4445 23.3775C98.3315 23.3095 98.2105 23.2715 98.0535 23.2715C97.5105 23.2715 97.0365 23.7165 97.0365 24.9435V26.2915H96.1025V22.4965Z" fill="#EF3340"/>
<path fill-rule="evenodd" clip-rule="evenodd" d="M102.595 22.4965L100.637 27.8285H99.7327L100.381 26.0355L99.0097 22.4965H99.9507L100.818 24.8305L101.661 22.4965H102.595Z" fill="#EF3340"/>
<path fill-rule="evenodd" clip-rule="evenodd" d="M17.3549 9.0341C16.4779 9.0341 15.8669 9.6741 15.7329 10.4631H18.9619C18.7539 9.5101 18.2179 9.0341 17.3549 9.0341Z" fill="#EF3340"/>
<path fill-rule="evenodd" clip-rule="evenodd" d="M41.912 14.4657C41.421 14.9567 40.781 15.1947 39.993 15.1947C39.278 15.1947 38.653 14.9867 38.132 14.5847C37.611 14.1827 37.239 13.7067 37.016 13.1707L38.489 12.3827C38.787 13.2007 39.293 13.6167 39.993 13.6167C40.602 13.6167 40.915 13.3487 40.915 12.8137C40.915 12.5757 40.796 12.3827 40.513 12.2487C40.379 12.1737 40.23 12.1137 40.097 12.0697C39.843 11.9507 39.322 11.7867 39.04 11.6677C38.088 11.2657 37.522 10.7157 37.522 9.6437C37.522 9.0337 37.746 8.5287 38.192 8.0967C38.638 7.6647 39.219 7.4567 39.918 7.4567C40.915 7.4567 41.793 7.9477 42.269 8.6767L41.168 9.6887C40.826 9.2577 40.41 9.0337 39.918 9.0337C39.546 9.0337 39.234 9.2577 39.234 9.6587C39.234 9.9717 39.472 10.2097 39.948 10.3877L40.484 10.5817L41.123 10.8047C41.243 10.8497 41.421 10.9537 41.659 11.0877C41.912 11.2217 42.09 11.3407 42.195 11.4747C42.418 11.7277 42.656 12.1737 42.656 12.6947C42.656 13.3937 42.403 13.9747 41.912 14.4657ZM35.646 15.0757H33.801V13.8697C33.19 14.7477 32.416 15.1947 31.479 15.1947C30.095 15.1947 29.173 14.4057 29.173 12.9327V7.5757H31.018V12.3817C31.018 13.2007 31.375 13.6177 32.089 13.6177C33.042 13.6177 33.801 12.4567 33.801 10.5667V7.5757H35.646V15.0757ZM26.821 14.4657C26.33 14.9567 25.689 15.1947 24.901 15.1947C24.187 15.1947 23.562 14.9867 23.041 14.5847C22.52 14.1827 22.148 13.7067 21.925 13.1707L23.398 12.3827C23.695 13.2007 24.202 13.6167 24.901 13.6167C25.511 13.6167 25.824 13.3487 25.824 12.8137C25.824 12.5757 25.704 12.3827 25.422 12.2487C25.288 12.1737 25.139 12.1137 25.005 12.0697C24.752 11.9507 24.231 11.7867 23.949 11.6677C22.996 11.2657 22.431 10.7157 22.431 9.6437C22.431 9.0337 22.654 8.5287 23.1 8.0967C23.546 7.6647 24.127 7.4567 24.826 7.4567C25.824 7.4567 26.702 7.9477 27.178 8.6767L26.076 9.6887C25.734 9.2577 25.318 9.0337 24.826 9.0337C24.454 9.0337 24.142 9.2577 24.142 9.6587C24.142 9.9717 24.38 10.2097 24.856 10.3877L25.392 10.5817L26.032 10.8047C26.151 10.8497 26.33 10.9537 26.568 11.0877C26.821 11.2217 26.999 11.3407 27.103 11.4747C27.327 11.7277 27.564 12.1737 27.564 12.6947C27.564 13.3937 27.311 13.9747 26.821 14.4657ZM20.852 11.9207H15.688C15.733 12.8277 16.388 13.6167 17.459 13.6167C18.218 13.6167 18.829 13.2297 19.275 12.4567L20.763 13.0077C20.122 14.4657 18.992 15.1947 17.355 15.1947C14.781 15.1947 13.753 13.1117 13.753 11.3257C13.753 9.5397 14.781 7.4567 17.355 7.4567C18.545 7.4567 19.513 7.9477 20.049 8.7067C20.584 9.4357 20.852 10.3137 20.852 11.1617V11.9207ZM12.071 11.4147C12.071 14.1087 10.911 15.1947 8.753 15.1947C6.953 15.1947 5.762 14.1827 5.538 12.5007L7.444 12.0987C7.607 12.9777 8.053 13.4087 8.753 13.4087C9.646 13.4087 10.137 12.9327 10.137 11.6237V4.6587H12.071V11.4147ZM45.854 -0.000297546H2.34C1.048 -0.000297546 0 1.0467 0 2.3397V20.2427C0 21.2917 0.699 22.2137 1.709 22.4957L47.072 35.2077C47.636 35.3657 48.194 34.9417 48.194 34.3567V2.3397C48.194 1.0467 47.147 -0.000297546 45.854 -0.000297546Z" fill="#EF3340"/>
<path fill-rule="evenodd" clip-rule="evenodd" d="M54.1196 15.0751H56.0546V10.6111H59.8046V8.8251H56.0546V6.4451H60.7116V4.6581H54.1196V15.0751Z" fill="#EF3340"/>
<path fill-rule="evenodd" clip-rule="evenodd" d="M62.4042 4.6669C61.9952 5.0759 61.9952 5.7599 62.4042 6.1679C62.8122 6.5769 63.4972 6.5769 63.9052 6.1679C64.3142 5.7599 64.3142 5.0759 63.9052 4.6669C63.4972 4.2589 62.8122 4.2589 62.4042 4.6669Z" fill="#EF3340"/>
<path fill-rule="evenodd" clip-rule="evenodd" d="M62.233 15.076H64.078V7.576H62.233V15.076Z" fill="#EF3340"/>
<path fill-rule="evenodd" clip-rule="evenodd" d="M66.101 15.076H67.946V4.54H66.101V15.076Z" fill="#EF3340"/>
<path fill-rule="evenodd" clip-rule="evenodd" d="M78.2885 7.4564C77.3365 7.4564 76.5775 7.9774 75.9965 9.0034C75.6845 7.9774 74.8665 7.4564 73.8985 7.4564C73.0505 7.4564 72.3215 7.9034 71.7415 8.7804V7.5754H69.8955V15.0754H71.7415V12.3224C71.7415 10.1794 72.4115 9.0334 73.3635 9.0334C73.9735 9.0334 74.2855 9.3764 74.2855 10.0754V15.0754H76.1315V12.1594C76.1315 10.1354 76.8005 9.0334 77.7525 9.0334C78.3635 9.0334 78.6765 9.3764 78.6765 10.0754V15.0754H80.5205V9.7634C80.5205 8.3194 79.6725 7.4564 78.2885 7.4564Z" fill="#EF3340"/>
<path fill-rule="evenodd" clip-rule="evenodd" d="M90.308 9.2123H88.389V6.4443H90.308C91.216 6.4443 91.678 6.9053 91.678 7.8283C91.678 8.7513 91.216 9.2123 90.308 9.2123ZM90.383 4.6583H86.454V15.0753H88.389V10.9983H90.383C92.511 10.9983 93.642 9.7333 93.642 7.8283C93.642 5.9233 92.511 4.6583 90.383 4.6583Z" fill="#EF3340"/>
<path fill-rule="evenodd" clip-rule="evenodd" d="M96.8876 8.7953V7.5753H95.0416V15.0753H96.8876V12.4113C96.8876 10.1343 97.7206 9.1073 98.8956 9.1073C99.1796 9.1073 99.4466 9.1823 99.6696 9.3163L100.013 7.6053C99.6846 7.5013 99.3876 7.4563 99.1046 7.4563C98.2266 7.4563 97.4236 7.9473 96.8876 8.7953Z" fill="#EF3340"/>
<path fill-rule="evenodd" clip-rule="evenodd" d="M106.07 12.9623C105.728 13.3943 105.282 13.6173 104.701 13.6173C104.121 13.6173 103.674 13.3943 103.332 12.9623C102.99 12.5153 102.826 11.9653 102.826 11.3253C102.826 10.6853 102.99 10.1353 103.332 9.7033C103.674 9.2563 104.121 9.0333 104.701 9.0333C105.282 9.0333 105.728 9.2563 106.07 9.7033C106.413 10.1353 106.576 10.6853 106.576 11.3253C106.576 11.9653 106.413 12.5153 106.07 12.9623ZM107.484 8.5573C106.799 7.8283 105.877 7.4563 104.701 7.4563C103.526 7.4563 102.603 7.8283 101.919 8.5573C101.234 9.2863 100.892 10.2093 100.892 11.3253C100.892 12.4413 101.234 13.3793 101.919 14.1083C102.603 14.8373 103.526 15.1943 104.701 15.1943C105.877 15.1943 106.799 14.8373 107.484 14.1083C108.168 13.3793 108.511 12.4413 108.511 11.3253C108.511 10.2093 108.168 9.2863 107.484 8.5573Z" fill="#EF3340"/>
<path fill-rule="evenodd" clip-rule="evenodd" d="M110.252 14.4354C110.252 15.7604 109.687 16.3104 108.511 16.6084L108.957 18.2294C111.1 17.7394 112.098 16.5484 112.098 14.2114V7.5754H110.252V14.4354Z" fill="#EF3340"/>
<path fill-rule="evenodd" clip-rule="evenodd" d="M115.516 10.4628C115.65 9.6738 116.26 9.0338 117.138 9.0338C118.001 9.0338 118.537 9.5098 118.745 10.4628H115.516ZM117.138 7.4568C114.563 7.4568 113.537 9.5398 113.537 11.3248C113.537 13.1108 114.563 15.1948 117.138 15.1948C118.775 15.1948 119.906 14.4658 120.546 13.0068L119.058 12.4558C118.611 13.2298 118.001 13.6168 117.243 13.6168C116.171 13.6168 115.516 12.8278 115.471 11.9208H120.635V11.1618C120.635 10.3138 120.367 9.4358 119.831 8.7058C119.296 7.9468 118.328 7.4568 117.138 7.4568Z" fill="#EF3340"/>
<path fill-rule="evenodd" clip-rule="evenodd" d="M125.55 9.0336C126.308 9.0336 126.904 9.4506 127.305 10.2676L128.957 9.5986C128.377 8.1706 127.246 7.4566 125.55 7.4566C124.374 7.4566 123.481 7.8276 122.841 8.5576C122.201 9.2866 121.889 10.2096 121.889 11.3256C121.889 12.4416 122.201 13.3636 122.841 14.0936C123.481 14.8226 124.374 15.1946 125.55 15.1946C127.246 15.1946 128.377 14.4806 128.957 13.0516L127.305 12.3816C126.904 13.2006 126.308 13.6166 125.55 13.6166C124.419 13.6166 123.823 12.6946 123.823 11.3256C123.823 9.9556 124.419 9.0336 125.55 9.0336Z" fill="#EF3340"/>
<path fill-rule="evenodd" clip-rule="evenodd" d="M134.699 13.4384C134.475 13.5574 134.238 13.6174 133.985 13.6174C133.329 13.6174 133.002 13.2894 133.002 12.3964V9.1524H134.982V7.5754H133.002V4.5394L131.157 5.7004V7.5754H129.996V9.1524H131.157V12.4264C131.157 14.2564 132.184 15.1944 133.91 15.1944C134.342 15.1944 134.743 15.1054 135.13 14.9264L134.699 13.4384Z" fill="#EF3340"/>
<path fill-rule="evenodd" clip-rule="evenodd" d="M110.424 4.6664C110.015 5.0754 110.015 5.7594 110.424 6.1674C110.832 6.5764 111.517 6.5764 111.925 6.1674C112.334 5.7594 112.334 5.0754 111.925 4.6664C111.517 4.2584 110.832 4.2584 110.424 4.6664Z" fill="#EF3340"/>
<path fill-rule="evenodd" clip-rule="evenodd" d="M137.339 6.0214C137.51 6.0214 137.596 5.9354 137.596 5.7914C137.596 5.6474 137.51 5.5614 137.339 5.5614H137.047V6.0214H137.339ZM136.758 5.3164H137.355C137.686 5.3164 137.881 5.4994 137.881 5.7914C137.881 6.0374 137.733 6.2044 137.518 6.2504L137.993 6.9634H137.686L137.222 6.2664H137.047V6.9634H136.758V5.3164ZM137.316 4.9224C136.626 4.9224 136.143 5.4484 136.143 6.1464C136.143 6.8434 136.626 7.3694 137.316 7.3694C138.005 7.3694 138.488 6.8434 138.488 6.1464C138.488 5.4484 138.005 4.9224 137.316 4.9224ZM137.316 4.6264C138.145 4.6154 138.803 5.2964 138.792 6.1464C138.803 6.9994 138.145 7.6804 137.316 7.6654C136.486 7.6804 135.828 6.9994 135.839 6.1464C135.828 5.2964 136.486 4.6154 137.316 4.6264Z" fill="#EF3340"/>
</g>
</svg>
