<svg fill="none" height="174" viewBox="0 0 113 174" width="113" xmlns="http://www.w3.org/2000/svg"><rect fill="#dcdde5" height="173.193" rx="14" width="112" x=".5" y=".192871"/><rect height="24" rx="5" stroke="#aaacbb" stroke-width="2" width="82" x="15.8145" y="103"/><rect fill="#fefefe" height="18" opacity=".7" rx="9" width="84" x="14.8145" y="135"/><rect fill="#aaacbb" height="7" rx="2" width="37" x="14.8145" y="73"/><rect fill="#aaacbb" height="7" rx="2" width="79" x="14.8145" y="84"/><path clip-rule="evenodd" d="m50.9477 29.213c-.6867 0-1.2434.5567-1.2434 1.2434v8.3411c0 .6867.5567 1.2434 1.2434 1.2434h4.2632c.3418 0 .6533.1961.801.5044l1.3637 2.8461 1.4961-2.8726c.153-.2937.4566-.4779.7878-.4779h4.0778c.6867 0 1.2435-.5567 1.2435-1.2434v-8.3411c0-.6867-.5568-1.2434-1.2435-1.2434zm-3.0198 1.2434c0-1.6678 1.352-3.0198 3.0198-3.0198h12.7896c1.6678 0 3.0198 1.352 3.0198 3.0198v8.3411c0 1.6678-1.352 3.0198-3.0198 3.0198h-3.539l-2.0681 3.9706c-.1554.2984-.4661.4834-.8025.4778s-.6408-.2008-.7862-.5043l-1.8899-3.9441h-3.7039c-1.6678 0-3.0198-1.352-3.0198-3.0198zm5.1514 3.3751c.4905 0 .8882.3976.8882.8881v.0802c0 .4905-.3977.8881-.8882.8881s-.8882-.3976-.8882-.8881v-.0802c0-.4905.3977-.8881.8882-.8881zm4.2632 0c.4905 0 .8882.3976.8882.8881v.0802c0 .4905-.3977.8881-.8882.8881s-.8882-.3976-.8882-.8881v-.0802c0-.4905.3977-.8881.8882-.8881zm4.2632 0c.4905 0 .8882.3976.8882.8881v.0802c0 .4905-.3977.8881-.8882.8881s-.8882-.3976-.8882-.8881v-.0802c0-.4905.3977-.8881.8882-.8881z" fill="#6d7080" fill-rule="evenodd"/></svg>