<svg fill="none" height="22" viewBox="0 0 22 22" width="22" xmlns="http://www.w3.org/2000/svg"><path d="m21.75 19.1667v-16.33337c0-1.28333-1.05-2.33333-2.3333-2.33333h-16.33337c-1.28333 0-2.33333 1.05-2.33333 2.33333v16.33337c0 1.2833 1.05 2.3333 2.33333 2.3333h16.33337c1.2833 0 2.3333-1.05 2.3333-2.3333zm-14.11667-5.8567 2.44997 2.9517 3.6167-4.655c.2333-.3034.7-.3034.9333.0116l4.095 5.46c.2917.385.0117.9334-.4666.9334h-13.98837c-.49 0-.75833-.56-.455-.945l2.905-3.7334c.22167-.3033.665-.315.91-.0233z" fill="#6d6d7d"/></svg>