<svg width="51" height="37" viewBox="0 0 51 37" fill="none" xmlns="http://www.w3.org/2000/svg">
<path opacity="0.12" d="M14.8359 3.21739C14.8359 1.44048 16.2764 0 18.0533 0H47.3673C49.1443 0 50.5847 1.44048 50.5847 3.21739V28.2244C50.5847 30.4768 48.33 32.0321 46.2245 31.232L16.9105 20.0927C15.6616 19.6181 14.8359 18.4211 14.8359 17.0851V3.21739Z" fill="#26262E"/>
<path d="M35.749 33.7826C35.749 35.5595 34.3085 37 32.5316 37H3.21762C1.44071 37 0.000228763 35.5595 0.000228763 33.7826V8.77557C0.000228763 6.52319 2.255 4.96792 4.36049 5.76801L33.6745 16.9073C34.9234 17.3819 35.749 18.5789 35.749 19.9149V33.7826Z" fill="#DEDFE0"/>
</svg>
