<svg width="221" height="41" viewBox="0 0 221 41" fill="none" xmlns="http://www.w3.org/2000/svg">
<path d="M62.6066 25.0322V12.2135C62.6066 11.9458 62.6993 11.7159 62.8846 11.5237C63.0699 11.3315 63.2965 11.2354 63.5642 11.2354H66.5912C66.8315 11.2354 67.0854 11.3315 67.3531 11.5237C67.6208 11.7159 67.8405 11.9458 68.0121 12.2135L74.2309 21.7786V12.1929C74.2309 11.9252 74.3236 11.6987 74.5089 11.5134C74.7011 11.3281 74.9311 11.2354 75.1988 11.2354H76.9697C77.2374 11.2354 77.4639 11.3281 77.6492 11.5134C77.8414 11.6987 77.9375 11.9321 77.9375 12.2135V25.0322C77.9375 25.2999 77.8414 25.5298 77.6492 25.722C77.4639 25.9073 77.2374 26 76.9697 26H73.5514C73.2837 26 73.0091 25.9073 72.7277 25.722C72.4463 25.5298 72.2232 25.2999 72.0584 25.0322L66.3647 16.1981V25.0322C66.3647 25.2999 66.2686 25.5298 66.0764 25.722C65.8911 25.9073 65.6646 26 65.3969 26H63.5847C63.3171 26 63.0871 25.9073 62.8949 25.722C62.7027 25.5298 62.6066 25.2999 62.6066 25.0322ZM82.6246 25.0116V12.1929C82.6246 11.9252 82.7207 11.6987 82.9129 11.5134C83.1051 11.3281 83.335 11.2354 83.6027 11.2354H95.4741C95.7418 11.2354 95.9683 11.3315 96.1537 11.5237C96.3459 11.7159 96.442 11.9458 96.442 12.2135V13.1814C96.442 13.4491 96.3459 13.679 96.1537 13.8712C95.9683 14.0565 95.7418 14.1492 95.4741 14.1492H86.5062V17.1454H94.2283C94.496 17.1454 94.7225 17.2415 94.9078 17.4336C95.1 17.619 95.1961 17.8455 95.1961 18.1132V19.081C95.1961 19.3487 95.1 19.5787 94.9078 19.7709C94.7225 19.9562 94.496 20.0489 94.2283 20.0489H86.5062V23.0862H95.4535C95.7144 23.0862 95.9375 23.1789 96.1228 23.3642C96.3081 23.5495 96.4008 23.776 96.4008 24.0437V25.0322C96.4008 25.2999 96.3047 25.5298 96.1125 25.722C95.9203 25.9073 95.6903 26 95.4226 26H83.6027C83.335 26 83.1051 25.9073 82.9129 25.722C82.7207 25.5298 82.6246 25.293 82.6246 25.0116ZM99.3787 26C99.0355 26 98.8433 25.8456 98.8021 25.5367C98.8021 25.3857 98.8742 25.2175 99.0183 25.0322L104.208 18.4118L99.3169 12.2135C99.1728 12.0351 99.1007 11.8669 99.1007 11.709C99.1007 11.3933 99.2895 11.2354 99.667 11.2354H101.881C102.567 11.2354 103.168 11.5614 103.682 12.2135L106.504 15.7966L109.325 12.2135C109.833 11.5683 110.433 11.2423 111.127 11.2354H113.34C113.718 11.2354 113.907 11.3933 113.907 11.709C113.907 11.86 113.834 12.0282 113.69 12.2135L108.8 18.4118L113.989 25.0322C114.133 25.2106 114.205 25.3548 114.205 25.4646C114.205 25.5744 114.191 25.6534 114.164 25.7014C114.088 25.9005 113.91 26 113.629 26H111.435C110.749 26 110.152 25.6774 109.644 25.0322L106.504 21.027L103.363 25.0322C102.855 25.6774 102.258 26 101.572 26H99.3787ZM116.349 13.1814V12.2135C116.349 11.9321 116.442 11.6987 116.627 11.5134C116.812 11.3281 117.046 11.2354 117.327 11.2354H130.393C130.674 11.2354 130.908 11.3281 131.093 11.5134C131.278 11.6987 131.371 11.9321 131.371 12.2135V13.1814C131.371 13.4628 131.278 13.6962 131.093 13.8815C130.908 14.06 130.674 14.1492 130.393 14.1492H125.801V25.0528C125.801 25.3205 125.705 25.547 125.513 25.7323C125.327 25.9108 125.101 26 124.833 26H122.887C122.619 26 122.389 25.9108 122.197 25.7323C122.012 25.547 121.919 25.3205 121.919 25.0528V14.1492H117.327C117.046 14.1492 116.812 14.06 116.627 13.8815C116.442 13.6962 116.349 13.4628 116.349 13.1814ZM133.741 22.2213C133.741 21.8164 133.862 21.5281 134.102 21.3565C134.342 21.178 134.575 21.0888 134.802 21.0888H136.027C136.645 21.0888 137.115 21.4251 137.438 22.0978C137.76 22.7705 138.485 23.1068 139.61 23.1068L143.214 23.1789C144.422 23.1789 145.026 22.7842 145.026 21.9948C145.026 21.3976 144.288 20.9275 142.812 20.5843C142.153 20.4264 141.426 20.2719 140.63 20.1209C139.833 19.9631 139.041 19.7674 138.251 19.534C137.469 19.3007 136.748 19.0261 136.089 18.7104C135.43 18.3946 134.895 17.9622 134.483 17.4131C134.078 16.8571 133.875 16.205 133.875 15.4568C133.875 14.0771 134.366 13.0166 135.348 12.2753C136.329 11.5271 138.018 11.153 140.413 11.153L143.029 11.2148C144.436 11.2148 145.702 11.5786 146.828 12.3062C147.96 13.0269 148.527 13.9295 148.527 15.0141C148.527 15.419 148.407 15.7108 148.166 15.8892C147.926 16.0677 147.696 16.1569 147.476 16.1569H146.251C145.633 16.1569 145.163 15.8206 144.841 15.1479C144.518 14.4684 143.794 14.1286 142.668 14.1286L139.569 14.0668C138.361 14.0668 137.757 14.4615 137.757 15.2509C137.757 15.6833 138.138 16.0368 138.9 16.3114C139.669 16.5859 140.595 16.8296 141.68 17.0424C142.771 17.2483 143.866 17.4989 144.964 17.794C146.062 18.0892 146.993 18.5765 147.754 19.2561C148.523 19.9287 148.908 20.7696 148.908 21.7786C148.908 23.1583 148.413 24.2222 147.425 24.9704C146.443 25.7117 144.758 26.0824 142.37 26.0824L139.25 26.0206C137.843 26.0206 136.573 25.6602 135.44 24.9395C134.308 24.2119 133.741 23.3059 133.741 22.2213ZM151.175 13.1814V12.2135C151.175 11.9321 151.268 11.6987 151.453 11.5134C151.638 11.3281 151.872 11.2354 152.153 11.2354H165.219C165.5 11.2354 165.734 11.3281 165.919 11.5134C166.104 11.6987 166.197 11.9321 166.197 12.2135V13.1814C166.197 13.4628 166.104 13.6962 165.919 13.8815C165.734 14.06 165.5 14.1492 165.219 14.1492H160.627V25.0528C160.627 25.3205 160.531 25.547 160.339 25.7323C160.153 25.9108 159.927 26 159.659 26H157.713C157.445 26 157.216 25.9108 157.023 25.7323C156.838 25.547 156.745 25.3205 156.745 25.0528V14.1492H152.153C151.872 14.1492 151.638 14.06 151.453 13.8815C151.268 13.6962 151.175 13.4628 151.175 13.1814ZM169.618 25.0116V12.1929C169.618 11.9252 169.714 11.6987 169.906 11.5134C170.098 11.3281 170.328 11.2354 170.596 11.2354H182.467C182.735 11.2354 182.962 11.3315 183.147 11.5237C183.339 11.7159 183.435 11.9458 183.435 12.2135V13.1814C183.435 13.4491 183.339 13.679 183.147 13.8712C182.962 14.0565 182.735 14.1492 182.467 14.1492H173.499V17.1454H181.222C181.489 17.1454 181.716 17.2415 181.901 17.4336C182.093 17.619 182.189 17.8455 182.189 18.1132V19.081C182.189 19.3487 182.093 19.5787 181.901 19.7709C181.716 19.9562 181.489 20.0489 181.222 20.0489H173.499V23.0862H182.447C182.708 23.0862 182.931 23.1789 183.116 23.3642C183.301 23.5495 183.394 23.776 183.394 24.0437V25.0322C183.394 25.2999 183.298 25.5298 183.106 25.722C182.914 25.9073 182.684 26 182.416 26H170.596C170.328 26 170.098 25.9073 169.906 25.722C169.714 25.5298 169.618 25.293 169.618 25.0116ZM187.062 25.0322V12.2135C187.062 11.9458 187.154 11.7159 187.34 11.5237C187.525 11.3315 187.752 11.2354 188.019 11.2354H195.875C200.028 11.2354 202.104 13.1505 202.104 16.9806C202.104 20.8039 200.028 22.7155 195.875 22.7155H190.943V25.0322C190.943 25.2999 190.847 25.5298 190.655 25.722C190.47 25.9073 190.243 26 189.976 26H188.04C187.772 26 187.542 25.9073 187.35 25.722C187.158 25.5298 187.062 25.2999 187.062 25.0322ZM190.943 19.8017H194.701C195.855 19.8017 196.73 19.6096 197.327 19.2252C197.924 18.8339 198.223 18.0857 198.223 16.9806C198.223 15.8686 197.924 15.1205 197.327 14.7361C196.73 14.3448 195.855 14.1492 194.701 14.1492H190.943V19.8017ZM204.897 22.2213C204.897 21.8164 205.017 21.5281 205.257 21.3565C205.498 21.178 205.731 21.0888 205.957 21.0888H207.183C207.8 21.0888 208.271 21.4251 208.593 22.0978C208.916 22.7705 209.64 23.1068 210.766 23.1068L214.369 23.1789C215.577 23.1789 216.181 22.7842 216.181 21.9948C216.181 21.3976 215.444 20.9275 213.968 20.5843C213.309 20.4264 212.581 20.2719 211.785 20.1209C210.989 19.9631 210.196 19.7674 209.407 19.534C208.624 19.3007 207.903 19.0261 207.244 18.7104C206.586 18.3946 206.05 17.9622 205.638 17.4131C205.233 16.8571 205.031 16.205 205.031 15.4568C205.031 14.0771 205.522 13.0166 206.503 12.2753C207.485 11.5271 209.173 11.153 211.569 11.153L214.184 11.2148C215.591 11.2148 216.858 11.5786 217.983 12.3062C219.116 13.0269 219.682 13.9295 219.682 15.0141C219.682 15.419 219.562 15.7108 219.322 15.8892C219.082 16.0677 218.852 16.1569 218.632 16.1569H217.407C216.789 16.1569 216.319 15.8206 215.996 15.1479C215.674 14.4684 214.949 14.1286 213.824 14.1286L210.725 14.0668C209.516 14.0668 208.912 14.4615 208.912 15.2509C208.912 15.6833 209.293 16.0368 210.055 16.3114C210.824 16.5859 211.751 16.8296 212.835 17.0424C213.927 17.2483 215.021 17.4989 216.12 17.794C217.218 18.0892 218.148 18.5765 218.91 19.2561C219.679 19.9287 220.063 20.7696 220.063 21.7786C220.063 23.1583 219.569 24.2222 218.58 24.9704C217.599 25.7117 215.914 26.0824 213.525 26.0824L210.405 26.0206C208.998 26.0206 207.728 25.6602 206.596 24.9395C205.463 24.2119 204.897 23.3059 204.897 22.2213Z" fill="#26262E"/>
<path d="M12.5955 6.0247C12.5955 4.36103 13.9442 3.01236 15.6079 3.01236H43.0537C44.7173 3.01236 46.066 4.36103 46.066 6.0247V29.438C46.066 31.5469 43.9549 33.003 41.9836 32.2539L14.5378 21.8245C13.3685 21.3802 12.5955 20.2595 12.5955 19.0086V6.0247Z" fill="#9E2630"/>
<path d="M33.6819 37.6543C33.6819 39.318 32.3333 40.6667 30.6696 40.6667H3.22379C1.56012 40.6667 0.211448 39.318 0.211448 37.6543V14.241C0.211448 12.1322 2.32252 10.676 4.29383 11.4251L31.7396 21.8545C32.9089 22.2988 33.6819 23.4195 33.6819 24.6704V37.6543Z" fill="#C52D3A"/>
</svg>