<svg width="105" height="11" viewBox="0 0 105 11" fill="none" xmlns="http://www.w3.org/2000/svg">
<path d="M0.42627 9.35742V0.84668C0.42627 0.668945 0.487793 0.516276 0.61084 0.388672C0.733887 0.261068 0.884277 0.197266 1.06201 0.197266H3.07178C3.23128 0.197266 3.3999 0.261068 3.57764 0.388672C3.75537 0.516276 3.9012 0.668945 4.01514 0.84668L8.14404 7.19727V0.833008C8.14404 0.655273 8.20557 0.504883 8.32861 0.381836C8.45622 0.258789 8.60889 0.197266 8.78662 0.197266H9.9624C10.1401 0.197266 10.2905 0.258789 10.4136 0.381836C10.5412 0.504883 10.605 0.659831 10.605 0.84668V9.35742C10.605 9.53516 10.5412 9.68783 10.4136 9.81543C10.2905 9.93848 10.1401 10 9.9624 10H7.69287C7.51514 10 7.33285 9.93848 7.146 9.81543C6.95915 9.68783 6.81104 9.53516 6.70166 9.35742L2.92139 3.49219V9.35742C2.92139 9.53516 2.85758 9.68783 2.72998 9.81543C2.60693 9.93848 2.45654 10 2.27881 10H1.07568C0.897949 10 0.74528 9.93848 0.617676 9.81543C0.490072 9.68783 0.42627 9.53516 0.42627 9.35742ZM13.7169 9.34375V0.833008C13.7169 0.655273 13.7807 0.504883 13.9083 0.381836C14.0359 0.258789 14.1886 0.197266 14.3663 0.197266H22.2481C22.4259 0.197266 22.5763 0.261068 22.6993 0.388672C22.8269 0.516276 22.8907 0.668945 22.8907 0.84668V1.48926C22.8907 1.66699 22.8269 1.81966 22.6993 1.94727C22.5763 2.07031 22.4259 2.13184 22.2481 2.13184H16.294V4.12109H21.421C21.5987 4.12109 21.7491 4.1849 21.8722 4.3125C21.9998 4.43555 22.0636 4.58594 22.0636 4.76367V5.40625C22.0636 5.58398 21.9998 5.73665 21.8722 5.86426C21.7491 5.9873 21.5987 6.04883 21.421 6.04883H16.294V8.06543H22.2345C22.4076 8.06543 22.5558 8.12695 22.6788 8.25C22.8019 8.37305 22.8634 8.52344 22.8634 8.70117V9.35742C22.8634 9.53516 22.7996 9.68783 22.672 9.81543C22.5444 9.93848 22.3917 10 22.214 10H14.3663C14.1886 10 14.0359 9.93848 13.9083 9.81543C13.7807 9.68783 13.7169 9.5306 13.7169 9.34375ZM24.8405 10C24.6127 10 24.4851 9.89746 24.4577 9.69238C24.4577 9.59212 24.5056 9.48047 24.6013 9.35742L28.0466 4.96191L24.7995 0.84668C24.7038 0.72819 24.656 0.616536 24.656 0.511719C24.656 0.302083 24.7813 0.197266 25.0319 0.197266H26.5017C26.9574 0.197266 27.3562 0.413737 27.6979 0.84668L29.571 3.22559L31.444 0.84668C31.7813 0.418294 32.18 0.201823 32.6403 0.197266H34.1101C34.3607 0.197266 34.486 0.302083 34.486 0.511719C34.486 0.611979 34.4382 0.723633 34.3425 0.84668L31.0954 4.96191L34.5407 9.35742C34.6364 9.47591 34.6843 9.57161 34.6843 9.64453C34.6843 9.71745 34.6752 9.76986 34.6569 9.80176C34.6068 9.93392 34.4883 10 34.3015 10H32.8454C32.3897 10 31.9932 9.78581 31.656 9.35742L29.571 6.69824L27.486 9.35742C27.1488 9.78581 26.7523 10 26.2966 10H24.8405ZM36.1077 1.48926V0.84668C36.1077 0.659831 36.1692 0.504883 36.2923 0.381836C36.4153 0.258789 36.5703 0.197266 36.7571 0.197266H45.4319C45.6188 0.197266 45.7737 0.258789 45.8968 0.381836C46.0198 0.504883 46.0813 0.659831 46.0813 0.84668V1.48926C46.0813 1.67611 46.0198 1.83105 45.8968 1.9541C45.7737 2.07259 45.6188 2.13184 45.4319 2.13184H42.3831V9.37109C42.3831 9.54883 42.3193 9.69922 42.1917 9.82227C42.0687 9.94076 41.9183 10 41.7405 10H40.4485C40.2708 10 40.1181 9.94076 39.9905 9.82227C39.8675 9.69922 39.806 9.54883 39.806 9.37109V2.13184H36.7571C36.5703 2.13184 36.4153 2.07259 36.2923 1.9541C36.1692 1.83105 36.1077 1.67611 36.1077 1.48926ZM47.6552 7.49121C47.6552 7.22233 47.7349 7.03092 47.8944 6.91699C48.0539 6.7985 48.2089 6.73926 48.3593 6.73926H49.1728C49.5829 6.73926 49.8951 6.96257 50.1093 7.40918C50.3235 7.85579 50.8043 8.0791 51.5517 8.0791L53.9442 8.12695C54.7463 8.12695 55.1474 7.86491 55.1474 7.34082C55.1474 6.94434 54.6575 6.63216 53.6776 6.4043C53.2401 6.29948 52.7571 6.19694 52.2284 6.09668C51.6998 5.99186 51.1734 5.86198 50.6493 5.70703C50.1298 5.55208 49.6513 5.36979 49.2138 5.16016C48.7763 4.95052 48.4208 4.66341 48.1474 4.29883C47.8785 3.92969 47.744 3.49674 47.744 3C47.744 2.08398 48.0699 1.37988 48.7216 0.887695C49.3733 0.390951 50.4944 0.142578 52.0849 0.142578L53.8212 0.183594C54.7554 0.183594 55.5963 0.42513 56.3437 0.908203C57.0956 1.38672 57.4716 1.986 57.4716 2.70605C57.4716 2.97493 57.3918 3.16862 57.2323 3.28711C57.0728 3.4056 56.9201 3.46484 56.7743 3.46484H55.9608C55.5507 3.46484 55.2385 3.24154 55.0243 2.79492C54.8101 2.34375 54.3293 2.11816 53.5819 2.11816L51.5243 2.07715C50.7222 2.07715 50.3212 2.33919 50.3212 2.86328C50.3212 3.15039 50.5741 3.38509 51.08 3.56738C51.5904 3.74967 52.2056 3.91146 52.9257 4.05273C53.6503 4.18945 54.3772 4.35579 55.1063 4.55176C55.8355 4.74772 56.453 5.07129 56.9589 5.52246C57.4693 5.96908 57.7245 6.52734 57.7245 7.19727C57.7245 8.11328 57.3964 8.81966 56.7401 9.31641C56.0884 9.80859 54.9696 10.0547 53.3837 10.0547L51.3124 10.0137C50.3782 10.0137 49.5351 9.77441 48.7831 9.2959C48.0312 8.81283 47.6552 8.21126 47.6552 7.49121ZM59.23 1.48926V0.84668C59.23 0.659831 59.2915 0.504883 59.4146 0.381836C59.5376 0.258789 59.6925 0.197266 59.8794 0.197266H68.5542C68.741 0.197266 68.896 0.258789 69.019 0.381836C69.1421 0.504883 69.2036 0.659831 69.2036 0.84668V1.48926C69.2036 1.67611 69.1421 1.83105 69.019 1.9541C68.896 2.07259 68.741 2.13184 68.5542 2.13184H65.5054V9.37109C65.5054 9.54883 65.4416 9.69922 65.314 9.82227C65.1909 9.94076 65.0405 10 64.8628 10H63.5708C63.3931 10 63.2404 9.94076 63.1128 9.82227C62.9897 9.69922 62.9282 9.54883 62.9282 9.37109V2.13184H59.8794C59.6925 2.13184 59.5376 2.07259 59.4146 1.9541C59.2915 1.83105 59.23 1.67611 59.23 1.48926ZM71.4747 9.34375V0.833008C71.4747 0.655273 71.5385 0.504883 71.6661 0.381836C71.7937 0.258789 71.9464 0.197266 72.1241 0.197266H80.006C80.1837 0.197266 80.3341 0.261068 80.4571 0.388672C80.5847 0.516276 80.6485 0.668945 80.6485 0.84668V1.48926C80.6485 1.66699 80.5847 1.81966 80.4571 1.94727C80.3341 2.07031 80.1837 2.13184 80.006 2.13184H74.0519V4.12109H79.1788C79.3565 4.12109 79.5069 4.1849 79.63 4.3125C79.7576 4.43555 79.8214 4.58594 79.8214 4.76367V5.40625C79.8214 5.58398 79.7576 5.73665 79.63 5.86426C79.5069 5.9873 79.3565 6.04883 79.1788 6.04883H74.0519V8.06543H79.9923C80.1655 8.06543 80.3136 8.12695 80.4366 8.25C80.5597 8.37305 80.6212 8.52344 80.6212 8.70117V9.35742C80.6212 9.53516 80.5574 9.68783 80.4298 9.81543C80.3022 9.93848 80.1495 10 79.9718 10H72.1241C71.9464 10 71.7937 9.93848 71.6661 9.81543C71.5385 9.68783 71.4747 9.5306 71.4747 9.34375ZM83.0564 9.35742V0.84668C83.0564 0.668945 83.1179 0.516276 83.2409 0.388672C83.364 0.261068 83.5144 0.197266 83.6921 0.197266H88.9079C91.6651 0.197266 93.0437 1.46875 93.0437 4.01172C93.0437 6.55013 91.6651 7.81934 88.9079 7.81934H85.6335V9.35742C85.6335 9.53516 85.5697 9.68783 85.4421 9.81543C85.319 9.93848 85.1687 10 84.9909 10H83.7058C83.528 10 83.3754 9.93848 83.2478 9.81543C83.1202 9.68783 83.0564 9.53516 83.0564 9.35742ZM85.6335 5.88477H88.1286C88.8942 5.88477 89.4753 5.75716 89.8718 5.50195C90.2683 5.24219 90.4665 4.74544 90.4665 4.01172C90.4665 3.27344 90.2683 2.77669 89.8718 2.52148C89.4753 2.26172 88.8942 2.13184 88.1286 2.13184H85.6335V5.88477ZM94.8978 7.49121C94.8978 7.22233 94.9775 7.03092 95.137 6.91699C95.2965 6.7985 95.4515 6.73926 95.6019 6.73926H96.4153C96.8255 6.73926 97.1377 6.96257 97.3519 7.40918C97.566 7.85579 98.0468 8.0791 98.7942 8.0791L101.187 8.12695C101.989 8.12695 102.39 7.86491 102.39 7.34082C102.39 6.94434 101.9 6.63216 100.92 6.4043C100.483 6.29948 99.9996 6.19694 99.471 6.09668C98.9423 5.99186 98.416 5.86198 97.8919 5.70703C97.3724 5.55208 96.8938 5.36979 96.4563 5.16016C96.0188 4.95052 95.6634 4.66341 95.3899 4.29883C95.1211 3.92969 94.9866 3.49674 94.9866 3C94.9866 2.08398 95.3125 1.37988 95.9642 0.887695C96.6158 0.390951 97.7369 0.142578 99.3274 0.142578L101.064 0.183594C101.998 0.183594 102.839 0.42513 103.586 0.908203C104.338 1.38672 104.714 1.986 104.714 2.70605C104.714 2.97493 104.634 3.16862 104.475 3.28711C104.315 3.4056 104.163 3.46484 104.017 3.46484H103.203C102.793 3.46484 102.481 3.24154 102.267 2.79492C102.053 2.34375 101.572 2.11816 100.825 2.11816L98.7669 2.07715C97.9648 2.07715 97.5638 2.33919 97.5638 2.86328C97.5638 3.15039 97.8167 3.38509 98.3226 3.56738C98.833 3.74967 99.4482 3.91146 100.168 4.05273C100.893 4.18945 101.62 4.35579 102.349 4.55176C103.078 4.74772 103.696 5.07129 104.201 5.52246C104.712 5.96908 104.967 6.52734 104.967 7.19727C104.967 8.11328 104.639 8.81966 103.983 9.31641C103.331 9.80859 102.212 10.0547 100.626 10.0547L98.555 10.0137C97.6207 10.0137 96.7776 9.77441 96.0257 9.2959C95.2737 8.81283 94.8978 8.21126 94.8978 7.49121Z" fill="white"/>
</svg>
