<svg width="384" height="247" viewBox="0 0 384 247" fill="none" xmlns="http://www.w3.org/2000/svg">
<path d="M166.546 92C190.294 92 209.546 72.7483 209.546 49C209.546 25.2518 190.294 6 166.546 6C142.798 6 123.546 25.2518 123.546 49C123.546 72.7483 142.798 92 166.546 92Z" fill="#EFEFEF"/>
<g opacity="0.7">
<path d="M302.397 46.697L302.397 48.417" stroke="#C52D3A" stroke-linecap="round" stroke-linejoin="round"/>
<path d="M302.397 51.8564L302.397 72.5819C302.397 75.5918 299.921 77.9998 296.826 77.9998L264.995 77.9998" stroke="#C52D3A" stroke-linecap="round" stroke-linejoin="round" stroke-dasharray="3.99 3.99"/>
<path d="M263.314 77.9128L261.546 77.9128" stroke="#C52D3A" stroke-linecap="round" stroke-linejoin="round"/>
<path d="M301.424 44.032C301.424 44.6019 301.899 45.0639 302.485 45.0639C303.071 45.0639 303.546 44.6019 303.546 44.032C303.546 43.462 303.071 43 302.485 43C301.899 43 301.424 43.462 301.424 44.032Z" stroke="#C52D3A" stroke-miterlimit="10"/>
</g>
<g opacity="0.7">
<path d="M81.2129 75L81.2129 73.5669" stroke="#C52D3A" stroke-linecap="round" stroke-linejoin="round"/>
<path d="M81.2129 70.7017L81.2129 53.4329C81.2129 50.925 83.4817 48.9187 86.3176 48.9187L115.488 48.9187" stroke="#C52D3A" stroke-linecap="round" stroke-linejoin="round" stroke-dasharray="3.99 3.99"/>
<path d="M117.027 48.9895L118.648 48.9895" stroke="#C52D3A" stroke-linecap="round" stroke-linejoin="round"/>
<path d="M122.546 48.9161C122.546 48.4099 122.047 47.9996 121.432 47.9996C120.817 47.9996 120.318 48.4099 120.318 48.9161C120.318 49.4222 120.817 49.8325 121.432 49.8325C122.047 49.8325 122.546 49.4222 122.546 48.9161Z" stroke="#C52D3A" stroke-miterlimit="10"/>
</g>
<g opacity="0.7">
<path d="M223.879 42.3457L223.879 41.0296" stroke="#C52D3A" stroke-linecap="round" stroke-linejoin="round"/>
<path d="M223.879 38.3979L223.879 22.5392C223.879 20.236 226.715 18.3935 230.26 18.3935L266.723 18.3935" stroke="#C52D3A" stroke-linecap="round" stroke-linejoin="round" stroke-dasharray="3.99 3.99"/>
<path d="M268.647 18.459L270.673 18.459" stroke="#C52D3A" stroke-linecap="round" stroke-linejoin="round"/>
<path d="M218.331 52.8383C218.331 52.2604 217.708 51.7919 216.939 51.7919C216.169 51.7919 215.546 52.2604 215.546 52.8383C215.546 53.4163 216.169 53.8848 216.939 53.8848C217.708 53.8848 218.331 53.4163 218.331 52.8383Z" stroke="#C52D3A" stroke-miterlimit="10"/>
<path d="M275.546 18.3925C275.546 17.8146 274.923 17.3461 274.153 17.3461C273.384 17.3461 272.761 17.8146 272.761 18.3925C272.761 18.9705 273.384 19.439 274.153 19.439C274.923 19.439 275.546 18.9705 275.546 18.3925Z" stroke="#C52D3A" stroke-miterlimit="10"/>
</g>
<path d="M296.5 42.5696C308.073 42.5696 317.454 33.264 317.454 21.7848C317.454 10.3057 308.073 1 296.5 1C284.927 1 275.546 10.3057 275.546 21.7848C275.546 33.264 284.927 42.5696 296.5 42.5696Z" fill="#DCDDE5"/>
<path d="M307.762 39.3652C304.532 41.4125 300.673 42.6142 296.5 42.6142C284.924 42.6142 275.546 33.3122 275.546 21.8294C275.546 16.8446 277.341 12.2604 280.302 8.65527" stroke="#26262E" stroke-miterlimit="10" stroke-linecap="round" stroke-linejoin="round"/>
<path d="M290.577 1.84564C292.462 1.31155 294.436 1 296.5 1C308.076 1 317.454 10.302 317.454 21.7848C317.454 26.5916 315.794 30.9978 313.057 34.5139" stroke="#26262E" stroke-miterlimit="10" stroke-linecap="round" stroke-linejoin="round"/>
<path d="M282.59 6.25392C283.757 5.23026 285.013 4.34012 286.359 3.5835" stroke="#26262E" stroke-miterlimit="10" stroke-linecap="round" stroke-linejoin="round"/>
<path d="M315.569 21.7856C315.569 29.5744 310.813 36.295 303.993 39.1879C301.705 40.1671 299.147 40.7012 296.5 40.7012C293.852 40.7012 291.295 40.1671 289.006 39.1879C282.231 36.295 277.43 29.5744 277.43 21.7856C277.43 13.9969 282.186 7.27632 289.006 4.38336C291.295 3.4042 293.852 2.87012 296.5 2.87012C299.147 2.87012 301.705 3.4042 303.993 4.38336C310.813 7.27632 315.569 13.9969 315.569 21.7856Z" fill="white"/>
<path d="M314.134 28.1506H310.409C310.813 26.1033 311.038 24.0114 311.038 21.8306C311.038 19.6497 310.813 17.5579 310.409 15.5551H314.134C314.627 15.5551 315.031 15.1545 315.031 14.665C315.031 14.1754 314.627 13.7748 314.134 13.7748H310.006C308.929 9.76917 307.089 6.29762 304.621 3.80522C304.262 3.44916 303.903 3.00409 303.544 2.60352C303.23 2.20296 302.692 2.15845 302.288 2.47C301.884 2.78155 301.839 3.31564 302.153 3.7162C302.512 4.20578 302.916 4.65085 303.365 5.05142C305.519 7.18776 307.179 10.2142 308.166 13.7303H297.397V2.15845C297.397 1.66887 296.993 1.26831 296.5 1.26831C296.006 1.26831 295.602 1.66887 295.602 2.15845V13.7303H284.834C285.821 10.2142 287.481 7.18776 289.635 5.00691C289.949 4.69536 290.263 4.3393 290.577 3.98325C290.891 3.62719 290.846 3.0486 290.442 2.73705C290.083 2.4255 289.5 2.47 289.186 2.87057C288.917 3.18212 288.648 3.49367 288.334 3.76071C285.866 6.2086 284.026 9.72466 282.949 13.7303H278.866C278.373 13.7303 277.969 14.1309 277.969 14.6204C277.969 15.11 278.373 15.5106 278.866 15.5106H282.59C282.186 17.5134 281.962 19.6498 281.962 21.7861C281.962 23.9669 282.186 26.1033 282.59 28.1061H278.866C278.373 28.1061 277.969 28.5067 277.969 28.9962C277.969 29.4858 278.373 29.8864 278.866 29.8864H282.994C284.071 33.8475 285.911 37.3191 288.378 39.767C288.872 40.2565 289.276 40.7461 289.68 41.2802C289.859 41.5028 290.128 41.6363 290.398 41.6363C290.577 41.6363 290.757 41.5918 290.936 41.4582C291.34 41.1467 291.43 40.6126 291.115 40.212C290.667 39.6334 290.173 39.0549 289.635 38.5208C287.481 36.3844 285.866 33.3579 284.834 29.8864H295.558V41.3692C295.558 41.8588 295.961 42.2594 296.455 42.2594C296.949 42.2594 297.352 41.8588 297.352 41.3692V29.9309H308.076C307.089 33.4025 305.429 36.4289 303.275 38.5653C302.737 39.0994 302.288 39.6334 301.839 40.212C301.525 40.6126 301.615 41.1467 302.019 41.4582C302.198 41.5918 303.006 40.9242 303.185 40.9242C303.455 40.9242 303.589 40.2565 303.769 40.034C304.172 39.4999 304.083 40.3011 304.576 39.8115C307.044 37.3636 308.884 33.892 309.961 29.9309H314.089C314.582 29.9309 314.986 29.5303 314.986 29.0408C314.986 28.5512 314.627 28.1506 314.134 28.1506ZM284.43 28.1506C283.981 26.1478 283.757 24.0114 283.757 21.8306C283.757 19.6497 283.981 17.5579 284.43 15.5551H295.647V28.1951H284.43V28.1506ZM309.243 21.7861C309.243 23.9669 309.018 26.1033 308.57 28.1061H297.397V15.5106H308.615C308.884 16.6678 309.063 17.8695 309.153 19.0712" fill="#DCDDE5"/>
<path d="M261.962 89.0924C261.962 99.9631 258.301 109.968 252.232 118.049C248.86 122.378 244.814 126.226 240.19 129.208C232.675 134.114 223.716 137 214.082 137C187.59 137 166.203 115.548 166.203 89.1886C166.203 62.7335 187.686 41.377 214.082 41.377C223.716 41.377 232.675 44.263 240.19 49.073C244.814 52.0552 248.86 55.9032 252.232 60.2323C258.397 68.2169 261.962 78.2218 261.962 89.0924Z" fill="#EFEFEF"/>
<path d="M137.429 25.0212V17.8271C137.429 16.0487 138.88 14.5938 140.653 14.5938H177.897L194.584 32.9428L195.229 85.8074C195.229 87.5857 193.778 89.0407 192.005 89.0407H140.653C138.88 89.0407 137.429 87.5857 137.429 85.8074V33.347" fill="white"/>
<path d="M137.429 25.0212V17.8271C137.429 16.0487 138.88 14.5938 140.653 14.5938H177.897L194.584 32.9428L195.229 85.8074C195.229 87.5857 193.778 89.0407 192.005 89.0407H140.653C138.88 89.0407 137.429 87.5857 137.429 85.8074V33.347" stroke="#26262E" stroke-miterlimit="10" stroke-linecap="round" stroke-linejoin="round"/>
<path d="M162.419 78.5329H160.565C160.162 78.5329 159.839 78.2095 159.839 77.8054C159.839 77.4012 160.162 77.0779 160.565 77.0779H162.419C162.822 77.0779 163.145 77.4012 163.145 77.8054C163.145 78.2095 162.822 78.5329 162.419 78.5329Z" fill="#DEDFE0"/>
<path d="M157.18 78.5329H146.297C145.894 78.5329 145.571 78.2095 145.571 77.8054C145.571 77.4012 145.894 77.0779 146.297 77.0779H157.18C157.583 77.0779 157.905 77.4012 157.905 77.8054C157.986 78.2095 157.663 78.5329 157.18 78.5329Z" fill="#DEDFE0"/>
<path d="M171.448 25.6681H146.861C146.297 25.6681 145.813 25.1831 145.813 24.6172C145.813 24.0514 146.297 23.5664 146.861 23.5664H171.448C172.013 23.5664 172.496 24.0514 172.496 24.6172C172.496 25.1831 172.013 25.6681 171.448 25.6681Z" fill="#DEDFE0"/>
<path d="M156.212 31.5687H146.861C146.297 31.5687 145.813 31.0837 145.813 30.5179C145.813 29.952 146.297 29.467 146.861 29.467H156.293C156.857 29.467 157.341 29.952 157.341 30.5179C157.341 31.0837 156.777 31.5687 156.212 31.5687Z" fill="#DEDFE0"/>
<path d="M177.897 21.3838V29.1437C177.897 31.1646 179.671 32.862 181.686 32.862H194.585" stroke="#26262E" stroke-miterlimit="10" stroke-linecap="round" stroke-linejoin="round"/>
<path d="M186.523 42.6436H173.705C173.705 42.6436 173.705 42.6436 173.625 42.6436C173.544 42.6436 173.625 42.6436 173.544 42.6436H160.323C160.323 42.6436 160.323 42.6436 160.243 42.6436C160.162 42.6436 160.243 42.6436 160.162 42.6436H147.748C146.377 42.6436 145.249 43.7752 145.249 45.2302V67.7017C145.249 69.0759 146.377 70.2884 147.748 70.2884H186.443C187.813 70.2884 188.942 69.1567 188.942 67.7017V45.2302C189.022 43.856 187.894 42.6436 186.523 42.6436ZM161.049 62.5284V57.5168H172.899V62.5284H161.049ZM172.899 64.0642V68.6717H161.049V64.0642H172.899ZM172.899 50.8885V55.9001H161.049V50.8885H172.899ZM161.049 49.3527V44.1794H172.899V49.3527H161.049ZM187.491 55.981H174.431V50.9693H187.491V55.981ZM159.517 55.981H146.78V50.9693H159.437V55.981H159.517ZM146.78 57.5168H159.437V62.5284H146.78V57.5168ZM174.431 57.5168H187.491V62.5284H174.431V57.5168ZM187.491 45.2302V49.3527H174.431V44.1794H186.523C187.007 44.1794 187.491 44.6644 187.491 45.2302ZM147.748 44.1794H159.437V49.3527H146.78V45.2302C146.78 44.6644 147.264 44.1794 147.748 44.1794ZM146.78 67.7017V64.0642H159.437V68.6717H147.748C147.264 68.6717 146.78 68.2675 146.78 67.7017ZM186.523 68.6717H174.431V64.0642H187.491V67.7017C187.491 68.2675 187.007 68.6717 186.523 68.6717Z" fill="#DEDFE0"/>
<path d="M150.085 55.8185H128.561C127.433 55.8185 126.546 54.9294 126.546 53.7977V43.9361C126.546 42.8044 127.433 41.9153 128.561 41.9153H150.085C151.214 41.9153 152.101 42.8044 152.101 43.9361V53.7169C152.101 54.8485 151.214 55.8185 150.085 55.8185Z" fill="#26262E"/>
<path d="M132.592 48.7864L130.738 45.8765H132.189L133.479 47.9781L134.769 45.8765H136.139L134.204 48.7864L136.139 51.6964H134.769L133.479 49.5948L132.189 51.6964H130.818L132.592 48.7864Z" fill="white"/>
<path d="M141.299 51.7773H137.51V45.8765H138.719V50.8073H141.299V51.7773Z" fill="white"/>
<path d="M143.798 50.0798C143.878 50.5648 144.362 50.8881 145.007 50.8881C145.652 50.8881 146.135 50.5648 146.135 50.1606C146.135 49.7564 145.813 49.5948 145.168 49.4331L144.362 49.2714C143.233 49.0289 142.75 48.4631 142.75 47.6548C142.75 46.5231 143.717 45.8765 145.007 45.8765C146.377 45.8765 147.264 46.604 147.264 47.6548H146.135C146.055 47.1698 145.652 46.8465 145.007 46.8465C144.362 46.8465 143.959 47.1698 143.959 47.574C143.959 47.9781 144.281 48.1398 144.926 48.3014L145.652 48.4631C146.861 48.7056 147.345 49.1906 147.345 50.1606C147.345 51.2923 146.377 52.0198 144.926 52.0198C143.475 52.0198 142.588 51.3731 142.588 50.2414H143.798V50.0798Z" fill="white"/>
<path d="M252.232 60.1353V117.952C248.86 122.281 244.814 126.129 240.19 129.111H191.54V56.8645C191.636 54.7481 192.503 52.8241 193.852 51.4773C195.393 49.9381 197.416 49.0723 199.728 49.0723H240.19C244.814 52.0545 248.957 55.8063 252.232 60.1353Z" fill="#DEDFE0"/>
<path d="M243.465 59.3662H216.105V49.0728H252.039C252.136 49.0728 252.232 49.0728 252.232 49.0728C257.82 49.169 262.347 53.7866 262.347 59.4624H250.498" fill="#DEDFE0"/>
<path d="M253.003 49.0728C250.883 49.169 248.957 50.131 247.512 51.4778C247.415 51.574 247.223 51.7664 247.126 51.9588C245.874 53.4018 245.007 55.3258 245.007 57.346V118.914C245.007 124.686 240.383 129.304 234.602 129.304H184.122V56.865C184.218 54.7486 185.085 52.8246 186.434 51.4778C187.975 49.9386 189.998 49.0728 192.31 49.0728H242.984H252.617C252.81 49.0728 252.906 49.0728 253.003 49.0728Z" fill="white"/>
<path d="M239.546 61.7081V65.7533C239.546 66.357 239.062 66.84 238.457 66.84H193.695C193.09 66.84 192.606 66.357 192.606 65.7533V61.7081C192.606 61.1043 193.09 60.6213 193.695 60.6213H238.457C239.062 60.5609 239.546 61.1043 239.546 61.7081Z" fill="#EFEFEF"/>
<path d="M198.897 60.5605V66.8397H193.635C193.03 66.8397 192.546 66.3566 192.546 65.7529V61.7077C192.546 61.1039 193.03 60.6209 193.635 60.6209H198.897V60.5605Z" fill="#DEDFE0"/>
<path d="M239.546 71.1475V75.1927C239.546 75.7965 239.062 76.2795 238.457 76.2795H193.695C193.09 76.2795 192.606 75.7965 192.606 75.1927V71.1475C192.606 70.5438 193.09 70.0608 193.695 70.0608H238.457C239.062 70.0004 239.546 70.5438 239.546 71.1475Z" fill="#EFEFEF"/>
<path d="M198.897 70V76.2791H193.635C193.03 76.2791 192.546 75.7961 192.546 75.1923V71.1471C192.546 70.5434 193.03 70.0604 193.635 70.0604H198.897V70Z" fill="#DEDFE0"/>
<path d="M239.546 80.587V84.6322C239.546 85.2359 239.062 85.7189 238.457 85.7189H193.695C193.09 85.7189 192.606 85.2359 192.606 84.6322V80.587C192.606 79.9832 193.09 79.5002 193.695 79.5002H238.457C239.062 79.4398 239.546 79.9832 239.546 80.587Z" fill="#EFEFEF"/>
<path d="M198.897 79.4395V85.7186H193.635C193.03 85.7186 192.546 85.2355 192.546 84.6318V80.5866C192.546 79.9828 193.03 79.4998 193.635 79.4998H198.897V79.4395Z" fill="#DEDFE0"/>
<path d="M239.546 90.0264V94.0716C239.546 94.6754 239.062 95.1584 238.457 95.1584H193.695C193.09 95.1584 192.606 94.6754 192.606 94.0716V90.0264C192.606 89.4227 193.09 88.9397 193.695 88.9397H238.457C239.062 88.8793 239.546 89.4227 239.546 90.0264Z" fill="#EFEFEF"/>
<path d="M198.897 88.8789V95.158H193.635C193.03 95.158 192.546 94.675 192.546 94.0712V90.0261C192.546 89.4223 193.03 88.9393 193.635 88.9393H198.897V88.8789Z" fill="#DEDFE0"/>
<path d="M239.546 99.4659V103.511C239.546 104.115 239.062 104.598 238.457 104.598H193.695C193.09 104.598 192.606 104.115 192.606 103.511V99.4659C192.606 98.8621 193.09 98.3791 193.695 98.3791H238.457C239.062 98.3187 239.546 98.8621 239.546 99.4659Z" fill="#EFEFEF"/>
<path d="M198.897 98.3184V104.597H193.635C193.03 104.597 192.546 104.114 192.546 103.511V99.4655C192.546 98.8617 193.03 98.3787 193.635 98.3787H198.897V98.3184Z" fill="#DEDFE0"/>
<path d="M239.546 108.905V112.951C239.546 113.554 239.062 114.037 238.457 114.037H193.695C193.09 114.037 192.606 113.554 192.606 112.951V108.905C192.606 108.302 193.09 107.819 193.695 107.819H238.457C239.062 107.758 239.546 108.302 239.546 108.905Z" fill="#EFEFEF"/>
<path d="M198.897 107.758V114.037H193.635C193.03 114.037 192.546 113.554 192.546 112.95V108.905C192.546 108.301 193.03 107.818 193.635 107.818H198.897V107.758Z" fill="#DEDFE0"/>
<path d="M253.002 49.0728C250.883 49.169 248.956 50.131 247.511 51.4778C247.415 51.574 247.222 51.7664 247.126 51.9588C245.873 53.4018 245.006 55.3258 245.006 57.346V118.914" stroke="#26262E" stroke-miterlimit="10" stroke-linecap="round" stroke-linejoin="round"/>
<path d="M212.445 121.031H225.739C225.739 123.243 226.606 125.36 228.148 126.803C229.593 128.246 231.616 129.208 233.928 129.208H173.91C171.694 129.208 169.575 128.342 168.13 126.803C166.685 125.36 165.721 123.34 165.721 121.031H205.123C205.219 121.031 212.541 121.127 212.445 121.031Z" fill="#DEDFE0"/>
<path d="M191.251 121.031H190.769" stroke="#26262E" stroke-miterlimit="10" stroke-linecap="round" stroke-linejoin="round"/>
<path d="M233.928 129.208C231.712 129.208 229.593 128.342 228.148 126.803C226.703 125.36 225.739 123.34 225.739 121.031H194.333" stroke="#26262E" stroke-miterlimit="10" stroke-linecap="round" stroke-linejoin="round"/>
<path d="M184.122 83.9937V121.127H165.721C165.721 123.34 166.588 125.456 168.13 126.899C169.575 128.342 171.694 129.304 173.91 129.304H233.928C233.928 129.304 233.928 129.304 233.832 129.304C240.768 129.304 244.814 124.302 244.814 118.914" stroke="#26262E" stroke-miterlimit="10" stroke-linecap="round" stroke-linejoin="round"/>
<path d="M249.535 59.3662C249.824 59.3662 263.046 59.3662 262.444 59.3662C262.444 59.3662 262.347 58.2118 262.347 58.0194C261.769 53.4018 258.398 49.65 253.581 49.0728C252.617 48.9766 191.347 48.9766 192.31 48.9766C188.168 48.9766 184.314 52.055 184.122 56.865V76.4899" stroke="#26262E" stroke-miterlimit="10" stroke-linecap="round" stroke-linejoin="round"/>
<path d="M123.034 103.824C122.63 104.229 122.327 104.634 121.924 104.938C117.379 109.191 111.32 111.723 104.555 111.723C99.2025 111.723 94.1534 110.102 90.0131 107.166C88.8013 106.356 87.6905 105.343 86.6807 104.33C87.1856 103.621 88.1954 103.115 90.2151 102.305L91.0229 102.001C92.5377 101.394 94.6583 100.583 97.3848 99.4695C97.7887 99.267 98.1927 99.0644 98.3946 98.6593C98.4956 98.4568 98.6976 98.2543 98.6976 98.0518C98.8996 97.748 98.8995 97.3429 98.8995 96.9378V91.7732C98.7986 91.672 98.7986 91.5707 98.6976 91.4694C98.2937 90.7606 97.9907 90.0517 97.8897 89.2416L97.4858 89.039C96.173 89.3428 96.274 87.9251 95.9711 85.1909C95.8701 84.077 95.9711 83.8745 96.476 83.6719L96.8799 83.0643C95.8701 80.8365 95.4661 79.0137 95.4661 77.3934C95.4661 74.8618 96.577 73.1402 98.0917 72.3301C97.3848 70.7098 97.2838 70.001 97.2838 70.001C97.2838 70.001 102.636 70.9124 104.454 70.5073C106.776 70.001 110.412 70.6086 111.724 73.7478C112.027 73.8491 112.229 73.9504 112.532 74.0516C114.249 74.963 114.855 76.1782 115.057 77.4947C115.36 79.9251 114.047 82.558 113.744 83.6719C113.744 83.6719 113.744 83.7732 113.845 83.7732C114.249 83.9757 114.35 84.2795 114.148 85.2922C113.845 87.9251 113.946 89.4441 112.633 89.1403L111.421 91.1656C111.421 91.3682 111.32 91.4694 111.32 91.672C111.32 92.077 111.32 92.7859 111.32 97.0391C111.32 97.1404 111.32 97.3429 111.32 97.4442C111.32 97.8492 111.522 98.153 111.724 98.4568C111.825 98.5581 111.926 98.6594 112.027 98.7606C112.33 99.0644 112.633 99.267 113.037 99.4695C116.067 100.786 118.288 101.596 119.904 102.204C121.419 102.913 122.428 103.419 123.034 103.824Z" fill="#EFEFEF"/>
<path d="M125.457 111.418C120.913 115.671 111.32 111.823 104.554 111.823C99.2018 111.823 87.9928 116.077 83.8525 113.241C83.0446 112.633 84.0545 110.304 84.3574 109.596C84.8623 108.178 85.3672 106.76 86.0741 105.444C87.5889 102.507 94.5566 101.089 97.3842 99.5701C97.8891 99.2663 98.192 99.0638 98.394 98.76C101.726 103.418 108.593 103.418 111.926 98.8613C112.229 99.1651 112.532 99.3676 112.935 99.5701C113.036 99.5701 113.137 99.6714 113.238 99.6714C122.63 103.52 123.236 103.013 124.447 106.558C124.649 107.165 125.861 111.013 125.457 111.418Z" fill="white"/>
<path d="M125.457 111.418C120.913 115.671 111.32 111.823 104.554 111.823C99.2018 111.823 87.9928 116.076 83.8525 113.241C83.0446 112.633 84.0545 110.304 84.3574 109.595C84.8623 108.178 85.3672 106.76 86.0741 105.444C87.5889 102.507 94.5566 101.089 97.3842 99.5701C97.3842 99.5701 97.3842 99.5701 97.4851 99.5701C101.322 104.937 109.3 104.937 113.137 99.6713H113.238C122.63 103.519 123.236 103.013 124.447 106.557C124.649 107.165 125.861 111.013 125.457 111.418Z" fill="#AAACBB"/>
<path d="M113.745 83.671C113.846 83.0634 113.543 82.2532 113.341 81.6456C113.341 81.5444 113.24 81.4431 113.24 81.3418C112.23 79.3165 109.907 78.4051 107.787 78.3038C102.233 78 101.728 79.114 99.9101 77.4937C100.415 78.3038 100.516 79.6203 99.7081 81.2406C99.1022 82.3545 97.9914 82.8608 96.9816 83.1646C94.457 77.3924 95.6688 73.7469 98.1934 72.4304C97.3855 70.7089 97.2845 70 97.2845 70C97.2845 70 102.637 70.9114 104.454 70.5063C106.777 70 110.412 70.6076 111.725 73.7469C113.947 74.6583 114.855 76.076 115.057 77.595C115.461 80.0254 114.048 82.6583 113.745 83.671Z" fill="#444451"/>
<path d="M98.7959 91.2666C99.0988 91.7729 99.4018 92.178 99.9067 92.4818L103.946 95.3173C104.855 96.1274 106.269 96.1274 107.177 95.3173L108.591 94.0008" stroke="#444451" stroke-miterlimit="10" stroke-linecap="round" stroke-linejoin="round"/>
<path d="M125.457 111.419C125.861 111.014 124.75 107.166 124.548 106.66C123.337 103.014 123.438 103.925 113.036 99.571C112.128 99.2672 111.522 98.3558 111.421 97.5457C111.32 97.1407 111.32 92.2799 111.522 91.2672L112.733 89.2419C114.046 89.6469 113.945 88.0267 114.248 85.3938C114.349 84.3811 114.248 84.0773 113.945 83.8748C113.945 83.8748 113.945 83.7735 113.844 83.7735C114.248 81.9507 117.682 76.1785 111.825 73.8494C110.512 70.7101 106.877 70.2038 104.554 70.6089C102.736 71.0139 97.3841 70.1025 97.3841 70.1025C97.3841 70.1025 97.3841 70.8114 98.293 72.6342C94.6576 74.457 95.2635 79.3178 97.0812 83.3684L96.6773 83.976C96.1724 84.1786 95.9704 84.3811 96.1724 85.495C96.4753 88.2292 96.4753 89.6469 97.6871 89.3431L98.091 89.5457C98.192 90.6596 98.5959 91.2672 99.1008 92.0773C99.1008 96.8369 99.2018 97.647 98.8989 98.3558C98.091 100.28 91.2242 101.9 88.0938 103.622" stroke="#444451" stroke-miterlimit="10" stroke-linecap="round" stroke-linejoin="round"/>
<path d="M101.264 114.679C101.264 114.469 101.158 114.153 101.051 113.943C100.944 113.522 100.837 113.206 100.73 112.891C100.624 112.575 100.517 112.365 100.41 112.154C99.3421 109.945 97.6334 107.84 95.2841 106.683C94.1094 106.157 92.8279 105.736 91.4396 105.736C91.0125 105.736 90.6921 105.736 90.3717 105.736C89.4106 105.736 88.7699 105.631 88.4495 105.526C87.9155 105.421 87.8088 105.21 87.8088 105.21V101.317C89.0902 100.265 90.1581 99.2129 91.1192 97.9504C91.9736 96.6878 92.7211 95.32 93.0415 93.847C94.5365 93.5314 95.6044 92.1636 95.3908 90.5854C95.2841 89.8489 94.8569 89.3229 94.8569 88.5864C94.8569 88.2707 94.8569 87.8499 94.8569 87.5342C94.8569 87.3238 94.8569 87.1134 94.8569 86.7977C94.8569 86.5873 94.8569 86.3769 94.7501 86.0612C94.6433 85.2195 94.4297 84.2726 94.0026 83.2205C93.8958 82.9048 93.6822 82.5892 93.5754 82.2735C91.6532 78.6963 87.8088 76.2764 83.4304 76.2764C82.576 76.2764 81.7217 76.3816 80.8674 76.592C79.3723 76.9076 77.8773 77.6441 76.5958 78.5911C76.3822 78.8015 76.0619 79.0119 75.8483 79.2223C75.8483 79.2223 75.7415 79.3276 75.6347 79.3276C74.2464 80.5901 73.1785 82.1683 72.6446 83.957C72.0038 85.7456 71.897 87.5342 72.1106 89.4281V89.5333V89.6385C72.1106 89.9541 72.2174 89.9541 72.0038 90.1646C71.897 90.2698 71.897 90.375 71.7903 90.4802C71.4699 91.0063 71.2563 91.7428 71.5767 92.5845C72.1106 94.1627 73.2853 93.9523 74.46 94.8992C74.3532 94.8992 74.3532 95.0044 74.2464 95.0044L72.8582 95.5305C68.1594 97.0034 66.1304 100.686 67.3051 103.527C67.5187 103.842 67.6254 104.263 67.9458 104.579C68.8001 105.631 70.1884 106.473 72.2174 106.894C71.6835 106.894 71.1495 107.209 70.8291 107.525C68.4798 109.313 66.9847 112.154 66.5575 114.89C66.4508 115.731 67.0915 116.468 67.9458 116.468H99.7692C100.73 116.363 101.478 115.521 101.264 114.679ZM76.489 99.1077C76.8094 99.5286 77.1298 99.9494 77.5569 100.37C77.8773 100.686 78.1977 100.896 78.6248 101.212C78.8384 101.422 79.1588 101.528 79.3723 101.738L79.4791 101.843C79.5859 101.843 79.5859 101.948 79.6927 102.054V104.368L79.5859 104.263C79.3723 104.053 79.1588 103.842 78.9452 103.737C78.6248 103.527 78.1977 103.316 77.8773 103.106C77.7705 103.001 77.6637 103.001 77.5569 102.895C76.489 102.264 75.4211 101.528 75.4211 100.791C75.4211 100.265 75.7415 99.739 76.489 99.1077Z" fill="#EFEFEF"/>
<path d="M101.476 114.891C100.515 115.838 99.0195 115.628 97.9516 116.364H68.0504C67.3029 116.364 66.7689 115.838 66.6621 115.207C66.6621 115.102 66.6621 114.891 66.6621 114.786C67.0893 112.05 68.5843 109.315 70.9337 107.421C71.2541 107.105 71.788 106.895 72.322 106.79C70.293 106.369 68.9047 105.527 68.0504 104.475C67.73 104.159 67.6232 103.844 67.4096 103.423H74.9917L75.3121 103.844C77.0207 106.158 79.6905 107.526 82.5738 107.526C84.7096 107.526 86.8454 106.79 88.4473 105.422C88.7676 105.527 89.1948 105.527 89.8355 105.632C90.0491 105.632 90.1559 105.632 90.3695 105.632C90.6899 105.632 91.0102 105.632 91.4374 105.632C92.8257 105.632 94.1071 106.053 95.2818 106.579C97.6312 107.737 99.4466 109.841 100.408 112.05C100.515 112.261 100.621 112.576 100.728 112.787C100.835 113.208 101.369 114.575 101.476 114.891Z" fill="white"/>
<path d="M101.477 114.888C100.516 115.835 99.0208 115.624 97.9529 116.361H68.3721C67.7313 116.045 67.1974 115.624 66.5566 115.203C66.5566 115.098 66.5566 114.888 66.5566 114.783C66.9838 112.047 68.4789 109.312 70.8282 107.418C71.1486 107.102 71.6826 106.892 72.2165 106.786C70.1875 106.366 68.7992 105.524 67.9449 104.472H74.3523C76.1677 106.997 79.1579 108.575 82.4684 108.575C85.3517 108.575 87.8079 107.418 89.7301 105.524C89.9437 105.524 90.0504 105.524 90.264 105.524C90.5844 105.524 90.9048 105.524 91.3319 105.524C92.7202 105.524 94.0017 105.945 95.1764 106.471C97.5257 107.628 99.3412 109.732 100.302 111.942C100.409 112.152 100.516 112.468 100.623 112.678C100.836 113.204 101.37 114.572 101.477 114.888Z" fill="#E43343"/>
<path d="M94.6428 86.9027C92.507 87.6392 90.2644 87.8496 88.0218 87.7444C84.4977 87.4288 81.0804 86.061 78.4107 83.7463C77.6632 86.2714 75.4206 88.1653 72.9644 89.2174C72.644 89.3226 72.3237 89.5331 72.0033 89.6383V89.5331C71.7897 87.7444 71.8965 85.8506 72.5372 84.062C73.178 82.2733 74.1391 80.6951 75.5274 79.4326C75.6341 79.3273 75.6341 79.3273 75.7409 79.3273C75.9545 79.1169 76.2749 78.9065 76.4885 78.6961C77.7699 77.7491 79.1582 77.1179 80.7601 76.8022C81.6144 76.5918 82.4687 76.4866 83.323 76.4866C87.7014 76.4866 91.5459 78.9065 93.4681 82.4837C94.2156 83.8515 94.536 85.1141 94.6428 86.1662C94.6428 86.4819 94.6428 86.6923 94.6428 86.9027Z" fill="#444451"/>
<path d="M76.7018 102.265C77.5561 102.896 78.8376 103.422 79.5852 104.159C81.2938 105.106 82.7889 109.419 81.187 111.418C80.2259 112.576 78.5173 112.576 77.0222 112.576C78.624 111.103 77.6629 106.263 72.2166 106.789H72.1099C64.6345 105.421 65.4889 97.7407 72.7506 95.5312L73.9253 95.1104C74.0321 95.2156 74.0321 95.2156 74.1389 95.3208C74.6728 96.7938 75.5271 98.0563 76.3815 99.1085C74.7796 100.581 75.4203 101.423 76.7018 102.265Z" fill="#444451"/>
<path d="M79.7995 101.95C79.6927 101.95 79.6927 101.844 79.5859 101.844C81.081 102.581 82.8964 103.107 85.2458 102.371" stroke="#444451" stroke-miterlimit="10" stroke-linecap="round" stroke-linejoin="round"/>
<path d="M76.4877 99.1077C76.8081 99.5286 77.1284 99.9494 77.5556 100.37C77.876 100.686 78.1963 100.896 78.6235 101.212C78.8371 101.422 79.1574 101.528 79.371 101.738L79.4778 101.843C79.5846 101.843 79.5846 101.948 79.6914 102.054V104.368M66.663 114.574C66.663 114.679 66.663 114.679 66.663 114.785C66.5562 115.626 67.197 116.363 68.0513 116.363H99.8747C100.836 116.363 101.477 115.521 101.263 114.679C101.263 114.469 101.156 114.153 101.049 113.943C100.943 113.522 100.836 113.206 100.729 112.891C100.622 112.575 100.515 112.365 100.409 112.154C99.3408 109.945 97.6321 107.84 95.2827 106.683C94.108 106.157 92.8266 105.736 91.4383 105.736C91.0111 105.736 90.6908 105.736 90.3704 105.736C89.4093 105.736 88.7685 105.631 88.4482 105.526C87.9142 105.421 87.8074 105.21 87.8074 105.21V101.317C89.0889 100.265 90.1568 99.2129 91.1179 97.9504C91.9722 96.6878 92.7198 95.32 93.0401 93.847C94.5352 93.5314 95.6031 92.1636 95.3895 90.5854C95.2827 89.8489 94.8556 89.3229 94.8556 88.5864C94.8556 88.2707 94.8556 87.8499 94.8556 87.5342C94.8556 87.3238 94.8556 87.1134 94.8556 86.7977C94.8556 86.5873 94.8556 86.3769 94.7488 86.0612C94.642 85.2195 94.4284 84.2726 94.0013 83.2205C93.8945 82.9048 93.6809 82.5892 93.5741 82.2735C91.6519 78.6963 87.8074 76.2764 83.429 76.2764C82.5747 76.2764 81.7204 76.3816 80.8661 76.592C79.371 76.9076 77.876 77.6441 76.5945 78.5911C76.3809 78.8015 76.0605 79.0119 75.847 79.2223C75.847 79.2223 75.7402 79.3276 75.6334 79.3276C74.2451 80.5901 73.1772 82.1683 72.6433 83.957C72.0025 85.7456 71.8957 87.5342 72.1093 89.4281V89.5333V89.6385C72.1093 89.9541 72.2161 89.9541 72.0025 90.1646C71.8957 90.2698 71.8957 90.375 71.7889 90.4802C71.4686 91.0063 71.255 91.7428 71.5754 92.5845C72.1093 94.1627 73.284 93.9523 74.4587 94.8992C74.3519 94.8992 74.3519 95.0044 74.2451 95.0044L72.8568 95.5305C68.1581 97.0034 66.1291 100.686 67.3038 103.527C67.5173 103.842 67.6241 104.263 67.9445 104.579C68.7988 105.631 70.1871 106.473 72.2161 106.894C71.6821 106.894 71.1482 107.209 70.8278 107.525C69.8667 108.261 69.1192 109.103 68.4784 110.05L66.663 114.574Z" stroke="#444451" stroke-miterlimit="10" stroke-linecap="round" stroke-linejoin="round"/>
<g opacity="0.7">
<path d="M158.397 90.8037L158.397 91.9831" stroke="#C52D3A" stroke-linecap="round" stroke-linejoin="round"/>
<path d="M158.397 94.3418L158.397 108.554C158.397 110.617 156.285 112.269 153.645 112.269L126.489 112.269" stroke="#C52D3A" stroke-linecap="round" stroke-linejoin="round" stroke-dasharray="3.99 3.99"/>
<path d="M125.055 112.209L123.546 112.209" stroke="#C52D3A" stroke-linecap="round" stroke-linejoin="round"/>
<path d="M157.424 88.9762C157.424 89.367 157.899 89.6838 158.485 89.6838C159.071 89.6838 159.546 89.367 159.546 88.9762C159.546 88.5854 159.071 88.2686 158.485 88.2686C157.899 88.2686 157.424 88.5854 157.424 88.9762Z" stroke="#C52D3A" stroke-miterlimit="10"/>
</g>
<path d="M159.116 90.6158C159.976 90.3366 160.447 89.414 160.167 88.555C159.888 87.6961 158.964 87.2261 158.103 87.5052C157.243 87.7844 156.773 88.7071 157.052 89.566C157.332 90.425 158.256 90.895 159.116 90.6158Z" fill="#E43343"/>
<path d="M154.546 130.843H252.906" stroke="#DEDFE0" stroke-width="2" stroke-miterlimit="10" stroke-linecap="round" stroke-linejoin="round"/>
<path d="M274.522 128.869C274.431 129.14 274.431 129.502 274.341 129.773C274.069 130.767 273.798 131.671 273.345 132.484C271.263 137.093 267.279 140.527 262.48 141.882C262.209 141.972 261.937 142.063 261.756 142.063C259.312 142.696 256.686 142.786 254.061 142.243C244.735 140.346 238.669 131.128 240.661 121.82C242.562 112.512 251.797 106.458 261.122 108.446C264.472 109.169 267.46 110.796 269.814 113.145C273.979 117.302 275.789 123.176 274.522 128.869Z" fill="#E43343"/>
<path d="M253.789 107.362C254.151 107.271 254.604 107.181 254.966 107.181" stroke="#26262E" stroke-miterlimit="10" stroke-linecap="round" stroke-linejoin="round"/>
<path d="M243.74 136.279C240.299 132.213 238.76 126.7 239.937 121.188C241.024 115.947 244.373 111.699 248.719 109.259" stroke="#26262E" stroke-miterlimit="10" stroke-linecap="round" stroke-linejoin="round"/>
<path d="M257.592 107C258.769 107 260.036 107.09 261.213 107.361C264.654 108.084 267.823 109.802 270.267 112.242C274.613 116.489 276.423 122.634 275.156 128.508C275.065 128.869 275.065 129.14 274.884 129.411C274.613 130.405 274.251 131.309 273.889 132.212C271.716 137.002 267.551 140.527 262.571 141.972C262.3 142.063 262.028 142.153 261.757 142.153C259.221 142.785 256.505 142.876 253.699 142.334C251.254 141.792 248.991 140.797 246.999 139.532" stroke="#26262E" stroke-miterlimit="10" stroke-linecap="round" stroke-linejoin="round"/>
<path d="M250.571 129.543C250.571 128.549 251.657 129.001 252.291 126.832C253.015 124.211 251.929 121.681 254.735 119.512C254.917 119.331 255.188 119.241 255.46 119.06C255.55 118.97 255.641 118.88 255.641 118.789C255.55 117.795 256.275 116.891 257.27 116.801C258.266 116.711 259.172 117.434 259.262 118.428C259.262 118.518 259.262 118.608 259.262 118.608C259.262 118.789 259.353 118.88 259.443 118.97C261.435 119.964 262.25 121.681 262.341 123.85C262.703 128.73 263.789 128.007 264.423 128.82C264.966 129.633 264.151 130.537 263.065 130.537C252.291 130.989 250.571 130.989 250.571 129.543Z" fill="white"/>
<path d="M256.818 133.79C255.912 133.429 255.46 132.434 255.822 131.621C255.822 131.531 255.912 131.44 256.093 131.44C257.089 131.44 257.995 131.44 258.991 131.44C259.081 131.44 259.262 131.531 259.262 131.621C259.534 132.254 259.262 133.067 258.81 133.519C258.266 133.971 257.451 134.061 256.818 133.79Z" fill="white"/>
<path d="M189.267 87.1522C189.147 87.8159 188.966 88.4193 188.726 89.0226C187.281 92.6427 184.032 95.1768 180.302 95.7801C178.978 96.0215 177.654 95.9611 176.27 95.7197C170.374 94.5131 166.523 88.6607 167.786 82.748C169.05 76.8353 174.826 72.9739 180.723 74.2409C182.829 74.6632 184.754 75.6889 186.259 77.2576C188.906 79.7313 190.049 83.5322 189.267 87.1522Z" fill="white"/>
<path d="M189.267 87.395C189.147 87.9983 188.966 88.6017 188.726 89.205C187.342 92.7043 184.213 95.178 180.603 95.7813C179.339 95.9623 178.015 95.9622 176.691 95.7209C170.915 94.5142 167.245 88.9033 168.448 83.1112C169.651 77.3192 175.247 73.6388 181.024 74.8454C183.07 75.2678 184.935 76.2936 186.379 77.7416C188.906 80.2153 189.989 83.8956 189.267 87.395Z" fill="#E43343"/>
<path d="M180.783 74.1804C182.889 74.6028 184.814 75.6284 186.319 77.1971C188.966 79.7914 190.049 83.5925 189.327 87.2125C189.207 87.8762 189.026 88.4796 188.786 89.0829C187.342 92.7029 184.092 95.2371 180.362 95.8404C179.038 96.0817 177.714 96.0214 176.33 95.78C170.433 94.5733 166.583 88.721 167.846 82.8083C168.388 80.3346 169.651 78.2229 171.456 76.7145" stroke="#26262E" stroke-miterlimit="10" stroke-linecap="round" stroke-linejoin="round"/>
<path d="M173.623 75.0856C174.224 74.784 174.826 74.5428 175.428 74.3618" stroke="#26262E" stroke-miterlimit="10" stroke-linecap="round" stroke-linejoin="round"/>
<path d="M178.159 86.6454C178.339 86.8867 178.7 86.947 178.941 86.766C179.001 86.766 179.001 86.7057 179.061 86.6454L181.228 83.9303C181.408 83.689 181.348 83.327 181.107 83.146C180.987 83.0857 180.867 83.0253 180.746 83.0253H179.723V81.3963C179.723 81.2757 179.663 81.2153 179.543 81.2153H179.182H177.678C177.557 81.2153 177.497 81.2757 177.497 81.3963V83.0253H176.474C176.173 83.0253 175.933 83.2667 175.933 83.5683C175.933 83.689 175.993 83.8097 176.053 83.9303L178.159 86.6454Z" fill="white"/>
<path d="M179.603 80.4913H177.678C177.617 80.4913 177.497 80.4309 177.497 80.3103V80.0689C177.497 80.0086 177.557 79.8879 177.678 79.8879H179.603C179.663 79.8879 179.784 79.9483 179.784 80.0689V80.3103C179.784 80.4309 179.663 80.4913 179.603 80.4913Z" fill="white"/>
<path d="M174.97 89.5412C174.188 89.5412 173.586 88.9379 173.586 88.2139V86.0418C173.586 85.6798 173.887 85.3782 174.248 85.3782C174.609 85.3782 174.85 85.6798 174.85 86.0418V88.2742H182.431V86.0418C182.431 85.6798 182.732 85.4385 183.033 85.4385C183.394 85.4385 183.695 85.7402 183.695 86.0418V88.2139C183.695 88.9379 183.093 89.5412 182.311 89.5412H174.97Z" fill="white"/>
<path d="M108.36 211.69V189.29H110.984L125.8 207.69H124.424V189.29H127.624V211.69H125L110.184 193.29H111.56V211.69H108.36ZM141.145 211.882C139.438 211.882 137.923 211.508 136.601 210.762C135.278 210.015 134.233 208.991 133.465 207.69C132.697 206.367 132.313 204.874 132.313 203.21C132.313 201.524 132.697 200.031 133.465 198.73C134.233 197.428 135.278 196.415 136.601 195.69C137.923 194.943 139.438 194.57 141.145 194.57C142.83 194.57 144.334 194.943 145.657 195.69C147.001 196.415 148.046 197.428 148.793 198.73C149.561 200.01 149.945 201.503 149.945 203.21C149.945 204.895 149.561 206.388 148.793 207.69C148.046 208.991 147.001 210.015 145.657 210.762C144.334 211.508 142.83 211.882 141.145 211.882ZM141.145 209.194C142.233 209.194 143.203 208.948 144.057 208.458C144.931 207.967 145.614 207.274 146.105 206.378C146.595 205.46 146.841 204.404 146.841 203.21C146.841 201.994 146.595 200.948 146.105 200.074C145.614 199.178 144.931 198.484 144.057 197.994C143.203 197.503 142.233 197.258 141.145 197.258C140.057 197.258 139.086 197.503 138.233 197.994C137.379 198.484 136.697 199.178 136.185 200.074C135.673 200.948 135.417 201.994 135.417 203.21C135.417 204.404 135.673 205.46 136.185 206.378C136.697 207.274 137.379 207.967 138.233 208.458C139.086 208.948 140.057 209.194 141.145 209.194ZM169.699 211.69L159.843 189.29H163.299L172.355 209.962H170.371L179.491 189.29H182.691L172.867 211.69H169.699ZM185.1 211.69V194.73H188.172V211.69H185.1ZM186.636 191.466C186.038 191.466 185.537 191.274 185.132 190.89C184.748 190.506 184.556 190.036 184.556 189.482C184.556 188.906 184.748 188.426 185.132 188.042C185.537 187.658 186.038 187.466 186.636 187.466C187.233 187.466 187.724 187.658 188.108 188.042C188.513 188.404 188.716 188.863 188.716 189.418C188.716 189.994 188.524 190.484 188.14 190.89C187.756 191.274 187.254 191.466 186.636 191.466ZM198.901 211.882C197.493 211.882 196.149 211.69 194.869 211.306C193.61 210.922 192.618 210.452 191.893 209.898L193.173 207.466C193.898 207.956 194.794 208.372 195.861 208.714C196.928 209.055 198.016 209.226 199.125 209.226C200.554 209.226 201.578 209.023 202.197 208.618C202.837 208.212 203.157 207.647 203.157 206.922C203.157 206.388 202.965 205.972 202.581 205.674C202.197 205.375 201.685 205.151 201.045 205.002C200.426 204.852 199.733 204.724 198.965 204.618C198.197 204.49 197.429 204.34 196.661 204.17C195.893 203.978 195.189 203.722 194.549 203.402C193.909 203.06 193.397 202.602 193.013 202.026C192.629 201.428 192.437 200.639 192.437 199.658C192.437 198.634 192.725 197.738 193.301 196.97C193.877 196.202 194.688 195.615 195.733 195.21C196.8 194.783 198.058 194.57 199.509 194.57C200.618 194.57 201.738 194.708 202.869 194.986C204.021 195.242 204.96 195.615 205.685 196.106L204.373 198.538C203.605 198.026 202.805 197.674 201.973 197.482C201.141 197.29 200.309 197.194 199.477 197.194C198.133 197.194 197.13 197.418 196.469 197.866C195.808 198.292 195.477 198.847 195.477 199.53C195.477 200.106 195.669 200.554 196.053 200.874C196.458 201.172 196.97 201.407 197.589 201.578C198.229 201.748 198.933 201.898 199.701 202.026C200.469 202.132 201.237 202.282 202.005 202.474C202.773 202.644 203.466 202.89 204.085 203.21C204.725 203.53 205.237 203.978 205.621 204.554C206.026 205.13 206.229 205.898 206.229 206.858C206.229 207.882 205.93 208.767 205.333 209.514C204.736 210.26 203.893 210.847 202.805 211.274C201.717 211.679 200.416 211.882 198.901 211.882ZM210.068 211.69V194.73H213.14V211.69H210.068ZM211.604 191.466C211.007 191.466 210.506 191.274 210.1 190.89C209.716 190.506 209.524 190.036 209.524 189.482C209.524 188.906 209.716 188.426 210.1 188.042C210.506 187.658 211.007 187.466 211.604 187.466C212.202 187.466 212.692 187.658 213.076 188.042C213.482 188.404 213.684 188.863 213.684 189.418C213.684 189.994 213.492 190.484 213.108 190.89C212.724 191.274 212.223 191.466 211.604 191.466ZM224.83 211.882C223.123 211.882 221.8 211.423 220.862 210.506C219.923 209.588 219.454 208.276 219.454 206.57V191.018H222.526V206.442C222.526 207.359 222.75 208.063 223.198 208.554C223.667 209.044 224.328 209.29 225.182 209.29C226.142 209.29 226.942 209.023 227.582 208.49L228.542 210.698C228.072 211.103 227.507 211.402 226.846 211.594C226.206 211.786 225.534 211.882 224.83 211.882ZM216.574 197.258V194.73H227.39V197.258H216.574ZM238.957 211.882C237.251 211.882 235.736 211.508 234.413 210.762C233.091 210.015 232.045 208.991 231.277 207.69C230.509 206.367 230.125 204.874 230.125 203.21C230.125 201.524 230.509 200.031 231.277 198.73C232.045 197.428 233.091 196.415 234.413 195.69C235.736 194.943 237.251 194.57 238.957 194.57C240.643 194.57 242.147 194.943 243.469 195.69C244.813 196.415 245.859 197.428 246.605 198.73C247.373 200.01 247.757 201.503 247.757 203.21C247.757 204.895 247.373 206.388 246.605 207.69C245.859 208.991 244.813 210.015 243.469 210.762C242.147 211.508 240.643 211.882 238.957 211.882ZM238.957 209.194C240.045 209.194 241.016 208.948 241.869 208.458C242.744 207.967 243.427 207.274 243.917 206.378C244.408 205.46 244.653 204.404 244.653 203.21C244.653 201.994 244.408 200.948 243.917 200.074C243.427 199.178 242.744 198.484 241.869 197.994C241.016 197.503 240.045 197.258 238.957 197.258C237.869 197.258 236.899 197.503 236.045 197.994C235.192 198.484 234.509 199.178 233.997 200.074C233.485 200.948 233.229 201.994 233.229 203.21C233.229 204.404 233.485 205.46 233.997 206.378C234.509 207.274 235.192 207.967 236.045 208.458C236.899 208.948 237.869 209.194 238.957 209.194ZM252.006 211.69V194.73H254.95V199.338L254.662 198.186C255.131 197.012 255.92 196.116 257.03 195.498C258.139 194.879 259.504 194.57 261.126 194.57V197.546C260.998 197.524 260.87 197.514 260.742 197.514C260.635 197.514 260.528 197.514 260.422 197.514C258.779 197.514 257.478 198.004 256.518 198.986C255.558 199.967 255.078 201.386 255.078 203.242V211.69H252.006ZM269.964 211.882C268.556 211.882 267.212 211.69 265.932 211.306C264.673 210.922 263.681 210.452 262.956 209.898L264.236 207.466C264.961 207.956 265.857 208.372 266.924 208.714C267.99 209.055 269.078 209.226 270.188 209.226C271.617 209.226 272.641 209.023 273.26 208.618C273.9 208.212 274.22 207.647 274.22 206.922C274.22 206.388 274.028 205.972 273.644 205.674C273.26 205.375 272.748 205.151 272.108 205.002C271.489 204.852 270.796 204.724 270.028 204.618C269.26 204.49 268.492 204.34 267.724 204.17C266.956 203.978 266.252 203.722 265.612 203.402C264.972 203.06 264.46 202.602 264.076 202.026C263.692 201.428 263.5 200.639 263.5 199.658C263.5 198.634 263.788 197.738 264.364 196.97C264.94 196.202 265.75 195.615 266.796 195.21C267.862 194.783 269.121 194.57 270.572 194.57C271.681 194.57 272.801 194.708 273.932 194.986C275.084 195.242 276.022 195.615 276.748 196.106L275.436 198.538C274.668 198.026 273.868 197.674 273.036 197.482C272.204 197.29 271.372 197.194 270.54 197.194C269.196 197.194 268.193 197.418 267.532 197.866C266.87 198.292 266.54 198.847 266.54 199.53C266.54 200.106 266.732 200.554 267.116 200.874C267.521 201.172 268.033 201.407 268.652 201.578C269.292 201.748 269.996 201.898 270.764 202.026C271.532 202.132 272.3 202.282 273.068 202.474C273.836 202.644 274.529 202.89 275.148 203.21C275.788 203.53 276.3 203.978 276.684 204.554C277.089 205.13 277.292 205.898 277.292 206.858C277.292 207.882 276.993 208.767 276.396 209.514C275.798 210.26 274.956 210.847 273.868 211.274C272.78 211.679 271.478 211.882 269.964 211.882Z" fill="#26262E"/>
<path opacity="0.7" d="M67.1211 241.69H65.9521V232.721H62.8076V231.696H70.252V232.721H67.1211V241.69ZM72.7266 231.053V234.232C72.7266 234.414 72.722 234.599 72.7129 234.785C72.7038 234.968 72.6878 235.136 72.665 235.291H72.7402C72.8952 235.027 73.0911 234.806 73.3281 234.628C73.5697 234.446 73.8431 234.309 74.1484 234.218C74.4538 234.122 74.7773 234.074 75.1191 234.074C75.7207 234.074 76.222 234.17 76.623 234.362C77.0286 234.553 77.3317 234.849 77.5322 235.25C77.7373 235.651 77.8398 236.171 77.8398 236.809V241.69H76.7188V236.884C76.7188 236.26 76.5752 235.793 76.2881 235.483C76.0055 235.173 75.5703 235.018 74.9824 235.018C74.4264 235.018 73.9821 235.125 73.6494 235.339C73.3213 235.549 73.0843 235.859 72.9385 236.269C72.7972 236.679 72.7266 237.18 72.7266 237.773V241.69H71.5918V231.053H72.7266ZM83.0625 234.061C83.7005 234.061 84.2474 234.202 84.7031 234.485C85.1589 234.767 85.5075 235.164 85.749 235.674C85.9906 236.18 86.1113 236.772 86.1113 237.451V238.156H80.9365C80.9502 239.035 81.1689 239.705 81.5928 240.165C82.0166 240.626 82.6136 240.856 83.3838 240.856C83.8577 240.856 84.277 240.812 84.6416 240.726C85.0062 240.639 85.3844 240.512 85.7764 240.343V241.341C85.3981 241.51 85.0221 241.633 84.6484 241.71C84.2793 241.788 83.8418 241.826 83.3359 241.826C82.6159 241.826 81.987 241.681 81.4492 241.389C80.916 241.093 80.5013 240.66 80.2051 240.09C79.9089 239.52 79.7607 238.823 79.7607 237.998C79.7607 237.192 79.8952 236.494 80.1641 235.906C80.4375 235.314 80.8203 234.858 81.3125 234.539C81.8092 234.22 82.3926 234.061 83.0625 234.061ZM83.0488 234.99C82.4427 234.99 81.9596 235.189 81.5996 235.585C81.2396 235.982 81.0254 236.535 80.957 237.246H84.9219C84.9173 236.8 84.8467 236.408 84.71 236.071C84.5778 235.729 84.375 235.464 84.1016 235.278C83.8281 235.086 83.4772 234.99 83.0488 234.99ZM91.4434 234.061C91.5938 234.061 91.751 234.07 91.915 234.088C92.0791 234.102 92.2249 234.122 92.3525 234.15L92.209 235.202C92.0859 235.17 91.9492 235.145 91.7988 235.127C91.6484 235.109 91.5072 235.1 91.375 235.1C91.0742 235.1 90.7894 235.161 90.5205 235.284C90.2562 235.403 90.0238 235.576 89.8232 235.804C89.6227 236.027 89.4655 236.298 89.3516 236.617C89.2376 236.932 89.1807 237.283 89.1807 237.67V241.69H88.0391V234.198H88.9824L89.1055 235.578H89.1533C89.3083 235.3 89.4951 235.047 89.7139 234.82C89.9326 234.587 90.1855 234.403 90.4727 234.266C90.7643 234.129 91.0879 234.061 91.4434 234.061ZM96.6523 234.061C97.2904 234.061 97.8372 234.202 98.293 234.485C98.7487 234.767 99.0973 235.164 99.3389 235.674C99.5804 236.18 99.7012 236.772 99.7012 237.451V238.156H94.5264C94.54 239.035 94.7588 239.705 95.1826 240.165C95.6064 240.626 96.2035 240.856 96.9736 240.856C97.4476 240.856 97.8669 240.812 98.2314 240.726C98.596 240.639 98.9743 240.512 99.3662 240.343V241.341C98.988 241.51 98.612 241.633 98.2383 241.71C97.8691 241.788 97.4316 241.826 96.9258 241.826C96.2057 241.826 95.5768 241.681 95.0391 241.389C94.5059 241.093 94.0911 240.66 93.7949 240.09C93.4987 239.52 93.3506 238.823 93.3506 237.998C93.3506 237.192 93.485 236.494 93.7539 235.906C94.0273 235.314 94.4102 234.858 94.9023 234.539C95.3991 234.22 95.9824 234.061 96.6523 234.061ZM96.6387 234.99C96.0326 234.99 95.5495 235.189 95.1895 235.585C94.8294 235.982 94.6152 236.535 94.5469 237.246H98.5117C98.5072 236.8 98.4365 236.408 98.2998 236.071C98.1676 235.729 97.9648 235.464 97.6914 235.278C97.418 235.086 97.0671 234.99 96.6387 234.99ZM108.068 234.074C108.962 234.074 109.625 234.275 110.058 234.676C110.491 235.077 110.707 235.717 110.707 236.597V241.69H109.88L109.661 240.582H109.606C109.397 240.856 109.178 241.086 108.95 241.273C108.722 241.455 108.458 241.594 108.157 241.69C107.861 241.781 107.496 241.826 107.063 241.826C106.608 241.826 106.202 241.747 105.847 241.587C105.496 241.428 105.218 241.186 105.013 240.863C104.812 240.539 104.712 240.129 104.712 239.632C104.712 238.885 105.008 238.31 105.601 237.909C106.193 237.508 107.095 237.29 108.308 237.253L109.6 237.198V236.74C109.6 236.093 109.461 235.64 109.183 235.38C108.905 235.12 108.513 234.99 108.007 234.99C107.615 234.99 107.241 235.047 106.886 235.161C106.53 235.275 106.193 235.41 105.874 235.565L105.525 234.703C105.863 234.53 106.25 234.382 106.688 234.259C107.125 234.136 107.585 234.074 108.068 234.074ZM109.586 237.998L108.444 238.046C107.51 238.083 106.852 238.235 106.469 238.504C106.086 238.773 105.895 239.154 105.895 239.646C105.895 240.074 106.024 240.391 106.284 240.596C106.544 240.801 106.888 240.904 107.316 240.904C107.982 240.904 108.526 240.719 108.95 240.35C109.374 239.981 109.586 239.427 109.586 238.689V237.998ZM116.449 234.061C116.6 234.061 116.757 234.07 116.921 234.088C117.085 234.102 117.231 234.122 117.358 234.15L117.215 235.202C117.092 235.17 116.955 235.145 116.805 235.127C116.654 235.109 116.513 235.1 116.381 235.1C116.08 235.1 115.795 235.161 115.526 235.284C115.262 235.403 115.03 235.576 114.829 235.804C114.629 236.027 114.471 236.298 114.357 236.617C114.243 236.932 114.187 237.283 114.187 237.67V241.69H113.045V234.198H113.988L114.111 235.578H114.159C114.314 235.3 114.501 235.047 114.72 234.82C114.938 234.587 115.191 234.403 115.479 234.266C115.77 234.129 116.094 234.061 116.449 234.061ZM121.658 234.061C122.296 234.061 122.843 234.202 123.299 234.485C123.755 234.767 124.103 235.164 124.345 235.674C124.586 236.18 124.707 236.772 124.707 237.451V238.156H119.532C119.546 239.035 119.765 239.705 120.188 240.165C120.612 240.626 121.209 240.856 121.979 240.856C122.453 240.856 122.873 240.812 123.237 240.726C123.602 240.639 123.98 240.512 124.372 240.343V241.341C123.994 241.51 123.618 241.633 123.244 241.71C122.875 241.788 122.438 241.826 121.932 241.826C121.212 241.826 120.583 241.681 120.045 241.389C119.512 241.093 119.097 240.66 118.801 240.09C118.505 239.52 118.356 238.823 118.356 237.998C118.356 237.192 118.491 236.494 118.76 235.906C119.033 235.314 119.416 234.858 119.908 234.539C120.405 234.22 120.988 234.061 121.658 234.061ZM121.645 234.99C121.038 234.99 120.555 235.189 120.195 235.585C119.835 235.982 119.621 236.535 119.553 237.246H123.518C123.513 236.8 123.442 236.408 123.306 236.071C123.174 235.729 122.971 235.464 122.697 235.278C122.424 235.086 122.073 234.99 121.645 234.99ZM133.819 234.061C134.708 234.061 135.38 234.28 135.836 234.717C136.292 235.15 136.52 235.847 136.52 236.809V241.69H135.398V236.884C135.398 236.26 135.255 235.793 134.968 235.483C134.685 235.173 134.25 235.018 133.662 235.018C132.833 235.018 132.249 235.253 131.912 235.722C131.575 236.191 131.406 236.873 131.406 237.766V241.69H130.271V234.198H131.188L131.358 235.278H131.42C131.579 235.013 131.782 234.792 132.028 234.615C132.274 234.432 132.55 234.295 132.855 234.204C133.161 234.109 133.482 234.061 133.819 234.061ZM145.317 237.93C145.317 238.545 145.238 239.094 145.078 239.577C144.919 240.06 144.688 240.468 144.388 240.801C144.087 241.134 143.722 241.389 143.294 241.567C142.87 241.74 142.389 241.826 141.852 241.826C141.35 241.826 140.89 241.74 140.471 241.567C140.056 241.389 139.696 241.134 139.391 240.801C139.09 240.468 138.855 240.06 138.687 239.577C138.522 239.094 138.44 238.545 138.44 237.93C138.44 237.11 138.579 236.412 138.857 235.838C139.135 235.259 139.532 234.82 140.047 234.519C140.566 234.213 141.184 234.061 141.899 234.061C142.583 234.061 143.18 234.213 143.69 234.519C144.205 234.824 144.604 235.266 144.887 235.845C145.174 236.419 145.317 237.114 145.317 237.93ZM139.616 237.93C139.616 238.531 139.696 239.053 139.855 239.495C140.015 239.937 140.261 240.279 140.594 240.521C140.926 240.762 141.355 240.883 141.879 240.883C142.398 240.883 142.825 240.762 143.157 240.521C143.494 240.279 143.743 239.937 143.902 239.495C144.062 239.053 144.142 238.531 144.142 237.93C144.142 237.333 144.062 236.818 143.902 236.385C143.743 235.948 143.497 235.61 143.164 235.373C142.831 235.136 142.401 235.018 141.872 235.018C141.093 235.018 140.521 235.275 140.156 235.79C139.796 236.305 139.616 237.018 139.616 237.93ZM152.563 241.69L149.72 234.198H150.937L152.584 238.73C152.698 239.04 152.814 239.381 152.933 239.755C153.051 240.129 153.133 240.43 153.179 240.657H153.227C153.281 240.43 153.372 240.129 153.5 239.755C153.628 239.377 153.744 239.035 153.849 238.73L155.496 234.198H156.713L153.862 241.69H152.563ZM159.051 234.198V241.69H157.916V234.198H159.051ZM158.497 231.395C158.684 231.395 158.843 231.456 158.976 231.579C159.112 231.698 159.181 231.885 159.181 232.14C159.181 232.391 159.112 232.577 158.976 232.7C158.843 232.823 158.684 232.885 158.497 232.885C158.301 232.885 158.137 232.823 158.005 232.7C157.877 232.577 157.813 232.391 157.813 232.14C157.813 231.885 157.877 231.698 158.005 231.579C158.137 231.456 158.301 231.395 158.497 231.395ZM166.304 239.639C166.304 240.117 166.183 240.521 165.941 240.849C165.704 241.172 165.363 241.416 164.916 241.58C164.474 241.744 163.945 241.826 163.33 241.826C162.806 241.826 162.353 241.785 161.97 241.703C161.587 241.621 161.252 241.505 160.965 241.355V240.309C161.27 240.459 161.635 240.596 162.059 240.719C162.482 240.842 162.915 240.904 163.357 240.904C164.005 240.904 164.474 240.799 164.766 240.589C165.057 240.379 165.203 240.095 165.203 239.735C165.203 239.53 165.144 239.35 165.025 239.195C164.911 239.035 164.718 238.882 164.444 238.737C164.171 238.586 163.793 238.422 163.31 238.244C162.831 238.062 162.416 237.882 162.065 237.704C161.719 237.522 161.45 237.301 161.259 237.041C161.072 236.781 160.979 236.444 160.979 236.03C160.979 235.396 161.234 234.911 161.744 234.573C162.259 234.232 162.934 234.061 163.768 234.061C164.219 234.061 164.64 234.106 165.032 234.198C165.429 234.284 165.798 234.403 166.14 234.553L165.757 235.462C165.447 235.33 165.117 235.218 164.766 235.127C164.415 235.036 164.057 234.99 163.692 234.99C163.168 234.99 162.765 235.077 162.482 235.25C162.204 235.423 162.065 235.66 162.065 235.961C162.065 236.194 162.129 236.385 162.257 236.535C162.389 236.686 162.599 236.827 162.886 236.959C163.173 237.091 163.551 237.246 164.021 237.424C164.49 237.597 164.896 237.777 165.237 237.964C165.579 238.146 165.841 238.37 166.023 238.634C166.21 238.894 166.304 239.229 166.304 239.639ZM169.264 234.198V241.69H168.129V234.198H169.264ZM168.71 231.395C168.897 231.395 169.056 231.456 169.188 231.579C169.325 231.698 169.394 231.885 169.394 232.14C169.394 232.391 169.325 232.577 169.188 232.7C169.056 232.823 168.897 232.885 168.71 232.885C168.514 232.885 168.35 232.823 168.218 232.7C168.09 232.577 168.026 232.391 168.026 232.14C168.026 231.885 168.09 231.698 168.218 231.579C168.35 231.456 168.514 231.395 168.71 231.395ZM174.09 240.897C174.277 240.897 174.468 240.881 174.664 240.849C174.86 240.817 175.02 240.778 175.143 240.733V241.615C175.01 241.674 174.826 241.724 174.589 241.765C174.356 241.806 174.129 241.826 173.905 241.826C173.509 241.826 173.149 241.758 172.825 241.621C172.502 241.48 172.242 241.243 172.046 240.91C171.854 240.578 171.759 240.117 171.759 239.53V235.086H170.692V234.532L171.766 234.088L172.217 232.461H172.9V234.198H175.095V235.086H172.9V239.495C172.9 239.965 173.007 240.316 173.222 240.548C173.44 240.781 173.73 240.897 174.09 240.897ZM183.12 237.93C183.12 238.545 183.04 239.094 182.881 239.577C182.721 240.06 182.491 240.468 182.19 240.801C181.89 241.134 181.525 241.389 181.097 241.567C180.673 241.74 180.192 241.826 179.654 241.826C179.153 241.826 178.693 241.74 178.273 241.567C177.859 241.389 177.499 241.134 177.193 240.801C176.893 240.468 176.658 240.06 176.489 239.577C176.325 239.094 176.243 238.545 176.243 237.93C176.243 237.11 176.382 236.412 176.66 235.838C176.938 235.259 177.335 234.82 177.85 234.519C178.369 234.213 178.987 234.061 179.702 234.061C180.386 234.061 180.983 234.213 181.493 234.519C182.008 234.824 182.407 235.266 182.689 235.845C182.977 236.419 183.12 237.114 183.12 237.93ZM177.419 237.93C177.419 238.531 177.499 239.053 177.658 239.495C177.818 239.937 178.064 240.279 178.396 240.521C178.729 240.762 179.158 240.883 179.682 240.883C180.201 240.883 180.627 240.762 180.96 240.521C181.297 240.279 181.546 239.937 181.705 239.495C181.865 239.053 181.944 238.531 181.944 237.93C181.944 237.333 181.865 236.818 181.705 236.385C181.546 235.948 181.299 235.61 180.967 235.373C180.634 235.136 180.203 235.018 179.675 235.018C178.896 235.018 178.324 235.275 177.959 235.79C177.599 236.305 177.419 237.018 177.419 237.93ZM188.486 234.061C188.637 234.061 188.794 234.07 188.958 234.088C189.122 234.102 189.268 234.122 189.396 234.15L189.252 235.202C189.129 235.17 188.992 235.145 188.842 235.127C188.691 235.109 188.55 235.1 188.418 235.1C188.117 235.1 187.832 235.161 187.563 235.284C187.299 235.403 187.067 235.576 186.866 235.804C186.666 236.027 186.508 236.298 186.395 236.617C186.281 236.932 186.224 237.283 186.224 237.67V241.69H185.082V234.198H186.025L186.148 235.578H186.196C186.351 235.3 186.538 235.047 186.757 234.82C186.976 234.587 187.229 234.403 187.516 234.266C187.807 234.129 188.131 234.061 188.486 234.061ZM195.657 239.639C195.657 240.117 195.536 240.521 195.295 240.849C195.058 241.172 194.716 241.416 194.27 241.58C193.827 241.744 193.299 241.826 192.684 241.826C192.16 241.826 191.706 241.785 191.323 241.703C190.94 241.621 190.605 241.505 190.318 241.355V240.309C190.624 240.459 190.988 240.596 191.412 240.719C191.836 240.842 192.269 240.904 192.711 240.904C193.358 240.904 193.827 240.799 194.119 240.589C194.411 240.379 194.557 240.095 194.557 239.735C194.557 239.53 194.497 239.35 194.379 239.195C194.265 239.035 194.071 238.882 193.798 238.737C193.524 238.586 193.146 238.422 192.663 238.244C192.185 238.062 191.77 237.882 191.419 237.704C191.073 237.522 190.804 237.301 190.612 237.041C190.425 236.781 190.332 236.444 190.332 236.03C190.332 235.396 190.587 234.911 191.098 234.573C191.613 234.232 192.287 234.061 193.121 234.061C193.572 234.061 193.994 234.106 194.386 234.198C194.782 234.284 195.151 234.403 195.493 234.553L195.11 235.462C194.8 235.33 194.47 235.218 194.119 235.127C193.768 235.036 193.41 234.99 193.046 234.99C192.522 234.99 192.118 235.077 191.836 235.25C191.558 235.423 191.419 235.66 191.419 235.961C191.419 236.194 191.483 236.385 191.61 236.535C191.743 236.686 191.952 236.827 192.239 236.959C192.526 237.091 192.905 237.246 193.374 237.424C193.843 237.597 194.249 237.777 194.591 237.964C194.933 238.146 195.195 238.37 195.377 238.634C195.564 238.894 195.657 239.229 195.657 239.639ZM203.539 240.897C203.726 240.897 203.917 240.881 204.113 240.849C204.309 240.817 204.469 240.778 204.592 240.733V241.615C204.46 241.674 204.275 241.724 204.038 241.765C203.806 241.806 203.578 241.826 203.354 241.826C202.958 241.826 202.598 241.758 202.274 241.621C201.951 241.48 201.691 241.243 201.495 240.91C201.304 240.578 201.208 240.117 201.208 239.53V235.086H200.142V234.532L201.215 234.088L201.666 232.461H202.35V234.198H204.544V235.086H202.35V239.495C202.35 239.965 202.457 240.316 202.671 240.548C202.89 240.781 203.179 240.897 203.539 240.897ZM212.569 237.93C212.569 238.545 212.49 239.094 212.33 239.577C212.171 240.06 211.94 240.468 211.64 240.801C211.339 241.134 210.974 241.389 210.546 241.567C210.122 241.74 209.641 241.826 209.104 241.826C208.602 241.826 208.142 241.74 207.723 241.567C207.308 241.389 206.948 241.134 206.643 240.801C206.342 240.468 206.107 240.06 205.938 239.577C205.774 239.094 205.692 238.545 205.692 237.93C205.692 237.11 205.831 236.412 206.109 235.838C206.387 235.259 206.784 234.82 207.299 234.519C207.818 234.213 208.436 234.061 209.151 234.061C209.835 234.061 210.432 234.213 210.942 234.519C211.457 234.824 211.856 235.266 212.139 235.845C212.426 236.419 212.569 237.114 212.569 237.93ZM206.868 237.93C206.868 238.531 206.948 239.053 207.107 239.495C207.267 239.937 207.513 240.279 207.846 240.521C208.178 240.762 208.607 240.883 209.131 240.883C209.65 240.883 210.076 240.762 210.409 240.521C210.746 240.279 210.995 239.937 211.154 239.495C211.314 239.053 211.394 238.531 211.394 237.93C211.394 237.333 211.314 236.818 211.154 236.385C210.995 235.948 210.749 235.61 210.416 235.373C210.083 235.136 209.653 235.018 209.124 235.018C208.345 235.018 207.773 235.275 207.408 235.79C207.048 236.305 206.868 237.018 206.868 237.93ZM220.588 240.897C220.775 240.897 220.966 240.881 221.162 240.849C221.358 240.817 221.518 240.778 221.641 240.733V241.615C221.508 241.674 221.324 241.724 221.087 241.765C220.854 241.806 220.627 241.826 220.403 241.826C220.007 241.826 219.647 241.758 219.323 241.621C219 241.48 218.74 241.243 218.544 240.91C218.353 240.578 218.257 240.117 218.257 239.53V235.086H217.19V234.532L218.264 234.088L218.715 232.461H219.398V234.198H221.593V235.086H219.398V239.495C219.398 239.965 219.506 240.316 219.72 240.548C219.938 240.781 220.228 240.897 220.588 240.897ZM224.293 231.053V234.232C224.293 234.414 224.288 234.599 224.279 234.785C224.27 234.968 224.254 235.136 224.231 235.291H224.307C224.462 235.027 224.658 234.806 224.895 234.628C225.136 234.446 225.41 234.309 225.715 234.218C226.02 234.122 226.344 234.074 226.686 234.074C227.287 234.074 227.788 234.17 228.189 234.362C228.595 234.553 228.898 234.849 229.099 235.25C229.304 235.651 229.406 236.171 229.406 236.809V241.69H228.285V236.884C228.285 236.26 228.142 235.793 227.854 235.483C227.572 235.173 227.137 235.018 226.549 235.018C225.993 235.018 225.549 235.125 225.216 235.339C224.888 235.549 224.651 235.859 224.505 236.269C224.364 236.679 224.293 237.18 224.293 237.773V241.69H223.158V231.053H224.293ZM232.879 234.198V241.69H231.744V234.198H232.879ZM232.325 231.395C232.512 231.395 232.672 231.456 232.804 231.579C232.94 231.698 233.009 231.885 233.009 232.14C233.009 232.391 232.94 232.577 232.804 232.7C232.672 232.823 232.512 232.885 232.325 232.885C232.129 232.885 231.965 232.823 231.833 232.7C231.705 232.577 231.642 232.391 231.642 232.14C231.642 231.885 231.705 231.698 231.833 231.579C231.965 231.456 232.129 231.395 232.325 231.395ZM240.132 239.639C240.132 240.117 240.011 240.521 239.77 240.849C239.533 241.172 239.191 241.416 238.744 241.58C238.302 241.744 237.773 241.826 237.158 241.826C236.634 241.826 236.181 241.785 235.798 241.703C235.415 241.621 235.08 241.505 234.793 241.355V240.309C235.098 240.459 235.463 240.596 235.887 240.719C236.311 240.842 236.743 240.904 237.186 240.904C237.833 240.904 238.302 240.799 238.594 240.589C238.885 240.379 239.031 240.095 239.031 239.735C239.031 239.53 238.972 239.35 238.854 239.195C238.74 239.035 238.546 238.882 238.272 238.737C237.999 238.586 237.621 238.422 237.138 238.244C236.659 238.062 236.244 237.882 235.894 237.704C235.547 237.522 235.278 237.301 235.087 237.041C234.9 236.781 234.807 236.444 234.807 236.03C234.807 235.396 235.062 234.911 235.572 234.573C236.087 234.232 236.762 234.061 237.596 234.061C238.047 234.061 238.468 234.106 238.86 234.198C239.257 234.284 239.626 234.403 239.968 234.553L239.585 235.462C239.275 235.33 238.945 235.218 238.594 235.127C238.243 235.036 237.885 234.99 237.521 234.99C236.996 234.99 236.593 235.077 236.311 235.25C236.033 235.423 235.894 235.66 235.894 235.961C235.894 236.194 235.957 236.385 236.085 236.535C236.217 236.686 236.427 236.827 236.714 236.959C237.001 237.091 237.379 237.246 237.849 237.424C238.318 237.597 238.724 237.777 239.065 237.964C239.407 238.146 239.669 238.37 239.852 238.634C240.038 238.894 240.132 239.229 240.132 239.639ZM244.691 245.053C244.459 245.053 244.256 245.035 244.083 244.998C243.91 244.966 243.759 244.928 243.632 244.882V243.959C243.773 244.005 243.917 244.039 244.062 244.062C244.208 244.089 244.372 244.103 244.555 244.103C244.865 244.103 245.115 244.016 245.307 243.843C245.498 243.67 245.594 243.355 245.594 242.9V234.198H246.729V242.872C246.729 243.328 246.656 243.718 246.51 244.041C246.364 244.369 246.141 244.62 245.84 244.793C245.539 244.966 245.156 245.053 244.691 245.053ZM245.491 232.14C245.491 231.885 245.555 231.698 245.683 231.579C245.815 231.456 245.979 231.395 246.175 231.395C246.362 231.395 246.521 231.456 246.653 231.579C246.79 231.698 246.858 231.885 246.858 232.14C246.858 232.391 246.79 232.577 246.653 232.7C246.521 232.823 246.362 232.885 246.175 232.885C245.979 232.885 245.815 232.823 245.683 232.7C245.555 232.577 245.491 232.391 245.491 232.14ZM255.595 237.93C255.595 238.545 255.515 239.094 255.355 239.577C255.196 240.06 254.966 240.468 254.665 240.801C254.364 241.134 254 241.389 253.571 241.567C253.147 241.74 252.667 241.826 252.129 241.826C251.628 241.826 251.167 241.74 250.748 241.567C250.333 241.389 249.973 241.134 249.668 240.801C249.367 240.468 249.132 240.06 248.964 239.577C248.8 239.094 248.718 238.545 248.718 237.93C248.718 237.11 248.857 236.412 249.135 235.838C249.413 235.259 249.809 234.82 250.324 234.519C250.844 234.213 251.461 234.061 252.177 234.061C252.86 234.061 253.457 234.213 253.968 234.519C254.483 234.824 254.882 235.266 255.164 235.845C255.451 236.419 255.595 237.114 255.595 237.93ZM249.894 237.93C249.894 238.531 249.973 239.053 250.133 239.495C250.292 239.937 250.538 240.279 250.871 240.521C251.204 240.762 251.632 240.883 252.156 240.883C252.676 240.883 253.102 240.762 253.435 240.521C253.772 240.279 254.02 239.937 254.18 239.495C254.339 239.053 254.419 238.531 254.419 237.93C254.419 237.333 254.339 236.818 254.18 236.385C254.02 235.948 253.774 235.61 253.441 235.373C253.109 235.136 252.678 235.018 252.149 235.018C251.37 235.018 250.798 235.275 250.434 235.79C250.074 236.305 249.894 237.018 249.894 237.93ZM263.743 234.198V241.69H262.813L262.649 240.637H262.588C262.433 240.897 262.232 241.115 261.986 241.293C261.74 241.471 261.462 241.603 261.152 241.69C260.847 241.781 260.521 241.826 260.175 241.826C259.582 241.826 259.086 241.731 258.685 241.539C258.284 241.348 257.98 241.052 257.775 240.651C257.575 240.25 257.475 239.735 257.475 239.106V234.198H258.623V239.024C258.623 239.648 258.764 240.115 259.047 240.425C259.329 240.73 259.76 240.883 260.339 240.883C260.895 240.883 261.337 240.778 261.665 240.569C261.998 240.359 262.237 240.051 262.383 239.646C262.529 239.236 262.602 238.734 262.602 238.142V234.198H263.743ZM269.547 234.061C269.697 234.061 269.854 234.07 270.019 234.088C270.183 234.102 270.328 234.122 270.456 234.15L270.312 235.202C270.189 235.17 270.053 235.145 269.902 235.127C269.752 235.109 269.611 235.1 269.479 235.1C269.178 235.1 268.893 235.161 268.624 235.284C268.36 235.403 268.127 235.576 267.927 235.804C267.726 236.027 267.569 236.298 267.455 236.617C267.341 236.932 267.284 237.283 267.284 237.67V241.69H266.143V234.198H267.086L267.209 235.578H267.257C267.412 235.3 267.599 235.047 267.817 234.82C268.036 234.587 268.289 234.403 268.576 234.266C268.868 234.129 269.191 234.061 269.547 234.061ZM275.419 234.061C276.308 234.061 276.98 234.28 277.436 234.717C277.891 235.15 278.119 235.847 278.119 236.809V241.69H276.998V236.884C276.998 236.26 276.854 235.793 276.567 235.483C276.285 235.173 275.85 235.018 275.262 235.018C274.432 235.018 273.849 235.253 273.512 235.722C273.174 236.191 273.006 236.873 273.006 237.766V241.69H271.871V234.198H272.787L272.958 235.278H273.02C273.179 235.013 273.382 234.792 273.628 234.615C273.874 234.432 274.15 234.295 274.455 234.204C274.76 234.109 275.082 234.061 275.419 234.061ZM283.342 234.061C283.98 234.061 284.527 234.202 284.982 234.485C285.438 234.767 285.787 235.164 286.028 235.674C286.27 236.18 286.391 236.772 286.391 237.451V238.156H281.216C281.229 239.035 281.448 239.705 281.872 240.165C282.296 240.626 282.893 240.856 283.663 240.856C284.137 240.856 284.556 240.812 284.921 240.726C285.285 240.639 285.664 240.512 286.056 240.343V241.341C285.677 241.51 285.301 241.633 284.928 241.71C284.559 241.788 284.121 241.826 283.615 241.826C282.895 241.826 282.266 241.681 281.729 241.389C281.195 241.093 280.781 240.66 280.484 240.09C280.188 239.52 280.04 238.823 280.04 237.998C280.04 237.192 280.174 236.494 280.443 235.906C280.717 235.314 281.1 234.858 281.592 234.539C282.089 234.22 282.672 234.061 283.342 234.061ZM283.328 234.99C282.722 234.99 282.239 235.189 281.879 235.585C281.519 235.982 281.305 236.535 281.236 237.246H285.201C285.197 236.8 285.126 236.408 284.989 236.071C284.857 235.729 284.654 235.464 284.381 235.278C284.107 235.086 283.757 234.99 283.328 234.99ZM287.136 234.198H288.353L290.007 238.545C290.103 238.8 290.191 239.046 290.273 239.283C290.355 239.516 290.428 239.739 290.492 239.953C290.556 240.168 290.606 240.375 290.643 240.575H290.69C290.754 240.348 290.845 240.049 290.964 239.68C291.082 239.306 291.21 238.926 291.347 238.538L292.912 234.198H294.136L290.875 242.79C290.702 243.251 290.499 243.652 290.267 243.993C290.039 244.335 289.761 244.597 289.433 244.78C289.104 244.966 288.708 245.06 288.243 245.06C288.029 245.06 287.84 245.046 287.676 245.019C287.512 244.996 287.37 244.969 287.252 244.937V244.028C287.352 244.05 287.473 244.071 287.614 244.089C287.76 244.107 287.91 244.116 288.065 244.116C288.348 244.116 288.592 244.062 288.797 243.952C289.007 243.848 289.187 243.693 289.337 243.488C289.487 243.282 289.617 243.039 289.727 242.756L290.137 241.703L287.136 234.198ZM297.786 234.198H299.003L300.657 238.545C300.753 238.8 300.842 239.046 300.924 239.283C301.006 239.516 301.079 239.739 301.143 239.953C301.206 240.168 301.257 240.375 301.293 240.575H301.341C301.405 240.348 301.496 240.049 301.614 239.68C301.733 239.306 301.86 238.926 301.997 238.538L303.562 234.198H304.786L301.525 242.79C301.352 243.251 301.149 243.652 300.917 243.993C300.689 244.335 300.411 244.597 300.083 244.78C299.755 244.966 299.358 245.06 298.894 245.06C298.679 245.06 298.49 245.046 298.326 245.019C298.162 244.996 298.021 244.969 297.902 244.937V244.028C298.003 244.05 298.123 244.071 298.265 244.089C298.41 244.107 298.561 244.116 298.716 244.116C298.998 244.116 299.242 244.062 299.447 243.952C299.657 243.848 299.837 243.693 299.987 243.488C300.138 243.282 300.268 243.039 300.377 242.756L300.787 241.703L297.786 234.198ZM308.867 234.061C309.505 234.061 310.052 234.202 310.508 234.485C310.964 234.767 311.312 235.164 311.554 235.674C311.795 236.18 311.916 236.772 311.916 237.451V238.156H306.741C306.755 239.035 306.974 239.705 307.397 240.165C307.821 240.626 308.418 240.856 309.188 240.856C309.662 240.856 310.082 240.812 310.446 240.726C310.811 240.639 311.189 240.512 311.581 240.343V241.341C311.203 241.51 310.827 241.633 310.453 241.71C310.084 241.788 309.646 241.826 309.141 241.826C308.421 241.826 307.792 241.681 307.254 241.389C306.721 241.093 306.306 240.66 306.01 240.09C305.714 239.52 305.565 238.823 305.565 237.998C305.565 237.192 305.7 236.494 305.969 235.906C306.242 235.314 306.625 234.858 307.117 234.539C307.614 234.22 308.197 234.061 308.867 234.061ZM308.854 234.99C308.247 234.99 307.764 235.189 307.404 235.585C307.044 235.982 306.83 236.535 306.762 237.246H310.727C310.722 236.8 310.651 236.408 310.515 236.071C310.382 235.729 310.18 235.464 309.906 235.278C309.633 235.086 309.282 234.99 308.854 234.99ZM316.264 240.897C316.451 240.897 316.642 240.881 316.838 240.849C317.034 240.817 317.193 240.778 317.316 240.733V241.615C317.184 241.674 317 241.724 316.763 241.765C316.53 241.806 316.302 241.826 316.079 241.826C315.683 241.826 315.323 241.758 314.999 241.621C314.675 241.48 314.416 241.243 314.22 240.91C314.028 240.578 313.933 240.117 313.933 239.53V235.086H312.866V234.532L313.939 234.088L314.391 232.461H315.074V234.198H317.269V235.086H315.074V239.495C315.074 239.965 315.181 240.316 315.396 240.548C315.614 240.781 315.904 240.897 316.264 240.897ZM318.663 240.979C318.663 240.66 318.741 240.434 318.896 240.302C319.05 240.165 319.24 240.097 319.463 240.097C319.695 240.097 319.891 240.165 320.051 240.302C320.21 240.434 320.29 240.66 320.29 240.979C320.29 241.293 320.21 241.523 320.051 241.669C319.891 241.81 319.695 241.881 319.463 241.881C319.24 241.881 319.05 241.81 318.896 241.669C318.741 241.523 318.663 241.293 318.663 240.979Z" fill="#444451"/>
</svg>
