<?xml version="1.0" encoding="UTF-8"?><svg id="Layer_2" xmlns="http://www.w3.org/2000/svg" viewBox="0 0 360 223.64"><defs><style>.cls-1{fill:#00c7e2;}.cls-2{fill:#007bc6;}.cls-3{fill:#ffcf07;}.cls-4{fill:#ff9700;}.cls-5{fill:#383f43;}</style></defs><g id="Master_Logos"><g><path class="cls-5" d="M77.24,199.5c-9.05,10.28-18.68,15.08-30.3,15.08-20.69,0-37.53-17.45-37.53-38.9v-.35c0-21.62,16.41-38.56,37.35-38.56,11.45,0,20.99,4.48,30.01,14.11l1.91,2.04,6.7-6.25-1.94-2.05c-7.89-8.36-18.4-16.91-36.51-16.91-12.75,0-24.63,5.03-33.46,14.17C4.79,150.87,0,162.81,0,175.49v.35c0,26.36,20.98,47.8,46.76,47.8,14.73,0,26.93-5.9,37.3-18.05l1.74-2.04-6.66-6.22-1.91,2.17Z"/><path class="cls-5" d="M111.99,146.22v-16.46h-9.24v91.81h9.24v-47.46c0-15.59,12.11-37.35,31.84-37.35h3.67v-9.04l-3.14-.03c-14.7,0-25.77,8.17-32.37,18.53"/><path class="cls-5" d="M227.34,129.77v51.25c0,21.33-10.98,33.56-30.11,33.56s-30.12-12.23-30.12-33.56v-51.25h-9.24v51.59c0,26.08,14.95,42.28,39.01,42.28h.69c24.06,0,39-16.2,39-42.28v-51.59h-9.24Z"/><polygon class="cls-1" points="298.1 .11 298.1 61.69 360 61.69 360 70.65 289.14 70.65 289.14 0 298.1 .11"/><polygon class="cls-2" points="269.1 61.69 269.1 18.35 278.07 18.38 278.07 70.65 225.06 70.65 225.06 61.69 269.1 61.69"/><polygon class="cls-4" points="341.72 81.68 341.72 90.65 298.1 90.65 298.1 177.53 289.14 177.53 289.14 81.68 341.72 81.68"/><polygon class="cls-3" points="278.07 81.68 278.07 127.79 278.07 152.89 269.1 152.89 269.1 90.65 207.05 90.65 207.05 81.68 278.07 81.68"/><path class="cls-5" d="M310.81,173.81c0-2.17,1.75-3.93,3.92-3.93s3.92,1.76,3.92,3.93-1.75,3.92-3.92,3.92-3.92-1.76-3.92-3.92Zm3.92-3.61c-1.98,0-3.57,1.64-3.57,3.61s1.6,3.59,3.57,3.59,3.57-1.62,3.57-3.59-1.6-3.61-3.57-3.61Zm-.82,5.68h-.6v-4.25h1.37c1.07,0,1.62,.49,1.62,1.31,0,.62-.34,1.03-.84,1.22l1.07,1.71h-.7l-.97-1.57-.95,.05v1.52Zm.74-2.06c.7-.01,1.04-.32,1.04-.84,0-.55-.35-.8-1.08-.8h-.72v1.67l.76-.02Z"/></g></g></svg>