<svg fill="none" height="60" viewBox="0 0 60 60" width="60" xmlns="http://www.w3.org/2000/svg" xmlns:xlink="http://www.w3.org/1999/xlink"><clipPath id="a"><path d="m0 0h60v60h-60z"/></clipPath><g clip-path="url(#a)" fill="#443e46"><path d="m22.3007 12.9551c-2.9403 0-4.1137 2.3813-4.1137 4.4174s1.1734 4.4173 4.1137 4.4173c1.8704 0 3.1611-.8351 3.8928-2.4985l-1.698-.6281c-.5107.8835-1.2078 1.3252-2.0706 1.3252-1.2217 0-1.974-.9042-2.0223-1.9395h5.8944v-.8697c0-.9663-.3037-1.974-.918-2.8022-.6143-.8697-1.7186-1.4288-3.0783-1.4288zm-1.8498 3.4304c.1518-.8973.849-1.6289 1.8498-1.6289s1.5944.5453 1.8359 1.6289z"/><path d="m12.479 21.7899c2.4641 0 3.7893-1.2424 3.7893-4.3138v-7.71658h-2.2087v7.95118c0 1.4978-.559 2.0362-1.5806 2.0362-.8006 0-1.3114-.4901-1.4977-1.4978l-2.17417.4555c.25538 1.9188 1.61507 3.0784 3.67187 3.0784z"/><path d="m41.0814 21.6519h2.1051v-8.5655h-2.1051v3.4166c0 2.1603-.8697 3.4855-1.9533 3.4855-.8145 0-1.2217-.4762-1.2217-1.408v-5.4872h-2.1051v6.1153c0 1.6841 1.056 2.5814 2.6366 2.5814 1.0698 0 1.9533-.5108 2.6504-1.5116v1.3735z"/><path d="m50.0541 17.1035c-.2692-.1519-.4762-.2692-.6143-.3244l-.7316-.2554-.6143-.2209c-.5452-.207-.8144-.4762-.8144-.8351 0-.4556.3589-.7109.7799-.7109.5591 0 1.0353.2553 1.4287.7454l1.2562-1.1527c-.5452-.8351-1.546-1.3942-2.6849-1.3942-.8006 0-1.4632.2416-1.9671.7316-.5107.4901-.7661 1.0699-.7661 1.767 0 1.2217.6488 1.8497 1.7324 2.3122.3244.138.918.3244 1.2079.4555.1518.0483.3244.1174.4762.2071.3244.1518.4556.3727.4556.6419 0 .6143-.3589.918-1.0561.918-.8006 0-1.3735-.4763-1.7186-1.4081l-1.6841.8973c.2554.6143.6764 1.1527 1.2769 1.6151.5936.4555 1.3114.6971 2.1258.6971.8973 0 1.6289-.2692 2.1949-.8351.5591-.5591.849-1.2217.849-2.0224 0-.5935-.2692-1.1043-.5246-1.3942-.1173-.1518-.3244-.2899-.6143-.4417z"/><path d="m30.9215 19.9884c-.8006 0-1.3735-.4763-1.7186-1.408l-1.6841.8972c.2554.6143.6764 1.1527 1.2769 1.6151.5936.4556 1.3114.6971 2.1258.6971.8973 0 1.6289-.2691 2.1949-.8351.5591-.5591.849-1.2217.849-2.0223 0-.5936-.2692-1.1044-.5246-1.3943-.1173-.1518-.3244-.2898-.6143-.4417-.2692-.1518-.4762-.2692-.6143-.3244l-.7316-.2554-.6143-.2208c-.5452-.2071-.8144-.4763-.8144-.8352 0-.4555.3589-.7109.7799-.7109.5591 0 1.0353.2554 1.4287.7454l1.2562-1.1526c-.5452-.8352-1.546-1.3943-2.6849-1.3943-.8006 0-1.4632.2416-1.974.7317-.5107.49-.7661 1.0698-.7661 1.7669 0 1.2217.6488 1.8498 1.7324 2.3122.3244.1381.918.3244 1.2079.4555.1518.0484.3244.1174.4762.2071.3244.1519.4556.3727.4556.6419 0 .6143-.359.918-1.0561.918z"/><path d="m43.214 36.3534c0-.3313-.2209-.5453-.6005-.5453h-.6833v1.8843h.3313v-.7938h.2001l.5315.7938h.352l-.5453-.8145c.2416-.0552.4142-.2415.4142-.5245zm-.9525.2623v-.5246h.3313c.1932 0 .2968.0966.2968.2623 0 .1656-.0967.2623-.2968.2623z"/><path d="m42.5722 35.0212c-.9455-.0138-1.6979.7661-1.6841 1.7324-.0138.9732.7386 1.7531 1.6841 1.7324.9456.0207 1.698-.7592 1.6842-1.7324.0138-.9663-.7386-1.7462-1.6842-1.7324zm0 3.1335c-.7868 0-1.339-.6005-1.339-1.3942s.5522-1.3942 1.339-1.3942c.7869 0 1.339.6005 1.339 1.3942s-.5521 1.3942-1.339 1.3942z"/><path d="m21.1274 29.9275h-2.1052v8.5655h2.1052z"/><path d="m9.75952 38.493h2.20868v-5.1007h4.2862v-2.0361h-4.2862v-2.7194h5.3215v-2.043h-7.53018z"/><path d="m37.3543 29.7896c-1.0836 0-1.9533.5935-2.6159 1.7669-.3589-1.1734-1.2907-1.7669-2.395-1.7669-.9663 0-1.8015.5107-2.4641 1.5115v-1.3735h-2.1051v8.5655h2.1051v-3.1405c0-2.4433.7661-3.7547 1.8498-3.7547.6971 0 1.056.3934 1.056 1.1872v5.708h2.1051v-3.3268c0-2.3122.7662-3.5684 1.8498-3.5684.6971 0 1.056.3934 1.056 1.1872v5.708h2.1052v-6.0669c0-1.6496-.9663-2.6366-2.5469-2.6366z"/><path d="m25.5446 26.4626h-2.1051v12.0304h2.1051z"/><path d="m19.2224 26.6076c-.4694.4694-.4694 1.2493 0 1.7117.4693.4694 1.2492.4694 1.7117 0 .4693-.4693.4693-1.2492 0-1.7117-.4694-.4693-1.2493-.4693-1.7117 0z"/><path d="m54.3403 0h-48.68057c-3.11976 0-5.65973 2.53997-5.65973 5.65973v48.68057c0 3.1197 2.53997 5.6597 5.65973 5.6597h48.68057c3.1197 0 5.6597-2.54 5.6597-5.6597v-48.68057c0-3.11976-2.54-5.65973-5.6597-5.65973zm3.1749 54.3403c0 1.7531-1.4218 3.1749-3.1749 3.1749h-48.68057c-1.75314 0-3.17497-1.4218-3.17497-3.1749v-48.68057c0-1.75314 1.42183-3.17497 3.17497-3.17497h48.68057c1.7531 0 3.1749 1.42183 3.1749 3.17497z"/></g></svg>