<?xml version="1.0" encoding="UTF-8"?><svg id="Layer_2" xmlns="http://www.w3.org/2000/svg" viewBox="0 0 86.93 86.93"><defs><style>.cls-1{fill:#ee3441;}</style></defs><g id="Artwork"><g><path class="cls-1" d="M32.31,18.77c-4.26,0-5.96,3.45-5.96,6.4s1.7,6.4,5.96,6.4c2.71,0,4.58-1.21,5.64-3.62l-2.46-.91c-.74,1.28-1.75,1.92-3,1.92-1.77,0-2.86-1.31-2.93-2.81h8.54v-1.26c0-1.4-.44-2.86-1.33-4.06-.89-1.26-2.49-2.07-4.46-2.07Zm-2.68,4.97c.22-1.3,1.23-2.36,2.68-2.36s2.31,.79,2.66,2.36h-5.34Z"/><path class="cls-1" d="M18.08,31.57c3.57,0,5.49-1.8,5.49-6.25V14.14h-3.2v11.52c0,2.17-.81,2.95-2.29,2.95-1.16,0-1.9-.71-2.17-2.17l-3.15,.66c.37,2.78,2.34,4.46,5.32,4.46Z"/><path class="cls-1" d="M59.52,31.37h3.05v-12.41h-3.05v4.95c0,3.13-1.26,5.05-2.83,5.05-1.18,0-1.77-.69-1.77-2.04v-7.95h-3.05v8.86c0,2.44,1.53,3.74,3.82,3.74,1.55,0,2.83-.74,3.84-2.19v1.99Z"/><path class="cls-1" d="M72.52,24.78c-.39-.22-.69-.39-.89-.47l-1.06-.37-.89-.32c-.79-.3-1.18-.69-1.18-1.21,0-.66,.52-1.03,1.13-1.03,.81,0,1.5,.37,2.07,1.08l1.82-1.67c-.79-1.21-2.24-2.02-3.89-2.02-1.16,0-2.12,.35-2.85,1.06-.74,.71-1.11,1.55-1.11,2.56,0,1.77,.94,2.68,2.51,3.35,.47,.2,1.33,.47,1.75,.66,.22,.07,.47,.17,.69,.3,.47,.22,.66,.54,.66,.93,0,.89-.52,1.33-1.53,1.33-1.16,0-1.99-.69-2.49-2.04l-2.44,1.3c.37,.89,.98,1.67,1.85,2.34,.86,.66,1.9,1.01,3.08,1.01,1.3,0,2.36-.39,3.18-1.21,.81-.81,1.23-1.77,1.23-2.93,0-.86-.39-1.6-.76-2.02-.17-.22-.47-.42-.89-.64Z"/><path class="cls-1" d="M44.8,28.96c-1.16,0-1.99-.69-2.49-2.04l-2.44,1.3c.37,.89,.98,1.67,1.85,2.34,.86,.66,1.9,1.01,3.08,1.01,1.3,0,2.36-.39,3.18-1.21,.81-.81,1.23-1.77,1.23-2.93,0-.86-.39-1.6-.76-2.02-.17-.22-.47-.42-.89-.64-.39-.22-.69-.39-.89-.47l-1.06-.37-.89-.32c-.79-.3-1.18-.69-1.18-1.21,0-.66,.52-1.03,1.13-1.03,.81,0,1.5,.37,2.07,1.08l1.82-1.67c-.79-1.21-2.24-2.02-3.89-2.02-1.16,0-2.12,.35-2.86,1.06-.74,.71-1.11,1.55-1.11,2.56,0,1.77,.94,2.68,2.51,3.35,.47,.2,1.33,.47,1.75,.66,.22,.07,.47,.17,.69,.3,.47,.22,.66,.54,.66,.93,0,.89-.52,1.33-1.53,1.33Z"/><path class="cls-1" d="M62.61,52.67c0-.48-.32-.79-.87-.79h-.99v2.73h.48v-1.15h.29l.77,1.15h.51l-.79-1.18c.35-.08,.6-.35,.6-.76Zm-1.38,.38v-.76h.48c.28,0,.43,.14,.43,.38s-.14,.38-.43,.38h-.48Z"/><path class="cls-1" d="M61.68,50.74c-1.37-.02-2.46,1.11-2.44,2.51-.02,1.41,1.07,2.54,2.44,2.51,1.37,.03,2.46-1.1,2.44-2.51,.02-1.4-1.07-2.53-2.44-2.51Zm0,4.54c-1.14,0-1.94-.87-1.94-2.02s.8-2.02,1.94-2.02,1.94,.87,1.94,2.02-.8,2.02-1.94,2.02Z"/><rect class="cls-1" x="27.56" y="43.36" width="3.05" height="12.41"/><polygon class="cls-1" points="14.14 55.77 17.34 55.77 17.34 48.38 23.55 48.38 23.55 45.43 17.34 45.43 17.34 41.49 25.05 41.49 25.05 38.53 14.14 38.53 14.14 55.77"/><path class="cls-1" d="M54.12,43.16c-1.57,0-2.83,.86-3.79,2.56-.52-1.7-1.87-2.56-3.47-2.56-1.4,0-2.61,.74-3.57,2.19v-1.99h-3.05v12.41h3.05v-4.55c0-3.54,1.11-5.44,2.68-5.44,1.01,0,1.53,.57,1.53,1.72v8.27h3.05v-4.82c0-3.35,1.11-5.17,2.68-5.17,1.01,0,1.53,.57,1.53,1.72v8.27h3.05v-8.79c0-2.39-1.4-3.82-3.69-3.82Z"/><rect class="cls-1" x="33.96" y="38.34" width="3.05" height="17.43"/><path class="cls-1" d="M27.85,38.55c-.68,.68-.68,1.81,0,2.48,.68,.68,1.81,.68,2.48,0,.68-.68,.68-1.81,0-2.48-.68-.68-1.81-.68-2.48,0Z"/><path class="cls-1" d="M78.73,0H8.2C3.68,0,0,3.68,0,8.2V78.73c0,4.52,3.68,8.2,8.2,8.2H78.73c4.52,0,8.2-3.68,8.2-8.2V8.2c0-4.52-3.68-8.2-8.2-8.2Zm4.6,78.73c0,2.54-2.06,4.6-4.6,4.6H8.2c-2.54,0-4.6-2.06-4.6-4.6V8.2c0-2.54,2.06-4.6,4.6-4.6H78.73c2.54,0,4.6,2.06,4.6,4.6V78.73Z"/></g></g></svg>