<svg width="152" height="68" viewBox="0 0 152 68" fill="none" xmlns="http://www.w3.org/2000/svg">
<path d="M0.770813 66.2755V53.9639C0.770813 53.7068 0.859813 53.4859 1.03781 53.3013C1.21581 53.1167 1.43337 53.0244 1.69048 53.0244H4.59782C4.82856 53.0244 5.07248 53.1167 5.32959 53.3013C5.58671 53.4859 5.79767 53.7068 5.96248 53.9639L11.9354 63.1507V53.9441C11.9354 53.687 12.0244 53.4694 12.2024 53.2914C12.387 53.1134 12.6078 53.0244 12.8649 53.0244H14.5658C14.8229 53.0244 15.0405 53.1134 15.2185 53.2914C15.4031 53.4694 15.4954 53.6936 15.4954 53.9639V66.2755C15.4954 66.5327 15.4031 66.7535 15.2185 66.9381C15.0405 67.1161 14.8229 67.2051 14.5658 67.2051H11.2827C11.0256 67.2051 10.7619 67.1161 10.4916 66.9381C10.2213 66.7535 10.007 66.5327 9.84882 66.2755L4.38026 57.7909V66.2755C4.38026 66.5327 4.28796 66.7535 4.10337 66.9381C3.92537 67.1161 3.70782 67.2051 3.4507 67.2051H1.71026C1.45315 67.2051 1.23229 67.1161 1.0477 66.9381C0.863109 66.7535 0.770813 66.5327 0.770813 66.2755Z" fill="black"/>
<path d="M19.9971 66.2558V53.9441C19.9971 53.687 20.0894 53.4694 20.274 53.2914C20.4586 53.1134 20.6794 53.0244 20.9365 53.0244H32.3384C32.5955 53.0244 32.8131 53.1167 32.9911 53.3013C33.1757 53.4859 33.268 53.7068 33.268 53.9639V54.8934C33.268 55.1505 33.1757 55.3714 32.9911 55.556C32.8131 55.734 32.5955 55.823 32.3384 55.823H23.7252V58.7007H31.1419C31.399 58.7007 31.6165 58.7929 31.7945 58.9775C31.9791 59.1555 32.0714 59.3731 32.0714 59.6302V60.5598C32.0714 60.8169 31.9791 61.0377 31.7945 61.2223C31.6165 61.4003 31.399 61.4893 31.1419 61.4893H23.7252V64.4065H32.3187C32.5692 64.4065 32.7834 64.4955 32.9614 64.6735C33.1394 64.8515 33.2284 65.0691 33.2284 65.3262V66.2755C33.2284 66.5327 33.1361 66.7535 32.9515 66.9381C32.7669 67.1161 32.5461 67.2051 32.289 67.2051H20.9365C20.6794 67.2051 20.4586 67.1161 20.274 66.9381C20.0894 66.7535 19.9971 66.5261 19.9971 66.2558Z" fill="black"/>
<path d="M36.0886 67.2051C35.7589 67.2051 35.5744 67.0568 35.5348 66.7601C35.5348 66.6151 35.604 66.4535 35.7425 66.2755L40.7265 59.917L36.0292 53.9639C35.8908 53.7925 35.8216 53.6309 35.8216 53.4793C35.8216 53.1761 36.0029 53.0244 36.3655 53.0244H38.4916C39.1508 53.0244 39.7277 53.3376 40.2221 53.9639L42.9317 57.4052L45.6413 53.9639C46.1291 53.3442 46.706 53.031 47.3718 53.0244H49.4979C49.8605 53.0244 50.0418 53.1761 50.0418 53.4793C50.0418 53.6244 49.9726 53.7859 49.8341 53.9639L45.1369 59.917L50.1209 66.2755C50.2594 66.447 50.3286 66.5854 50.3286 66.6909C50.3286 66.7964 50.3154 66.8722 50.289 66.9183C50.2165 67.1095 50.0451 67.2051 49.7748 67.2051H47.6685C47.0092 67.2051 46.4357 66.8952 45.9478 66.2755L42.9317 62.4288L39.9156 66.2755C39.4277 66.8952 38.8542 67.2051 38.1949 67.2051H36.0886Z" fill="black"/>
<path d="M52.3877 54.8934V53.9639C52.3877 53.6936 52.4767 53.4694 52.6547 53.2914C52.8327 53.1134 53.0569 53.0244 53.3272 53.0244H65.8762C66.1465 53.0244 66.3706 53.1134 66.5486 53.2914C66.7266 53.4694 66.8156 53.6936 66.8156 53.9639V54.8934C66.8156 55.1637 66.7266 55.3879 66.5486 55.5659C66.3706 55.7373 66.1465 55.823 65.8762 55.823H61.4658V66.2953C61.4658 66.5524 61.3735 66.77 61.1889 66.948C61.0109 67.1194 60.7933 67.2051 60.5362 67.2051H58.6672C58.4101 67.2051 58.1892 67.1194 58.0046 66.948C57.8266 66.77 57.7376 66.5524 57.7376 66.2953V55.823H53.3272C53.0569 55.823 52.8327 55.7373 52.6547 55.5659C52.4767 55.3879 52.3877 55.1637 52.3877 54.8934Z" fill="black"/>
<path d="M69.0923 63.5759C69.0923 63.1869 69.2077 62.91 69.4385 62.7452C69.6692 62.5738 69.8933 62.4881 70.1109 62.4881H71.2877C71.881 62.4881 72.3326 62.8111 72.6425 63.4572C72.9523 64.1033 73.6478 64.4263 74.729 64.4263L78.1901 64.4955C79.3504 64.4955 79.9306 64.1165 79.9306 63.3583C79.9306 62.7848 79.2219 62.3332 77.8045 62.0035C77.1716 61.8519 76.4728 61.7036 75.708 61.5585C74.9433 61.4069 74.1818 61.219 73.4237 60.9949C72.6721 60.7707 71.9799 60.507 71.347 60.2038C70.7141 59.9005 70.1999 59.4852 69.8043 58.9578C69.4154 58.4238 69.2209 57.7975 69.2209 57.0789C69.2209 55.7538 69.6923 54.7352 70.635 54.0232C71.5778 53.3046 73.1995 52.9453 75.5004 52.9453L78.0121 53.0046C79.3636 53.0046 80.5799 53.3541 81.6611 54.0529C82.7489 54.7451 83.2928 55.612 83.2928 56.6536C83.2928 57.0426 83.1774 57.3228 82.9467 57.4942C82.716 57.6656 82.4951 57.7513 82.2841 57.7513H81.1074C80.514 57.7513 80.0624 57.4283 79.7526 56.7822C79.4427 56.1295 78.7472 55.8032 77.666 55.8032L74.6895 55.7439C73.5292 55.7439 72.949 56.1229 72.949 56.8811C72.949 57.2964 73.3149 57.6359 74.0467 57.8996C74.7851 58.1634 75.6751 58.3974 76.7167 58.6018C77.7649 58.7995 78.8164 59.0402 79.8712 59.3237C80.9261 59.6071 81.8194 60.0752 82.5511 60.7279C83.2895 61.3739 83.6587 62.1815 83.6587 63.1507C83.6587 64.4758 83.184 65.4976 82.2347 66.2162C81.2919 66.9282 79.6735 67.2842 77.3792 67.2842L74.3829 67.2249C73.0314 67.2249 71.8118 66.8788 70.724 66.1865C69.6362 65.4877 69.0923 64.6175 69.0923 63.5759Z" fill="black"/>
<path d="M85.8365 54.8934V53.9639C85.8365 53.6936 85.9255 53.4694 86.1035 53.2914C86.2815 53.1134 86.5057 53.0244 86.776 53.0244H99.325C99.5953 53.0244 99.8194 53.1134 99.9974 53.2914C100.175 53.4694 100.264 53.6936 100.264 53.9639V54.8934C100.264 55.1637 100.175 55.3879 99.9974 55.5659C99.8194 55.7373 99.5953 55.823 99.325 55.823H94.9145V66.2953C94.9145 66.5524 94.8222 66.77 94.6376 66.948C94.4596 67.1194 94.2421 67.2051 93.985 67.2051H92.116C91.8588 67.2051 91.638 67.1194 91.4534 66.948C91.2754 66.77 91.1864 66.5524 91.1864 66.2953V55.823H86.776C86.5057 55.823 86.2815 55.7373 86.1035 55.5659C85.9255 55.3879 85.8365 55.1637 85.8365 54.8934Z" fill="black"/>
<path d="M103.55 66.2558V53.9441C103.55 53.687 103.642 53.4694 103.827 53.2914C104.011 53.1134 104.232 53.0244 104.489 53.0244H115.891C116.148 53.0244 116.366 53.1167 116.544 53.3013C116.728 53.4859 116.821 53.7068 116.821 53.9639V54.8934C116.821 55.1505 116.728 55.3714 116.544 55.556C116.366 55.734 116.148 55.823 115.891 55.823H107.278V58.7007H114.695C114.952 58.7007 115.169 58.7929 115.347 58.9775C115.532 59.1555 115.624 59.3731 115.624 59.6302V60.5598C115.624 60.8169 115.532 61.0377 115.347 61.2223C115.169 61.4003 114.952 61.4893 114.695 61.4893H107.278V64.4065H115.871C116.122 64.4065 116.336 64.4955 116.514 64.6735C116.692 64.8515 116.781 65.0691 116.781 65.3262V66.2755C116.781 66.5327 116.689 66.7535 116.504 66.9381C116.32 67.1161 116.099 67.2051 115.842 67.2051H104.489C104.232 67.2051 104.011 67.1161 103.827 66.9381C103.642 66.7535 103.55 66.5261 103.55 66.2558Z" fill="black"/>
<path d="M120.304 66.2755V53.9639C120.304 53.7068 120.393 53.4859 120.571 53.3013C120.749 53.1167 120.966 53.0244 121.224 53.0244H128.769C132.757 53.0244 134.752 54.8638 134.752 58.5424C134.752 62.2145 132.757 64.0505 128.769 64.0505H124.032V66.2755C124.032 66.5327 123.94 66.7535 123.755 66.9381C123.577 67.1161 123.36 67.2051 123.102 67.2051H121.243C120.986 67.2051 120.765 67.1161 120.581 66.9381C120.396 66.7535 120.304 66.5327 120.304 66.2755ZM124.032 61.252H127.641C128.749 61.252 129.59 61.0674 130.163 60.6982C130.737 60.3224 131.023 59.6038 131.023 58.5424C131.023 57.4744 130.737 56.7558 130.163 56.3866C129.59 56.0109 128.749 55.823 127.641 55.823H124.032V61.252Z" fill="black"/>
<path d="M137.434 63.5759C137.434 63.1869 137.549 62.91 137.78 62.7452C138.011 62.5738 138.235 62.4881 138.452 62.4881H139.629C140.222 62.4881 140.674 62.8111 140.984 63.4572C141.294 64.1033 141.989 64.4263 143.07 64.4263L146.531 64.4955C147.692 64.4955 148.272 64.1165 148.272 63.3583C148.272 62.7848 147.563 62.3332 146.146 62.0035C145.513 61.8519 144.814 61.7036 144.049 61.5585C143.285 61.4069 142.523 61.219 141.765 60.9949C141.013 60.7707 140.321 60.507 139.688 60.2038C139.055 59.9005 138.541 59.4852 138.146 58.9578C137.757 58.4238 137.562 57.7975 137.562 57.0789C137.562 55.7538 138.034 54.7352 138.976 54.0232C139.919 53.3046 141.541 52.9453 143.842 52.9453L146.353 53.0046C147.705 53.0046 148.921 53.3541 150.002 54.0529C151.09 54.7451 151.634 55.612 151.634 56.6536C151.634 57.0426 151.519 57.3228 151.288 57.4942C151.057 57.6656 150.836 57.7513 150.625 57.7513H149.449C148.855 57.7513 148.404 57.4283 148.094 56.7822C147.784 56.1295 147.089 55.8032 146.007 55.8032L143.031 55.7439C141.87 55.7439 141.29 56.1229 141.29 56.8811C141.29 57.2964 141.656 57.6359 142.388 57.8996C143.126 58.1634 144.016 58.3974 145.058 58.6018C146.106 58.7995 147.158 59.0402 148.213 59.3237C149.267 59.6071 150.161 60.0752 150.892 60.7279C151.631 61.3739 152 62.1815 152 63.1507C152 64.4758 151.525 65.4976 150.576 66.2162C149.633 66.9282 148.015 67.2842 145.721 67.2842L142.724 67.2249C141.373 67.2249 140.153 66.8788 139.065 66.1865C137.978 65.4877 137.434 64.6175 137.434 63.5759Z" fill="black"/>
<path d="M67.4517 2.66126C67.4517 1.55669 68.3471 0.661255 69.4517 0.661255H97.5985C98.703 0.661255 99.5985 1.55669 99.5985 2.66125V27.3367C99.5985 28.7369 98.1968 29.7037 96.888 29.2063L68.7413 18.5105C67.9649 18.2155 67.4517 17.4715 67.4517 16.641V2.66126Z" fill="#A3232E"/>
<path d="M86.2576 31.9331C86.2576 33.0377 85.3621 33.9331 84.2576 33.9331H56.1108C55.0062 33.9331 54.1108 33.0377 54.1108 31.9331V7.25762C54.1108 5.85749 55.5124 4.8907 56.8212 5.38805L84.968 16.0838C85.7443 16.3788 86.2576 17.1229 86.2576 17.9534V31.9331Z" fill="#C52D3A"/>
</svg>
