<svg aria-roledescription="er" role="graphics-document document" viewBox="0 0 442.2586669921875 440" style="max-width: 442.259px; background-color: white;" xmlns:xlink="http://www.w3.org/1999/xlink" xmlns="http://www.w3.org/2000/svg" width="100%" id="my-svg"><style>#my-svg{font-family:"trebuchet ms",verdana,arial,sans-serif;font-size:16px;fill:#000000;}#my-svg .error-icon{fill:#552222;}#my-svg .error-text{fill:#552222;stroke:#552222;}#my-svg .edge-thickness-normal{stroke-width:2px;}#my-svg .edge-thickness-thick{stroke-width:3.5px;}#my-svg .edge-pattern-solid{stroke-dasharray:0;}#my-svg .edge-pattern-dashed{stroke-dasharray:3;}#my-svg .edge-pattern-dotted{stroke-dasharray:2;}#my-svg .marker{fill:#000000;stroke:#000000;}#my-svg .marker.cross{stroke:#000000;}#my-svg svg{font-family:"trebuchet ms",verdana,arial,sans-serif;font-size:16px;}#my-svg .entityBox{fill:#cde498;stroke:#13540c;}#my-svg .attributeBoxOdd{fill:#ffffff;stroke:#13540c;}#my-svg .attributeBoxEven{fill:#f2f2f2;stroke:#13540c;}#my-svg .relationshipLabelBox{fill:hsl(78.1578947368, 58.4615384615%, 84.5098039216%);opacity:0.7;background-color:hsl(78.1578947368, 58.4615384615%, 84.5098039216%);}#my-svg .relationshipLabelBox rect{opacity:0.5;}#my-svg .relationshipLine{stroke:#000000;}#my-svg .entityTitleText{text-anchor:middle;font-size:18px;fill:#000000;}#my-svg #MD_PARENT_START{fill:#f5f5f5!important;stroke:#000000!important;stroke-width:1;}#my-svg #MD_PARENT_END{fill:#f5f5f5!important;stroke:#000000!important;stroke-width:1;}#my-svg :root{--mermaid-font-family:"trebuchet ms",verdana,arial,sans-serif;}</style><g/><defs><marker orient="auto" markerHeight="240" markerWidth="190" refY="7" refX="0" id="MD_PARENT_START"><path d="M 18,7 L9,13 L1,7 L9,1 Z"/></marker></defs><defs><marker orient="auto" markerHeight="28" markerWidth="20" refY="7" refX="19" id="MD_PARENT_END"><path d="M 18,7 L9,13 L1,7 L9,1 Z"/></marker></defs><defs><marker orient="auto" markerHeight="18" markerWidth="18" refY="9" refX="0" id="ONLY_ONE_START"><path d="M9,0 L9,18 M15,0 L15,18" fill="none" stroke="gray"/></marker></defs><defs><marker orient="auto" markerHeight="18" markerWidth="18" refY="9" refX="18" id="ONLY_ONE_END"><path d="M3,0 L3,18 M9,0 L9,18" fill="none" stroke="gray"/></marker></defs><defs><marker orient="auto" markerHeight="18" markerWidth="30" refY="9" refX="0" id="ZERO_OR_ONE_START"><circle r="6" cy="9" cx="21" fill="white" stroke="gray"/><path d="M9,0 L9,18" fill="none" stroke="gray"/></marker></defs><defs><marker orient="auto" markerHeight="18" markerWidth="30" refY="9" refX="30" id="ZERO_OR_ONE_END"><circle r="6" cy="9" cx="9" fill="white" stroke="gray"/><path d="M21,0 L21,18" fill="none" stroke="gray"/></marker></defs><defs><marker orient="auto" markerHeight="36" markerWidth="45" refY="18" refX="18" id="ONE_OR_MORE_START"><path d="M0,18 Q 18,0 36,18 Q 18,36 0,18 M42,9 L42,27" fill="none" stroke="gray"/></marker></defs><defs><marker orient="auto" markerHeight="36" markerWidth="45" refY="18" refX="27" id="ONE_OR_MORE_END"><path d="M3,9 L3,27 M9,18 Q27,0 45,18 Q27,36 9,18" fill="none" stroke="gray"/></marker></defs><defs><marker orient="auto" markerHeight="36" markerWidth="57" refY="18" refX="18" id="ZERO_OR_MORE_START"><circle r="6" cy="18" cx="48" fill="white" stroke="gray"/><path d="M0,18 Q18,0 36,18 Q18,36 0,18" fill="none" stroke="gray"/></marker></defs><defs><marker orient="auto" markerHeight="36" markerWidth="57" refY="18" refX="39" id="ZERO_OR_MORE_END"><circle r="6" cy="18" cx="9" fill="white" stroke="gray"/><path d="M21,18 Q39,0 57,18 Q39,36 21,18" fill="none" stroke="gray"/></marker></defs><path style="stroke: gray; fill: none;" marker-start="url(#ZERO_OR_MORE_START)" marker-end="url(#ZERO_OR_MORE_END)" d="M77.5625,170L74.22916666666667,178.33333333333334C70.89583333333333,186.66666666666666,64.22916666666667,203.33333333333334,64.22916666666667,220C64.22916666666667,236.66666666666666,70.89583333333333,253.33333333333334,74.22916666666667,261.6666666666667L77.5625,270" class="er relationshipLine"/><path style="stroke: gray; fill: none;" marker-start="url(#ZERO_OR_ONE_START)" marker-end="url(#ZERO_OR_ONE_END)" d="M195.125,53.32011106703689L206.79166666666666,47.766759222530744C218.45833333333334,42.21340737802459,241.79166666666666,31.106703689012296,256.375,25.55335184450615C270.9583333333333,20,276.7916666666667,20,282.625,32.5C288.4583333333333,45,294.2916666666667,70,294.2916666666667,95C294.2916666666667,120,288.4583333333333,145,282.625,157.5C276.7916666666667,170,270.9583333333333,170,256.375,164.44664815549385C241.79166666666666,158.8932963109877,218.45833333333334,147.78659262197542,206.79166666666666,142.23324077746926L195.125,136.6798889329631" class="er relationshipLine"/><path style="stroke: gray; fill: none;" marker-start="url(#ZERO_OR_MORE_START)" marker-end="url(#ZERO_OR_MORE_END)" d="M195.125,66.55779121176577L219.0138888888889,58.798159343138146C242.9027777777778,51.038527474510516,290.6805555555556,35.51926373725526,320.5416666666667,27.759631868627633C350.4027777777778,20,362.3472222222222,20,374.2916666666667,32.5C386.2361111111111,45,398.1805555555555,70,398.1805555555555,95C398.1805555555555,120,386.2361111111111,145,374.2916666666667,157.5C362.3472222222222,170,350.4027777777778,170,320.5416666666667,162.24036813137238C290.6805555555556,154.48073626274473,242.9027777777778,138.96147252548948,219.0138888888889,131.20184065686183L195.125,123.44220878823423" class="er relationshipLine"/><path style="stroke: gray; fill: none;" marker-start="url(#ZERO_OR_ONE_START)" marker-end="url(#ONLY_ONE_END)" d="M137.5625,270L140.89583333333334,261.6666666666667C144.22916666666666,253.33333333333334,150.89583333333334,236.66666666666666,150.89583333333334,220C150.89583333333334,203.33333333333334,144.22916666666666,186.66666666666666,140.89583333333334,178.33333333333334L137.5625,170" class="er relationshipLine"/><g transform="translate(20,20 )" id="entity-Tag-79f01a75-328e-5fee-acfd-3ecc1e7e19fa"><rect height="150" width="175.125" y="0" x="0" class="er entityBox"/><text style="dominant-baseline: middle; text-anchor: middle; font-size: 12px;" transform="translate(87.5625,12)" y="0" x="0" id="text-entity-Tag-79f01a75-328e-5fee-acfd-3ecc1e7e19fa" class="er entityLabel">Tag</text><rect height="21" width="59.28125" y="24" x="0" class="er attributeBoxOdd"/><text style="dominant-baseline: middle; font-size: 10.2px;" transform="translate(5,34.5)" y="0" x="0" id="text-entity-Tag-79f01a75-328e-5fee-acfd-3ecc1e7e19fa-attr-1-type" class="er entityLabel">String</text><rect height="21" width="99.71875" y="24" x="59.28125" class="er attributeBoxOdd"/><text style="dominant-baseline: middle; font-size: 10.2px;" transform="translate(64.28125,34.5)" y="0" x="0" id="text-entity-Tag-79f01a75-328e-5fee-acfd-3ecc1e7e19fa-attr-1-name" class="er entityLabel">id</text><rect height="21" width="16.125" y="24" x="159" class="er attributeBoxOdd"/><text style="dominant-baseline: middle; font-size: 10.2px;" transform="translate(164,34.5)" y="0" x="0" id="text-entity-Tag-79f01a75-328e-5fee-acfd-3ecc1e7e19fa-attr-1-comment" class="er entityLabel">🗝️</text><rect height="21" width="59.28125" y="45" x="0" class="er attributeBoxEven"/><text style="dominant-baseline: middle; font-size: 10.2px;" transform="translate(5,55.5)" y="0" x="0" id="text-entity-Tag-79f01a75-328e-5fee-acfd-3ecc1e7e19fa-attr-2-type" class="er entityLabel">DateTime</text><rect height="21" width="99.71875" y="45" x="59.28125" class="er attributeBoxEven"/><text style="dominant-baseline: middle; font-size: 10.2px;" transform="translate(64.28125,55.5)" y="0" x="0" id="text-entity-Tag-79f01a75-328e-5fee-acfd-3ecc1e7e19fa-attr-2-name" class="er entityLabel">createdAt</text><rect height="21" width="16.125" y="45" x="159" class="er attributeBoxEven"/><text style="dominant-baseline: middle; font-size: 10.2px;" transform="translate(164,55.5)" y="0" x="0" id="text-entity-Tag-79f01a75-328e-5fee-acfd-3ecc1e7e19fa-attr-2-comment" class="er entityLabel"/><rect height="21" width="59.28125" y="66" x="0" class="er attributeBoxOdd"/><text style="dominant-baseline: middle; font-size: 10.2px;" transform="translate(5,76.5)" y="0" x="0" id="text-entity-Tag-79f01a75-328e-5fee-acfd-3ecc1e7e19fa-attr-3-type" class="er entityLabel">DateTime</text><rect height="21" width="99.71875" y="66" x="59.28125" class="er attributeBoxOdd"/><text style="dominant-baseline: middle; font-size: 10.2px;" transform="translate(64.28125,76.5)" y="0" x="0" id="text-entity-Tag-79f01a75-328e-5fee-acfd-3ecc1e7e19fa-attr-3-name" class="er entityLabel">updatedAt</text><rect height="21" width="16.125" y="66" x="159" class="er attributeBoxOdd"/><text style="dominant-baseline: middle; font-size: 10.2px;" transform="translate(164,76.5)" y="0" x="0" id="text-entity-Tag-79f01a75-328e-5fee-acfd-3ecc1e7e19fa-attr-3-comment" class="er entityLabel"/><rect height="21" width="59.28125" y="87" x="0" class="er attributeBoxEven"/><text style="dominant-baseline: middle; font-size: 10.2px;" transform="translate(5,97.5)" y="0" x="0" id="text-entity-Tag-79f01a75-328e-5fee-acfd-3ecc1e7e19fa-attr-4-type" class="er entityLabel">String</text><rect height="21" width="99.71875" y="87" x="59.28125" class="er attributeBoxEven"/><text style="dominant-baseline: middle; font-size: 10.2px;" transform="translate(64.28125,97.5)" y="0" x="0" id="text-entity-Tag-79f01a75-328e-5fee-acfd-3ecc1e7e19fa-attr-4-name" class="er entityLabel">name</text><rect height="21" width="16.125" y="87" x="159" class="er attributeBoxEven"/><text style="dominant-baseline: middle; font-size: 10.2px;" transform="translate(164,97.5)" y="0" x="0" id="text-entity-Tag-79f01a75-328e-5fee-acfd-3ecc1e7e19fa-attr-4-comment" class="er entityLabel"/><rect height="21" width="59.28125" y="108" x="0" class="er attributeBoxOdd"/><text style="dominant-baseline: middle; font-size: 10.2px;" transform="translate(5,118.5)" y="0" x="0" id="text-entity-Tag-79f01a75-328e-5fee-acfd-3ecc1e7e19fa-attr-5-type" class="er entityLabel">Json</text><rect height="21" width="99.71875" y="108" x="59.28125" class="er attributeBoxOdd"/><text style="dominant-baseline: middle; font-size: 10.2px;" transform="translate(64.28125,118.5)" y="0" x="0" id="text-entity-Tag-79f01a75-328e-5fee-acfd-3ecc1e7e19fa-attr-5-name" class="er entityLabel">nameTranslations</text><rect height="21" width="16.125" y="108" x="159" class="er attributeBoxOdd"/><text style="dominant-baseline: middle; font-size: 10.2px;" transform="translate(164,118.5)" y="0" x="0" id="text-entity-Tag-79f01a75-328e-5fee-acfd-3ecc1e7e19fa-attr-5-comment" class="er entityLabel"/><rect height="21" width="59.28125" y="129" x="0" class="er attributeBoxEven"/><text style="dominant-baseline: middle; font-size: 10.2px;" transform="translate(5,139.5)" y="0" x="0" id="text-entity-Tag-79f01a75-328e-5fee-acfd-3ecc1e7e19fa-attr-6-type" class="er entityLabel">Service</text><rect height="21" width="99.71875" y="129" x="59.28125" class="er attributeBoxEven"/><text style="dominant-baseline: middle; font-size: 10.2px;" transform="translate(64.28125,139.5)" y="0" x="0" id="text-entity-Tag-79f01a75-328e-5fee-acfd-3ecc1e7e19fa-attr-6-name" class="er entityLabel">service</text><rect height="21" width="16.125" y="129" x="159" class="er attributeBoxEven"/><text style="dominant-baseline: middle; font-size: 10.2px;" transform="translate(164,139.5)" y="0" x="0" id="text-entity-Tag-79f01a75-328e-5fee-acfd-3ecc1e7e19fa-attr-6-comment" class="er entityLabel">❓</text></g><g transform="translate(30.6640625,270 )" id="entity-Tagging-9f0fcd6f-980e-505d-b824-126739478779"><rect height="150" width="153.796875" y="0" x="0" class="er entityBox"/><text style="dominant-baseline: middle; text-anchor: middle; font-size: 12px;" transform="translate(76.8984375,12)" y="0" x="0" id="text-entity-Tagging-9f0fcd6f-980e-505d-b824-126739478779" class="er entityLabel">Tagging</text><rect height="21" width="59.28125" y="24" x="0" class="er attributeBoxOdd"/><text style="dominant-baseline: middle; font-size: 10.2px;" transform="translate(5,34.5)" y="0" x="0" id="text-entity-Tagging-9f0fcd6f-980e-505d-b824-126739478779-attr-1-type" class="er entityLabel">String</text><rect height="21" width="78.390625" y="24" x="59.28125" class="er attributeBoxOdd"/><text style="dominant-baseline: middle; font-size: 10.2px;" transform="translate(64.28125,34.5)" y="0" x="0" id="text-entity-Tagging-9f0fcd6f-980e-505d-b824-126739478779-attr-1-name" class="er entityLabel">id</text><rect height="21" width="16.125" y="24" x="137.671875" class="er attributeBoxOdd"/><text style="dominant-baseline: middle; font-size: 10.2px;" transform="translate(142.671875,34.5)" y="0" x="0" id="text-entity-Tagging-9f0fcd6f-980e-505d-b824-126739478779-attr-1-comment" class="er entityLabel">🗝️</text><rect height="21" width="59.28125" y="45" x="0" class="er attributeBoxEven"/><text style="dominant-baseline: middle; font-size: 10.2px;" transform="translate(5,55.5)" y="0" x="0" id="text-entity-Tagging-9f0fcd6f-980e-505d-b824-126739478779-attr-2-type" class="er entityLabel">DateTime</text><rect height="21" width="78.390625" y="45" x="59.28125" class="er attributeBoxEven"/><text style="dominant-baseline: middle; font-size: 10.2px;" transform="translate(64.28125,55.5)" y="0" x="0" id="text-entity-Tagging-9f0fcd6f-980e-505d-b824-126739478779-attr-2-name" class="er entityLabel">createdAt</text><rect height="21" width="16.125" y="45" x="137.671875" class="er attributeBoxEven"/><text style="dominant-baseline: middle; font-size: 10.2px;" transform="translate(142.671875,55.5)" y="0" x="0" id="text-entity-Tagging-9f0fcd6f-980e-505d-b824-126739478779-attr-2-comment" class="er entityLabel"/><rect height="21" width="59.28125" y="66" x="0" class="er attributeBoxOdd"/><text style="dominant-baseline: middle; font-size: 10.2px;" transform="translate(5,76.5)" y="0" x="0" id="text-entity-Tagging-9f0fcd6f-980e-505d-b824-126739478779-attr-3-type" class="er entityLabel">DateTime</text><rect height="21" width="78.390625" y="66" x="59.28125" class="er attributeBoxOdd"/><text style="dominant-baseline: middle; font-size: 10.2px;" transform="translate(64.28125,76.5)" y="0" x="0" id="text-entity-Tagging-9f0fcd6f-980e-505d-b824-126739478779-attr-3-name" class="er entityLabel">updatedAt</text><rect height="21" width="16.125" y="66" x="137.671875" class="er attributeBoxOdd"/><text style="dominant-baseline: middle; font-size: 10.2px;" transform="translate(142.671875,76.5)" y="0" x="0" id="text-entity-Tagging-9f0fcd6f-980e-505d-b824-126739478779-attr-3-comment" class="er entityLabel"/><rect height="21" width="59.28125" y="87" x="0" class="er attributeBoxEven"/><text style="dominant-baseline: middle; font-size: 10.2px;" transform="translate(5,97.5)" y="0" x="0" id="text-entity-Tagging-9f0fcd6f-980e-505d-b824-126739478779-attr-4-type" class="er entityLabel">String</text><rect height="21" width="78.390625" y="87" x="59.28125" class="er attributeBoxEven"/><text style="dominant-baseline: middle; font-size: 10.2px;" transform="translate(64.28125,97.5)" y="0" x="0" id="text-entity-Tagging-9f0fcd6f-980e-505d-b824-126739478779-attr-4-name" class="er entityLabel">taggableType</text><rect height="21" width="16.125" y="87" x="137.671875" class="er attributeBoxEven"/><text style="dominant-baseline: middle; font-size: 10.2px;" transform="translate(142.671875,97.5)" y="0" x="0" id="text-entity-Tagging-9f0fcd6f-980e-505d-b824-126739478779-attr-4-comment" class="er entityLabel"/><rect height="21" width="59.28125" y="108" x="0" class="er attributeBoxOdd"/><text style="dominant-baseline: middle; font-size: 10.2px;" transform="translate(5,118.5)" y="0" x="0" id="text-entity-Tagging-9f0fcd6f-980e-505d-b824-126739478779-attr-5-type" class="er entityLabel">String</text><rect height="21" width="78.390625" y="108" x="59.28125" class="er attributeBoxOdd"/><text style="dominant-baseline: middle; font-size: 10.2px;" transform="translate(64.28125,118.5)" y="0" x="0" id="text-entity-Tagging-9f0fcd6f-980e-505d-b824-126739478779-attr-5-name" class="er entityLabel">taggableId</text><rect height="21" width="16.125" y="108" x="137.671875" class="er attributeBoxOdd"/><text style="dominant-baseline: middle; font-size: 10.2px;" transform="translate(142.671875,118.5)" y="0" x="0" id="text-entity-Tagging-9f0fcd6f-980e-505d-b824-126739478779-attr-5-comment" class="er entityLabel"/><rect height="21" width="59.28125" y="129" x="0" class="er attributeBoxEven"/><text style="dominant-baseline: middle; font-size: 10.2px;" transform="translate(5,139.5)" y="0" x="0" id="text-entity-Tagging-9f0fcd6f-980e-505d-b824-126739478779-attr-6-type" class="er entityLabel">String</text><rect height="21" width="78.390625" y="129" x="59.28125" class="er attributeBoxEven"/><text style="dominant-baseline: middle; font-size: 10.2px;" transform="translate(64.28125,139.5)" y="0" x="0" id="text-entity-Tagging-9f0fcd6f-980e-505d-b824-126739478779-attr-6-name" class="er entityLabel">context</text><rect height="21" width="16.125" y="129" x="137.671875" class="er attributeBoxEven"/><text style="dominant-baseline: middle; font-size: 10.2px;" transform="translate(142.671875,139.5)" y="0" x="0" id="text-entity-Tagging-9f0fcd6f-980e-505d-b824-126739478779-attr-6-comment" class="er entityLabel"/></g><rect height="14" width="47.5" y="213" x="40.479164123535156" class="er relationshipLabelBox"/><text style="text-anchor: middle; dominant-baseline: middle; font-size: 12px;" y="220" x="64.22916412353516" id="rel1" class="er relationshipLabel">Tagging</text><rect height="14" width="39.62890625" y="88" x="274.4772033691406" class="er relationshipLabelBox"/><text style="text-anchor: middle; dominant-baseline: middle; font-size: 12px;" y="95" x="294.2916564941406" id="rel2" class="er relationshipLabel">parent</text><rect height="14" width="48.15625" y="88" x="374.1024169921875" class="er relationshipLabelBox"/><text style="text-anchor: middle; dominant-baseline: middle; font-size: 12px;" y="95" x="398.1805419921875" id="rel3" class="er relationshipLabel">children</text><rect height="14" width="19.6875" y="213" x="141.0520782470703" class="er relationshipLabelBox"/><text style="text-anchor: middle; dominant-baseline: middle; font-size: 12px;" y="220" x="150.8958282470703" id="rel4" class="er relationshipLabel">tag</text></svg>