<svg aria-roledescription="er" role="graphics-document document" viewBox="0 0 436.93756103515625 440" style="max-width: 436.938px; background-color: white;" xmlns:xlink="http://www.w3.org/1999/xlink" xmlns="http://www.w3.org/2000/svg" width="100%" id="my-svg"><style>#my-svg{font-family:"trebuchet ms",verdana,arial,sans-serif;font-size:16px;fill:#000000;}#my-svg .error-icon{fill:#552222;}#my-svg .error-text{fill:#552222;stroke:#552222;}#my-svg .edge-thickness-normal{stroke-width:2px;}#my-svg .edge-thickness-thick{stroke-width:3.5px;}#my-svg .edge-pattern-solid{stroke-dasharray:0;}#my-svg .edge-pattern-dashed{stroke-dasharray:3;}#my-svg .edge-pattern-dotted{stroke-dasharray:2;}#my-svg .marker{fill:#000000;stroke:#000000;}#my-svg .marker.cross{stroke:#000000;}#my-svg svg{font-family:"trebuchet ms",verdana,arial,sans-serif;font-size:16px;}#my-svg .entityBox{fill:#cde498;stroke:#13540c;}#my-svg .attributeBoxOdd{fill:#ffffff;stroke:#13540c;}#my-svg .attributeBoxEven{fill:#f2f2f2;stroke:#13540c;}#my-svg .relationshipLabelBox{fill:hsl(78.1578947368, 58.4615384615%, 84.5098039216%);opacity:0.7;background-color:hsl(78.1578947368, 58.4615384615%, 84.5098039216%);}#my-svg .relationshipLabelBox rect{opacity:0.5;}#my-svg .relationshipLine{stroke:#000000;}#my-svg .entityTitleText{text-anchor:middle;font-size:18px;fill:#000000;}#my-svg #MD_PARENT_START{fill:#f5f5f5!important;stroke:#000000!important;stroke-width:1;}#my-svg #MD_PARENT_END{fill:#f5f5f5!important;stroke:#000000!important;stroke-width:1;}#my-svg :root{--mermaid-font-family:"trebuchet ms",verdana,arial,sans-serif;}</style><g/><defs><marker orient="auto" markerHeight="240" markerWidth="190" refY="7" refX="0" id="MD_PARENT_START"><path d="M 18,7 L9,13 L1,7 L9,1 Z"/></marker></defs><defs><marker orient="auto" markerHeight="28" markerWidth="20" refY="7" refX="19" id="MD_PARENT_END"><path d="M 18,7 L9,13 L1,7 L9,1 Z"/></marker></defs><defs><marker orient="auto" markerHeight="18" markerWidth="18" refY="9" refX="0" id="ONLY_ONE_START"><path d="M9,0 L9,18 M15,0 L15,18" fill="none" stroke="gray"/></marker></defs><defs><marker orient="auto" markerHeight="18" markerWidth="18" refY="9" refX="18" id="ONLY_ONE_END"><path d="M3,0 L3,18 M9,0 L9,18" fill="none" stroke="gray"/></marker></defs><defs><marker orient="auto" markerHeight="18" markerWidth="30" refY="9" refX="0" id="ZERO_OR_ONE_START"><circle r="6" cy="9" cx="21" fill="white" stroke="gray"/><path d="M9,0 L9,18" fill="none" stroke="gray"/></marker></defs><defs><marker orient="auto" markerHeight="18" markerWidth="30" refY="9" refX="30" id="ZERO_OR_ONE_END"><circle r="6" cy="9" cx="9" fill="white" stroke="gray"/><path d="M21,0 L21,18" fill="none" stroke="gray"/></marker></defs><defs><marker orient="auto" markerHeight="36" markerWidth="45" refY="18" refX="18" id="ONE_OR_MORE_START"><path d="M0,18 Q 18,0 36,18 Q 18,36 0,18 M42,9 L42,27" fill="none" stroke="gray"/></marker></defs><defs><marker orient="auto" markerHeight="36" markerWidth="45" refY="18" refX="27" id="ONE_OR_MORE_END"><path d="M3,9 L3,27 M9,18 Q27,0 45,18 Q27,36 9,18" fill="none" stroke="gray"/></marker></defs><defs><marker orient="auto" markerHeight="36" markerWidth="57" refY="18" refX="18" id="ZERO_OR_MORE_START"><circle r="6" cy="18" cx="48" fill="white" stroke="gray"/><path d="M0,18 Q18,0 36,18 Q18,36 0,18" fill="none" stroke="gray"/></marker></defs><defs><marker orient="auto" markerHeight="36" markerWidth="57" refY="18" refX="39" id="ZERO_OR_MORE_END"><circle r="6" cy="18" cx="9" fill="white" stroke="gray"/><path d="M21,18 Q39,0 57,18 Q39,36 21,18" fill="none" stroke="gray"/></marker></defs><path style="stroke: gray; fill: none;" marker-start="url(#ZERO_OR_MORE_START)" marker-end="url(#ZERO_OR_MORE_END)" d="M69.22843933105469,170L65.89510599772136,178.33333333333334C62.56177266438802,186.66666666666666,55.89510599772135,203.33333333333334,55.89510599772135,220C55.89510599772135,236.66666666666666,62.56177266438802,253.33333333333334,65.89510599772136,261.6666666666667L69.22843933105469,270" class="er relationshipLine"/><path style="stroke: gray; fill: none;" marker-start="url(#ZERO_OR_ONE_START)" marker-end="url(#ZERO_OR_ONE_END)" d="M178.45687866210938,55.18096164199089L190.12354532877603,49.31746803499241C201.79021199544272,43.45397442799393,225.12354532877603,31.726987213996964,239.70687866210938,25.863493606998485C254.29021199544272,20,260.12354532877606,20,265.9568786621094,32.5C271.7902119954427,45,277.62354532877606,70,277.62354532877606,95C277.62354532877606,120,271.7902119954427,145,265.9568786621094,157.5C260.12354532877606,170,254.29021199544272,170,239.70687866210938,164.1365063930015C225.12354532877603,158.27301278600302,201.79021199544272,146.54602557200607,190.12354532877603,140.68253196500757L178.45687866210938,134.8190383580091" class="er relationshipLine"/><path style="stroke: gray; fill: none;" marker-start="url(#ZERO_OR_MORE_START)" marker-end="url(#ZERO_OR_MORE_END)" d="M178.45687866210938,68.30119688258623L202.3457675509983,60.250997402155186C226.23465643988717,52.20079792172415,274.012434217665,36.10039896086207,303.87354532877606,28.050199480431036C333.73465643988715,20,345.67910088433155,20,357.62354532877606,32.5C369.56798977322046,45,381.51243421766486,70,381.51243421766486,95C381.51243421766486,120,369.56798977322046,145,357.62354532877606,157.5C345.67910088433155,170,333.73465643988715,170,303.87354532877606,161.94980051956895C274.012434217665,153.89960103913793,226.23465643988717,137.79920207827584,202.3457675509983,129.7490025978448L178.45687866210938,121.69880311741377" class="er relationshipLine"/><path style="stroke: gray; fill: none;" marker-start="url(#ZERO_OR_ONE_START)" marker-end="url(#ZERO_OR_ONE_END)" d="M178.45687866210938,135.63938816698519L205.86772282918295,149.69949013915434C233.2785669962565,163.75959211132346,288.1002553304036,191.87979605566173,315.51109949747723,214.2732313611642C342.9219436645508,236.66666666666666,342.9219436645508,253.33333333333334,342.9219436645508,261.6666666666667L342.9219436645508,270" class="er relationshipLine"/><path style="stroke: gray; fill: none;" marker-start="url(#ZERO_OR_ONE_START)" marker-end="url(#ONLY_ONE_END)" d="M129.2284393310547,270L132.56177266438803,261.6666666666667C135.89510599772134,253.33333333333334,142.56177266438803,236.66666666666666,142.56177266438803,220C142.56177266438803,203.33333333333334,135.89510599772134,186.66666666666666,132.56177266438803,178.33333333333334L129.2284393310547,170" class="er relationshipLine"/><g transform="translate(268.9063186645508,270 )" id="entity-Service-bb5e86a7-2789-5e41-b2ce-0929aaa7e22c"><rect height="150" width="148.03125" y="0" x="0" class="er entityBox"/><text style="dominant-baseline: middle; text-anchor: middle; font-size: 12px;" transform="translate(74.015625,12)" y="0" x="0" id="text-entity-Service-bb5e86a7-2789-5e41-b2ce-0929aaa7e22c" class="er entityLabel">Service</text><rect height="21" width="74.015625" y="24" x="0" class="er attributeBoxOdd"/><text style="dominant-baseline: middle; font-size: 10.2px;" transform="translate(5,34.5)" y="0" x="0" id="text-entity-Service-bb5e86a7-2789-5e41-b2ce-0929aaa7e22c-attr-1-type" class="er entityLabel">apiJourneys</text><rect height="21" width="74.015625" y="24" x="74.015625" class="er attributeBoxOdd"/><text style="dominant-baseline: middle; font-size: 10.2px;" transform="translate(79.015625,34.5)" y="0" x="0" id="text-entity-Service-bb5e86a7-2789-5e41-b2ce-0929aaa7e22c-attr-1-name" class="er entityLabel">apiJourneys</text><rect height="21" width="74.015625" y="45" x="0" class="er attributeBoxEven"/><text style="dominant-baseline: middle; font-size: 10.2px;" transform="translate(5,55.5)" y="0" x="0" id="text-entity-Service-bb5e86a7-2789-5e41-b2ce-0929aaa7e22c-attr-2-type" class="er entityLabel">apiLanguages</text><rect height="21" width="74.015625" y="45" x="74.015625" class="er attributeBoxEven"/><text style="dominant-baseline: middle; font-size: 10.2px;" transform="translate(79.015625,55.5)" y="0" x="0" id="text-entity-Service-bb5e86a7-2789-5e41-b2ce-0929aaa7e22c-attr-2-name" class="er entityLabel">apiLanguages</text><rect height="21" width="74.015625" y="66" x="0" class="er attributeBoxOdd"/><text style="dominant-baseline: middle; font-size: 10.2px;" transform="translate(5,76.5)" y="0" x="0" id="text-entity-Service-bb5e86a7-2789-5e41-b2ce-0929aaa7e22c-attr-3-type" class="er entityLabel">apiMedia</text><rect height="21" width="74.015625" y="66" x="74.015625" class="er attributeBoxOdd"/><text style="dominant-baseline: middle; font-size: 10.2px;" transform="translate(79.015625,76.5)" y="0" x="0" id="text-entity-Service-bb5e86a7-2789-5e41-b2ce-0929aaa7e22c-attr-3-name" class="er entityLabel">apiMedia</text><rect height="21" width="74.015625" y="87" x="0" class="er attributeBoxEven"/><text style="dominant-baseline: middle; font-size: 10.2px;" transform="translate(5,97.5)" y="0" x="0" id="text-entity-Service-bb5e86a7-2789-5e41-b2ce-0929aaa7e22c-attr-4-type" class="er entityLabel">apiTags</text><rect height="21" width="74.015625" y="87" x="74.015625" class="er attributeBoxEven"/><text style="dominant-baseline: middle; font-size: 10.2px;" transform="translate(79.015625,97.5)" y="0" x="0" id="text-entity-Service-bb5e86a7-2789-5e41-b2ce-0929aaa7e22c-attr-4-name" class="er entityLabel">apiTags</text><rect height="21" width="74.015625" y="108" x="0" class="er attributeBoxOdd"/><text style="dominant-baseline: middle; font-size: 10.2px;" transform="translate(5,118.5)" y="0" x="0" id="text-entity-Service-bb5e86a7-2789-5e41-b2ce-0929aaa7e22c-attr-5-type" class="er entityLabel">apiUsers</text><rect height="21" width="74.015625" y="108" x="74.015625" class="er attributeBoxOdd"/><text style="dominant-baseline: middle; font-size: 10.2px;" transform="translate(79.015625,118.5)" y="0" x="0" id="text-entity-Service-bb5e86a7-2789-5e41-b2ce-0929aaa7e22c-attr-5-name" class="er entityLabel">apiUsers</text><rect height="21" width="74.015625" y="129" x="0" class="er attributeBoxEven"/><text style="dominant-baseline: middle; font-size: 10.2px;" transform="translate(5,139.5)" y="0" x="0" id="text-entity-Service-bb5e86a7-2789-5e41-b2ce-0929aaa7e22c-attr-6-type" class="er entityLabel">apiVideos</text><rect height="21" width="74.015625" y="129" x="74.015625" class="er attributeBoxEven"/><text style="dominant-baseline: middle; font-size: 10.2px;" transform="translate(79.015625,139.5)" y="0" x="0" id="text-entity-Service-bb5e86a7-2789-5e41-b2ce-0929aaa7e22c-attr-6-name" class="er entityLabel">apiVideos</text></g><g transform="translate(20,20 )" id="entity-Tag-79f01a75-328e-5fee-acfd-3ecc1e7e19fa"><rect height="150" width="158.45687866210938" y="0" x="0" class="er entityBox"/><text style="dominant-baseline: middle; text-anchor: middle; font-size: 12px;" transform="translate(79.22843933105469,12)" y="0" x="0" id="text-entity-Tag-79f01a75-328e-5fee-acfd-3ecc1e7e19fa" class="er entityLabel">Tag</text><rect height="21" width="54.113128662109375" y="24" x="0" class="er attributeBoxOdd"/><text style="dominant-baseline: middle; font-size: 10.2px;" transform="translate(5,34.5)" y="0" x="0" id="text-entity-Tag-79f01a75-328e-5fee-acfd-3ecc1e7e19fa-attr-1-type" class="er entityLabel">String</text><rect height="21" width="90.609375" y="24" x="54.113128662109375" class="er attributeBoxOdd"/><text style="dominant-baseline: middle; font-size: 10.2px;" transform="translate(59.113128662109375,34.5)" y="0" x="0" id="text-entity-Tag-79f01a75-328e-5fee-acfd-3ecc1e7e19fa-attr-1-name" class="er entityLabel">id</text><rect height="21" width="13.734375" y="24" x="144.72250366210938" class="er attributeBoxOdd"/><text style="dominant-baseline: middle; font-size: 10.2px;" transform="translate(149.72250366210938,34.5)" y="0" x="0" id="text-entity-Tag-79f01a75-328e-5fee-acfd-3ecc1e7e19fa-attr-1-comment" class="er entityLabel">🗝️</text><rect height="21" width="54.113128662109375" y="45" x="0" class="er attributeBoxEven"/><text style="dominant-baseline: middle; font-size: 10.2px;" transform="translate(5,55.5)" y="0" x="0" id="text-entity-Tag-79f01a75-328e-5fee-acfd-3ecc1e7e19fa-attr-2-type" class="er entityLabel">DateTime</text><rect height="21" width="90.609375" y="45" x="54.113128662109375" class="er attributeBoxEven"/><text style="dominant-baseline: middle; font-size: 10.2px;" transform="translate(59.113128662109375,55.5)" y="0" x="0" id="text-entity-Tag-79f01a75-328e-5fee-acfd-3ecc1e7e19fa-attr-2-name" class="er entityLabel">createdAt</text><rect height="21" width="13.734375" y="45" x="144.72250366210938" class="er attributeBoxEven"/><text style="dominant-baseline: middle; font-size: 10.2px;" transform="translate(149.72250366210938,55.5)" y="0" x="0" id="text-entity-Tag-79f01a75-328e-5fee-acfd-3ecc1e7e19fa-attr-2-comment" class="er entityLabel"/><rect height="21" width="54.113128662109375" y="66" x="0" class="er attributeBoxOdd"/><text style="dominant-baseline: middle; font-size: 10.2px;" transform="translate(5,76.5)" y="0" x="0" id="text-entity-Tag-79f01a75-328e-5fee-acfd-3ecc1e7e19fa-attr-3-type" class="er entityLabel">DateTime</text><rect height="21" width="90.609375" y="66" x="54.113128662109375" class="er attributeBoxOdd"/><text style="dominant-baseline: middle; font-size: 10.2px;" transform="translate(59.113128662109375,76.5)" y="0" x="0" id="text-entity-Tag-79f01a75-328e-5fee-acfd-3ecc1e7e19fa-attr-3-name" class="er entityLabel">updatedAt</text><rect height="21" width="13.734375" y="66" x="144.72250366210938" class="er attributeBoxOdd"/><text style="dominant-baseline: middle; font-size: 10.2px;" transform="translate(149.72250366210938,76.5)" y="0" x="0" id="text-entity-Tag-79f01a75-328e-5fee-acfd-3ecc1e7e19fa-attr-3-comment" class="er entityLabel"/><rect height="21" width="54.113128662109375" y="87" x="0" class="er attributeBoxEven"/><text style="dominant-baseline: middle; font-size: 10.2px;" transform="translate(5,97.5)" y="0" x="0" id="text-entity-Tag-79f01a75-328e-5fee-acfd-3ecc1e7e19fa-attr-4-type" class="er entityLabel">String</text><rect height="21" width="90.609375" y="87" x="54.113128662109375" class="er attributeBoxEven"/><text style="dominant-baseline: middle; font-size: 10.2px;" transform="translate(59.113128662109375,97.5)" y="0" x="0" id="text-entity-Tag-79f01a75-328e-5fee-acfd-3ecc1e7e19fa-attr-4-name" class="er entityLabel">name</text><rect height="21" width="13.734375" y="87" x="144.72250366210938" class="er attributeBoxEven"/><text style="dominant-baseline: middle; font-size: 10.2px;" transform="translate(149.72250366210938,97.5)" y="0" x="0" id="text-entity-Tag-79f01a75-328e-5fee-acfd-3ecc1e7e19fa-attr-4-comment" class="er entityLabel"/><rect height="21" width="54.113128662109375" y="108" x="0" class="er attributeBoxOdd"/><text style="dominant-baseline: middle; font-size: 10.2px;" transform="translate(5,118.5)" y="0" x="0" id="text-entity-Tag-79f01a75-328e-5fee-acfd-3ecc1e7e19fa-attr-5-type" class="er entityLabel">Json</text><rect height="21" width="90.609375" y="108" x="54.113128662109375" class="er attributeBoxOdd"/><text style="dominant-baseline: middle; font-size: 10.2px;" transform="translate(59.113128662109375,118.5)" y="0" x="0" id="text-entity-Tag-79f01a75-328e-5fee-acfd-3ecc1e7e19fa-attr-5-name" class="er entityLabel">nameTranslations</text><rect height="21" width="13.734375" y="108" x="144.72250366210938" class="er attributeBoxOdd"/><text style="dominant-baseline: middle; font-size: 10.2px;" transform="translate(149.72250366210938,118.5)" y="0" x="0" id="text-entity-Tag-79f01a75-328e-5fee-acfd-3ecc1e7e19fa-attr-5-comment" class="er entityLabel"/><rect height="21" width="54.113128662109375" y="129" x="0" class="er attributeBoxEven"/><text style="dominant-baseline: middle; font-size: 10.2px;" transform="translate(5,139.5)" y="0" x="0" id="text-entity-Tag-79f01a75-328e-5fee-acfd-3ecc1e7e19fa-attr-6-type" class="er entityLabel">Service</text><rect height="21" width="90.609375" y="129" x="54.113128662109375" class="er attributeBoxEven"/><text style="dominant-baseline: middle; font-size: 10.2px;" transform="translate(59.113128662109375,139.5)" y="0" x="0" id="text-entity-Tag-79f01a75-328e-5fee-acfd-3ecc1e7e19fa-attr-6-name" class="er entityLabel">service</text><rect height="21" width="13.734375" y="129" x="144.72250366210938" class="er attributeBoxEven"/><text style="dominant-baseline: middle; font-size: 10.2px;" transform="translate(149.72250366210938,139.5)" y="0" x="0" id="text-entity-Tag-79f01a75-328e-5fee-acfd-3ecc1e7e19fa-attr-6-comment" class="er entityLabel">❓</text></g><g transform="translate(29.550559997558594,270 )" id="entity-Tagging-9f0fcd6f-980e-505d-b824-126739478779"><rect height="150" width="139.3557586669922" y="0" x="0" class="er entityBox"/><text style="dominant-baseline: middle; text-anchor: middle; font-size: 12px;" transform="translate(69.6778793334961,12)" y="0" x="0" id="text-entity-Tagging-9f0fcd6f-980e-505d-b824-126739478779" class="er entityLabel">Tagging</text><rect height="21" width="54.113128662109375" y="24" x="0" class="er attributeBoxOdd"/><text style="dominant-baseline: middle; font-size: 10.2px;" transform="translate(5,34.5)" y="0" x="0" id="text-entity-Tagging-9f0fcd6f-980e-505d-b824-126739478779-attr-1-type" class="er entityLabel">String</text><rect height="21" width="71.50825500488281" y="24" x="54.113128662109375" class="er attributeBoxOdd"/><text style="dominant-baseline: middle; font-size: 10.2px;" transform="translate(59.113128662109375,34.5)" y="0" x="0" id="text-entity-Tagging-9f0fcd6f-980e-505d-b824-126739478779-attr-1-name" class="er entityLabel">id</text><rect height="21" width="13.734375" y="24" x="125.62138366699219" class="er attributeBoxOdd"/><text style="dominant-baseline: middle; font-size: 10.2px;" transform="translate(130.6213836669922,34.5)" y="0" x="0" id="text-entity-Tagging-9f0fcd6f-980e-505d-b824-126739478779-attr-1-comment" class="er entityLabel">🗝️</text><rect height="21" width="54.113128662109375" y="45" x="0" class="er attributeBoxEven"/><text style="dominant-baseline: middle; font-size: 10.2px;" transform="translate(5,55.5)" y="0" x="0" id="text-entity-Tagging-9f0fcd6f-980e-505d-b824-126739478779-attr-2-type" class="er entityLabel">DateTime</text><rect height="21" width="71.50825500488281" y="45" x="54.113128662109375" class="er attributeBoxEven"/><text style="dominant-baseline: middle; font-size: 10.2px;" transform="translate(59.113128662109375,55.5)" y="0" x="0" id="text-entity-Tagging-9f0fcd6f-980e-505d-b824-126739478779-attr-2-name" class="er entityLabel">createdAt</text><rect height="21" width="13.734375" y="45" x="125.62138366699219" class="er attributeBoxEven"/><text style="dominant-baseline: middle; font-size: 10.2px;" transform="translate(130.6213836669922,55.5)" y="0" x="0" id="text-entity-Tagging-9f0fcd6f-980e-505d-b824-126739478779-attr-2-comment" class="er entityLabel"/><rect height="21" width="54.113128662109375" y="66" x="0" class="er attributeBoxOdd"/><text style="dominant-baseline: middle; font-size: 10.2px;" transform="translate(5,76.5)" y="0" x="0" id="text-entity-Tagging-9f0fcd6f-980e-505d-b824-126739478779-attr-3-type" class="er entityLabel">DateTime</text><rect height="21" width="71.50825500488281" y="66" x="54.113128662109375" class="er attributeBoxOdd"/><text style="dominant-baseline: middle; font-size: 10.2px;" transform="translate(59.113128662109375,76.5)" y="0" x="0" id="text-entity-Tagging-9f0fcd6f-980e-505d-b824-126739478779-attr-3-name" class="er entityLabel">updatedAt</text><rect height="21" width="13.734375" y="66" x="125.62138366699219" class="er attributeBoxOdd"/><text style="dominant-baseline: middle; font-size: 10.2px;" transform="translate(130.6213836669922,76.5)" y="0" x="0" id="text-entity-Tagging-9f0fcd6f-980e-505d-b824-126739478779-attr-3-comment" class="er entityLabel"/><rect height="21" width="54.113128662109375" y="87" x="0" class="er attributeBoxEven"/><text style="dominant-baseline: middle; font-size: 10.2px;" transform="translate(5,97.5)" y="0" x="0" id="text-entity-Tagging-9f0fcd6f-980e-505d-b824-126739478779-attr-4-type" class="er entityLabel">String</text><rect height="21" width="71.50825500488281" y="87" x="54.113128662109375" class="er attributeBoxEven"/><text style="dominant-baseline: middle; font-size: 10.2px;" transform="translate(59.113128662109375,97.5)" y="0" x="0" id="text-entity-Tagging-9f0fcd6f-980e-505d-b824-126739478779-attr-4-name" class="er entityLabel">taggableType</text><rect height="21" width="13.734375" y="87" x="125.62138366699219" class="er attributeBoxEven"/><text style="dominant-baseline: middle; font-size: 10.2px;" transform="translate(130.6213836669922,97.5)" y="0" x="0" id="text-entity-Tagging-9f0fcd6f-980e-505d-b824-126739478779-attr-4-comment" class="er entityLabel"/><rect height="21" width="54.113128662109375" y="108" x="0" class="er attributeBoxOdd"/><text style="dominant-baseline: middle; font-size: 10.2px;" transform="translate(5,118.5)" y="0" x="0" id="text-entity-Tagging-9f0fcd6f-980e-505d-b824-126739478779-attr-5-type" class="er entityLabel">String</text><rect height="21" width="71.50825500488281" y="108" x="54.113128662109375" class="er attributeBoxOdd"/><text style="dominant-baseline: middle; font-size: 10.2px;" transform="translate(59.113128662109375,118.5)" y="0" x="0" id="text-entity-Tagging-9f0fcd6f-980e-505d-b824-126739478779-attr-5-name" class="er entityLabel">taggableId</text><rect height="21" width="13.734375" y="108" x="125.62138366699219" class="er attributeBoxOdd"/><text style="dominant-baseline: middle; font-size: 10.2px;" transform="translate(130.6213836669922,118.5)" y="0" x="0" id="text-entity-Tagging-9f0fcd6f-980e-505d-b824-126739478779-attr-5-comment" class="er entityLabel"/><rect height="21" width="54.113128662109375" y="129" x="0" class="er attributeBoxEven"/><text style="dominant-baseline: middle; font-size: 10.2px;" transform="translate(5,139.5)" y="0" x="0" id="text-entity-Tagging-9f0fcd6f-980e-505d-b824-126739478779-attr-6-type" class="er entityLabel">String</text><rect height="21" width="71.50825500488281" y="129" x="54.113128662109375" class="er attributeBoxEven"/><text style="dominant-baseline: middle; font-size: 10.2px;" transform="translate(59.113128662109375,139.5)" y="0" x="0" id="text-entity-Tagging-9f0fcd6f-980e-505d-b824-126739478779-attr-6-name" class="er entityLabel">context</text><rect height="21" width="13.734375" y="129" x="125.62138366699219" class="er attributeBoxEven"/><text style="dominant-baseline: middle; font-size: 10.2px;" transform="translate(130.6213836669922,139.5)" y="0" x="0" id="text-entity-Tagging-9f0fcd6f-980e-505d-b824-126739478779-attr-6-comment" class="er entityLabel"/></g><rect height="14" width="42.046875" y="213" x="34.87166976928711" class="er relationshipLabelBox"/><text style="text-anchor: middle; dominant-baseline: middle; font-size: 12px;" y="220" x="55.89510726928711" id="rel1" class="er relationshipLabel">Tagging</text><rect height="14" width="34.69140625" y="88" x="260.27783203125" class="er relationshipLabelBox"/><text style="text-anchor: middle; dominant-baseline: middle; font-size: 12px;" y="95" x="277.62353515625" id="rel2" class="er relationshipLabel">parent</text><rect height="14" width="42.03125" y="88" x="360.4967956542969" class="er relationshipLabelBox"/><text style="text-anchor: middle; dominant-baseline: middle; font-size: 12px;" y="95" x="381.5124206542969" id="rel3" class="er relationshipLabel">children</text><rect height="14" width="71.6875" y="181.28302001953125" x="241.12350463867188" class="er relationshipLabelBox"/><text style="text-anchor: middle; dominant-baseline: middle; font-size: 12px;" y="188.28302001953125" x="276.9672546386719" id="rel4" class="er relationshipLabel">enum:service</text><rect height="14" width="16.6875" y="213" x="134.218017578125" class="er relationshipLabelBox"/><text style="text-anchor: middle; dominant-baseline: middle; font-size: 12px;" y="220" x="142.561767578125" id="rel5" class="er relationshipLabel">tag</text></svg>