<?xml version="1.0" standalone="no"?>
<!DOCTYPE svg PUBLIC "-//W3C//DTD SVG 1.1//EN" "http://www.w3.org/Graphics/SVG/1.1/DTD/svg11.dtd" >
<svg xmlns="http://www.w3.org/2000/svg" xmlns:xlink="http://www.w3.org/1999/xlink" version="1.1">
<metadata></metadata>
<defs>
<font id="aperculight" horiz-adv-x="579" >
<font-face units-per-em="1024" ascent="819" descent="-205" />
<missing-glyph horiz-adv-x="258" />
<glyph unicode="fi" horiz-adv-x="550" d="M51 516h82v16q0 46 16 82t43.5 60.5t64 37.5t77.5 13q31 0 60 -7.5t52 -22.5l-13 -58q-50 29 -104 29q-59 0 -95.5 -34t-36.5 -89v-27h270v-516h-64v457h-206v-457h-64v457h-82v59z" />
<glyph unicode="fl" horiz-adv-x="594" d="M51 516h80v33q0 91 42 133.5t118 42.5h214v-725h-64v666h-155q-43 0 -67 -26t-24 -81v-43h124v-59h-124v-457h-64v457h-80v59z" />
<glyph unicode="&#xd;" horiz-adv-x="258" />
<glyph unicode=" "  horiz-adv-x="258" />
<glyph unicode="&#x09;" horiz-adv-x="258" />
<glyph unicode="&#xa0;" horiz-adv-x="258" />
<glyph unicode="!" horiz-adv-x="332" d="M212 717l-23 -529h-41l-22 529h86zM113 54q0 25 15.5 41t40.5 16t40.5 -16t15.5 -41t-15.5 -40.5t-40.5 -15.5t-40.5 15.5t-15.5 40.5z" />
<glyph unicode="&#x22;" horiz-adv-x="428" d="M93 725h91l-21 -233h-48zM244 725h91l-22 -233h-48z" />
<glyph unicode="#" horiz-adv-x="734" d="M120 498h137l44 219h57l-44 -219h163l45 219h58l-45 -219h120v-56h-132l-34 -168h125v-55h-137l-44 -219h-57l44 219h-163l-45 -219h-57l45 219h-121v55h132l34 168h-125v56zM268 274h164l34 168h-164z" />
<glyph unicode="$" horiz-adv-x="518" d="M373 580q-26 48 -56 65t-63 17q-25 0 -44 -9.5t-31 -24.5t-18 -34t-6 -37q0 -44 23 -70.5t57.5 -46.5t75 -37.5t75.5 -42.5t58 -62t23 -96q0 -44 -13.5 -80.5t-36.5 -63.5t-54.5 -44t-69.5 -22v-84h-62v84q-77 9 -124.5 63t-63.5 130l58 35q9 -32 21.5 -61.5t31 -52.5 t45 -37t63.5 -14q58 0 96 36t38 109q0 44 -23 72.5t-57 49t-74 38.5t-74.5 42t-57.5 58.5t-23 88.5q0 37 11.5 67t30.5 52.5t46 36.5t56 18v86h62v-87q28 -4 48 -14t36 -24t28 -32t23 -38z" />
<glyph unicode="%" horiz-adv-x="864" d="M63 561q0 34 12 64t33.5 52t51 35t64.5 13t64.5 -13t51 -35t33.5 -52t12 -64t-12 -64t-33.5 -52t-51 -35t-64.5 -13t-64.5 13t-51 35t-33.5 52t-12 64zM119 561q0 -46 28 -77t77 -31t77.5 31t28.5 77t-28.5 77.5t-77.5 31.5t-77 -31.5t-28 -77.5zM479 156q0 34 12 64 t33.5 52t51 34.5t64.5 12.5t64.5 -12.5t51 -34.5t33.5 -52.5t12 -63.5q0 -34 -12 -64.5t-33.5 -52.5t-51 -34.5t-64.5 -12.5t-64.5 12.5t-51 34.5t-33.5 52.5t-12 64.5zM535 156q0 -46 28 -77.5t77 -31.5t77 31.5t28 77.5t-28 77t-77 31t-77 -31t-28 -77zM731 708l-555 -733 l-43 34l555 732z" />
<glyph unicode="&#x26;" horiz-adv-x="672" d="M290 -8q-46 0 -84.5 13.5t-66 40t-43 65.5t-15.5 88q0 44 13.5 79t33.5 63t46 47.5t49 31.5q-9 13 -21 30t-22 36.5t-17 41t-7 44.5q0 37 12.5 66t34 48.5t49.5 29t58 9.5q73 0 115 -40t42 -103q0 -34 -13.5 -61t-35 -49.5t-48.5 -40t-55 -32.5l167 -214q29 55 55 131 l44 -51q-12 -35 -26.5 -68t-32.5 -63l106 -134h-74l-67 84q-34 -42 -81.5 -67t-115.5 -25zM290 51q50 0 88.5 19.5t70.5 62.5l-189 241q-52 -29 -84 -71t-32 -106q0 -67 40.5 -106.5t105.5 -39.5zM310 670q-41 0 -66 -26.5t-25 -75.5q0 -13 5.5 -29t14 -32.5t19 -32 t21.5 -29.5q61 30 92.5 60t31.5 72q0 38 -23 65.5t-70 27.5z" />
<glyph unicode="'" horiz-adv-x="277" d="M93 725h91l-21 -233h-48z" />
<glyph unicode="(" horiz-adv-x="287" d="M252 768q-51 -83 -80 -183t-29 -227t29 -226.5t80 -182.5h-68q-23 37 -43 80t-35.5 93.5t-24 109.5t-8.5 126q0 68 8.5 126.5t24 109t36 94t42.5 80.5h68z" />
<glyph unicode=")" horiz-adv-x="287" d="M103 768q23 -37 43.5 -80.5t36 -94t24 -109t8.5 -126.5t-8.5 -126.5t-24 -109t-36 -93.5t-43.5 -80h-67q51 83 79.5 182.5t28.5 226.5t-28.5 227t-79.5 183h67z" />
<glyph unicode="*" horiz-adv-x="503" d="M281 575l142 48l18 -56l-142 -48l88 -119l-47 -34l-88 119l-88 -119l-47 34l88 119l-143 48l19 56l142 -48v150h58v-150z" />
<glyph unicode="+" horiz-adv-x="558" d="M490 295h-181v-181h-57v181h-181v57h181v180h57v-180h181v-57z" />
<glyph unicode="," horiz-adv-x="285" d="M119 90h94l-98 -169h-47z" />
<glyph unicode="-" horiz-adv-x="482" d="M73 353h337v-57h-337v57z" />
<glyph unicode="." horiz-adv-x="290" d="M93 50q0 23 14.5 37.5t37.5 14.5t38 -14.5t15 -37.5q0 -24 -15 -38t-38 -14q-24 0 -38 14t-14 38z" />
<glyph unicode="/" horiz-adv-x="539" d="M531 768l-446 -819h-68l447 819h67z" />
<glyph unicode="0" horiz-adv-x="630" d="M315 725q61 0 108 -26.5t77.5 -75t46 -116t15.5 -149.5t-15.5 -149.5t-46 -115.5t-77 -74.5t-108.5 -26.5q-61 0 -107.5 26.5t-77.5 74.5t-46 115.5t-15 149.5t15 149.5t46 116t77.5 75t107.5 26.5zM315 668q-43 0 -76.5 -23t-56.5 -64t-35.5 -98t-12.5 -125t12.5 -124.5 t35.5 -97.5t56.5 -64t76.5 -23t77 23t57 64t35.5 98t12.5 124q0 68 -12.5 125t-35.5 98t-57 64t-77 23z" />
<glyph unicode="1" horiz-adv-x="354" d="M255 717v-717h-64v608l-118 -74v77l166 106h16z" />
<glyph unicode="2" horiz-adv-x="582" d="M77 24l261 337q25 31 40 54t24 42.5t12.5 38t3.5 41.5q0 61 -34 96t-93 35q-56 0 -93 -41t-46 -104l-60 12q4 42 20 76.5t42 60t61 39.5t76 14t75.5 -12.5t61 -36.5t41 -59.5t14.5 -81.5q0 -52 -24.5 -98.5t-62.5 -95.5l-219 -284h324v-57h-424v24z" />
<glyph unicode="3" horiz-adv-x="586" d="M128 206q8 -69 47 -113t110 -44q80 0 120 46t40 124q0 83 -42 127t-118 44q-35 0 -64 -18l-31 40l186 247h-276v58h375v-18l-193 -257q5 2 13 2.5t13 0.5q39 0 76 -14.5t65 -43.5t45 -71.5t17 -96.5q0 -50 -15.5 -92t-44.5 -71.5t-71 -46.5t-95 -17q-43 0 -81.5 13 t-68 39.5t-47.5 64.5t-23 88z" />
<glyph unicode="4" horiz-adv-x="595" d="M377 165h-317v17l302 535h78v-495h96v-57h-96v-165h-63v165zM377 222v405l-226 -405h226z" />
<glyph unicode="5" horiz-adv-x="576" d="M136 200q4 -32 14 -59t28 -47.5t43.5 -32.5t62.5 -12q79 0 117 50.5t38 133.5q0 93 -41 139t-114 46q-50 0 -87.5 -29t-60.5 -67l-45 10l37 385h335v-58h-278l-25 -243q23 24 56 41.5t74 17.5q49 0 89 -17t68 -48t43 -75.5t15 -101.5q0 -53 -15.5 -97t-43.5 -76t-69 -50 t-93 -18q-41 0 -77 11.5t-63.5 36.5t-45.5 61.5t-24 86.5z" />
<glyph unicode="6" horiz-adv-x="587" d="M303 459q50 0 91 -18t70.5 -50t45.5 -74.5t16 -91.5t-16 -91.5t-45.5 -74t-70.5 -49.5t-91 -18t-91 18t-70 49.5t-45.5 74t-16.5 91.5q0 31 9.5 65.5t28.5 66.5l212 368h66l-159 -284q11 8 31.5 13t34.5 5zM303 401q-70 0 -114 -47t-44 -129q0 -39 12 -71t33 -55 t49.5 -36.5t63.5 -13.5t63.5 13.5t49.5 36.5t33 55t12 71q0 82 -44 129t-114 47z" />
<glyph unicode="7" horiz-adv-x="489" d="M108 0l274 659h-322v58h398v-21l-284 -696h-66z" />
<glyph unicode="8" horiz-adv-x="591" d="M296 725q43 0 78 -14t60 -38.5t38.5 -58.5t13.5 -75q0 -56 -27 -94.5t-63 -58.5q25 -9 46 -26.5t36.5 -41.5t24 -54t8.5 -63q0 -51 -17.5 -90.5t-47 -66t-68.5 -39.5t-82 -13t-82 13t-68.5 39.5t-47 66t-17.5 90.5q0 34 8.5 63.5t24 53.5t36.5 41.5t46 26.5 q-36 19 -63.5 57.5t-27.5 95.5q0 41 14 75t39 58.5t60 38.5t78 14zM296 352q-68 0 -109 -40t-41 -111q0 -72 41 -112t109 -40t108.5 40t40.5 112t-40.5 111.5t-108.5 39.5zM296 668q-57 0 -92 -35t-35 -94t35 -94t92 -35t92 34.5t35 94.5q0 59 -35 94t-92 35z" />
<glyph unicode="9" horiz-adv-x="580" d="M296 258q-50 0 -91 18t-70.5 49.5t-45.5 74t-16 92.5q0 49 16 91.5t45.5 74t70.5 49.5t91 18t91 -18t70 -49.5t45.5 -74t16.5 -91.5q0 -31 -9.5 -65.5t-28.5 -67.5l-212 -367h-66l159 283q-11 -8 -31.5 -12.5t-34.5 -4.5zM296 315q70 0 114 47.5t44 129.5q0 38 -12 70.5 t-33 55.5t-49.5 36.5t-63.5 13.5t-63.5 -13.5t-49.5 -36.5t-33 -56t-12 -70q0 -82 44 -129.5t114 -47.5z" />
<glyph unicode=":" horiz-adv-x="305" d="M100 50q0 23 14.5 37.5t38.5 14.5q23 0 37.5 -14.5t14.5 -37.5q0 -24 -15 -38t-37 -14q-24 0 -38.5 14t-14.5 38zM100 425q0 23 14.5 37.5t38.5 14.5q23 0 37.5 -15t14.5 -37q0 -24 -15 -38t-37 -14q-24 0 -38.5 14t-14.5 38z" />
<glyph unicode=";" horiz-adv-x="305" d="M100 425q0 23 14.5 37.5t37.5 14.5t38 -14.5t15 -37.5q0 -24 -15 -38t-38 -14q-24 0 -38 14t-14 38zM115 90h94l-98 -169h-47z" />
<glyph unicode="&#x3c;" horiz-adv-x="462" d="M57 352l342 185v-64l-289 -156l289 -155v-64l-342 185v69z" />
<glyph unicode="=" horiz-adv-x="605" d="M104 431h397v-57h-397v57zM104 261h397v-57h-397v57z" />
<glyph unicode="&#x3e;" horiz-adv-x="462" d="M406 283l-343 -185v64l290 155l-290 156v64l343 -185v-69z" />
<glyph unicode="?" horiz-adv-x="448" d="M177 54q0 25 16 41t40 16q25 0 41 -16t16 -41t-16 -40.5t-41 -15.5t-40.5 15.5t-15.5 40.5zM361 309q-15 -55 -47.5 -81t-82.5 -26q-25 0 -47.5 7t-40 22.5t-28.5 38.5t-11 56q0 82 91 131l84 46q27 14 40 31.5t13 44.5q0 41 -25.5 64t-75.5 23q-90 0 -115 -105l-65 11 q12 70 59 111.5t129 41.5q71 0 114.5 -39.5t43.5 -103.5q0 -40 -21 -71t-68 -56l-74 -40q-36 -19 -51 -40t-15 -51q0 -29 16 -46t45 -17q31 0 50.5 15.5t30.5 52.5z" />
<glyph unicode="@" horiz-adv-x="882" d="M628 521l-25 -271q-1 -8 -1.5 -14.5t-0.5 -9.5q0 -33 15.5 -45.5t40.5 -12.5q27 0 46.5 14.5t33 40t19.5 60.5t6 77q0 151 -80.5 234.5t-229.5 83.5q-62 0 -122.5 -24.5t-107 -71.5t-75 -116t-28.5 -158q0 -83 25.5 -148t70.5 -109t105.5 -67t130.5 -23q33 0 63 3.5 t59.5 12t61.5 21.5t67 34l23 -51q-39 -20 -71.5 -35.5t-64.5 -24.5t-65.5 -13t-72.5 -4q-84 0 -157 27t-126.5 79t-84.5 127.5t-31 170.5q0 108 34.5 187.5t91 133t129.5 80t150 26.5q81 0 149 -24t117.5 -71t77 -117t27.5 -163q0 -67 -14 -113.5t-38 -77t-56 -44.5t-67 -14 q-24 0 -42 7t-32 18t-23 25.5t-13 28.5q-23 -34 -56 -56.5t-83 -22.5q-42 0 -74 13.5t-54 39t-33.5 61t-11.5 77.5q0 47 16 88.5t44 72.5t67 48t85 17q39 0 70 -17t45 -47l14 57h56zM436 471q-32 0 -57.5 -13.5t-43 -37t-27 -54.5t-9.5 -67q0 -66 30 -98.5t83 -32.5 q32 0 57 14.5t42 38.5t26 55t9 64q0 59 -28 95t-82 36z" />
<glyph unicode="A" horiz-adv-x="598" d="M329 717l259 -717h-70l-72 204h-294l-72 -204h-70l259 717h60zM173 267h252l-126 358z" />
<glyph unicode="B" horiz-adv-x="630" d="M334 717q95 0 147.5 -48.5t52.5 -136.5q0 -50 -28 -87t-63 -53q52 -18 89.5 -63t37.5 -122q0 -47 -15 -85.5t-44 -65t-70 -41.5t-91 -15h-247v717h231zM171 63h166q78 0 120.5 32.5t42.5 111.5t-42.5 111t-120.5 32h-166v-287zM171 653v-239h163q62 0 96 29t34 91 q0 61 -34 90t-96 29h-163z" />
<glyph unicode="C" horiz-adv-x="696" d="M647 197q-27 -94 -97 -149.5t-173 -55.5q-60 0 -117.5 22.5t-101.5 67.5t-71 114t-27 162t27 162.5t71.5 114.5t101 67.5t117.5 22.5q103 0 173.5 -55.5t96.5 -149.5l-66 -19q-20 75 -70.5 118t-133.5 43q-54 0 -99.5 -20t-77.5 -58.5t-50.5 -95t-18.5 -130.5t18.5 -130 t50.5 -94.5t77.5 -58.5t99.5 -20q83 0 133 43t71 118z" />
<glyph unicode="D" horiz-adv-x="677" d="M292 717q69 0 128.5 -24.5t103 -71t68.5 -113t25 -150.5t-25 -150.5t-68.5 -112.5t-103.5 -70.5t-128 -24.5h-189v717h189zM171 653v-590h122q49 0 95 17t81.5 53.5t56.5 92.5t21 132q0 77 -21 133t-56.5 92.5t-81.5 53t-95 16.5h-122z" />
<glyph unicode="E" horiz-adv-x="581" d="M508 717v-64h-337v-239h275v-64h-275v-287h347v-63h-415v717h405z" />
<glyph unicode="F" horiz-adv-x="576" d="M515 717v-64h-344v-247h283v-64h-283v-342h-68v717h412z" />
<glyph unicode="G" horiz-adv-x="724" d="M588 111q-29 -55 -85.5 -87t-127.5 -32q-60 0 -117 23t-101 68.5t-70.5 114t-26.5 160.5t26.5 161t70.5 114.5t100.5 68.5t117.5 23q109 0 179.5 -56.5t96.5 -152.5l-66 -18q-24 78 -77 121t-133 43q-53 0 -98 -20t-77 -58.5t-50.5 -95t-18.5 -130.5t18.5 -130.5 t50.5 -95t77 -58t98 -19.5q102 0 156.5 61.5t56.5 181.5h-166v63h233v-361h-59z" />
<glyph unicode="H" horiz-adv-x="706" d="M603 717v-717h-67v349h-365v-349h-68v717h68v-304h365v304h67z" />
<glyph unicode="I" horiz-adv-x="274" d="M171 0h-68v717h68v-717z" />
<glyph unicode="J" horiz-adv-x="508" d="M352 717h68v-507q0 -54 -17 -94.5t-44.5 -68.5t-64 -41.5t-76.5 -13.5q-48 0 -84 15.5t-60.5 41t-39 58t-19.5 68.5l70 15q8 -61 40.5 -98t92.5 -37q28 0 52.5 9t43 27t28.5 45.5t10 66.5v514z" />
<glyph unicode="K" horiz-adv-x="578" d="M479 0l-308 380v-380h-68v717h68v-306l280 306h86l-294 -322l319 -395h-83z" />
<glyph unicode="L" horiz-adv-x="527" d="M171 717v-654h336v-63h-404v717h68z" />
<glyph unicode="M" horiz-adv-x="800" d="M187 717l213 -540l213 540h84v-717h-67v586l-208 -520h-43l-208 520v-586h-68v717h84z" />
<glyph unicode="N" horiz-adv-x="709" d="M606 717v-717h-80l-355 607v-607h-68v717h80l356 -609v609h67z" />
<glyph unicode="O" horiz-adv-x="749" d="M375 725q62 0 119.5 -25t100.5 -72.5t68.5 -116t25.5 -153.5t-25.5 -153t-68.5 -115.5t-100.5 -72.5t-119.5 -25q-63 0 -120 25t-100 72.5t-69 115.5t-26 153t26 153.5t69 116t100 72.5t120 25zM375 662q-50 0 -94.5 -19t-77.5 -57.5t-52.5 -95.5t-19.5 -132 q0 -76 19.5 -132t52.5 -94.5t77.5 -57.5t94.5 -19t94.5 19t77.5 57.5t52 95t19 131.5t-19 132t-52 95.5t-77.5 57.5t-94.5 19z" />
<glyph unicode="P" horiz-adv-x="591" d="M171 322v-322h-68v717h244q96 0 151.5 -52.5t55.5 -145.5t-55.5 -145t-151.5 -52h-176zM348 385q37 0 62.5 10.5t42 28t23.5 42t7 53.5t-7 53.5t-23.5 42.5t-42 28t-62.5 10h-177v-268h177z" />
<glyph unicode="Q" horiz-adv-x="749" d="M375 725q62 0 119.5 -25t100.5 -72.5t68.5 -116t25.5 -153.5q0 -79 -21.5 -142t-59.5 -111l69 -67l-46 -46l-68 67q-40 -33 -88 -50t-100 -17q-63 0 -120 25t-100 72.5t-69 115.5t-26 153t26 153.5t69 116t100 72.5t120 25zM488 226l74 -74q27 38 41.5 89t14.5 117 q0 75 -19 132t-52 95.5t-77.5 57.5t-94.5 19t-94.5 -19t-77.5 -57.5t-52.5 -95.5t-19.5 -132q0 -76 19.5 -132t52.5 -94.5t77.5 -57.5t94.5 -19q40 0 76.5 12.5t66.5 35.5l-76 77z" />
<glyph unicode="R" horiz-adv-x="651" d="M305 354h-134v-354h-68v717h231q96 0 150.5 -44.5t54.5 -136.5q0 -80 -41.5 -124t-115.5 -55l223 -357h-76zM171 653v-235h159q70 0 105 28t35 90q0 61 -35.5 89t-104.5 28h-159z" />
<glyph unicode="S" horiz-adv-x="518" d="M373 580q-26 48 -56 65t-63 17q-25 0 -44 -9.5t-31 -24.5t-18 -34t-6 -37q0 -44 23 -70.5t57.5 -46.5t75 -37.5t75.5 -42.5t58 -62t23 -96q0 -48 -16 -87t-43.5 -66t-65 -42t-80.5 -15q-45 0 -81.5 14t-64 40.5t-46 61.5t-27.5 77l58 35q9 -32 21.5 -61.5t31 -52.5 t45 -37t63.5 -14q58 0 96 36t38 109q0 44 -23 72.5t-57 49t-74 38.5t-74.5 42t-57.5 58.5t-23 88.5q0 40 13.5 72t36.5 55t53 36t64 13q39 0 66.5 -8.5t47 -23.5t34 -35.5t26.5 -43.5z" />
<glyph unicode="T" horiz-adv-x="528" d="M16 717h496v-64h-214v-653h-68v653h-214v64z" />
<glyph unicode="U" horiz-adv-x="669" d="M89 717h68v-494q0 -34 10.5 -64t33 -53t56 -37t78.5 -14t78 14t56 37t33.5 53t10.5 64v494h68v-488q0 -59 -20 -103.5t-54 -74t-78.5 -44.5t-93.5 -15t-93.5 15t-78.5 44.5t-54 74t-20 103.5v488z" />
<glyph unicode="V" horiz-adv-x="587" d="M581 717l-251 -717h-72l-251 717h70l217 -621l217 621h70z" />
<glyph unicode="W" horiz-adv-x="920" d="M888 717l-197 -717h-68l-163 537l-162 -537h-69l-196 717h69l163 -613l165 537h60l165 -537l163 613h70z" />
<glyph unicode="X" d="M514 717l-189 -322l233 -395h-71l-197 336l-198 -336h-70l233 395l-189 322h70l154 -261l153 261h71z" />
<glyph unicode="Y" horiz-adv-x="512" d="M6 717h79l171 -339l171 339h79l-216 -406v-311h-68v311z" />
<glyph unicode="Z" horiz-adv-x="561" d="M61 717h439v-33l-357 -621h364v-63h-458v33l361 620h-349v64z" />
<glyph unicode="[" horiz-adv-x="329" d="M103 768h184v-57h-122v-705h122v-57h-184v819z" />
<glyph unicode="\" horiz-adv-x="539" d="M76 768l446 -819h-67l-447 819h68z" />
<glyph unicode="]" horiz-adv-x="329" d="M226 -51h-183v57h122v705h-122v57h183v-819z" />
<glyph unicode="^" horiz-adv-x="532" d="M291 717l188 -278h-70l-143 218l-142 -218h-71l189 278h49z" />
<glyph unicode="_" horiz-adv-x="486" d="M34 0h419v-57h-419v57z" />
<glyph unicode="`" horiz-adv-x="214" d="M188 573h-50l-116 144h95z" />
<glyph unicode="a" horiz-adv-x="518" d="M125 148q0 -48 27 -72.5t73 -24.5q25 0 52.5 10t50.5 32t38.5 57.5t15.5 88.5v19h-84q-89 0 -131 -29.5t-42 -80.5zM445 0h-48l-15 80q-22 -38 -61.5 -63t-101.5 -25q-33 0 -61.5 8.5t-51 27t-35.5 48t-13 72.5q0 86 64.5 127.5t173.5 41.5h86v23q0 68 -33.5 96.5 t-85.5 28.5q-53 0 -82 -28.5t-41 -67.5l-61 14q5 33 21.5 59t41 44.5t55.5 28t66 9.5q38 0 71.5 -12t58 -35t38.5 -57t14 -78v-342z" />
<glyph unicode="b" horiz-adv-x="612" d="M164 725v-282q29 37 74 59t87 22q56 0 99 -21t72 -56.5t44 -84.5t15 -104t-15 -104t-44 -84.5t-72 -56.5t-99 -21q-26 0 -50.5 6t-45.5 17t-38 24t-27 29v-68h-66v725h66zM488 258q0 43 -10.5 81t-31.5 65.5t-52.5 44t-71.5 16.5q-41 0 -72.5 -16.5t-52 -44t-31 -65.5 t-10.5 -81q0 -44 10.5 -82t31 -65.5t52 -43.5t72.5 -16t72 16t52 43.5t31.5 65.5t10.5 82z" />
<glyph unicode="c" horiz-adv-x="540" d="M494 134q-54 -142 -208 -142q-57 0 -100 22.5t-71.5 60t-43 85t-14.5 98.5q0 50 14.5 98t43 85.5t71 60t100.5 22.5q154 0 208 -142l-58 -23q-20 51 -56 78.5t-94 27.5q-42 0 -72.5 -16.5t-50.5 -45t-29.5 -66t-9.5 -79.5t9.5 -79.5t29.5 -66t50.5 -45t72.5 -16.5 q58 0 94 27t56 79z" />
<glyph unicode="d" horiz-adv-x="612" d="M514 725v-725h-65v68q-10 -15 -27.5 -28.5t-38.5 -24.5t-45.5 -17t-49.5 -6q-56 0 -99.5 21t-72.5 56.5t-44 84.5t-15 104t15 104t44 84.5t72 56.5t100 21q42 0 87 -22t74 -59v282h65zM124 258q0 -44 10.5 -82t31.5 -65.5t52.5 -43.5t72.5 -16t72 16t51.5 43.5t31.5 65.5 t11 82q0 43 -11 81t-31.5 65.5t-51.5 44t-72 16.5t-72.5 -16.5t-52.5 -44t-31.5 -65.5t-10.5 -81z" />
<glyph unicode="e" horiz-adv-x="565" d="M513 258h-389q0 -45 10.5 -83t31.5 -65.5t51.5 -43t69.5 -15.5q59 0 94.5 26t63.5 85l57 -28q-40 -79 -92 -110.5t-123 -31.5q-51 0 -93.5 20t-73 55t-47 84.5t-16.5 106.5t16.5 106.5t47 84.5t73 55t93.5 20q50 0 91.5 -17t71 -48t46.5 -75t17 -97v-29zM287 465 q-33 0 -59 -11.5t-46 -31.5t-34 -46.5t-20 -58.5h319q-9 68 -49 108t-111 40z" />
<glyph unicode="f" horiz-adv-x="367" d="M51 516h82v33q0 91 42 133.5t118 42.5q19 0 35 -4t26 -9l-13 -59q-10 5 -22.5 9t-30.5 4q-43 0 -67 -26t-24 -81v-43h125v-59h-125v-457h-64v457h-82v59z" />
<glyph unicode="g" horiz-adv-x="502" d="M93 351q0 39 13.5 71.5t37.5 55t55.5 34.5t68.5 12q25 0 47.5 -6t41.5 -17l93 52l29 -54l-71 -40q17 -22 26 -48.5t9 -59.5q0 -40 -13 -71.5t-37 -54t-56 -35t-69 -12.5q-55 0 -96 25q-24 -10 -33 -24.5t-9 -33.5q0 -28 19.5 -38.5t44.5 -10.5h133q34 0 62 -7.5t48.5 -24 t32 -42t11.5 -61.5q0 -48 -16 -82t-44.5 -55.5t-67.5 -31t-84 -9.5q-99 0 -156 45t-57 125q0 38 16 65t38 43q-19 11 -30 32t-11 52q0 33 18 56.5t45 36.5q-17 22 -28 50.5t-11 62.5zM214 41q-28 0 -50 3q-27 -17 -36.5 -42t-9.5 -51q0 -50 37.5 -80.5t113.5 -30.5 q77 0 114 32.5t37 80.5q0 49 -27 68.5t-74 19.5h-105zM157 351q0 -28 9 -49.5t24.5 -37t35.5 -23.5t42 -8q23 0 43 8t35 23.5t24.5 37.5t9.5 49q0 28 -9.5 50t-24.5 37.5t-35 23t-43 7.5t-42.5 -7.5t-35 -23t-24.5 -37.5t-9 -50z" />
<glyph unicode="h" horiz-adv-x="599" d="M507 0h-64v346q0 56 -27 87.5t-80 31.5q-36 0 -67 -17.5t-55.5 -49t-38 -77t-13.5 -101.5v-220h-64v725h64v-322q13 31 33.5 54t45 38t51.5 22t54 7q77 0 119 -44t42 -126v-354z" />
<glyph unicode="i" horiz-adv-x="286" d="M92 665q0 23 15 37.5t37 14.5q23 0 38 -15t15 -37q0 -23 -15 -38t-38 -15t-37.5 15t-14.5 38zM176 516v-516h-63v516h63z" />
<glyph unicode="j" horiz-adv-x="286" d="M176 516v-582q0 -69 -33 -105t-95 -46l-14 59q41 11 60 33t19 69v572h63zM92 665q0 23 15 37.5t37 14.5q23 0 38 -15t15 -37q0 -23 -15 -38t-38 -15t-37.5 15t-14.5 38z" />
<glyph unicode="k" horiz-adv-x="493" d="M162 725v-437l216 228h80l-224 -236l242 -280h-81l-233 271v-271h-64v725h64z" />
<glyph unicode="l" horiz-adv-x="249" d="M160 725v-725h-64v725h64z" />
<glyph unicode="m" horiz-adv-x="872" d="M780 0h-63v346q0 58 -19 88.5t-73 30.5q-32 0 -59.5 -17t-48.5 -47.5t-33.5 -74.5t-12.5 -100v-226h-63v346q0 58 -19 88.5t-74 30.5q-32 0 -59.5 -17t-48.5 -47.5t-33 -74.5t-12 -100v-226h-64v516h64v-107q24 51 65.5 83t98.5 32q59 0 94 -29.5t46 -84.5q26 49 71 81.5 t98 32.5q77 0 111 -42.5t34 -127.5v-354z" />
<glyph unicode="n" horiz-adv-x="589" d="M498 0h-64v346q0 56 -25.5 87.5t-79.5 31.5q-36 0 -66.5 -17t-53 -47.5t-35 -74.5t-12.5 -100v-226h-64v516h64v-107q27 51 74 83t103 32q74 0 116.5 -44t42.5 -126v-354z" />
<glyph unicode="o" horiz-adv-x="598" d="M57 258q0 50 16.5 98t48 85.5t76.5 60t101 22.5t101 -22.5t76.5 -60t48 -85.5t16.5 -98q0 -51 -16.5 -98.5t-48 -85t-76.5 -60t-101 -22.5t-101 22.5t-76.5 60t-48 85t-16.5 98.5zM124 258q0 -39 11 -76t33 -66t55 -47t76 -18t76 18t55 47t33 66t11 76t-11 76t-33 66 t-55 47t-76 18t-76 -18t-55 -47t-33 -66t-11 -76z" />
<glyph unicode="p" horiz-adv-x="612" d="M98 -209v725h66v-67q10 15 27 28t38 24t45.5 17t50.5 6q56 0 99 -21t72 -56.5t44 -84.5t15 -104t-15 -104t-44 -84.5t-72 -56.5t-99 -21q-42 0 -87 22t-74 59v-282h-66zM488 258q0 44 -10.5 82t-31.5 65.5t-52.5 43.5t-71.5 16q-41 0 -72.5 -16t-52 -43.5t-31 -65.5 t-10.5 -82q0 -43 10.5 -81t31 -65.5t52 -44t72.5 -16.5t72 16.5t52 44t31.5 65.5t10.5 81z" />
<glyph unicode="q" horiz-adv-x="612" d="M449 -209v282q-29 -37 -74 -59t-87 -22q-56 0 -99.5 21t-72.5 56.5t-44 84.5t-15 104t15 104t44 84.5t72 56.5t100 21q26 0 50 -6t45 -17t38 -24t28 -28v67h65v-725h-65zM124 258q0 -43 10.5 -81t31.5 -65.5t52.5 -44t72.5 -16.5t72 16.5t51.5 44t31.5 65.5t11 81 q0 44 -11 82t-31.5 65.5t-51.5 43.5t-72 16t-72.5 -16t-52.5 -43.5t-31.5 -65.5t-10.5 -82z" />
<glyph unicode="r" horiz-adv-x="408" d="M377 446q-34 18 -73 19q-30 0 -56 -17t-45 -49.5t-30 -83t-11 -115.5v-200h-64v516h64v-92q24 48 61.5 74t89.5 26q23 0 41 -4.5t37 -12.5z" />
<glyph unicode="s" horiz-adv-x="460" d="M236 524q49 0 82.5 -21.5t60.5 -58.5l-45 -38q-24 32 -47.5 45.5t-54.5 13.5q-33 0 -54 -21t-21 -57q0 -26 18 -43t45.5 -30.5t58.5 -26.5t59 -29.5t45.5 -42t17.5 -61.5q0 -75 -43 -118.5t-116 -43.5q-41 0 -72.5 12.5t-54.5 32.5t-38 45.5t-22 50.5l57 30 q8 -24 18.5 -44.5t26 -35t36 -23.5t49.5 -9q46 0 69.5 24.5t23.5 67.5q0 30 -18 48t-45 32t-59 25.5t-59 29t-45 42.5t-18 66q0 31 11.5 56.5t30.5 44t45.5 28t57.5 9.5z" />
<glyph unicode="t" horiz-adv-x="379" d="M28 516h91v167l65 42v-209h138v-59h-138v-321q0 -44 19.5 -64.5t52.5 -20.5q15 0 32.5 3.5t32.5 13.5l17 -58q-18 -10 -42.5 -14t-47.5 -4q-56 0 -92.5 36.5t-36.5 117.5v311h-91v59z" />
<glyph unicode="u" horiz-adv-x="589" d="M92 516h64v-346q0 -56 25.5 -87.5t79.5 -31.5q35 0 65.5 17t53 47.5t35.5 74.5t13 100v226h64v-516h-64v108q-27 -51 -74 -83.5t-103 -32.5q-74 0 -116.5 44t-42.5 126v354z" />
<glyph unicode="v" horiz-adv-x="458" d="M438 516l-174 -516h-69l-175 516h67l142 -431l143 431h66z" />
<glyph unicode="w" horiz-adv-x="735" d="M695 516l-154 -516h-66l-107 422l-108 -422h-65l-155 516h66l121 -426l109 426h63l109 -426l121 426h66z" />
<glyph unicode="x" horiz-adv-x="456" d="M119 516l109 -178l110 178h71l-146 -234l174 -282h-66l-143 225l-142 -225h-67l175 282l-146 234h71z" />
<glyph unicode="y" horiz-adv-x="462" d="M447 516l-256 -725h-63l75 212l-186 513h67l154 -418l143 418h66z" />
<glyph unicode="z" horiz-adv-x="466" d="M70 516h334v-35l-260 -422h272v-59h-359v31l264 426h-251v59z" />
<glyph unicode="{" horiz-adv-x="324" d="M147 243q0 46 -18 66.5t-62 20.5v57q44 0 62 20.5t18 66.5v188q0 50 27 78t70 28h47v-57h-31q-51 0 -51 -52v-201q0 -47 -17.5 -67.5t-47.5 -32.5q30 -11 47.5 -31.5t17.5 -67.5v-202q0 -51 51 -51h31v-57h-47q-43 0 -70 28t-27 78v188v0z" />
<glyph unicode="|" horiz-adv-x="268" d="M165 768v-819h-62v819h62z" />
<glyph unicode="}" horiz-adv-x="324" d="M177 55q0 -50 -26.5 -78t-69.5 -28h-47v57h31q51 0 51 51v202q0 47 17.5 67.5t46.5 31.5q-30 11 -47 32t-17 68v201q0 51 -51 52h-31v57h47q43 0 69.5 -28t26.5 -78v-188q0 -46 18.5 -66.5t62.5 -20.5v-57q-44 0 -62.5 -20.5t-18.5 -66.5v-188z" />
<glyph unicode="~" horiz-adv-x="616" d="M87 328q24 33 56 56.5t69 23.5q30 0 52 -9t42 -19t41 -19t49 -9q27 0 51 12.5t41 33.5l41 -40q-24 -33 -56 -56t-69 -23q-30 0 -51.5 8.5t-41.5 18.5t-41 19t-50 9q-27 0 -51 -12.5t-41 -33.5z" />
<glyph unicode="&#xa1;" horiz-adv-x="332" d="M208 -210.956l-23 528.968h-41l-22 -528.968h86zM109 452.003q0 -24.998 15.5 -40.9971t40.5 -15.999t40.5 15.999t15.5 40.9971q0 24.999 -15.5 40.498t-40.5 15.499t-40.5 -15.499t-15.5 -40.498z" />
<glyph unicode="&#xa2;" horiz-adv-x="561" d="M499 234q-48 -126 -175 -141v-144h-62v144q-50 6 -87.5 30t-62.5 60.5t-37.5 81.5t-12.5 93q0 47 12.5 92.5t37.5 82t62.5 60.5t87.5 31v144h62v-144q63 -7 107 -43t68 -99l-58 -22q-20 51 -56 78t-94 27q-42 0 -72.5 -16.5t-50.5 -45t-29.5 -66t-9.5 -79.5t9.5 -79 t29.5 -66t50.5 -45t72.5 -16q58 0 94 27t56 78z" />
<glyph unicode="&#xa3;" horiz-adv-x="542" d="M62 402h65q-10 27 -18 54.5t-8 62.5q0 98 52.5 152t136.5 54q70 0 117.5 -39t71.5 -105l-56 -26q-24 54 -54 82.5t-79 28.5q-54 0 -88.5 -37.5t-34.5 -110.5q0 -35 7.5 -62.5t15.5 -53.5h168v-59h-149q5 -18 7.5 -37.5t2.5 -42.5q0 -25 -6.5 -52t-17.5 -52.5t-26 -47.5 t-32 -37q20 11 44 16.5t43 5.5q25 0 44 -7.5t35 -17t31 -17t32 -7.5t30.5 4t24.5 14.5t22.5 27t25.5 40.5l48 -28q-33 -62 -66 -87.5t-83 -25.5q-29 0 -49 7t-36.5 16.5t-33.5 16.5t-39 7q-37 0 -61 -13.5t-50 -33.5l-50 56q58 56 85.5 108t27.5 109q0 22 -3.5 41t-10.5 37 h-86v59z" />
<glyph unicode="&#xa4;" horiz-adv-x="559" d="M119 189q-18 27 -28.5 58.5t-10.5 66.5q0 36 10 67.5t29 57.5l-89 69l56 56l68 -87q26 20 57.5 32t68.5 12t68.5 -11.5t57.5 -32.5l67 87l56 -56l-89 -69q18 -27 28.5 -58t10.5 -67t-10 -67t-29 -58l89 -68l-56 -56l-67 87q-26 -20 -58 -32t-68 -12q-37 0 -69 11.5 t-57 32.5l-68 -87l-56 56zM137 314q0 -34 10.5 -61.5t29 -47.5t44.5 -31t59 -11q32 0 58.5 11t44.5 31t28.5 48t10.5 61q0 34 -10.5 61.5t-28.5 47.5t-45 31.5t-58 11.5q-33 0 -59 -11.5t-44.5 -31.5t-29 -47.5t-10.5 -61.5z" />
<glyph unicode="&#xa5;" horiz-adv-x="512" d="M92 717l164 -337l164 337h79l-180 -348h136v-58h-165v-89h165v-57h-165v-165h-68v165h-165v57h165v89h-165v58h136l-180 348h79z" />
<glyph unicode="&#xa6;" horiz-adv-x="268" d="M165 306v-357h-62v357h62zM103 411v357h62v-357h-62z" />
<glyph unicode="&#xa7;" horiz-adv-x="547" d="M481 217q0 -80 -83 -132q22 -22 36.5 -49t14.5 -68q0 -45 -14.5 -79.5t-38.5 -58.5t-55.5 -35.5t-65.5 -11.5q-74 0 -120.5 38t-64.5 111l57 20q14 -47 45 -78.5t83 -31.5q45 0 76.5 31t31.5 93q0 32 -17 54.5t-45 41t-66.5 36.5t-81.5 42q-51 29 -77 61.5t-26 89.5 q0 80 83 132q-22 22 -36.5 49t-14.5 68q0 45 14.5 79.5t38.5 58t55.5 35.5t64.5 12q74 0 121 -38t65 -112l-58 -19q-14 47 -44.5 78.5t-83.5 31.5q-45 0 -76 -31t-31 -93q0 -33 17 -55t45 -40.5t66.5 -36.5t81.5 -42q51 -29 77 -62t26 -89zM347 124q34 16 53.5 40t19.5 54 q0 28 -17.5 49t-47 40.5t-68.5 37t-83 39.5q-34 -16 -53.5 -40.5t-19.5 -53.5q0 -28 17.5 -49t47 -40.5t68.5 -37t83 -39.5z" />
<glyph unicode="&#xa8;" horiz-adv-x="301" d="M22 666q0 22 14 36.5t36 14.5t36 -15t14 -36q0 -20 -14.5 -35t-35.5 -15q-22 0 -36 15t-14 35zM179 666q0 22 14.5 36.5t34.5 14.5q22 0 37 -15t15 -36q0 -20 -15 -35t-37 -15q-20 0 -34.5 15t-14.5 35z" />
<glyph unicode="&#xa9;" horiz-adv-x="923" d="M77 358q0 85 28.5 158.5t80 127t122 84t154.5 30.5t154.5 -30.5t122 -84t80 -127t28.5 -158.5t-28.5 -158t-80 -127t-122 -84t-154.5 -30t-154.5 30t-122 84t-80 127t-28.5 158zM140 358q0 -71 23 -132t65 -106t101.5 -71t132.5 -26t132 26t101 71t65 106.5t23 131.5 q0 71 -23 132.5t-65 106.5t-101 71t-132 26t-132.5 -26t-101.5 -71t-65 -106.5t-23 -132.5zM633 272q-16 -66 -62.5 -100.5t-108.5 -34.5q-33 0 -68 12.5t-64.5 39t-48.5 68.5t-19 101t19 101.5t48.5 69t64.5 39t68 12.5q62 0 108 -35t63 -101l-54 -14q-14 45 -41 69.5 t-76 24.5q-58 0 -98.5 -41t-40.5 -125q0 -42 10.5 -73t29.5 -51.5t44 -30.5t55 -10q49 0 75.5 24.5t41.5 69.5z" />
<glyph unicode="&#xaa;" horiz-adv-x="440" d="M372 307h-38l-10 65q-17 -30 -49 -49.5t-81 -19.5q-26 0 -48.5 7t-40 22.5t-27.5 38.5t-10 55q0 68 50 100.5t136 32.5h68v18q0 53 -27 74t-67 21q-42 0 -64 -21.5t-31 -52.5l-49 12q11 54 50 82.5t94 28.5q31 0 57 -7.5t45.5 -24.5t30.5 -45t11 -66v-271zM125 426 q0 -38 20.5 -56t53.5 -18q19 0 40.5 7.5t40 24t30.5 44.5t12 69v15h-66q-71 0 -101 -24t-30 -62z" />
<glyph unicode="&#xab;" horiz-adv-x="618" d="M51 339l270 200v-70l-203 -152l203 -151v-70l-270 200v43zM288 339l269 200v-70l-203 -152l203 -151v-70l-269 200v43z" />
<glyph unicode="&#xac;" horiz-adv-x="586" d="M72 389h433v-244h-66v185h-367v59z" />
<glyph unicode="&#xad;" horiz-adv-x="482" d="M73 353h337v-57h-337v57z" />
<glyph unicode="&#xae;" horiz-adv-x="923" d="M77 358q0 85 28.5 158.5t80 127t122 84t154.5 30.5t154.5 -30.5t122 -84t80 -127t28.5 -158.5t-28.5 -158t-80 -127t-122 -84t-154.5 -30t-154.5 30t-122 84t-80 127t-28.5 158zM140 358q0 -71 23 -132t65 -106t101.5 -71t132.5 -26t132 26t101 71t65 106.5t23 131.5 q0 71 -23 132.5t-65 106.5t-101 71t-132 26t-132.5 -26t-101.5 -71t-65 -106.5t-23 -132.5zM445 327h-62v-187h-60v437h147q65 0 100.5 -35t35.5 -90q0 -48 -28 -80.5t-70 -40.5l130 -191h-64zM383 521v-139h87q38 0 57 18.5t19 51.5t-19 51t-57 18h-87z" />
<glyph unicode="&#xaf;" horiz-adv-x="277" d="M15 717h247v-58h-247v58z" />
<glyph unicode="&#xb0;" horiz-adv-x="360" d="M69 607q0 49 30.5 81.5t80.5 32.5t81 -32.5t31 -81.5t-31 -81t-81 -32t-80.5 32t-30.5 81zM118 607q0 -29 17.5 -46.5t44.5 -17.5q28 0 45.5 18t17.5 46q0 29 -17.5 47t-45.5 18t-45 -18t-17 -47z" />
<glyph unicode="&#xb1;" horiz-adv-x="553" d="M488 379h-181v-181h-57v181h-181v57h181v180h57v-180h181v-57zM69 58h419v-57h-419v57z" />
<glyph unicode="&#xb2;" horiz-adv-x="390" d="M67 327l150 187q24 29 32.5 49t8.5 43q0 30 -16 47t-47 17q-30 0 -46 -22.5t-20 -55.5l-55 14q5 49 36.5 82t84.5 33q56 0 87 -32.5t31 -82.5q0 -57 -40 -107l-113 -141h164v-51h-257v20z" />
<glyph unicode="&#xb3;" horiz-adv-x="394" d="M122 431q4 -35 23 -57t54 -22q39 0 56 25t17 61t-17 59.5t-56 23.5q-12 0 -21 -3t-15 -7l-27 36l91 121h-138v49h218v-18l-102 -138q2 1 9 1.5t9 0.5q45 0 75 -33t30 -92q0 -27 -8 -51.5t-23.5 -42.5t-40.5 -29.5t-57 -11.5q-53 0 -90 31.5t-42 88.5z" />
<glyph unicode="&#xb4;" horiz-adv-x="214" d="M97 717h96l-117 -144h-50z" />
<glyph unicode="&#xb5;" horiz-adv-x="589" d="M92 516h64v-346q0 -56 25.5 -87.5t79.5 -31.5q35 0 65.5 17t53 47.5t35.5 74.5t13 100v226h64v-516h-64v108q-27 -51 -74 -83.5t-103 -32.5t-95 26v-227h-64v725z" />
<glyph unicode="&#xb6;" horiz-adv-x="666" d="M62 540q0 37 14 69t38 56t56.5 38t69.5 14h357v-64h-59v-862h-68v862h-163v-862h-67v571q-37 0 -69.5 14t-56.5 38t-38 56.5t-14 69.5z" />
<glyph unicode="&#xb7;" horiz-adv-x="290" d="M93 357q0 23 14.5 37.5t37.5 14.5t38 -14.5t15 -37.5q0 -24 -15 -38t-38 -14q-24 0 -38 14t-14 38z" />
<glyph unicode="&#xb8;" horiz-adv-x="179" d="M85 -219l-74 32l101 126h56z" />
<glyph unicode="&#xb9;" horiz-adv-x="290" d="M200 717v-410h-52v334l-87 -42v57l122 61h17z" />
<glyph unicode="&#xba;" horiz-adv-x="524" d="M73 512q0 40 12.5 77.5t37 66.5t60 47t79.5 18t79.5 -18t60 -47t37.5 -66.5t13 -77.5t-13 -77.5t-37.5 -66.5t-60 -47t-79.5 -18t-79.5 18t-60 47t-37 66.5t-12.5 77.5zM128 512q0 -31 8 -59.5t25 -50.5t42 -36t59 -14t59 14t42 36t25 50.5t8 59.5t-8 59.5t-25 50.5 t-42 36t-59 14t-59 -14t-42 -36t-25 -50.5t-8 -59.5z" />
<glyph unicode="&#xbb;" horiz-adv-x="618" d="M567 296l-269 -200v70l203 151l-203 152v70l269 -200v-43zM331 296l-270 -200v70l203 151l-203 152v70l270 -200v-43z" />
<glyph unicode="&#xbc;" horiz-adv-x="808" d="M695 708l-555 -733l-43 34l555 732zM220 717v-410h-52v334l-87 -42v57l122 61h17zM613 86h-175v18l166 307h60v-276h53v-49h-53v-85h-51v85zM613 135v200l-105 -200h105z" />
<glyph unicode="&#xbd;" horiz-adv-x="877" d="M695 708l-555 -733l-43 34l555 732zM220 717v-410h-52v334l-87 -42v57l122 61h17zM514 21l150 187q24 29 32.5 49t8.5 43q0 30 -16 47t-47 17q-30 0 -46 -22.5t-20 -55.5l-55 14q5 49 36.5 82t84.5 33q56 0 87 -32.5t31 -82.5q0 -57 -40 -107l-113 -141h164v-51h-257v20z " />
<glyph unicode="&#xbe;" horiz-adv-x="860" d="M769 708l-555 -733l-43 34l555 732zM122 431q4 -35 23 -57t54 -22q39 0 56 25t17 61t-17 59.5t-56 23.5q-12 0 -21 -3t-15 -7l-27 36l91 121h-138v49h218v-18l-102 -138q2 1 9 1.5t9 0.5q45 0 75 -33t30 -92q0 -27 -8 -51.5t-23.5 -42.5t-40.5 -29.5t-57 -11.5 q-53 0 -90 31.5t-42 88.5zM660 86h-175v18l166 307h60v-276h53v-49h-53v-85h-51v85zM660 135v200l-105 -200h105z" />
<glyph unicode="&#xbf;" horiz-adv-x="448" d="M272.011 452.003q0 -24.998 -15.999 -40.9971t-39.9971 -15.999q-24.999 0 -40.998 15.999t-15.999 40.9971q0 24.999 15.999 40.498t40.998 15.499q24.998 0 40.4971 -15.499t15.499 -40.498zM88.0225 197.019q14.999 54.9971 47.4971 80.9951 q32.498 25.999 82.4941 25.999q24.999 0 47.4971 -7q22.499 -6.99902 39.998 -22.499q17.499 -15.499 28.498 -38.4971q10.999 -22.999 10.999 -55.9971q0 -81.9941 -90.9941 -130.991l-83.9951 -45.998q-26.998 -13.999 -39.9971 -31.498t-12.999 -44.4971 q0 -40.9971 25.498 -63.9961q25.499 -22.998 75.4951 -22.998q89.9951 0 114.993 104.993l64.9961 -10.999q-11.999 -69.9961 -58.9961 -111.493q-46.9971 -41.498 -128.992 -41.498q-70.9961 0 -114.493 39.498q-43.4971 39.4971 -43.4971 103.493q0 39.998 20.999 70.9961 q20.998 30.998 67.9951 55.9961l73.9961 39.998q35.9971 18.999 50.9961 39.9971q14.999 20.999 14.999 50.9971q0 28.998 -15.998 45.9971q-16 16.999 -44.998 16.999q-30.998 0 -50.4971 -15.499q-19.498 -15.499 -30.498 -52.4961z" />
<glyph unicode="&#xc0;" horiz-adv-x="598" d="M329 717l259 -717h-70l-72 204h-294l-72 -204h-70l259 717h60zM173 267h252l-126 358zM354 774h-50l-116 144h95z" />
<glyph unicode="&#xc1;" horiz-adv-x="598" d="M329 717l259 -717h-70l-72 204h-294l-72 -204h-70l259 717h60zM173 267h252l-126 358zM313 918h96l-117 -144h-50z" />
<glyph unicode="&#xc2;" horiz-adv-x="598" d="M329 717l259 -717h-70l-72 204h-294l-72 -204h-70l259 717h60zM173 267h252l-126 358zM288 935h23l147 -154h-74l-85 91l-85 -91h-73z" />
<glyph unicode="&#xc3;" horiz-adv-x="598" d="M329 717l259 -717h-70l-72 204h-294l-72 -204h-70l259 717h60zM173 267h252l-126 358zM126 840q17 33 44 52t58 19q26 0 43 -7t31 -14.5t28 -14t32 -6.5q24 0 39 9.5t30 27.5l41 -32q-17 -33 -44 -52t-58 -19q-26 0 -43 6.5t-31 14.5t-28 14.5t-32 6.5q-24 0 -39 -9.5 t-30 -27.5z" />
<glyph unicode="&#xc4;" horiz-adv-x="598" d="M329 717l259 -717h-70l-72 204h-294l-72 -204h-70l259 717h60zM173 267h252l-126 358zM170 867q0 22 14 36.5t36 14.5t36 -15t14 -36q0 -20 -14.5 -35t-35.5 -15q-22 0 -36 15t-14 35zM327 867q0 22 14.5 36.5t34.5 14.5q22 0 37 -15t15 -36q0 -20 -15 -35t-37 -15 q-20 0 -34.5 15t-14.5 35z" />
<glyph unicode="&#xc5;" horiz-adv-x="598" d="M329 717l259 -717h-70l-72 204h-294l-72 -204h-70l259 717h60zM173 267h252l-126 358zM202 870q0 43 28.5 71.5t71.5 28.5q44 0 71.5 -28.5t27.5 -71.5q0 -41 -27.5 -69t-71.5 -28q-43 0 -71.5 28t-28.5 69zM250 871q0 -24 14 -39t38 -15t38 15t14 39t-14.5 39.5 t-37.5 15.5q-24 0 -38 -15.5t-14 -39.5z" />
<glyph unicode="&#xc6;" horiz-adv-x="840" d="M767 717v-64h-337v-239h276v-64h-276v-287h347v-63h-415v204h-195l-89 -204h-71l315 717h445zM195 267h167v358h-11z" />
<glyph unicode="&#xc7;" horiz-adv-x="696" d="M647 197q-27 -94 -97 -149.5t-173 -55.5q-60 0 -117.5 22.5t-101.5 67.5t-71 114t-27 162t27 162.5t71.5 114.5t101 67.5t117.5 22.5q103 0 173.5 -55.5t96.5 -149.5l-66 -19q-20 75 -70.5 118t-133.5 43q-54 0 -99.5 -20t-77.5 -58.5t-50.5 -95t-18.5 -130.5t18.5 -130 t50.5 -94.5t77.5 -58.5t99.5 -20q83 0 133 43t71 118zM352 -219l-74 32l101 126h56z" />
<glyph unicode="&#xc8;" horiz-adv-x="581" d="M508 717v-64h-337v-239h275v-64h-275v-287h347v-63h-415v717h405zM370 774h-50l-116 144h95z" />
<glyph unicode="&#xc9;" horiz-adv-x="581" d="M508 717v-64h-337v-239h275v-64h-275v-287h347v-63h-415v717h405zM323 918h96l-117 -144h-50z" />
<glyph unicode="&#xca;" horiz-adv-x="581" d="M508 717v-64h-337v-239h275v-64h-275v-287h347v-63h-415v717h405zM294 935h23l147 -154h-74l-85 91l-85 -91h-73z" />
<glyph unicode="&#xcb;" horiz-adv-x="581" d="M508 717v-64h-337v-239h275v-64h-275v-287h347v-63h-415v717h405zM188 867q0 22 14 36.5t36 14.5t36 -15t14 -36q0 -20 -14.5 -35t-35.5 -15q-22 0 -36 15t-14 35zM345 867q0 22 14.5 36.5t34.5 14.5q22 0 37 -15t15 -36q0 -20 -15 -35t-37 -15q-20 0 -34.5 15t-14.5 35z " />
<glyph unicode="&#xcc;" horiz-adv-x="274" d="M171 0h-68v717h68v-717zM192 774h-50l-116 144h95z" />
<glyph unicode="&#xcd;" horiz-adv-x="274" d="M171 0h-68v717h68v-717zM158 918h96l-117 -144h-50z" />
<glyph unicode="&#xce;" horiz-adv-x="274" d="M171 0h-68v717h68v-717zM127 935h23l147 -154h-74l-85 91l-85 -91h-73z" />
<glyph unicode="&#xcf;" horiz-adv-x="274" d="M171 0h-68v717h68v-717zM10 867q0 22 14 36.5t36 14.5t36 -15t14 -36q0 -20 -14.5 -35t-35.5 -15q-22 0 -36 15t-14 35zM167 867q0 22 14.5 36.5t34.5 14.5q22 0 37 -15t15 -36q0 -20 -15 -35t-37 -15q-20 0 -34.5 15t-14.5 35z" />
<glyph unicode="&#xd0;" horiz-adv-x="703" d="M43 390h86v327h188q69 0 129 -24.5t103.5 -71t68.5 -113t25 -150.5t-25 -150.5t-68.5 -112.5t-103.5 -70.5t-129 -24.5h-188v327h-86v63zM197 653v-263h86v-63h-86v-264h121q49 0 95.5 17t81.5 53.5t56 92.5t21 132q0 77 -21 133t-56 92.5t-81 53t-96 16.5h-121z" />
<glyph unicode="&#xd1;" horiz-adv-x="709" d="M606 717v-717h-80l-355 607v-607h-68v717h80l356 -609v609h67zM177 840q17 33 44 52t58 19q26 0 43 -7t31 -14.5t28 -14t32 -6.5q24 0 39 9.5t30 27.5l41 -32q-17 -33 -44 -52t-58 -19q-26 0 -43 6.5t-31 14.5t-28 14.5t-32 6.5q-24 0 -39 -9.5t-30 -27.5z" />
<glyph unicode="&#xd2;" horiz-adv-x="749" d="M375 725q62 0 119.5 -25t100.5 -72.5t68.5 -116t25.5 -153.5t-25.5 -153t-68.5 -115.5t-100.5 -72.5t-119.5 -25q-63 0 -120 25t-100 72.5t-69 115.5t-26 153t26 153.5t69 116t100 72.5t120 25zM375 662q-50 0 -94.5 -19t-77.5 -57.5t-52.5 -95.5t-19.5 -132 q0 -76 19.5 -132t52.5 -94.5t77.5 -57.5t94.5 -19t94.5 19t77.5 57.5t52 95t19 131.5t-19 132t-52 95.5t-77.5 57.5t-94.5 19zM419 774h-50l-116 144h95z" />
<glyph unicode="&#xd3;" horiz-adv-x="749" d="M375 725q62 0 119.5 -25t100.5 -72.5t68.5 -116t25.5 -153.5t-25.5 -153t-68.5 -115.5t-100.5 -72.5t-119.5 -25q-63 0 -120 25t-100 72.5t-69 115.5t-26 153t26 153.5t69 116t100 72.5t120 25zM375 662q-50 0 -94.5 -19t-77.5 -57.5t-52.5 -95.5t-19.5 -132 q0 -76 19.5 -132t52.5 -94.5t77.5 -57.5t94.5 -19t94.5 19t77.5 57.5t52 95t19 131.5t-19 132t-52 95.5t-77.5 57.5t-94.5 19zM365 918h96l-117 -144h-50z" />
<glyph unicode="&#xd4;" horiz-adv-x="749" d="M375 725q62 0 119.5 -25t100.5 -72.5t68.5 -116t25.5 -153.5t-25.5 -153t-68.5 -115.5t-100.5 -72.5t-119.5 -25q-63 0 -120 25t-100 72.5t-69 115.5t-26 153t26 153.5t69 116t100 72.5t120 25zM375 662q-50 0 -94.5 -19t-77.5 -57.5t-52.5 -95.5t-19.5 -132 q0 -76 19.5 -132t52.5 -94.5t77.5 -57.5t94.5 -19t94.5 19t77.5 57.5t52 95t19 131.5t-19 132t-52 95.5t-77.5 57.5t-94.5 19zM363 935h23l147 -154h-74l-85 91l-85 -91h-73z" />
<glyph unicode="&#xd5;" horiz-adv-x="749" d="M375 725q62 0 119.5 -25t100.5 -72.5t68.5 -116t25.5 -153.5t-25.5 -153t-68.5 -115.5t-100.5 -72.5t-119.5 -25q-63 0 -120 25t-100 72.5t-69 115.5t-26 153t26 153.5t69 116t100 72.5t120 25zM375 662q-50 0 -94.5 -19t-77.5 -57.5t-52.5 -95.5t-19.5 -132 q0 -76 19.5 -132t52.5 -94.5t77.5 -57.5t94.5 -19t94.5 19t77.5 57.5t52 95t19 131.5t-19 132t-52 95.5t-77.5 57.5t-94.5 19zM202 840q17 33 44 52t58 19q26 0 43 -7t31 -14.5t28 -14t32 -6.5q24 0 39 9.5t30 27.5l41 -32q-17 -33 -44 -52t-58 -19q-26 0 -43 6.5t-31 14.5 t-28 14.5t-32 6.5q-24 0 -39 -9.5t-30 -27.5z" />
<glyph unicode="&#xd6;" horiz-adv-x="749" d="M375 725q62 0 119.5 -25t100.5 -72.5t68.5 -116t25.5 -153.5t-25.5 -153t-68.5 -115.5t-100.5 -72.5t-119.5 -25q-63 0 -120 25t-100 72.5t-69 115.5t-26 153t26 153.5t69 116t100 72.5t120 25zM375 662q-50 0 -94.5 -19t-77.5 -57.5t-52.5 -95.5t-19.5 -132 q0 -76 19.5 -132t52.5 -94.5t77.5 -57.5t94.5 -19t94.5 19t77.5 57.5t52 95t19 131.5t-19 132t-52 95.5t-77.5 57.5t-94.5 19zM246 867q0 22 14 36.5t36 14.5t36 -15t14 -36q0 -20 -14.5 -35t-35.5 -15q-22 0 -36 15t-14 35zM403 867q0 22 14.5 36.5t34.5 14.5q22 0 37 -15 t15 -36q0 -20 -15 -35t-37 -15q-20 0 -34.5 15t-14.5 35z" />
<glyph unicode="&#xd7;" horiz-adv-x="536" d="M425 126l-157 157l-157 -157l-40 40l156 158l-156 156l40 41l157 -157l156 156l41 -41l-157 -155l158 -158z" />
<glyph unicode="&#xd8;" horiz-adv-x="749" d="M674 697l-66 -85q38 -47 59.5 -110.5t21.5 -143.5q0 -85 -25.5 -153t-68.5 -115.5t-100.5 -72.5t-119.5 -25q-53 0 -102.5 18t-89.5 51l-60 -77l-47 35l65 85q-38 47 -59.5 111t-21.5 143q0 85 26 153.5t69 116t99.5 72.5t120.5 25q53 0 102 -18t89 -52l61 78zM375 662 q-50 0 -94.5 -19t-77.5 -57.5t-52.5 -95.5t-19.5 -132q0 -65 14 -114t37 -86l345 447q-62 57 -152 57zM618 358q0 65 -13.5 114.5t-37.5 86.5l-345 -447q62 -56 153 -57q50 0 94.5 19t77.5 57.5t52 94.5t19 132z" />
<glyph unicode="&#xd9;" horiz-adv-x="669" d="M89 717h68v-494q0 -34 10.5 -64t33 -53t56 -37t78.5 -14t78 14t56 37t33.5 53t10.5 64v494h68v-488q0 -59 -20 -103.5t-54 -74t-78.5 -44.5t-93.5 -15t-93.5 15t-78.5 44.5t-54 74t-20 103.5v488zM387 774h-50l-116 144h95z" />
<glyph unicode="&#xda;" horiz-adv-x="669" d="M89 717h68v-494q0 -34 10.5 -64t33 -53t56 -37t78.5 -14t78 14t56 37t33.5 53t10.5 64v494h68v-488q0 -59 -20 -103.5t-54 -74t-78.5 -44.5t-93.5 -15t-93.5 15t-78.5 44.5t-54 74t-20 103.5v488zM347 918h96l-117 -144h-50z" />
<glyph unicode="&#xdb;" horiz-adv-x="669" d="M89 717h68v-494q0 -34 10.5 -64t33 -53t56 -37t78.5 -14t78 14t56 37t33.5 53t10.5 64v494h68v-488q0 -59 -20 -103.5t-54 -74t-78.5 -44.5t-93.5 -15t-93.5 15t-78.5 44.5t-54 74t-20 103.5v488zM322 935h23l147 -154h-74l-85 91l-85 -91h-73z" />
<glyph unicode="&#xdc;" horiz-adv-x="669" d="M89 717h68v-494q0 -34 10.5 -64t33 -53t56 -37t78.5 -14t78 14t56 37t33.5 53t10.5 64v494h68v-488q0 -59 -20 -103.5t-54 -74t-78.5 -44.5t-93.5 -15t-93.5 15t-78.5 44.5t-54 74t-20 103.5v488zM206 867q0 22 14 36.5t36 14.5t36 -15t14 -36q0 -20 -14.5 -35t-35.5 -15 q-22 0 -36 15t-14 35zM363 867q0 22 14.5 36.5t34.5 14.5q22 0 37 -15t15 -36q0 -20 -15 -35t-37 -15q-20 0 -34.5 15t-14.5 35z" />
<glyph unicode="&#xdd;" horiz-adv-x="512" d="M6 717h79l171 -339l171 339h79l-216 -406v-311h-68v311zM264 918h96l-117 -144h-50z" />
<glyph unicode="&#xde;" horiz-adv-x="591" d="M171 161v-161h-68v717h68v-161h176q96 0 151.5 -52t55.5 -146q0 -93 -55.5 -145t-151.5 -52h-176zM348 224q37 0 62.5 10.5t42 28.5t23.5 42.5t7 52.5q0 29 -7 53.5t-23.5 42.5t-42 28.5t-62.5 10.5h-177v-269h177z" />
<glyph unicode="&#xdf;" horiz-adv-x="570" d="M41 420h55v80q0 56 15 98.5t40.5 70.5t60.5 42t74 14q44 0 78.5 -13.5t58.5 -37.5t37 -56t13 -70q0 -30 -7.5 -55.5t-20.5 -45.5t-31 -33.5t-38 -18.5q26 -6 51.5 -21t46.5 -37.5t33.5 -53.5t12.5 -70q0 -54 -16 -95.5t-45 -69.5t-69 -42t-87 -14q-20 0 -42.5 2.5 t-35.5 4.5v59q15 -3 31.5 -5t40.5 -2q79 0 118.5 41.5t39.5 114.5q0 40 -14 69t-37.5 48.5t-56 28.5t-69.5 9h-33v58h39q61 0 94.5 33.5t33.5 89.5q0 58 -35 90.5t-91 32.5q-55 0 -89.5 -41.5t-34.5 -125.5v-499h-66v362h-55v58z" />
<glyph unicode="&#xe0;" horiz-adv-x="518" d="M125 148q0 -48 27 -72.5t73 -24.5q25 0 52.5 10t50.5 32t38.5 57.5t15.5 88.5v19h-84q-89 0 -131 -29.5t-42 -80.5zM445 0h-48l-15 80q-22 -38 -61.5 -63t-101.5 -25q-33 0 -61.5 8.5t-51 27t-35.5 48t-13 72.5q0 86 64.5 127.5t173.5 41.5h86v23q0 68 -33.5 96.5 t-85.5 28.5q-53 0 -82 -28.5t-41 -67.5l-61 14q5 33 21.5 59t41 44.5t55.5 28t66 9.5q38 0 71.5 -12t58 -35t38.5 -57t14 -78v-342zM321 573h-50l-116 144h95z" />
<glyph unicode="&#xe1;" horiz-adv-x="518" d="M125 148q0 -48 27 -72.5t73 -24.5q25 0 52.5 10t50.5 32t38.5 57.5t15.5 88.5v19h-84q-89 0 -131 -29.5t-42 -80.5zM445 0h-48l-15 80q-22 -38 -61.5 -63t-101.5 -25q-33 0 -61.5 8.5t-51 27t-35.5 48t-13 72.5q0 86 64.5 127.5t173.5 41.5h86v23q0 68 -33.5 96.5 t-85.5 28.5q-53 0 -82 -28.5t-41 -67.5l-61 14q5 33 21.5 59t41 44.5t55.5 28t66 9.5q38 0 71.5 -12t58 -35t38.5 -57t14 -78v-342zM280 717h96l-117 -144h-50z" />
<glyph unicode="&#xe2;" horiz-adv-x="518" d="M125 148q0 -48 27 -72.5t73 -24.5q25 0 52.5 10t50.5 32t38.5 57.5t15.5 88.5v19h-84q-89 0 -131 -29.5t-42 -80.5zM445 0h-48l-15 80q-22 -38 -61.5 -63t-101.5 -25q-33 0 -61.5 8.5t-51 27t-35.5 48t-13 72.5q0 86 64.5 127.5t173.5 41.5h86v23q0 68 -33.5 96.5 t-85.5 28.5q-53 0 -82 -28.5t-41 -67.5l-61 14q5 33 21.5 59t41 44.5t55.5 28t66 9.5q38 0 71.5 -12t58 -35t38.5 -57t14 -78v-342zM256 734h23l147 -154h-74l-85 91l-85 -91h-73z" />
<glyph unicode="&#xe3;" horiz-adv-x="518" d="M125 148q0 -48 27 -72.5t73 -24.5q25 0 52.5 10t50.5 32t38.5 57.5t15.5 88.5v19h-84q-89 0 -131 -29.5t-42 -80.5zM445 0h-48l-15 80q-22 -38 -61.5 -63t-101.5 -25q-33 0 -61.5 8.5t-51 27t-35.5 48t-13 72.5q0 86 64.5 127.5t173.5 41.5h86v23q0 68 -33.5 96.5 t-85.5 28.5q-53 0 -82 -28.5t-41 -67.5l-61 14q5 33 21.5 59t41 44.5t55.5 28t66 9.5q38 0 71.5 -12t58 -35t38.5 -57t14 -78v-342zM95 639q17 33 44 52t58 19q26 0 43 -7t31 -14.5t28 -14t32 -6.5q24 0 39 9.5t30 27.5l41 -32q-17 -33 -44 -52t-58 -19q-26 0 -43 6.5 t-31 14.5t-28 14.5t-32 6.5q-24 0 -39 -9.5t-30 -27.5z" />
<glyph unicode="&#xe4;" horiz-adv-x="518" d="M125 148q0 -48 27 -72.5t73 -24.5q25 0 52.5 10t50.5 32t38.5 57.5t15.5 88.5v19h-84q-89 0 -131 -29.5t-42 -80.5zM445 0h-48l-15 80q-22 -38 -61.5 -63t-101.5 -25q-33 0 -61.5 8.5t-51 27t-35.5 48t-13 72.5q0 86 64.5 127.5t173.5 41.5h86v23q0 68 -33.5 96.5 t-85.5 28.5q-53 0 -82 -28.5t-41 -67.5l-61 14q5 33 21.5 59t41 44.5t55.5 28t66 9.5q38 0 71.5 -12t58 -35t38.5 -57t14 -78v-342zM138 666q0 22 14 36.5t36 14.5t36 -15t14 -36q0 -20 -14.5 -35t-35.5 -15q-22 0 -36 15t-14 35zM295 666q0 22 14.5 36.5t34.5 14.5 q22 0 37 -15t15 -36q0 -20 -15 -35t-37 -15q-20 0 -34.5 15t-14.5 35z" />
<glyph unicode="&#xe5;" horiz-adv-x="518" d="M125 148q0 -48 27 -72.5t73 -24.5q25 0 52.5 10t50.5 32t38.5 57.5t15.5 88.5v19h-84q-89 0 -131 -29.5t-42 -80.5zM445 0h-48l-15 80q-22 -38 -61.5 -63t-101.5 -25q-33 0 -61.5 8.5t-51 27t-35.5 48t-13 72.5q0 86 64.5 127.5t173.5 41.5h86v23q0 68 -33.5 96.5 t-85.5 28.5q-53 0 -82 -28.5t-41 -67.5l-61 14q5 33 21.5 59t41 44.5t55.5 28t66 9.5q38 0 71.5 -12t58 -35t38.5 -57t14 -78v-342zM163 669q0 43 28.5 71.5t71.5 28.5q44 0 71.5 -28.5t27.5 -71.5q0 -41 -27.5 -69t-71.5 -28q-43 0 -71.5 28t-28.5 69zM211 670 q0 -24 14 -39t38 -15t38 15t14 39t-14.5 39.5t-37.5 15.5q-24 0 -38 -15.5t-14 -39.5z" />
<glyph unicode="&#xe6;" horiz-adv-x="889" d="M838 258h-389q0 -45 10.5 -83t31.5 -65.5t51 -43t69 -15.5q59 0 96 26.5t62 80.5l57 -24q-40 -79 -91.5 -110.5t-123.5 -31.5q-71 0 -123 35.5t-76 94.5q-25 -68 -76.5 -99t-116.5 -31q-33 0 -61.5 8.5t-51 27t-35.5 48t-13 72.5q0 86 64.5 127.5t173.5 41.5h86v23 q0 68 -33.5 96.5t-85.5 28.5q-53 0 -82 -28.5t-41 -67.5l-61 14q5 33 21.5 59t41 44.5t55.5 28t66 9.5q58 0 102.5 -26.5t64.5 -72.5q30 46 76.5 72.5t104.5 26.5q50 0 91.5 -17t71.5 -48t47 -75t17 -97v-29zM125 148q0 -48 27 -72.5t73 -24.5q25 0 52.5 10t50.5 32 t38.5 57.5t15.5 88.5v19h-84q-89 0 -131 -29.5t-42 -80.5zM611 465q-33 0 -59 -11.5t-46 -31.5t-33.5 -46.5t-19.5 -58.5h319q-9 68 -49.5 108t-111.5 40z" />
<glyph unicode="&#xe7;" horiz-adv-x="540" d="M494 134q-54 -142 -208 -142q-57 0 -100 22.5t-71.5 60t-43 85t-14.5 98.5q0 50 14.5 98t43 85.5t71 60t100.5 22.5q154 0 208 -142l-58 -23q-20 51 -56 78.5t-94 27.5q-42 0 -72.5 -16.5t-50.5 -45t-29.5 -66t-9.5 -79.5t9.5 -79.5t29.5 -66t50.5 -45t72.5 -16.5 q58 0 94 27t56 79zM262 -219l-74 32l101 126h56z" />
<glyph unicode="&#xe8;" horiz-adv-x="565" d="M513 258h-389q0 -45 10.5 -83t31.5 -65.5t51.5 -43t69.5 -15.5q59 0 94.5 26t63.5 85l57 -28q-40 -79 -92 -110.5t-123 -31.5q-51 0 -93.5 20t-73 55t-47 84.5t-16.5 106.5t16.5 106.5t47 84.5t73 55t93.5 20q50 0 91.5 -17t71 -48t46.5 -75t17 -97v-29zM287 465 q-33 0 -59 -11.5t-46 -31.5t-34 -46.5t-20 -58.5h319q-9 68 -49 108t-111 40zM352 573h-50l-116 144h95z" />
<glyph unicode="&#xe9;" horiz-adv-x="565" d="M513 258h-389q0 -45 10.5 -83t31.5 -65.5t51.5 -43t69.5 -15.5q59 0 94.5 26t63.5 85l57 -28q-40 -79 -92 -110.5t-123 -31.5q-51 0 -93.5 20t-73 55t-47 84.5t-16.5 106.5t16.5 106.5t47 84.5t73 55t93.5 20q50 0 91.5 -17t71 -48t46.5 -75t17 -97v-29zM287 465 q-33 0 -59 -11.5t-46 -31.5t-34 -46.5t-20 -58.5h319q-9 68 -49 108t-111 40zM281 717h96l-117 -144h-50z" />
<glyph unicode="&#xea;" horiz-adv-x="565" d="M513 258h-389q0 -45 10.5 -83t31.5 -65.5t51.5 -43t69.5 -15.5q59 0 94.5 26t63.5 85l57 -28q-40 -79 -92 -110.5t-123 -31.5q-51 0 -93.5 20t-73 55t-47 84.5t-16.5 106.5t16.5 106.5t47 84.5t73 55t93.5 20q50 0 91.5 -17t71 -48t46.5 -75t17 -97v-29zM287 465 q-33 0 -59 -11.5t-46 -31.5t-34 -46.5t-20 -58.5h319q-9 68 -49 108t-111 40zM275 734h23l147 -154h-74l-85 91l-85 -91h-73z" />
<glyph unicode="&#xeb;" horiz-adv-x="565" d="M513 258h-389q0 -45 10.5 -83t31.5 -65.5t51.5 -43t69.5 -15.5q59 0 94.5 26t63.5 85l57 -28q-40 -79 -92 -110.5t-123 -31.5q-51 0 -93.5 20t-73 55t-47 84.5t-16.5 106.5t16.5 106.5t47 84.5t73 55t93.5 20q50 0 91.5 -17t71 -48t46.5 -75t17 -97v-29zM287 465 q-33 0 -59 -11.5t-46 -31.5t-34 -46.5t-20 -58.5h319q-9 68 -49 108t-111 40zM164 666q0 22 14 36.5t36 14.5t36 -15t14 -36q0 -20 -14.5 -35t-35.5 -15q-22 0 -36 15t-14 35zM321 666q0 22 14.5 36.5t34.5 14.5q22 0 37 -15t15 -36q0 -20 -15 -35t-37 -15q-20 0 -34.5 15 t-14.5 35z" />
<glyph unicode="&#xec;" horiz-adv-x="286" d="M176 516v-516h-63v516h63zM194 573h-50l-116 144h95z" />
<glyph unicode="&#xed;" horiz-adv-x="286" d="M176 516v-516h-63v516h63zM171 717h96l-117 -144h-50z" />
<glyph unicode="&#xee;" horiz-adv-x="286" d="M176 516v-516h-63v516h63zM133 734h23l147 -154h-74l-85 91l-85 -91h-73z" />
<glyph unicode="&#xef;" horiz-adv-x="286" d="M176 516v-516h-63v516h63zM18 666q0 22 14 36.5t36 14.5t36 -15t14 -36q0 -20 -14.5 -35t-35.5 -15q-22 0 -36 15t-14 35zM175 666q0 22 14.5 36.5t34.5 14.5q22 0 37 -15t15 -36q0 -20 -15 -35t-37 -15q-20 0 -34.5 15t-14.5 35z" />
<glyph unicode="&#xf0;" horiz-adv-x="587" d="M208 595l45 65q-22 14 -43 24.5t-40 18.5l30 45q45 -20 84 -42l39 57l43 -31l-38 -55q105 -73 153.5 -175t48.5 -244q0 -51 -15.5 -98.5t-46 -85t-74.5 -60t-100 -22.5t-100 22.5t-74.5 60t-46.5 85t-16 98.5q0 50 16 98t46.5 85.5t74.5 60t100 22.5q41 0 78.5 -15.5 t60.5 -42.5q-14 42 -51.5 85.5t-85.5 79.5l-45 -67zM124 258q0 -39 10 -76t31 -66t53.5 -47t75.5 -18t75 18t53 47t31.5 66t10.5 76t-10.5 76t-31.5 66t-53 47t-75 18t-75.5 -18t-53.5 -47t-31 -66t-10 -76z" />
<glyph unicode="&#xf1;" horiz-adv-x="589" d="M498 0h-64v346q0 56 -25.5 87.5t-79.5 31.5q-36 0 -66.5 -17t-53 -47.5t-35 -74.5t-12.5 -100v-226h-64v516h64v-107q27 51 74 83t103 32q74 0 116.5 -44t42.5 -126v-354zM130 639q17 33 44 52t58 19q26 0 43 -7t31 -14.5t28 -14t32 -6.5q24 0 39 9.5t30 27.5l41 -32 q-17 -33 -44 -52t-58 -19q-26 0 -43 6.5t-31 14.5t-28 14.5t-32 6.5q-24 0 -39 -9.5t-30 -27.5z" />
<glyph unicode="&#xf2;" horiz-adv-x="598" d="M57 258q0 50 16.5 98t48 85.5t76.5 60t101 22.5t101 -22.5t76.5 -60t48 -85.5t16.5 -98q0 -51 -16.5 -98.5t-48 -85t-76.5 -60t-101 -22.5t-101 22.5t-76.5 60t-48 85t-16.5 98.5zM124 258q0 -39 11 -76t33 -66t55 -47t76 -18t76 18t55 47t33 66t11 76t-11 76t-33 66 t-55 47t-76 18t-76 -18t-55 -47t-33 -66t-11 -76zM356 573h-50l-116 144h95z" />
<glyph unicode="&#xf3;" horiz-adv-x="598" d="M57 258q0 50 16.5 98t48 85.5t76.5 60t101 22.5t101 -22.5t76.5 -60t48 -85.5t16.5 -98q0 -51 -16.5 -98.5t-48 -85t-76.5 -60t-101 -22.5t-101 22.5t-76.5 60t-48 85t-16.5 98.5zM124 258q0 -39 11 -76t33 -66t55 -47t76 -18t76 18t55 47t33 66t11 76t-11 76t-33 66 t-55 47t-76 18t-76 -18t-55 -47t-33 -66t-11 -76zM295 717h96l-117 -144h-50z" />
<glyph unicode="&#xf4;" horiz-adv-x="598" d="M57 258q0 50 16.5 98t48 85.5t76.5 60t101 22.5t101 -22.5t76.5 -60t48 -85.5t16.5 -98q0 -51 -16.5 -98.5t-48 -85t-76.5 -60t-101 -22.5t-101 22.5t-76.5 60t-48 85t-16.5 98.5zM124 258q0 -39 11 -76t33 -66t55 -47t76 -18t76 18t55 47t33 66t11 76t-11 76t-33 66 t-55 47t-76 18t-76 -18t-55 -47t-33 -66t-11 -76zM288 734h23l147 -154h-74l-85 91l-85 -91h-73z" />
<glyph unicode="&#xf5;" horiz-adv-x="598" d="M57 258q0 50 16.5 98t48 85.5t76.5 60t101 22.5t101 -22.5t76.5 -60t48 -85.5t16.5 -98q0 -51 -16.5 -98.5t-48 -85t-76.5 -60t-101 -22.5t-101 22.5t-76.5 60t-48 85t-16.5 98.5zM124 258q0 -39 11 -76t33 -66t55 -47t76 -18t76 18t55 47t33 66t11 76t-11 76t-33 66 t-55 47t-76 18t-76 -18t-55 -47t-33 -66t-11 -76zM126 639q17 33 44 52t58 19q26 0 43 -7t31 -14.5t28 -14t32 -6.5q24 0 39 9.5t30 27.5l41 -32q-17 -33 -44 -52t-58 -19q-26 0 -43 6.5t-31 14.5t-28 14.5t-32 6.5q-24 0 -39 -9.5t-30 -27.5z" />
<glyph unicode="&#xf6;" horiz-adv-x="598" d="M57 258q0 50 16.5 98t48 85.5t76.5 60t101 22.5t101 -22.5t76.5 -60t48 -85.5t16.5 -98q0 -51 -16.5 -98.5t-48 -85t-76.5 -60t-101 -22.5t-101 22.5t-76.5 60t-48 85t-16.5 98.5zM124 258q0 -39 11 -76t33 -66t55 -47t76 -18t76 18t55 47t33 66t11 76t-11 76t-33 66 t-55 47t-76 18t-76 -18t-55 -47t-33 -66t-11 -76zM170 666q0 22 14 36.5t36 14.5t36 -15t14 -36q0 -20 -14.5 -35t-35.5 -15q-22 0 -36 15t-14 35zM327 666q0 22 14.5 36.5t34.5 14.5q22 0 37 -15t15 -36q0 -20 -15 -35t-37 -15q-20 0 -34.5 15t-14.5 35z" />
<glyph unicode="&#xf7;" horiz-adv-x="522" d="M208 137q0 23 14.5 37.5t37.5 14.5t37.5 -14.5t14.5 -37.5q0 -24 -14.5 -38t-37.5 -14q-24 0 -38 14t-14 38zM208 512q0 23 14.5 37.5t37.5 14.5t37.5 -14.5t14.5 -37.5q0 -24 -14.5 -38t-37.5 -14q-24 0 -38 14t-14 38zM51 353h420v-57h-420v57z" />
<glyph unicode="&#xf8;" horiz-adv-x="598" d="M57 258q0 50 16.5 98t48 85.5t76.5 60t101 22.5q40 0 75 -11.5t62 -32.5l58 73l47 -36l-62 -78q30 -37 46 -84t16 -97q0 -51 -16.5 -98.5t-48 -85t-76.5 -60t-101 -22.5q-41 0 -75.5 11.5t-61.5 32.5l-58 -73l-47 36l62 78q-30 37 -46 84t-16 97zM474 258q0 35 -8.5 68.5 t-26.5 61.5l-240 -304q20 -15 45 -24t55 -9q43 0 76 18t55 47t33 66t11 76zM124 258q0 -35 8.5 -68.5t26.5 -61.5l240 304q-20 15 -45 24t-55 9q-43 0 -76 -18t-55 -47t-33 -66t-11 -76z" />
<glyph unicode="&#xf9;" d="M92 516h64v-346q0 -56 25.5 -87.5t79.5 -31.5q35 0 65.5 17t53 47.5t35.5 74.5t13 100v226h64v-516h-64v108q-27 -51 -74 -83.5t-103 -32.5q-74 0 -116.5 44t-42.5 126v354zM363 573h-50l-116 144h95z" />
<glyph unicode="&#xfa;" d="M92 516h64v-346q0 -56 25.5 -87.5t79.5 -31.5q35 0 65.5 17t53 47.5t35.5 74.5t13 100v226h64v-516h-64v108q-27 -51 -74 -83.5t-103 -32.5q-74 0 -116.5 44t-42.5 126v354zM293 717h96l-117 -144h-50z" />
<glyph unicode="&#xfb;" d="M92 516h64v-346q0 -56 25.5 -87.5t79.5 -31.5q35 0 65.5 17t53 47.5t35.5 74.5t13 100v226h64v-516h-64v108q-27 -51 -74 -83.5t-103 -32.5q-74 0 -116.5 44t-42.5 126v354zM282 734h23l147 -154h-74l-85 91l-85 -91h-73z" />
<glyph unicode="&#xfc;" d="M92 516h64v-346q0 -56 25.5 -87.5t79.5 -31.5q35 0 65.5 17t53 47.5t35.5 74.5t13 100v226h64v-516h-64v108q-27 -51 -74 -83.5t-103 -32.5q-74 0 -116.5 44t-42.5 126v354zM167 666q0 22 14 36.5t36 14.5t36 -15t14 -36q0 -20 -14.5 -35t-35.5 -15q-22 0 -36 15t-14 35z M324 666q0 22 14.5 36.5t34.5 14.5q22 0 37 -15t15 -36q0 -20 -15 -35t-37 -15q-20 0 -34.5 15t-14.5 35z" />
<glyph unicode="&#xfd;" horiz-adv-x="462" d="M447 516l-256 -725h-63l75 212l-186 513h67l154 -418l143 418h66zM249 717h96l-117 -144h-50z" />
<glyph unicode="&#xfe;" horiz-adv-x="613" d="M165 725v-282q29 37 74 59t87 22q56 0 99 -21t72 -56.5t44 -84.5t15 -104t-15 -104t-44 -84.5t-72 -56.5t-99 -21q-26 0 -50.5 6t-45.5 17t-38 24t-27 29v-277h-66v934h66zM489 258q0 43 -10.5 81t-31.5 65.5t-52 44t-72 16.5t-72.5 -16.5t-52 -44t-31 -65.5t-10.5 -81 q0 -44 10.5 -82t31 -65.5t52 -43.5t72.5 -16t72 16t52 43.5t31.5 65.5t10.5 82z" />
<glyph unicode="&#xff;" horiz-adv-x="462" d="M447 516l-256 -725h-63l75 212l-186 513h67l154 -418l143 418h66zM109 666q0 22 14 36.5t36 14.5t36 -15t14 -36q0 -20 -14.5 -35t-35.5 -15q-22 0 -36 15t-14 35zM266 666q0 22 14.5 36.5t34.5 14.5q22 0 37 -15t15 -36q0 -20 -15 -35t-37 -15q-20 0 -34.5 15t-14.5 35z " />
<glyph unicode="&#x131;" horiz-adv-x="286" d="M175 516v-516h-63v516h63z" />
<glyph unicode="&#x141;" horiz-adv-x="527" d="M171 717v-331l131 76l28 -48l-159 -91v-260h336v-63h-404v285l-73 -43l-25 48l98 58v369h68z" />
<glyph unicode="&#x142;" horiz-adv-x="331" d="M25 329l106 59v337h64v-302l78 44l28 -48l-106 -60v-359h-64v325l-79 -44z" />
<glyph unicode="&#x152;" horiz-adv-x="1099" d="M1026 717v-64h-337v-239h276v-64h-276v-287h347v-63h-414v123q-44 -63 -108.5 -97t-138.5 -34q-63 0 -120 25t-100 72.5t-69 115.5t-26 153t26 153.5t69 116t99.5 72.5t120.5 25q74 0 138.5 -34t108.5 -97v123h404zM375 662q-50 0 -94.5 -19t-77.5 -57.5t-52.5 -95.5 t-19.5 -132q0 -76 19.5 -132t52.5 -94.5t77.5 -57.5t94.5 -19t94.5 19t77.5 57.5t52 95t19 131.5t-19 132t-52 95.5t-77.5 57.5t-94.5 19z" />
<glyph unicode="&#x153;" horiz-adv-x="982" d="M930 258h-389v-9q1 -44 12 -80.5t32 -62.5t51 -40.5t67 -14.5q59 0 96.5 26.5t61.5 80.5l58 -24q-40 -79 -92 -110.5t-124 -31.5q-68 0 -118.5 33t-79.5 92q-30 -55 -82 -90t-124 -35q-56 0 -101 22.5t-76.5 60t-48 85t-16.5 98.5q0 50 16.5 98t48 85.5t76.5 60t101 22.5 q72 0 124 -34.5t82 -90.5q29 58 80 91.5t118 33.5q50 0 92 -17t71.5 -48t46.5 -75t17 -97v-29zM124 258q0 -39 11 -76t33 -66t55 -47t76 -18t76 18t55 47t33 66t11 76t-11 76t-33 66t-55 47t-76 18t-76 -18t-55 -47t-33 -66t-11 -76zM703 465q-33 0 -59 -11.5t-45.5 -31.5 t-33 -46.5t-19.5 -58.5h318q-9 68 -49.5 108t-111.5 40z" />
<glyph unicode="&#x160;" horiz-adv-x="518" d="M373 580q-26 48 -56 65t-63 17q-25 0 -44 -9.5t-31 -24.5t-18 -34t-6 -37q0 -44 23 -70.5t57.5 -46.5t75 -37.5t75.5 -42.5t58 -62t23 -96q0 -48 -16 -87t-43.5 -66t-65 -42t-80.5 -15q-45 0 -81.5 14t-64 40.5t-46 61.5t-27.5 77l58 35q9 -32 21.5 -61.5t31 -52.5 t45 -37t63.5 -14q58 0 96 36t38 109q0 44 -23 72.5t-57 49t-74 38.5t-74.5 42t-57.5 58.5t-23 88.5q0 40 13.5 72t36.5 55t53 36t64 13q39 0 66.5 -8.5t47 -23.5t34 -35.5t26.5 -43.5zM100 935h73l85 -91l85 91h74l-147 -154h-23z" />
<glyph unicode="&#x161;" horiz-adv-x="460" d="M236 524q49 0 82.5 -21.5t60.5 -58.5l-45 -38q-24 32 -47.5 45.5t-54.5 13.5q-33 0 -54 -21t-21 -57q0 -26 18 -43t45.5 -30.5t58.5 -26.5t59 -29.5t45.5 -42t17.5 -61.5q0 -75 -43 -118.5t-116 -43.5q-41 0 -72.5 12.5t-54.5 32.5t-38 45.5t-22 50.5l57 30 q8 -24 18.5 -44.5t26 -35t36 -23.5t49.5 -9q46 0 69.5 24.5t23.5 67.5q0 30 -18 48t-45 32t-59 25.5t-59 29t-45 42.5t-18 66q0 31 11.5 56.5t30.5 44t45.5 28t57.5 9.5zM77 734h73l85 -91l85 91h74l-147 -154h-23z" />
<glyph unicode="&#x178;" horiz-adv-x="512" d="M6 717h79l171 -339l171 339h79l-216 -406v-311h-68v311zM127 867q0 22 14 36.5t36 14.5t36 -15t14 -36q0 -20 -14.5 -35t-35.5 -15q-22 0 -36 15t-14 35zM284 867q0 22 14.5 36.5t34.5 14.5q22 0 37 -15t15 -36q0 -20 -15 -35t-37 -15q-20 0 -34.5 15t-14.5 35z" />
<glyph unicode="&#x17d;" horiz-adv-x="561" d="M61 717h439v-33l-357 -621h364v-63h-458v33l361 620h-349v64zM130 935h73l85 -91l85 91h74l-147 -154h-23z" />
<glyph unicode="&#x17e;" horiz-adv-x="466" d="M70 516h334v-35l-260 -422h272v-59h-359v31l264 426h-251v59zM76 734h73l85 -91l85 91h74l-147 -154h-23z" />
<glyph unicode="&#x192;" horiz-adv-x="479" d="M130 516h92l6 33q18 98 66.5 137t124.5 39q19 0 36 -4t26 -9l-24 -59q-11 6 -22 9.5t-29 3.5q-43 0 -72 -26t-40 -81l-8 -43h125l-13 -59h-125l-96 -498q-9 -49 -25.5 -83t-39.5 -55t-53 -29.5t-68 -8.5q-19 0 -38.5 4t-28.5 9l25 59q9 -5 21 -9t30 -4q49 0 74.5 26 t37.5 81l98 508h-92z" />
<glyph unicode="&#x2c6;" horiz-adv-x="378" d="M178 734h23l147 -154h-74l-85 91l-85 -91h-73z" />
<glyph unicode="&#x2c7;" horiz-adv-x="378" d="M31 734h73l85 -91l85 91h74l-147 -154h-23z" />
<glyph unicode="&#x2d8;" horiz-adv-x="244" d="M226 717q0 -49 -27.5 -80.5t-79.5 -31.5q-50 0 -79 31.5t-29 80.5h52q0 -27 14 -44t42 -17q30 0 42.5 17t12.5 44h52z" />
<glyph unicode="&#x2d9;" horiz-adv-x="256" d="M76 665q0 23 14.5 37.5t37.5 14.5t37.5 -15t14.5 -37q0 -23 -14.5 -38t-37.5 -15t-37.5 15t-14.5 38z" />
<glyph unicode="&#x2da;" horiz-adv-x="239" d="M20 669q0 43 28.5 71.5t71.5 28.5q44 0 71.5 -28.5t27.5 -71.5q0 -41 -27.5 -69t-71.5 -28q-43 0 -71.5 28t-28.5 69zM68 670q0 -24 14 -39t38 -15t38 15t14 39t-14.5 39.5t-37.5 15.5q-24 0 -38 -15.5t-14 -39.5z" />
<glyph unicode="&#x2db;" horiz-adv-x="212" d="M127 -61q-28 -26 -42.5 -44.5t-14.5 -37.5q0 -16 9 -25t24 -9q17 0 30 11t29 32l40 -32q-27 -35 -50 -51.5t-59 -16.5q-38 0 -59.5 21.5t-21.5 56.5q0 25 14.5 49.5t44.5 45.5h56z" />
<glyph unicode="&#x2dc;" horiz-adv-x="386" d="M20 639q17 33 44 52t58 19q26 0 43 -7t31 -14.5t28 -14t32 -6.5q24 0 39 9.5t30 27.5l41 -32q-17 -33 -44 -52t-58 -19q-26 0 -43 6.5t-31 14.5t-28 14.5t-32 6.5q-24 0 -39 -9.5t-30 -27.5z" />
<glyph unicode="&#x2dd;" horiz-adv-x="365" d="M97 717h96l-117 -144h-50zM253 717h95l-117 -144h-50z" />
<glyph unicode="&#x3c0;" horiz-adv-x="607" d="M57 516h493v-57h-91v-459h-64v459h-183v-459h-64v459h-91v57z" />
<glyph unicode="&#x2000;" horiz-adv-x="485" />
<glyph unicode="&#x2001;" horiz-adv-x="970" />
<glyph unicode="&#x2002;" horiz-adv-x="485" />
<glyph unicode="&#x2003;" horiz-adv-x="970" />
<glyph unicode="&#x2004;" horiz-adv-x="323" />
<glyph unicode="&#x2005;" horiz-adv-x="242" />
<glyph unicode="&#x2006;" horiz-adv-x="161" />
<glyph unicode="&#x2007;" horiz-adv-x="161" />
<glyph unicode="&#x2008;" horiz-adv-x="121" />
<glyph unicode="&#x2009;" horiz-adv-x="194" />
<glyph unicode="&#x200a;" horiz-adv-x="53" />
<glyph unicode="&#x2010;" horiz-adv-x="482" d="M73 353h337v-57h-337v57z" />
<glyph unicode="&#x2011;" horiz-adv-x="482" d="M73 353h337v-57h-337v57z" />
<glyph unicode="&#x2012;" horiz-adv-x="482" d="M73 353h337v-57h-337v57z" />
<glyph unicode="&#x2013;" horiz-adv-x="570" d="M74 353h419v-57h-419v57z" />
<glyph unicode="&#x2014;" horiz-adv-x="780" d="M74 353h628v-57h-628v57z" />
<glyph unicode="&#x2018;" horiz-adv-x="281" d="M229 537h-50l-118 188h106z" />
<glyph unicode="&#x2019;" horiz-adv-x="281" d="M115 725h105l-118 -188h-50z" />
<glyph unicode="&#x201a;" horiz-adv-x="281" d="M115 174h105l-118 -188h-50z" />
<glyph unicode="&#x201c;" horiz-adv-x="428" d="M376 537h-50l-118 188h105zM229 537h-50l-118 188h106z" />
<glyph unicode="&#x201d;" horiz-adv-x="428" d="M115 725h105l-118 -188h-50zM261 725h106l-118 -188h-50z" />
<glyph unicode="&#x201e;" horiz-adv-x="428" d="M115 174h105l-118 -188h-50zM261 174h106l-118 -188h-50z" />
<glyph unicode="&#x2020;" horiz-adv-x="471" d="M67 516h138v252h61v-252h138v-57h-138v-510h-61v510h-138v57z" />
<glyph unicode="&#x2021;" horiz-adv-x="471" d="M67 516h138v252h61v-252h138v-57h-138v-201h138v-57h-138v-252h-61v252h-138v57h138v201h-138v57z" />
<glyph unicode="&#x2022;" horiz-adv-x="311" d="M89 338q0 28 19.5 47t47.5 19t47 -19t19 -47t-19.5 -47.5t-46.5 -19.5q-28 0 -47.5 19.5t-19.5 47.5z" />
<glyph unicode="&#x2026;" horiz-adv-x="796" d="M93 50q0 23 14.5 37.5t37.5 14.5t38 -14.5t15 -37.5q0 -24 -15 -38t-38 -14q-24 0 -38 14t-14 38zM346 50q0 23 14.5 37.5t37.5 14.5t38 -14.5t15 -37.5q0 -24 -15 -38t-38 -14q-24 0 -38 14t-14 38zM599 50q0 23 14.5 37.5t37.5 14.5t37.5 -14.5t14.5 -37.5 q0 -24 -14.5 -38t-37.5 -14q-24 0 -38 14t-14 38z" />
<glyph unicode="&#x202f;" horiz-adv-x="194" />
<glyph unicode="&#x2030;" horiz-adv-x="1273" d="M63 561q0 34 12 64t33.5 52t51 35t64.5 13t64.5 -13t51 -35t33.5 -52t12 -64t-12 -64t-33.5 -52t-51 -35t-64.5 -13t-64.5 13t-51 35t-33.5 52t-12 64zM119 561q0 -46 28 -77t77 -31t77.5 31t28.5 77t-28.5 77.5t-77.5 31.5t-77 -31.5t-28 -77.5zM479 156q0 34 12 64 t33.5 52t51 34.5t64.5 12.5t64.5 -12.5t51 -34.5t33.5 -52.5t12 -63.5q0 -34 -12 -64.5t-33.5 -52.5t-51 -34.5t-64.5 -12.5t-64.5 12.5t-51 34.5t-33.5 52.5t-12 64.5zM535 156q0 -46 28 -77.5t77 -31.5t77 31.5t28 77.5t-28 77t-77 31t-77 -31t-28 -77zM731 708l-555 -733 l-43 34l555 732zM889 156q0 34 11.5 64t33 52t51.5 34.5t65 12.5t64.5 -12.5t51 -34.5t33 -52.5t11.5 -63.5q0 -34 -11.5 -64.5t-33 -52.5t-51.5 -34.5t-64 -12.5q-35 0 -65 12.5t-51.5 34.5t-33 52.5t-11.5 64.5zM944 156q0 -46 28 -77.5t78 -31.5q49 0 77 31.5t28 77.5 t-28 77t-77 31t-77.5 -31t-28.5 -77z" />
<glyph unicode="&#x2039;" horiz-adv-x="381" d="M51 339l270 200v-70l-203 -152l203 -151v-70l-270 200v43z" />
<glyph unicode="&#x203a;" horiz-adv-x="381" d="M331 296l-270 -200v70l203 151l-203 152v70l270 -200v-43z" />
<glyph unicode="&#x2044;" horiz-adv-x="622" d="M610 708l-555 -733l-43 34l555 732z" />
<glyph unicode="&#x205f;" horiz-adv-x="242" />
<glyph unicode="&#x2070;" horiz-adv-x="394" d="M198 721q36 0 63.5 -15t46 -42.5t28 -66t9.5 -85.5t-9.5 -85.5t-28 -66t-46.5 -42.5t-63 -15q-36 0 -64 15t-46.5 42.5t-28.5 66t-10 85.5t10 85.5t28.5 66t46.5 42.5t64 15zM198 672q-43 0 -68.5 -40t-25.5 -120t25.5 -120t68.5 -40t68 40t25 120t-25 120t-68 40z" />
<glyph unicode="&#x2074;" horiz-adv-x="346" d="M211 392h-175v18l166 307h60v-276h53v-49h-53v-85h-51v85zM211 441v200l-105 -200h105z" />
<glyph unicode="&#x2075;" horiz-adv-x="340" d="M101 425q6 -30 23.5 -51.5t52.5 -21.5q38 0 58 23t20 66q0 45 -20.5 67.5t-57.5 22.5q-25 0 -45 -13t-35 -33l-37 9l22 223h204v-49h-160l-13 -118q11 11 31 20t41 9q59 0 92 -36.5t33 -101.5q0 -63 -35.5 -100.5t-97.5 -37.5q-49 0 -83.5 28.5t-42.5 84.5z" />
<glyph unicode="&#x2076;" horiz-adv-x="373" d="M196 572q58 0 92.5 -36t34.5 -98q0 -29 -9.5 -53.5t-27 -42.5t-42 -28.5t-55.5 -10.5t-55.5 10.5t-42 28.5t-27 43t-9.5 53q0 24 7 46t18 41l111 196h56l-93 -159q6 5 20 7.5t22 2.5zM189 523q-37 0 -57.5 -23t-20.5 -62q0 -37 21 -61.5t57 -24.5q37 0 57.5 24.5 t20.5 61.5q0 39 -20.5 62t-57.5 23z" />
<glyph unicode="&#x2077;" horiz-adv-x="301" d="M67 307l148 361h-168v49h234v-23l-159 -387h-55z" />
<glyph unicode="&#x2078;" horiz-adv-x="362" d="M181 721q50 0 81.5 -30.5t31.5 -78.5q0 -31 -14.5 -52t-33.5 -33q27 -10 45 -35t18 -64q0 -30 -10 -53t-27.5 -39.5t-40.5 -24.5t-50 -8t-49.5 8t-40 24.5t-28 39.5t-10.5 53q0 39 18.5 64t45.5 35q-19 11 -33.5 33t-14.5 52q0 48 31 78.5t81 30.5zM181 501 q-34 0 -53 -19t-19 -54q0 -34 19 -55t53 -21t53.5 21t19.5 55q0 35 -19.5 54t-53.5 19zM181 676q-30 0 -46.5 -17.5t-16.5 -46.5q0 -28 17 -45t46 -17q30 0 47 17.5t17 44.5q0 29 -17 46.5t-47 17.5z" />
<glyph unicode="&#x2079;" horiz-adv-x="373" d="M178 452q-58 0 -92.5 36t-34.5 98q0 29 9.5 53.5t26.5 42.5t42 28.5t55 10.5q31 0 56 -10.5t42.5 -28.5t26.5 -43t9 -53q0 -24 -6.5 -46t-17.5 -41l-112 -196h-55l93 159q-6 -5 -20 -7.5t-22 -2.5zM184 501q37 0 58 23t21 62q0 37 -21 61.5t-58 24.5t-57.5 -24.5 t-20.5 -61.5q0 -39 20.5 -62t57.5 -23z" />
<glyph unicode="&#x20ac;" horiz-adv-x="626" d="M66 462h55q8 57 29 105.5t54.5 83.5t79 54.5t102.5 19.5q70 0 116.5 -30t79.5 -89l-57 -31q-20 45 -56.5 69t-82.5 24q-80 0 -131.5 -53.5t-67.5 -152.5h265l-30 -58h-240v-92h270l-30 -57h-235q15 -99 67 -152.5t132 -53.5q46 0 82.5 23.5t56.5 68.5l57 -30 q-33 -58 -79.5 -88.5t-116.5 -30.5q-57 0 -102.5 19.5t-79 54t-54.5 83.5t-29 106h-85l30 57h51v92h-81z" />
<glyph unicode="&#x2122;" horiz-adv-x="830" d="M31 717h283v-45h-116v-365h-51v365h-116v45zM445 717l121 -289l121 289h53v-410h-50v302l-109 -264h-29l-110 264v-302h-50v410h53z" />
<glyph unicode="&#x2126;" horiz-adv-x="698" d="M82 57h141q-34 60 -60 126q-24 56 -42.5 126.5t-18.5 141.5q0 59 17 109.5t49.5 87t78 57t102.5 20.5t103 -20.5t78 -57t49 -87t17 -109.5q0 -71 -19 -141t-41 -127q-27 -66 -61 -126h141v-57h-215v19q34 65 61 137q23 60 41.5 137.5t18.5 157.5q0 51 -12.5 91.5 t-35.5 68t-55 42.5t-70 15t-69.5 -15t-54.5 -42.5t-36 -68t-13 -91.5q0 -80 18.5 -157.5t42.5 -137.5q27 -72 60 -137v-19h-215v57z" />
<glyph unicode="&#x2202;" horiz-adv-x="606" d="M110 591q27 58 77.5 96t126.5 38q111 0 169 -93t58 -268q0 -74 -17.5 -141t-53 -119t-89 -82t-127.5 -30q-45 0 -82.5 16t-64 44.5t-41.5 69t-15 89.5q0 61 19.5 118t56 100.5t88 69t117.5 25.5q20 0 41 -4t40.5 -11.5t35 -18.5t24.5 -24q-9 91 -52.5 145.5t-113.5 54.5 q-49 0 -79.5 -27t-51.5 -66zM323 465q-49 0 -87 -22t-64.5 -57.5t-39.5 -80.5t-13 -92q0 -36 9.5 -65.5t27 -51t42.5 -33.5t56 -12q49 0 88.5 21t68 55.5t44 80t15.5 94.5q0 77 -38.5 120t-108.5 43z" />
<glyph unicode="&#x2206;" horiz-adv-x="669" d="M59 16l242 701h68l241 -701v-16h-551v16zM143 59h383l-191 563z" />
<glyph unicode="&#x220f;" horiz-adv-x="553" d="M96 717h362v-717h-64v659h-234v-659h-64v717z" />
<glyph unicode="&#x2211;" horiz-adv-x="555" d="M61 701v16h426v-58h-329l187 -292v-17l-187 -293h329v-57h-426v15l221 343z" />
<glyph unicode="&#x2212;" horiz-adv-x="557" d="M71 353h419v-57h-419v57z" />
<glyph unicode="&#x221a;" horiz-adv-x="565" d="M537 725l-221 -725h-48l-110 341h-97v57h137l95 -287l186 614h58z" />
<glyph unicode="&#x221e;" horiz-adv-x="897" d="M651 172q-65 0 -112 36.5t-90 99.5q-43 -63 -91 -99.5t-112 -36.5q-42 0 -76 14.5t-58 40t-37.5 62t-13.5 79.5t13.5 79t37.5 62t58 40t76 14q65 0 112.5 -36.5t90.5 -99.5q43 63 90.5 99.5t111.5 36.5q42 0 76 -14t58 -40t37.5 -62t13.5 -79t-13.5 -79.5t-37.5 -62 t-58 -40t-76 -14.5zM259 229q93 0 162 139q-69 138 -162 138q-61 0 -97.5 -37t-36.5 -101q0 -65 36.5 -102t97.5 -37zM638 229q61 0 97.5 37t36.5 102t-36.5 101.5t-97.5 36.5q-93 0 -162 -138q69 -139 162 -139z" />
<glyph unicode="&#x222b;" horiz-adv-x="479" d="M228 549q19 98 67 137t124 39q19 0 36 -4t26 -9l-24 -59q-11 6 -22 9.5t-29 3.5q-43 0 -72 -26t-40 -81l-117 -600q-9 -49 -25.5 -83t-39.5 -55t-53 -29.5t-68 -8.5q-19 0 -38.5 4t-28.5 9l25 59q9 -5 21 -9t30 -4q49 0 74.5 26t37.5 81z" />
<glyph unicode="&#x2248;" horiz-adv-x="585" d="M73 227q24 33 56 56.5t69 23.5q30 0 52 -9t42 -19t41 -19t49 -9q27 0 51 12.5t41 33.5l41 -40q-24 -33 -56 -56t-69 -23q-30 0 -51.5 8.5t-41.5 18.5t-41 19t-50 9q-27 0 -51 -12.5t-41 -33.5zM73 430q24 33 56 56.5t69 23.5q30 0 52 -9t42 -19t41 -19t49 -9 q27 0 51 12.5t41 33.5l41 -40q-24 -33 -56 -56t-69 -23q-30 0 -51.5 8.5t-41.5 18.5t-41 19t-50 9q-27 0 -51 -12.5t-41 -33.5z" />
<glyph unicode="&#x2260;" horiz-adv-x="568" d="M86 431h230l66 114l49 -29l-49 -85h100v-57h-133l-64 -113h197v-57h-230l-66 -114l-49 29l49 85h-100v57h133l65 113h-198v57z" />
<glyph unicode="&#x2264;" horiz-adv-x="542" d="M57 57h419v-57h-419v57zM95 446l342 185v-64l-290 -155l290 -156v-63l-342 184v69z" />
<glyph unicode="&#x2265;" horiz-adv-x="542" d="M485 57h-418v-57h418v57zM447 377l-342 -184v63l290 156l-290 155v64l342 -185v-69z" />
<glyph unicode="&#x25ca;" horiz-adv-x="573" d="M71 358l184 359h63l185 -359l-185 -358h-63zM437 358l-150 293l-151 -293l151 -292z" />
<glyph unicode="&#x25fc;" horiz-adv-x="517" d="M0 517h517v-517h-517v517z" />
<glyph horiz-adv-x="813" d="M710 23q0 -8 -6.5 -15.5t-16.5 -7.5q-3 0 -7 1l-273 79l-274 -79q-4 -1 -7 -1q-10 0 -16.5 7t-6.5 16v609q0 17 17 22l276 80q6 2 11 2q4 0 10 -2l276 -80q16 -5 17 -22v-609zM384 685l-236 -69q3 -48 22.5 -90t51 -74t73 -52.5t89.5 -24.5v310zM429 375q47 4 89 24.5 t73.5 52.5t51 74t22.5 90l-236 69v-310zM147 52l237 69v209q-76 6 -138 44.5t-99 99.5v-422zM666 474q-38 -61 -99.5 -99.5t-137.5 -44.5v-209l237 -69v422z" />
<glyph horiz-adv-x="1243" d="M606 717v-717h-80l-355 607v-607h-68v717h80l356 -609v609h67zM735 57h419v-57h-419v57zM702 459q0 50 16.5 98t48 85.5t76.5 60t101 22.5t101 -22.5t76.5 -60t48 -85.5t16.5 -98q0 -51 -16.5 -98.5t-48 -85t-76.5 -60t-101 -22.5t-101 22.5t-76.5 60t-48 85t-16.5 98.5z M769 459q0 -39 11 -76t33 -66t55 -47t76 -18t76 18t55 47t33 66t11 76t-11 76t-33 66t-55 47t-76 18t-76 -18t-55 -47t-33 -66t-11 -76z" />
<glyph d="M290 725q61 0 107.5 -26.5t77.5 -75t46.5 -116t15.5 -149.5t-15.5 -149.5t-46.5 -115.5t-77.5 -74.5t-107.5 -26.5t-108 26.5t-77.5 74.5t-46 115.5t-15.5 149.5t15.5 149.5t46 116t77.5 75t108 26.5zM290 668q-43 0 -77 -23t-57 -64t-35 -98t-12 -125t12 -124.5 t35 -97.5t57 -64t77 -23t76.5 23t56.5 64t35.5 98t12.5 124q0 68 -12.5 125t-35.5 98t-56.5 64t-76.5 23z" />
<glyph d="M350 717v-717h-63v608l-119 -74v77l166 106h16z" />
<glyph d="M79 24l261 337q25 31 40 54t24 42.5t12.5 38t3.5 41.5q0 61 -34 96t-93 35q-56 0 -93 -41t-46 -104l-60 12q4 42 20 76.5t42 60t61 39.5t76 14t75.5 -12.5t61 -36.5t41 -59.5t14.5 -81.5q0 -52 -24.5 -98.5t-62.5 -95.5l-219 -284h324v-57h-424v24z" />
<glyph d="M133 206q8 -69 47 -113t110 -44q80 0 120.5 46t40.5 124q0 83 -42 127t-119 44q-35 0 -64 -18l-30 40l185 247h-276v58h375v-18l-193 -257q5 2 13 2.5t13 0.5q39 0 76 -14.5t65 -43.5t45 -71.5t17 -96.5q0 -50 -15.5 -92t-44.5 -71.5t-71 -46.5t-95 -17q-43 0 -81.5 13 t-67.5 39.5t-47.5 64.5t-23.5 88z" />
<glyph d="M365 165h-317v17l302 535h78v-495h95v-57h-95v-165h-63v165zM365 222v405l-227 -405h227z" />
<glyph d="M143 200q4 -32 14 -59t28 -47.5t43.5 -32.5t62.5 -12q79 0 117 50.5t38 133.5q0 93 -40.5 139t-114.5 46q-50 0 -87.5 -29t-60.5 -67l-45 10l37 385h335v-58h-277l-26 -243q23 24 56 41.5t74 17.5q49 0 89 -17t68 -48t43 -75.5t15 -101.5q0 -53 -15.5 -97t-43.5 -76 t-69 -50t-93 -18q-41 0 -77 11.5t-63.5 36.5t-45.5 61.5t-24 86.5z" />
<glyph d="M290 459q50 0 91 -18t70 -50t45.5 -74.5t16.5 -91.5t-16.5 -91.5t-45.5 -74t-70 -49.5t-91 -18t-91 18t-70.5 49.5t-45.5 74t-16 91.5q0 31 9.5 65.5t27.5 66.5l212 368h67l-160 -284q11 8 32 13t35 5zM290 401q-70 0 -114 -47t-44 -129q0 -39 12 -71t33 -55t49.5 -36.5 t63.5 -13.5t63.5 13.5t49.5 36.5t32.5 55t11.5 71q0 82 -43.5 129t-113.5 47z" />
<glyph d="M142 0l275 659h-322v58h398v-21l-284 -696h-67z" />
<glyph d="M290 725q43 0 77.5 -14t60 -38.5t39 -58.5t13.5 -75q0 -56 -27 -94.5t-63 -58.5q25 -9 46 -26.5t36 -41.5t24 -54t9 -63q0 -51 -17.5 -90.5t-47 -66t-68.5 -39.5t-82 -13t-82 13t-68.5 39.5t-47 66t-17.5 90.5q0 34 8.5 63.5t24 53.5t36.5 41.5t45 26.5q-36 19 -63 57.5 t-27 95.5q0 41 14 75t39 58.5t60 38.5t78 14zM290 352q-68 0 -109 -40t-41 -111q0 -72 41 -112t109 -40t108.5 40t40.5 112t-40.5 111.5t-108.5 39.5zM290 668q-57 0 -92 -35t-35 -94t34.5 -94t92.5 -35q57 0 92 34.5t35 94.5q0 59 -35 94t-92 35z" />
<glyph d="M290 258q-50 0 -91 18t-70.5 49.5t-45.5 74t-16 92.5q0 49 16 91.5t45.5 74t70.5 49.5t91 18t91 -18t70 -49.5t45.5 -74t16.5 -91.5q0 -31 -9.5 -65.5t-28.5 -67.5l-212 -367h-66l159 283q-11 -8 -31.5 -12.5t-34.5 -4.5zM290 315q70 0 113.5 47.5t43.5 129.5 q0 38 -11.5 70.5t-32.5 55.5t-49.5 36.5t-63.5 13.5t-63.5 -13.5t-49.5 -36.5t-33 -56t-12 -70q0 -82 44 -129.5t114 -47.5z" />
<glyph horiz-adv-x="2550" d="M606 717v-717h-80l-355 607v-607h-68v717h80l356 -609v609h67zM735 57h419v-57h-419v57zM702 459q0 50 16.5 98t48 85.5t76.5 60t101 22.5t101 -22.5t76.5 -60t48 -85.5t16.5 -98q0 -51 -16.5 -98.5t-48 -85t-76.5 -60t-101 -22.5t-101 22.5t-76.5 60t-48 85t-16.5 98.5z M769 459q0 -39 11 -76t33 -66t55 -47t76 -18t76 18t55 47t33 66t11 76t-11 76t-33 66t-55 47t-76 18t-76 -18t-55 -47t-33 -66t-11 -76zM1488 721q36 0 63.5 -15t46 -42.5t28 -66t9.5 -85.5t-9.5 -85.5t-28 -66t-46.5 -42.5t-63 -15q-36 0 -64 15t-46.5 42.5t-28.5 66 t-10 85.5t10 85.5t28.5 66t46.5 42.5t64 15zM1488 672q-43 0 -68.5 -40t-25.5 -120t25.5 -120t68.5 -40t68 40t25 120t-25 120t-68 40zM1898 721q36 0 63.5 -15t46 -42.5t28 -66t9.5 -85.5t-9.5 -85.5t-28 -66t-46.5 -42.5t-63 -15q-36 0 -64 15t-46.5 42.5t-28.5 66 t-10 85.5t10 85.5t28.5 66t46.5 42.5t64 15zM1898 672q-43 0 -68.5 -40t-25.5 -120t25.5 -120t68.5 -40t68 40t25 120t-25 120t-68 40zM2307 721q36 0 63.5 -15t46 -42.5t28 -66t9.5 -85.5t-9.5 -85.5t-28 -66t-46.5 -42.5t-63 -15q-36 0 -64 15t-46.5 42.5t-28.5 66 t-10 85.5t10 85.5t28.5 66t46.5 42.5t64 15zM2307 672q-43 0 -68.5 -40t-25.5 -120t25.5 -120t68.5 -40t68 40t25 120t-25 120t-68 40z" />
</font>
</defs>
</svg>
