<svg width="32" height="32" viewBox="0 0 32 32" fill="none" xmlns="http://www.w3.org/2000/svg">
<path d="M23.12 7.27984C22.8036 7.27984 22.4942 7.37368 22.2311 7.54949C21.968 7.7253 21.7629 7.97518 21.6418 8.26754C21.5207 8.55991 21.489 8.88161 21.5508 9.19198C21.6125 9.50235 21.7649 9.78744 21.9886 10.0112C22.2124 10.235 22.4975 10.3874 22.8079 10.4491C23.1182 10.5108 23.44 10.4791 23.7323 10.358C24.0247 10.2369 24.2746 10.0319 24.4504 9.76875C24.6262 9.50563 24.72 9.19629 24.72 8.87984C24.72 8.45549 24.5514 8.04852 24.2514 7.74847C23.9513 7.44841 23.5444 7.27984 23.12 7.27984ZM29.2534 10.5065C29.2274 9.40023 29.0202 8.30571 28.64 7.2665C28.301 6.37735 27.7733 5.57221 27.0934 4.9065C26.4331 4.22307 25.6261 3.69874 24.7334 3.37317C23.6969 2.98138 22.6012 2.76945 21.4934 2.7465C20.08 2.6665 19.6267 2.6665 16 2.6665C12.3734 2.6665 11.92 2.6665 10.5067 2.7465C9.39889 2.76945 8.30314 2.98138 7.26669 3.37317C6.37559 3.70204 5.56927 4.22592 4.90669 4.9065C4.22325 5.56674 3.69892 6.37376 3.37335 7.2665C2.98157 8.30296 2.76963 9.39871 2.74669 10.5065C2.66669 11.9198 2.66669 12.3732 2.66669 15.9998C2.66669 19.6265 2.66669 20.0798 2.74669 21.4932C2.76963 22.601 2.98157 23.6967 3.37335 24.7332C3.69892 25.6259 4.22325 26.4329 4.90669 27.0932C5.56927 27.7738 6.37559 28.2976 7.26669 28.6265C8.30314 29.0183 9.39889 29.2302 10.5067 29.2532C11.92 29.3332 12.3734 29.3332 16 29.3332C19.6267 29.3332 20.08 29.3332 21.4934 29.2532C22.6012 29.2302 23.6969 29.0183 24.7334 28.6265C25.6261 28.3009 26.4331 27.7766 27.0934 27.0932C27.7763 26.4299 28.3045 25.6241 28.64 24.7332C29.0202 23.694 29.2274 22.5994 29.2534 21.4932C29.2534 20.0798 29.3334 19.6265 29.3334 15.9998C29.3334 12.3732 29.3334 11.9198 29.2534 10.5065ZM26.8534 21.3332C26.8436 22.1795 26.6904 23.0181 26.4 23.8132C26.1871 24.3934 25.8452 24.9177 25.4 25.3465C24.9675 25.7872 24.4443 26.1284 23.8667 26.3465C23.0716 26.6368 22.233 26.7901 21.3867 26.7998C20.0534 26.8665 19.56 26.8798 16.0534 26.8798C12.5467 26.8798 12.0534 26.8798 10.72 26.7998C9.84121 26.8163 8.96615 26.681 8.13335 26.3998C7.58106 26.1706 7.08183 25.8302 6.66669 25.3998C6.22414 24.9715 5.88648 24.4468 5.68002 23.8665C5.3545 23.06 5.17394 22.2024 5.14669 21.3332C5.14669 19.9998 5.06669 19.5065 5.06669 15.9998C5.06669 12.4932 5.06669 11.9998 5.14669 10.6665C5.15266 9.80124 5.31062 8.94376 5.61335 8.13317C5.84808 7.57038 6.20837 7.06871 6.66669 6.6665C7.07177 6.20806 7.5724 5.84396 8.13335 5.59984C8.94609 5.30656 9.80268 5.15328 10.6667 5.1465C12 5.1465 12.4934 5.0665 16 5.0665C19.5067 5.0665 20 5.0665 21.3334 5.1465C22.1797 5.15621 23.0183 5.3095 23.8134 5.59984C24.4193 5.82471 24.9631 6.1903 25.4 6.6665C25.837 7.07607 26.1784 7.57681 26.4 8.13317C26.6964 8.94508 26.8497 9.80221 26.8534 10.6665C26.92 11.9998 26.9334 12.4932 26.9334 15.9998C26.9334 19.5065 26.92 19.9998 26.8534 21.3332ZM16 9.15984C14.6478 9.16247 13.3266 9.56587 12.2036 10.3191C11.0805 11.0723 10.2059 12.1414 9.6902 13.3915C9.17454 14.6416 9.04099 16.0165 9.30641 17.3424C9.57184 18.6684 10.2243 19.8859 11.1815 20.8411C12.1386 21.7964 13.3574 22.4465 14.6838 22.7094C16.0103 22.9722 17.3849 22.836 18.634 22.3179C19.883 21.7998 20.9505 20.9231 21.7015 19.7985C22.4525 18.674 22.8533 17.3521 22.8534 15.9998C22.8551 15.1 22.679 14.2086 22.335 13.3771C21.9911 12.5456 21.4861 11.7902 20.8492 11.1546C20.2123 10.5189 19.456 10.0154 18.6237 9.67308C17.7915 9.33074 16.8999 9.15632 16 9.15984ZM16 20.4398C15.1219 20.4398 14.2634 20.1794 13.5333 19.6916C12.8031 19.2037 12.234 18.5103 11.898 17.699C11.5619 16.8876 11.474 15.9949 11.6453 15.1336C11.8167 14.2724 12.2395 13.4812 12.8605 12.8603C13.4814 12.2393 14.2725 11.8165 15.1338 11.6452C15.9951 11.4738 16.8878 11.5618 17.6991 11.8978C18.5104 12.2339 19.2039 12.8029 19.6917 13.5331C20.1796 14.2633 20.44 15.1217 20.44 15.9998C20.44 16.5829 20.3252 17.1603 20.102 17.699C19.8789 18.2376 19.5519 18.7271 19.1396 19.1394C18.7273 19.5517 18.2378 19.8787 17.6991 20.1019C17.1604 20.325 16.5831 20.4398 16 20.4398Z" fill="#4D4D4D"/>
</svg>
