<svg width="32" height="32" viewBox="0 0 32 32" fill="none" xmlns="http://www.w3.org/2000/svg">
<path d="M29.3812 9.37205C29.2206 8.79173 28.9073 8.26267 28.4726 7.83756C28.0378 7.41244 27.4967 7.1061 26.9032 6.94904C24.7304 6.36963 15.9856 6.36963 15.9856 6.36963C15.9856 6.36963 7.24032 6.38717 5.06751 6.96658C4.47399 7.12365 3.93291 7.43 3.49816 7.85514C3.0634 8.28027 2.75013 8.80935 2.58954 9.38969C1.93232 13.1646 1.67737 18.9166 2.60759 22.5404C2.76819 23.1208 3.08147 23.6498 3.51622 24.0749C3.95098 24.5001 4.49205 24.8064 5.08555 24.9635C7.25836 25.5429 16.0034 25.5429 16.0034 25.5429C16.0034 25.5429 24.7484 25.5429 26.9211 24.9635C27.5146 24.8064 28.0557 24.5001 28.4904 24.075C28.9252 23.6498 29.2385 23.1208 29.3991 22.5404C30.0923 18.7602 30.3059 13.0118 29.3812 9.37215V9.37205Z" fill="#4D4D4D"/>
<path d="M13.2023 20.0647L20.4568 15.9562L13.2023 11.8477V20.0647Z" fill="white"/>
</svg>
