<svg xmlns="http://www.w3.org/2000/svg" viewBox="0 0 160.27 40.7"><defs><style>.cls-1{fill:#ee3441;}</style></defs><g id="Layer_2" data-name="Layer 2"><g id="Artwork"><path class="cls-1" d="M20,10.43a1.89,1.89,0,0,0-1.87,1.65H21.9A1.8,1.8,0,0,0,20,10.43Z"/><path class="cls-1" d="M64.64,24.27l-2.06,6.09H63.8l.44-1.43h1.93l.45,1.43h1.22l-2.07-6.09Zm-.07,3.61.64-2.11.64,2.11Z"/><path class="cls-1" d="M73.36,25.25a1.49,1.49,0,0,1,1.51,1.06l1-.26a2.37,2.37,0,0,0-2.52-1.84,2.85,2.85,0,0,0-2.88,3.11,2.86,2.86,0,0,0,2.88,3.11,2.38,2.38,0,0,0,2.52-1.84l-1-.26a1.5,1.5,0,0,1-1.51,1.06c-.94,0-1.73-.66-1.73-2.07S72.42,25.25,73.36,25.25Z"/><path class="cls-1" d="M77.89,26.69V26H76.81v4.38h1.08V28.81c0-1.42.55-1.94,1.17-1.94a.82.82,0,0,1,.45.13l.2-1a1.49,1.49,0,0,0-1.82.69Z"/><path class="cls-1" d="M83.13,27.73c0,1.15-.48,1.78-1,1.78-.36,0-.63-.2-.63-.72V26H80.43v3.13a1.22,1.22,0,0,0,1.34,1.32,1.65,1.65,0,0,0,1.36-.77v.7h1.08V26H83.13Z"/><polygon class="cls-1" points="90.38 28.07 88.94 24.27 87.67 24.27 87.67 30.36 88.8 30.36 88.8 26.61 89.97 29.81 90.79 29.81 91.95 26.61 91.95 30.36 93.08 30.36 93.08 24.27 91.81 24.27 90.38 28.07"/><path class="cls-1" d="M94.93,24a.69.69,0,0,0-.7.7.7.7,0,0,0,1.4,0A.69.69,0,0,0,94.93,24Z"/><rect class="cls-1" x="94.39" y="25.98" width="1.08" height="4.38"/><path class="cls-1" d="M99.09,25.91a1.65,1.65,0,0,0-1.35.77V26H96.66v4.38h1.08V28.61c0-1.15.48-1.78,1-1.78.36,0,.62.2.62.72v2.81h1.08V27.23A1.23,1.23,0,0,0,99.09,25.91Z"/><rect class="cls-1" x="101.63" y="25.98" width="1.08" height="4.38"/><path class="cls-1" d="M102.17,24a.68.68,0,0,0-.69.7.67.67,0,0,0,.69.69.68.68,0,0,0,.7-.69A.69.69,0,0,0,102.17,24Z"/><path class="cls-1" d="M105.71,27.78c-.74-.27-.89-.43-.89-.62s.2-.33.42-.33a.85.85,0,0,1,.71.38l.64-.59a1.55,1.55,0,0,0-1.37-.71,1.29,1.29,0,0,0-1.39,1.23,1.37,1.37,0,0,0,1,1.28c.46.19.9.37.9.66a.44.44,0,0,1-.5.43.94.94,0,0,1-.87-.72l-.86.46a1.73,1.73,0,0,0,1.73,1.18,1.39,1.39,0,0,0,1.5-1.42C106.78,28.36,106.34,28,105.71,27.78Z"/><path class="cls-1" d="M109.56,29.51c-.36,0-.57-.17-.57-.71V26.9h1.16V26H109V24.21l-1.08.67V26h-.68v.92h.68v1.91a1.46,1.46,0,0,0,1.61,1.62,1.68,1.68,0,0,0,.71-.15l-.25-.87A.92.92,0,0,1,109.56,29.51Z"/><path class="cls-1" d="M112.06,26.69V26H111v4.38h1.08V28.81c0-1.42.54-1.94,1.17-1.94a.82.82,0,0,1,.45.13l.2-1a1.55,1.55,0,0,0-.53-.09A1.53,1.53,0,0,0,112.06,26.69Z"/><polygon class="cls-1" points="116.42 28.68 115.42 25.98 114.33 25.98 115.92 30.07 115.17 32.14 116.21 32.14 118.47 25.98 117.4 25.98 116.42 28.68"/><path class="cls-1" d="M53,0H2.7A2.7,2.7,0,0,0,0,2.7V23.38A2.71,2.71,0,0,0,2,26L54.36,40.66a1,1,0,0,0,1.29-1V2.7A2.7,2.7,0,0,0,53,0Zm-39,13.18c0,3.11-1.34,4.37-3.83,4.37A3.43,3.43,0,0,1,6.4,14.44L8.6,14c.18,1,.7,1.52,1.51,1.52,1,0,1.6-.55,1.6-2.07v-8h2.23Zm10.14.59h-6a2,2,0,0,0,2,2,2.36,2.36,0,0,0,2.1-1.34L24,15A4,4,0,0,1,20,17.55c-3,0-4.16-2.41-4.16-4.47S17.07,8.61,20,8.61a3.72,3.72,0,0,1,3.11,1.44,4.84,4.84,0,0,1,.93,2.84ZM31,16.71a3,3,0,0,1-2.21.84,3.39,3.39,0,0,1-2.15-.71,4,4,0,0,1-1.29-1.63L27,14.3a1.83,1.83,0,0,0,1.74,1.43c.7,0,1.06-.31,1.06-.93a.69.69,0,0,0-.46-.65,2.81,2.81,0,0,0-.48-.21c-.3-.14-.9-.33-1.22-.47a2.43,2.43,0,0,1-1-4.12,2.73,2.73,0,0,1,2-.74A3.23,3.23,0,0,1,31.38,10l-1.27,1.17a1.78,1.78,0,0,0-1.44-.76.72.72,0,0,0-.79.72c0,.37.27.64.82.85l.62.22.74.26a5.39,5.39,0,0,1,.62.32,2.11,2.11,0,0,1,.62.45,2.19,2.19,0,0,1,.53,1.41A2.78,2.78,0,0,1,31,16.71Zm10.19.7H39V16a3.17,3.17,0,0,1-2.68,1.53,2.42,2.42,0,0,1-2.66-2.61V8.75h2.13V14.3c0,.95.41,1.43,1.24,1.43,1.1,0,2-1.34,2-3.53V8.75h2.13Zm7.24-.7a3,3,0,0,1-2.22.84A3.43,3.43,0,0,1,44,16.84a3.89,3.89,0,0,1-1.28-1.63l1.7-.91a1.83,1.83,0,0,0,1.73,1.43c.71,0,1.07-.31,1.07-.93a.69.69,0,0,0-.47-.65,2.26,2.26,0,0,0-.48-.21c-.29-.14-.89-.33-1.22-.47a2.36,2.36,0,0,1-1.75-2.33,2.4,2.4,0,0,1,.77-1.79,2.77,2.77,0,0,1,2-.74A3.23,3.23,0,0,1,48.81,10l-1.27,1.17a1.79,1.79,0,0,0-1.44-.76.72.72,0,0,0-.79.72c0,.37.27.64.82.85l.62.22.74.26a6.37,6.37,0,0,1,.62.32,2,2,0,0,1,1.15,1.86A2.78,2.78,0,0,1,48.4,16.71Z"/><polygon class="cls-1" points="62.5 17.41 64.73 17.41 64.73 12.25 69.06 12.25 69.06 10.19 64.73 10.19 64.73 7.44 70.11 7.44 70.11 5.38 62.5 5.38 62.5 17.41"/><path class="cls-1" d="M73.8,7.12a1.23,1.23,0,1,0-1.74,0A1.24,1.24,0,0,0,73.8,7.12Z"/><rect class="cls-1" x="71.86" y="8.75" width="2.13" height="8.66"/><rect class="cls-1" x="76.33" y="5.24" width="2.13" height="12.17"/><path class="cls-1" d="M87.91,17.41V14c0-2.34.78-3.61,1.88-3.61.7,0,1.06.4,1.06,1.21v5.77H93V11.28a2.42,2.42,0,0,0-2.57-2.67,3,3,0,0,0-2.65,1.79,2.41,2.41,0,0,0-2.42-1.79,3,3,0,0,0-2.49,1.53V8.75H80.71v8.66h2.14V14.23c0-2.47.77-3.8,1.87-3.8.7,0,1.06.4,1.06,1.21v5.77Z"/><path class="cls-1" d="M104.37,5.38H99.84v12h2.23V12.7h2.3A3.41,3.41,0,0,0,108.14,9,3.41,3.41,0,0,0,104.37,5.38Zm-.08,5.26h-2.22V7.44h2.22A1.41,1.41,0,0,1,105.87,9,1.41,1.41,0,0,1,104.29,10.64Z"/><path class="cls-1" d="M115.49,8.78a3.43,3.43,0,0,0-1-.17,3.06,3.06,0,0,0-2.56,1.55V8.75h-2.13v8.66h2.13V14.33c0-2.63,1-3.81,2.32-3.81a1.71,1.71,0,0,1,.9.24Z"/><path class="cls-1" d="M124.12,9.88a4.7,4.7,0,0,0-6.43,0,4.49,4.49,0,0,0-1.18,3.2,4.51,4.51,0,0,0,1.18,3.21,4.73,4.73,0,0,0,6.43,0,4.52,4.52,0,0,0,1.19-3.21A4.49,4.49,0,0,0,124.12,9.88ZM122.49,15a2,2,0,0,1-3.16,0,3,3,0,0,1-.59-1.89,2.89,2.89,0,0,1,.59-1.87,2,2,0,0,1,3.16,0,2.94,2.94,0,0,1,.58,1.87A3.06,3.06,0,0,1,122.49,15Z"/><path class="cls-1" d="M127.32,16.67a2.25,2.25,0,0,1-2,2.51l.51,1.87c2.48-.56,3.63-1.94,3.63-4.64V8.75h-2.13Z"/><path class="cls-1" d="M135.27,8.61c-3,0-4.16,2.41-4.16,4.47s1.19,4.47,4.16,4.47A3.94,3.94,0,0,0,139.2,15l-1.71-.64a2.36,2.36,0,0,1-2.1,1.35,2,2,0,0,1-2-2h6v-.88a4.84,4.84,0,0,0-.93-2.84A3.74,3.74,0,0,0,135.27,8.61Zm-1.87,3.47a1.89,1.89,0,0,1,1.87-1.65,1.79,1.79,0,0,1,1.85,1.65Z"/><path class="cls-1" d="M145,10.43a2.2,2.2,0,0,1,2,1.43l1.91-.77A3.85,3.85,0,0,0,145,8.61a3.94,3.94,0,0,0-3.13,1.27,4.72,4.72,0,0,0-1.09,3.2,4.72,4.72,0,0,0,1.09,3.2A3.94,3.94,0,0,0,145,17.55a3.85,3.85,0,0,0,3.94-2.48L147,14.3a2.22,2.22,0,0,1-2,1.43c-1.3,0-2-1.07-2-2.65S143.68,10.43,145,10.43Z"/><path class="cls-1" d="M154.72,15.73c-.75,0-1.13-.38-1.13-1.41V10.57h2.28V8.75h-2.28V5.24l-2.13,1.34V8.75h-1.34v1.82h1.34v3.78a2.88,2.88,0,0,0,3.18,3.2,3.41,3.41,0,0,0,1.41-.31l-.5-1.72A1.71,1.71,0,0,1,154.72,15.73Z"/><path class="cls-1" d="M127.52,5.39a1.22,1.22,0,1,0,1.73,1.73,1.22,1.22,0,0,0-1.73-1.73Z"/><path class="cls-1" d="M158.57,5.34a1.69,1.69,0,0,0-1.7,1.76,1.7,1.7,0,1,0,3.4,0A1.69,1.69,0,0,0,158.57,5.34Zm0,3.17a1.33,1.33,0,0,1-1.35-1.41,1.35,1.35,0,1,1,2.7,0A1.33,1.33,0,0,1,158.57,8.51Z"/><path class="cls-1" d="M159.22,6.69a.53.53,0,0,0-.61-.55h-.68V8h.33v-.8h.2L159,8h.35l-.55-.82A.51.51,0,0,0,159.22,6.69Zm-1,.26V6.42h.34a.25.25,0,0,1,.29.27c0,.17-.1.26-.29.26Z"/></g></g></svg>