<svg width="88" height="135" viewBox="0 0 88 135" fill="none" xmlns="http://www.w3.org/2000/svg">
<rect x="0.5" y="0.5" width="87" height="134" rx="7.5" fill="#F0F0F0" stroke="#B5B5B5"/>
<g opacity="0.32" clip-path="url(#clip0_4207_1814)">
<path d="M52.3 38.3666V24.8332C52.3 23.7699 51.43 22.8999 50.3667 22.8999H36.8334C35.77 22.8999 34.9 23.7699 34.9 24.8332V38.3666C34.9 39.4299 35.77 40.2999 36.8334 40.2999H50.3667C51.43 40.2999 52.3 39.4299 52.3 38.3666ZM40.6034 33.5139L42.6334 35.9596L45.63 32.1026C45.8234 31.8512 46.21 31.8512 46.4034 32.1122L49.7964 36.6362C50.038 36.9552 49.806 37.4096 49.4097 37.4096H37.8194C37.4134 37.4096 37.191 36.9456 37.4424 36.6266L39.8494 33.5332C40.033 33.2819 40.4004 33.2722 40.6034 33.5139Z" fill="#323232"/>
</g>
<g style="mix-blend-mode:darken">
<path d="M0 71.7921L88 51V129C88 132.314 85.3137 135 82 135H6C2.68629 135 0 132.314 0 129V71.7921Z" fill="#E2E2E2"/>
</g>
<g opacity="0.32" clip-path="url(#clip1_4207_1814)">
<path d="M34.4166 86.3167C34.4166 87.119 35.0643 87.7667 35.8666 87.7667H39.25V97.9167C39.25 98.719 39.8976 99.3667 40.7 99.3667C41.5023 99.3667 42.15 98.719 42.15 97.9167V87.7667H45.5333C46.3356 87.7667 46.9833 87.119 46.9833 86.3167C46.9833 85.5144 46.3356 84.8667 45.5333 84.8667H35.8666C35.0643 84.8667 34.4166 85.5144 34.4166 86.3167ZM51.3333 89.7H45.5333C44.731 89.7 44.0833 90.3477 44.0833 91.15C44.0833 91.9524 44.731 92.6 45.5333 92.6H46.9833V97.9167C46.9833 98.719 47.631 99.3667 48.4333 99.3667C49.2356 99.3667 49.8833 98.719 49.8833 97.9167V92.6H51.3333C52.1356 92.6 52.7833 91.9524 52.7833 91.15C52.7833 90.3477 52.1356 89.7 51.3333 89.7Z" fill="#323232"/>
</g>
<defs>
<clipPath id="clip0_4207_1814">
<rect width="23.2" height="23.2" fill="white" transform="translate(32 20)"/>
</clipPath>
<clipPath id="clip1_4207_1814">
<rect width="23.2" height="23.2" fill="white" transform="translate(32 81)"/>
</clipPath>
</defs>
</svg>
