<svg width="264" height="306" viewBox="0 0 264 306" fill="none" xmlns="http://www.w3.org/2000/svg">
<path opacity="0.2" d="M126.39 210.093C159.945 210.093 187.148 182.891 187.148 149.335C187.148 115.779 159.945 88.5771 126.39 88.5771C92.8341 88.5771 65.6318 115.779 65.6318 149.335C65.6318 182.891 92.8341 210.093 126.39 210.093Z" fill="#C52D3A"/>
<path d="M153.599 141.283H159.854C160.23 141.283 160.605 140.897 160.605 140.512V139.741C160.605 139.356 160.23 138.971 159.854 138.971H153.599C153.223 138.971 152.848 139.356 152.848 139.741V140.512C152.848 140.897 153.223 141.283 153.599 141.283Z" fill="#DCDDE5"/>
<path d="M153.599 156.915H159.854C160.23 156.915 160.605 156.53 160.605 156.145V155.374C160.605 154.989 160.23 154.604 159.854 154.604H153.599C153.223 154.604 152.848 154.989 152.848 155.374V156.145C152.848 156.53 153.223 156.915 153.599 156.915Z" fill="#DCDDE5"/>
<path d="M153.599 171.989H159.854C160.23 171.989 160.605 171.603 160.605 171.218V170.447C160.605 170.062 160.23 169.677 159.854 169.677H153.599C153.223 169.677 152.848 170.062 152.848 170.447V171.218C152.848 171.603 153.223 171.989 153.599 171.989Z" fill="#DCDDE5"/>
<path d="M113.967 141.283H150.875C151.251 141.283 151.626 140.897 151.626 140.512V139.741C151.626 139.356 151.251 138.971 150.875 138.971H113.967C113.591 138.971 113.216 139.356 113.216 139.741V140.512C113.216 140.897 113.591 141.283 113.967 141.283Z" fill="#DCDDE5"/>
<path d="M113.967 156.915H150.875C151.251 156.915 151.626 156.53 151.626 156.145V155.374C151.626 154.989 151.251 154.604 150.875 154.604H113.967C113.591 154.604 113.216 154.989 113.216 155.374V156.145C113.216 156.53 113.591 156.915 113.967 156.915Z" fill="#DCDDE5"/>
<path d="M113.967 171.989H150.875C151.251 171.989 151.626 171.603 151.626 171.218V170.447C151.626 170.062 151.251 169.677 150.875 169.677H113.967C113.591 169.677 113.216 170.062 113.216 170.447V171.218C113.216 171.603 113.591 171.989 113.967 171.989Z" fill="#DCDDE5"/>
<path d="M153.599 148.858H159.854C160.23 148.858 160.605 148.472 160.605 148.087V147.317C160.605 146.931 160.23 146.546 159.854 146.546H153.599C153.223 146.546 152.848 146.931 152.848 147.317V148.087C152.848 148.472 153.223 148.858 153.599 148.858Z" fill="#DCDDE5"/>
<path d="M153.599 164.493H159.854C160.23 164.493 160.605 164.107 160.605 163.722V162.951C160.605 162.566 160.23 162.181 159.854 162.181H153.599C153.223 162.181 152.848 162.566 152.848 162.951V163.722C152.848 164.107 153.223 164.493 153.599 164.493Z" fill="#DCDDE5"/>
<path d="M113.967 148.858H150.875C151.251 148.858 151.626 148.472 151.626 148.087V147.317C151.626 146.931 151.251 146.546 150.875 146.546H113.967C113.591 146.546 113.216 146.931 113.216 147.317V148.087C113.216 148.472 113.591 148.858 113.967 148.858Z" fill="#DCDDE5"/>
<path d="M113.967 164.493H150.875C151.251 164.493 151.626 164.107 151.626 163.722V162.951C151.626 162.566 151.251 162.181 150.875 162.181H113.967C113.591 162.181 113.216 162.566 113.216 162.951V163.722C113.216 164.107 113.591 164.493 113.967 164.493Z" fill="#DCDDE5"/>
<path d="M168.53 201.11H106.553C105.135 201.11 104 199.976 104 198.558V108.551C104 107.134 105.135 106 106.553 106H168.53C169.949 106 171.083 107.134 171.083 108.551V198.7C170.942 199.976 169.807 201.11 168.53 201.11Z" fill="#DCDDE5"/>
<path d="M104.384 108.164C104.384 106.747 105.519 105.613 106.937 105.613H168.773C170.191 105.613 171.326 106.747 171.326 108.164V198.313C171.326 199.73 170.191 200.864 168.773 200.864H134.735" stroke="#6D6D7D" stroke-miterlimit="10" stroke-linecap="round" stroke-linejoin="round"/>
<path d="M85.2205 105.756L147.198 105.756C148.616 105.756 149.751 106.889 149.751 108.307L149.751 198.314C149.751 199.731 148.616 200.865 147.198 200.865L85.2205 200.865C83.8022 200.865 82.6676 199.731 82.6676 198.314L82.6676 108.165C82.8095 106.889 83.9441 105.756 85.2205 105.756Z" fill="#DCDDE5"/>
<path d="M149.611 198.313C149.611 199.73 148.476 200.864 147.058 200.864L85.2224 200.864C83.8041 200.864 82.6695 199.73 82.6695 198.313L82.6695 108.164C82.6695 106.747 83.8041 105.613 85.2224 105.613L119.26 105.613" stroke="#6D6D7D" stroke-miterlimit="10" stroke-linecap="round" stroke-linejoin="round"/>
<path d="M161.776 146.852H111.996V152.663H161.776V146.852Z" fill="#DCDDE5"/>
<path d="M140.927 148.833H127.312V150.535H140.927V148.833Z" fill="#DCDDE5"/>
<path d="M158.232 148.833H153.41V150.535H158.232V148.833Z" fill="#6D6D7D"/>
<path d="M161.776 159.18H111.996V164.991H161.776V159.18Z" fill="#DCDDE5"/>
<path d="M136.814 161.303H127.312V163.005H136.814V161.303Z" fill="#DCDDE5"/>
<path d="M158.23 161.303H149.862V163.005H158.23V161.303Z" fill="#C52D3A"/>
<path d="M161.776 171.654H111.996V177.466H161.776V171.654Z" fill="#DCDDE5"/>
<path d="M143.054 173.641H127.312V175.343H143.054V173.641Z" fill="#DCDDE5"/>
<path d="M158.228 173.641H155.533V175.343H158.228V173.641Z" fill="#6D6D7D"/>
<path d="M156.822 139.157H110.074C108.938 139.157 108.085 138.3 108.085 137.158V107.16C108.085 106.017 108.938 105.16 110.074 105.16H156.822C157.959 105.16 158.811 106.017 158.811 107.16V137.158C158.811 138.157 157.959 139.157 156.822 139.157Z" fill="#DCDDE5"/>
<path d="M135.368 134.444H113.77L124.569 122.16L135.368 134.444Z" fill="#DCDDE5"/>
<path d="M153.128 134.444H122.152L137.64 116.731L153.128 134.444Z" fill="#DCDDE5"/>
<path d="M121.87 117.732C124.146 117.732 125.991 115.877 125.991 113.589C125.991 111.301 124.146 109.447 121.87 109.447C119.594 109.447 117.749 111.301 117.749 113.589C117.749 115.877 119.594 117.732 121.87 117.732Z" fill="#DCDDE5"/>
<path d="M160.228 204.083H93.3706C91.8406 204.083 90.6167 202.86 90.6167 201.331V104.084C90.6167 102.555 91.8406 101.332 93.3706 101.332H160.075C161.605 101.332 162.829 102.555 162.829 104.084V201.331C162.829 202.86 161.605 204.083 160.228 204.083Z" fill="white"/>
<path d="M151.471 150.061H101.042C99.8162 150.061 98.8965 149.136 98.8965 147.903V115.544C98.8965 114.311 99.8162 113.387 101.042 113.387H151.471C152.697 113.387 153.617 114.311 153.617 115.544V147.903C153.617 148.982 152.697 150.061 151.471 150.061Z" fill="#DCDDE5"/>
<path d="M128.326 144.975H105.027L116.677 131.723L128.326 144.975Z" fill="#AAACBB"/>
<path d="M147.487 144.976H114.072L130.779 125.868L147.487 144.976Z" fill="white"/>
<path d="M113.766 126.948C116.221 126.948 118.211 124.947 118.211 122.479C118.211 120.011 116.221 118.011 113.766 118.011C111.311 118.011 109.321 120.011 109.321 122.479C109.321 124.947 111.311 126.948 113.766 126.948Z" fill="white"/>
<path d="M138.016 158.091H99.5079C98.8942 158.091 98.5874 157.717 98.5874 157.343C98.5874 156.845 99.0477 156.596 99.5079 156.596H138.016C138.629 156.596 138.936 156.97 138.936 157.343C139.09 157.842 138.629 158.091 138.016 158.091Z" fill="#DCDDE5"/>
<path d="M153.123 164.074H99.5091C98.8946 164.074 98.5874 163.7 98.5874 163.326C98.5874 162.827 99.0483 162.578 99.5091 162.578H152.969C153.583 162.578 153.891 162.952 153.891 163.326C154.044 163.7 153.583 164.074 153.123 164.074Z" fill="#DCDDE5"/>
<path d="M91.433 108.606V103.838C91.433 102.301 92.6431 101.07 94.1557 101.07H160.106C161.618 101.07 162.828 102.301 162.828 103.838V201.647C162.828 203.185 161.618 204.416 160.106 204.416H94.0044C92.4918 204.416 91.2817 203.185 91.2817 201.647V123.677" stroke="#26262E" stroke-miterlimit="10" stroke-linecap="round" stroke-linejoin="round"/>
<path d="M145.154 175.112H100.008C99.6195 175.112 99.2314 174.724 99.2314 174.336V174.077C99.2314 173.689 99.6195 173.301 100.008 173.301H145.154C145.542 173.301 145.93 173.689 145.93 174.077V174.336C145.93 174.724 145.671 175.112 145.154 175.112Z" fill="#DCDDE5"/>
<path d="M145.154 180.668H100.008C99.6195 180.668 99.2314 180.28 99.2314 179.892V179.634C99.2314 179.245 99.6195 178.857 100.008 178.857H145.154C145.542 178.857 145.93 179.245 145.93 179.634V179.892C145.93 180.28 145.671 180.668 145.154 180.668Z" fill="#DCDDE5"/>
<path d="M137.834 193.058H102.453C100.881 193.058 99.7017 191.841 99.7017 190.219C99.7017 188.597 100.881 187.38 102.453 187.38H137.834C139.406 187.38 140.585 188.597 140.585 190.219C140.585 191.841 139.406 193.058 137.834 193.058Z" fill="#AAACBB"/>
<path d="M111.779 168.902H100.137C99.6195 168.902 99.2314 168.514 99.2314 167.996C99.2314 167.479 99.6195 167.091 100.137 167.091H111.779C112.297 167.091 112.685 167.479 112.685 167.996C112.685 168.514 112.297 168.902 111.779 168.902Z" fill="#DCDDE5"/>
<path opacity="0.65" d="M49.262 73L49.262 135.609C49.262 137.493 51.2478 139 53.7301 139L79.262 139" stroke="#C52D3A" stroke-linecap="round" stroke-linejoin="round" stroke-dasharray="3.99 3.99"/>
<path opacity="0.65" d="M198.762 79L198.417 115.118C198.397 117.256 200.124 119 202.262 119V119L207.262 119V119C209.471 119 211.262 120.791 211.262 123L211.262 130L211.262 141.5C211.262 143.854 210.637 146.497 207.348 146.497L173.52 146.497" stroke="#C52D3A" stroke-linecap="round" stroke-linejoin="round" stroke-dasharray="3.99 3.99"/>
<path opacity="0.65" d="M127 207L127 221.27C127 223.342 130.972 225 135.936 225L200.5 225C203.261 225 205.5 227.239 205.5 230L205.5 243.5" stroke="#C52D3A" stroke-linecap="round" stroke-linejoin="round" stroke-dasharray="3.99 3.99"/>
<path opacity="0.65" d="M55.593 217L55.593 194.646C55.593 192.437 53.8021 190.646 51.593 190.646L46.262 190.646C44.0529 190.646 42.262 188.855 42.262 186.646L42.262 162C42.262 159.901 42.8107 158 45.762 158L79.262 158" stroke="#C52D3A" stroke-linecap="round" stroke-linejoin="round" stroke-dasharray="3.99 3.99"/>
<path d="M75.8899 275.229C70.9873 278.336 65.1315 280.16 58.799 280.16C41.2315 280.16 27.0005 266.044 27.0005 248.618C27.0005 241.054 29.7241 234.097 34.2181 228.626" stroke="#26262E" stroke-miterlimit="10" stroke-linecap="round" stroke-linejoin="round"/>
<path d="M49.811 218.292C52.6709 217.482 55.6669 217.009 58.7991 217.009C76.3665 217.009 90.5976 231.125 90.5976 248.551C90.5976 255.845 88.0782 262.532 83.9247 267.867" stroke="#26262E" stroke-miterlimit="10" stroke-linecap="round" stroke-linejoin="round"/>
<path d="M37.6904 224.982C39.4608 223.429 41.3673 222.078 43.4101 220.93" stroke="#26262E" stroke-miterlimit="10" stroke-linecap="round" stroke-linejoin="round"/>
<path fill-rule="evenodd" clip-rule="evenodd" d="M58.7985 280.093C76.3604 280.093 90.597 265.972 90.597 248.552C90.597 231.131 76.3604 217.01 58.7985 217.01C41.2367 217.01 27 231.131 27 248.552C27 262.615 36.2783 274.528 49.0941 278.597C49.1276 278.609 49.1615 278.62 49.1957 278.629C52.2255 279.58 55.4516 280.093 58.7985 280.093ZM50.2017 275.978C52.4817 276.678 54.8924 277.105 57.3684 277.224V260.845H41.0947C42.6607 266.114 45.112 270.706 48.3804 273.948C49.0306 274.593 49.6377 275.281 50.2017 275.978ZM60.092 277.23C62.5825 277.122 65.0084 276.702 67.303 276.005C67.8545 275.319 68.4233 274.667 69.0801 274.016C72.3484 270.774 74.8678 266.181 76.3658 260.913H60.092V277.23ZM73.2269 273.445C75.8911 270.011 77.925 265.697 79.2256 260.913H84.9227C82.392 266.168 78.2972 270.546 73.2269 273.445ZM86.0254 258.297C85.8823 258.242 85.7253 258.211 85.5581 258.211H79.9065C80.5194 255.104 80.8598 251.93 80.8598 248.62C80.8598 245.311 80.5194 242.136 79.9065 239.097H85.5581C85.7466 239.097 85.9266 239.059 86.0902 238.989C87.1568 241.983 87.7365 245.203 87.7365 248.553C87.7365 251.97 87.1332 255.252 86.0254 258.297ZM85.0193 236.395H79.2937C77.979 231.505 75.9151 227.139 73.2084 223.65C78.3523 226.586 82.4939 231.044 85.0193 236.395ZM67.3697 221.121C65.0763 220.418 62.6509 219.993 60.1601 219.879V236.328H76.502C75.004 230.992 72.4846 226.399 69.2162 223.157C68.5353 222.549 67.9225 221.874 67.3778 221.131C67.3751 221.128 67.3724 221.124 67.3697 221.121ZM57.4365 219.879C54.8741 219.996 52.3808 220.442 50.0292 221.182C49.9776 221.309 49.9046 221.429 49.8103 221.536C49.3337 222.077 48.857 222.617 48.3804 223.09C45.112 226.399 42.5927 230.992 41.0947 236.328H57.4365V219.879ZM44.1369 223.794C39.1305 226.719 35.0953 231.094 32.6083 236.328H38.2348C39.5197 231.549 41.5202 227.228 44.1369 223.794ZM31.5265 238.93C30.4465 241.941 29.8591 245.181 29.8591 248.553C29.8591 251.945 30.4593 255.204 31.5584 258.231C31.7079 258.175 31.8698 258.144 32.0385 258.144H37.6901C37.0773 255.104 36.7368 251.862 36.7368 248.553C36.7368 245.311 37.0773 242.069 37.6901 239.03H32.0385C31.8577 239.03 31.6848 238.994 31.5265 238.93ZM32.6583 260.845C35.1886 266.11 39.2852 270.501 44.3287 273.413C41.6513 269.973 39.608 265.646 38.3029 260.845H32.6583ZM39.4605 248.62C39.4605 251.93 39.8009 255.172 40.4818 258.211V258.279H57.5046V239.097H40.4818C39.8009 242.136 39.4605 245.311 39.4605 248.62ZM77.1148 258.144C77.7957 255.104 78.1362 251.862 78.1362 248.553L78 244.433C77.8638 242.609 77.5914 240.786 77.1829 239.03H60.1601V258.144H77.1148Z" fill="#DCDDE5"/>
<path fill-rule="evenodd" clip-rule="evenodd" d="M63.4294 226.127C63.2251 226.127 62.9527 225.992 62.8165 225.789C62.6804 225.62 62.5442 225.434 62.408 225.249L62.408 225.249C62.2718 225.063 62.1356 224.877 61.9995 224.708C61.7271 224.371 61.7952 223.898 62.1356 223.695C62.4761 223.425 62.9527 223.493 63.157 223.83C63.2932 223.999 63.4294 224.185 63.5655 224.371C63.7017 224.556 63.8379 224.742 63.9741 224.911C64.1784 225.249 64.1103 225.721 63.7698 225.924C63.7017 226.059 63.5655 226.127 63.4294 226.127ZM60.4334 222.412C60.2291 222.412 60.0248 222.344 59.8886 222.209C59.7092 221.987 59.5001 221.794 59.281 221.591L59.281 221.591C59.1676 221.486 59.0515 221.379 58.9354 221.264C58.663 220.994 58.663 220.521 58.9354 220.183C59.2077 219.913 59.6844 219.913 60.0248 220.183L60.0248 220.183C60.3653 220.521 60.7057 220.858 60.9781 221.196C61.2505 221.466 61.2505 221.939 60.9781 222.277C60.7738 222.344 60.5695 222.412 60.4334 222.412ZM56.8926 219.237C56.7564 219.237 56.5522 219.17 56.416 219.102C56.0755 218.832 55.667 218.562 55.3265 218.359C54.9861 218.157 54.918 217.684 55.1223 217.346C55.3265 217.009 55.8032 216.874 56.1436 217.144C56.3479 217.279 56.5351 217.414 56.7224 217.549C56.9096 217.684 57.0969 217.819 57.3012 217.954C57.6416 218.224 57.7097 218.697 57.4374 218.967C57.3012 219.17 57.0969 219.237 56.8926 219.237ZM71.3292 258.143C71.3292 258.548 71.6016 258.954 72.0782 258.954C72.4186 258.954 72.7591 258.683 72.8272 258.143C72.8272 257.948 72.8429 257.738 72.8593 257.519L72.8593 257.519C72.8769 257.283 72.8953 257.038 72.8953 256.792C72.8953 256.387 72.5548 256.049 72.1463 256.049C71.7377 256.049 71.3973 256.387 71.3973 256.792C71.3973 257.029 71.3803 257.248 71.3632 257.468C71.3462 257.687 71.3292 257.907 71.3292 258.143ZM71.3973 253.483C71.3973 253.888 71.7377 254.226 72.1463 254.226C72.5548 254.226 72.8953 253.888 72.8953 253.348C72.8953 253.153 72.8795 252.942 72.8632 252.724C72.8456 252.488 72.8272 252.242 72.8272 251.997C72.7591 251.592 72.4186 251.321 72.0101 251.321C71.6016 251.389 71.3292 251.727 71.3292 252.132C71.3973 252.605 71.3973 253.01 71.3973 253.483ZM71.1249 248.89C71.193 249.295 71.4654 249.565 71.8739 249.565V249.498C72.2825 249.43 72.6229 249.093 72.5548 248.687C72.5548 248.268 72.5012 247.901 72.4415 247.494L72.4186 247.337C72.4186 246.931 72.0101 246.661 71.6016 246.729C71.193 246.729 70.9206 247.134 70.9887 247.539C71.0228 247.776 71.0398 247.995 71.0568 248.215C71.0738 248.434 71.0909 248.654 71.1249 248.89ZM70.3759 244.23C70.444 244.567 70.7845 244.838 71.1249 244.838H71.193C71.6016 244.77 71.8739 244.365 71.8058 243.959C71.7718 243.723 71.7207 243.504 71.6697 243.284L71.6697 243.284L71.6696 243.284C71.6186 243.065 71.5675 242.845 71.5335 242.609C71.4654 242.203 71.0568 242.001 70.6483 242.068C70.2397 242.136 70.0355 242.541 70.1035 242.946C70.1376 243.149 70.1887 243.368 70.2397 243.588C70.2908 243.808 70.3419 244.027 70.3759 244.23ZM69.2865 239.704C69.4226 240.042 69.695 240.245 70.0355 240.245C70.1035 240.245 70.1716 240.245 70.1716 240.177C70.5802 240.042 70.8525 239.637 70.7164 239.232C70.6483 239.029 70.5802 238.809 70.5121 238.59L70.5121 238.59C70.444 238.37 70.3759 238.151 70.3078 237.948C70.1716 237.543 69.7631 237.34 69.3545 237.476C68.946 237.611 68.7417 238.016 68.8779 238.421C68.946 238.624 69.0141 238.843 69.0822 239.063C69.1503 239.282 69.2184 239.502 69.2865 239.704ZM67.8565 235.314C67.9246 235.584 68.2651 235.787 68.5375 235.787H68.8779C69.2184 235.652 69.4226 235.247 69.2865 234.841C69.2095 234.663 69.1423 234.495 69.0774 234.333L69.0774 234.332C69.0144 234.175 68.9537 234.023 68.8885 233.873C70.0081 233.057 70.7378 231.741 70.7378 230.249C70.7378 230.192 70.7367 230.136 70.7346 230.08C70.7852 230.068 70.8359 230.057 70.8867 230.045C71.108 229.994 71.3293 229.944 71.5336 229.91C71.9421 229.842 72.2145 229.437 72.1464 229.032C72.0783 228.627 71.6698 228.357 71.2612 228.424C70.9622 228.466 70.6901 228.509 70.4111 228.568C69.7405 226.916 68.1116 225.757 66.2202 225.757C63.7347 225.757 61.7026 227.759 61.7026 230.249C61.7026 232.739 63.7347 234.74 66.2202 234.74C66.6824 234.74 67.1289 234.671 67.5495 234.542C67.5722 234.597 67.5952 234.652 67.6182 234.706C67.7033 234.909 67.7885 235.112 67.8565 235.314ZM65.6096 277.795C65.7458 277.862 65.882 277.93 66.0181 277.93C66.2224 277.93 66.4948 277.862 66.631 277.66C66.7987 277.452 66.9406 277.218 67.0884 276.975C67.1807 276.823 67.2753 276.667 67.38 276.511C67.6523 276.174 67.5161 275.701 67.1757 275.498C66.8352 275.228 66.3586 275.363 66.1543 275.701C66.0181 275.87 65.899 276.055 65.7798 276.241L65.7798 276.241C65.6606 276.427 65.5415 276.613 65.4053 276.781C65.201 277.119 65.2691 277.592 65.6096 277.795ZM68.0609 273.81C68.197 273.877 68.2651 273.877 68.4013 273.877C68.6737 273.877 68.946 273.742 69.0822 273.404C69.1844 273.202 69.2695 272.982 69.3546 272.763C69.4397 272.543 69.5248 272.324 69.627 272.121C69.7631 271.783 69.627 271.311 69.2184 271.176C68.878 271.04 68.4013 271.176 68.2651 271.581C68.163 271.783 68.0779 271.986 67.9928 272.189C67.9077 272.391 67.8225 272.594 67.7204 272.797C67.5161 273.202 67.7204 273.607 68.0609 273.81ZM69.8993 269.419C69.9674 269.487 70.0355 269.487 70.1036 269.487C70.4441 269.487 70.7164 269.284 70.9207 268.947C70.9888 268.71 71.0569 268.491 71.125 268.271C71.1423 268.215 71.1596 268.16 71.177 268.103C71.205 268.104 71.2331 268.104 71.2612 268.104C73.7842 268.104 75.8469 266.073 75.8469 263.545C75.8469 261.018 73.7843 258.987 71.2612 258.987C69.2409 258.987 67.5158 260.289 66.9085 262.106C66.6699 262.068 66.4218 262.029 66.1518 261.991C65.7433 261.924 65.3347 262.194 65.2666 262.599C65.1985 263.004 65.4709 263.41 65.8794 263.477C66.1174 263.511 66.3384 263.545 66.5594 263.578L66.5603 263.578L66.5604 263.578C66.5988 263.584 66.6373 263.59 66.6758 263.596C66.6969 265.531 67.9272 267.168 69.6418 267.811C69.5688 268.039 69.4958 268.256 69.4227 268.474L69.4227 268.474C69.2865 268.879 69.4908 269.284 69.8993 269.419ZM35.2461 248.138C35.1749 248.061 35.1054 247.985 35.0358 247.908L35.0358 247.908C34.8826 247.739 34.7294 247.57 34.5592 247.401C34.2868 247.064 34.2868 246.658 34.6273 246.321C34.9677 246.051 35.3763 246.051 35.7167 246.388C35.9038 246.62 36.1229 246.852 36.3301 247.062C37.0802 246.532 37.9967 246.222 38.9836 246.222C39.7257 246.222 40.428 246.397 41.0497 246.71C41.229 246.505 41.4123 246.29 41.5722 246.052C41.8446 245.715 42.3212 245.715 42.6617 245.985C43.0021 246.255 43.0021 246.728 42.7298 247.065C42.5832 247.247 42.4366 247.429 42.2794 247.611C43.0771 248.43 43.5693 249.546 43.5693 250.78C43.5693 253.308 41.5066 255.339 38.9836 255.339C36.4605 255.339 34.3979 253.308 34.3979 250.78C34.3979 249.793 34.7124 248.882 35.2461 248.138ZM32.3803 244.7C32.5164 244.835 32.7888 244.97 32.9931 244.97C33.1293 244.97 33.3335 244.97 33.4697 244.835C33.8102 244.632 33.8783 244.159 33.6059 243.822C33.4697 243.653 33.3506 243.467 33.2314 243.281C33.1122 243.096 32.9931 242.91 32.8569 242.741C32.5845 242.403 32.1079 242.268 31.7674 242.538C31.427 242.741 31.3589 243.214 31.5632 243.552C31.6993 243.754 31.8355 243.94 31.9717 244.126C32.1079 244.311 32.2441 244.497 32.3803 244.7ZM29.7928 240.58C29.929 240.85 30.2013 240.985 30.4737 240.985C30.6099 240.985 30.678 240.985 30.8142 240.85C31.2227 240.647 31.3589 240.174 31.1546 239.837C31.0344 239.638 30.9377 239.416 30.8368 239.184L30.8368 239.184L30.8368 239.184L30.8368 239.184C30.7664 239.022 30.6939 238.855 30.6099 238.689C30.4056 238.283 29.9971 238.081 29.5885 238.283C29.18 238.486 29.0438 238.891 29.18 239.296C29.3842 239.769 29.5885 240.174 29.7928 240.58ZM62.6111 262.869H62.4749C62.0864 262.814 61.7432 262.714 61.3714 262.606C61.287 262.581 61.2012 262.556 61.1131 262.532C60.7045 262.464 60.5003 262.059 60.5683 261.653C60.6364 261.248 61.045 261.046 61.4535 261.113C61.6578 261.181 61.8791 261.231 62.1004 261.282C62.3217 261.333 62.543 261.383 62.7473 261.451C63.1558 261.518 63.4282 261.924 63.292 262.329C63.292 262.667 62.9515 262.869 62.6111 262.869ZM57.9809 261.653C57.9128 261.653 57.8447 261.653 57.7766 261.586C57.5724 261.518 57.3511 261.451 57.1298 261.383L57.1297 261.383C56.9084 261.316 56.6872 261.248 56.4829 261.181C56.0743 261.046 55.8701 260.64 56.0062 260.235C56.1424 259.83 56.551 259.627 56.9595 259.762L56.9597 259.762C57.3682 259.897 57.7767 260.033 58.2533 260.168C58.6618 260.303 58.8661 260.708 58.7299 261.113C58.5937 261.451 58.3213 261.653 57.9809 261.653ZM53.555 260.032C53.4869 260.032 53.3507 260.032 53.2826 259.965C53.0783 259.864 52.857 259.779 52.6357 259.695C52.4144 259.61 52.1932 259.526 51.9889 259.425C51.5803 259.29 51.4441 258.817 51.5803 258.479C51.7165 258.074 52.1931 257.939 52.5336 258.074C52.7379 258.175 52.9421 258.26 53.1464 258.344C53.3507 258.428 53.555 258.513 53.7592 258.614C54.1678 258.749 54.304 259.222 54.1678 259.56C54.0997 259.897 53.8273 260.032 53.555 260.032ZM49.1971 258.074C49.061 258.074 48.9929 258.074 48.8567 258.006L47.6311 257.398C47.2906 257.196 47.1544 256.723 47.3587 256.385C47.563 256.048 48.0396 255.912 48.3801 256.115L48.3803 256.115C48.7888 256.318 49.1972 256.52 49.5376 256.723C49.8781 256.926 50.0823 257.331 49.8781 257.736C49.7419 257.939 49.4695 258.074 49.1971 258.074ZM45.0436 255.777C44.9074 255.777 44.7712 255.71 44.635 255.642C44.4308 255.507 44.2435 255.389 44.0563 255.271C43.869 255.153 43.6818 255.034 43.4775 254.899C43.137 254.697 43.0689 254.224 43.2732 253.886C43.4775 253.549 43.9541 253.481 44.2946 253.684C44.5042 253.85 44.7397 253.991 44.9851 254.137C45.1382 254.229 45.2952 254.323 45.4521 254.427C45.7926 254.629 45.9288 255.102 45.6564 255.44C45.5202 255.642 45.316 255.777 45.0436 255.777ZM76.3674 263.209C76.4355 263.614 76.7079 263.884 77.1164 263.884H77.1845C77.4228 263.85 77.6441 263.817 77.8654 263.783L77.8655 263.783C78.0868 263.749 78.308 263.715 78.5463 263.681C78.9549 263.681 79.2272 263.276 79.1591 262.871C79.1591 262.466 78.7506 262.196 78.342 262.263C77.9854 262.263 77.6287 262.315 77.2267 262.373C77.1683 262.381 77.1088 262.39 77.0483 262.398C76.6398 262.466 76.2993 262.803 76.3674 263.209ZM81.0657 262.466C81.2019 262.803 81.4742 263.006 81.8147 263.006C81.8828 263.006 81.9509 263.006 82.019 263.074C82.4956 262.938 82.9722 262.803 83.3808 262.668C83.7893 262.533 83.9936 262.128 83.8574 261.723C83.7212 261.317 83.3127 261.115 82.9041 261.25C82.6999 261.317 82.4786 261.368 82.2573 261.419C82.036 261.469 81.8147 261.52 81.6104 261.588C81.2019 261.655 80.9295 262.06 81.0657 262.466ZM85.6278 261.047C85.764 261.317 86.0363 261.453 86.3087 261.453C86.4449 261.453 86.513 261.453 86.6491 261.317L87.8748 260.71C88.2152 260.507 88.3514 260.034 88.1471 259.696C87.9429 259.359 87.4662 259.224 87.1258 259.426C86.7854 259.629 86.3769 259.832 85.9684 260.034L85.9682 260.034C85.6278 260.237 85.4235 260.642 85.6278 261.047ZM74.8019 229.302C74.3934 229.302 74.121 229.032 74.0529 228.627C73.9848 228.221 74.3253 227.884 74.7338 227.816C74.9637 227.784 75.1935 227.767 75.4157 227.75C75.6543 227.733 75.8841 227.716 76.0957 227.681C76.5042 227.681 76.8447 227.951 76.9128 228.357C76.9128 228.762 76.6404 229.099 76.2319 229.167C75.8233 229.167 75.3467 229.235 74.87 229.302H74.8019ZM80.9301 229.167C80.4535 229.099 79.9769 229.099 79.5683 229.099C79.1598 229.099 78.8193 228.762 78.8193 228.357C78.8193 227.951 79.1598 227.614 79.5683 227.614C79.8158 227.614 80.0633 227.632 80.3013 227.649C80.5216 227.665 80.7337 227.681 80.9301 227.681C81.3387 227.749 81.6791 228.086 81.611 228.492C81.6791 228.897 81.3387 229.167 80.9301 229.167ZM43.9554 244.566C44.0916 244.701 44.2959 244.769 44.5001 244.769C44.7044 244.769 44.8406 244.701 45.0449 244.566L45.9981 243.621C46.2705 243.283 46.2705 242.81 45.9981 242.54C45.6577 242.27 45.181 242.27 44.9087 242.54C44.6844 242.718 44.4896 242.925 44.2854 243.143C44.1797 243.255 44.0715 243.371 43.9554 243.486C43.683 243.823 43.683 244.296 43.9554 244.566ZM47.4281 241.257C47.5642 241.459 47.7685 241.527 47.9728 241.527C48.109 241.527 48.3132 241.459 48.4494 241.324C48.7899 240.987 49.1303 240.717 49.4708 240.446C49.8112 240.244 49.8793 239.771 49.607 239.433C49.4027 239.096 48.9261 239.028 48.5856 239.298C48.3194 239.474 48.0821 239.679 47.8549 239.875L47.8549 239.875L47.8549 239.875C47.7334 239.98 47.6148 240.082 47.4961 240.176C47.2238 240.446 47.1557 240.919 47.4281 241.257ZM51.105 238.285C51.2411 238.488 51.5135 238.623 51.7178 238.623C51.854 238.623 51.9902 238.555 52.1263 238.488C52.2625 238.386 52.4157 238.285 52.5689 238.184C52.7221 238.082 52.8753 237.981 53.0115 237.88L53.2158 237.745C53.5562 237.542 53.6243 237.069 53.4201 236.732C53.2158 236.394 52.7392 236.326 52.3987 236.529L52.1944 236.664C52.0582 236.765 51.905 236.867 51.7518 236.968L51.7517 236.968C51.5986 237.069 51.4454 237.171 51.3092 237.272C50.9688 237.475 50.8326 237.947 51.105 238.285ZM55.0542 235.651C55.1904 235.854 55.3947 235.989 55.6671 235.989C55.8032 235.989 55.9394 235.989 56.1437 235.921C56.348 235.82 56.5352 235.702 56.7225 235.583C56.9097 235.465 57.097 235.347 57.3013 235.246C57.6417 235.043 57.7779 234.57 57.5736 234.233C57.3693 233.895 56.8927 233.76 56.5523 233.962C56.1437 234.165 55.7352 234.368 55.3266 234.638C54.9862 234.84 54.85 235.313 55.0542 235.651ZM59.2078 233.355C59.344 233.625 59.6163 233.76 59.8887 233.76C59.9568 233.76 60.093 233.76 60.2292 233.625C60.6377 233.49 61.0462 233.287 61.4548 233.084L61.4548 233.084C61.7953 232.882 61.9995 232.476 61.7953 232.071C61.591 231.734 61.1824 231.531 60.7739 231.734L59.5483 232.341C59.2078 232.544 59.0035 233.017 59.2078 233.355ZM33.4013 267.193C32.9928 267.193 32.6523 266.855 32.6523 266.45C32.6523 265.977 32.6523 265.504 32.7204 265.031C32.7204 264.626 33.129 264.288 33.5375 264.356C33.9461 264.356 34.2865 264.761 34.2184 265.166C34.2184 265.369 34.2014 265.588 34.1844 265.808C34.1674 266.028 34.1503 266.247 34.1503 266.45C34.1503 266.855 33.8099 267.193 33.4013 267.193ZM33.9461 262.532H33.8099C33.4013 262.465 33.129 262.059 33.2652 261.654C33.3333 261.418 33.3843 261.198 33.4354 260.979C33.4865 260.759 33.5375 260.54 33.6056 260.303C33.7418 259.898 34.1503 259.696 34.5589 259.763C34.9674 259.898 35.1717 260.303 35.1036 260.709C35.0355 260.911 34.9845 261.131 34.9334 261.35C34.8823 261.57 34.8313 261.789 34.7632 261.992C34.627 262.262 34.2865 262.532 33.9461 262.532ZM35.1036 257.939C34.6951 257.804 34.5589 257.332 34.6951 256.994C34.8224 256.741 34.9233 256.489 35.0308 256.22C35.0956 256.057 35.1629 255.889 35.2398 255.711C35.4441 255.305 35.8526 255.17 36.2612 255.373C36.6697 255.575 36.8059 255.981 36.6016 256.386C36.4995 256.589 36.4144 256.791 36.3293 256.994C36.2441 257.196 36.159 257.399 36.0569 257.602C35.9888 257.872 35.7164 258.007 35.376 258.007C35.3079 258.007 35.1717 258.007 35.1036 257.939ZM64.201 230.249C64.201 229.158 65.0955 228.256 66.2202 228.256C67.3449 228.256 68.2393 229.158 68.2393 230.249C68.2393 231.34 67.3449 232.241 66.2202 232.241C65.0955 232.241 64.201 231.34 64.201 230.249ZM36.8963 250.78C36.8963 249.652 37.8213 248.72 38.9836 248.72C40.1459 248.72 41.0708 249.652 41.0708 250.78C41.0708 251.909 40.1459 252.841 38.9836 252.841C37.8213 252.841 36.8963 251.909 36.8963 250.78ZM71.2612 261.485C70.0989 261.485 69.174 262.417 69.174 263.545C69.174 264.674 70.0989 265.606 71.2612 265.606C72.4235 265.606 73.3484 264.674 73.3484 263.545C73.3484 262.417 72.4235 261.485 71.2612 261.485Z" fill="#C52D3A"/>
<path d="M227.152 62.4124C226.693 62.8724 226.349 63.3324 225.89 63.6775C220.73 68.5076 213.849 71.3827 206.165 71.3827C200.087 71.3827 194.353 69.5427 189.651 66.2076C188.275 65.2875 187.013 64.1375 185.866 62.9874C186.44 62.1824 187.586 61.6074 189.88 60.6873L190.798 60.3423C192.518 59.6523 194.926 58.7323 198.023 57.4672C198.481 57.2372 198.94 57.0072 199.169 56.5472C199.284 56.3172 199.513 56.0872 199.513 55.8572C199.743 55.5122 199.743 55.0521 199.743 54.5921V48.7269C199.628 48.6119 199.628 48.4969 199.513 48.3819C199.055 47.5769 198.711 46.7718 198.596 45.8518L198.137 45.6218C196.646 45.9668 196.761 44.3567 196.417 41.2516C196.302 39.9866 196.417 39.7566 196.99 39.5266L197.449 38.8365C196.302 36.3064 195.844 34.2364 195.844 32.3963C195.844 29.5212 197.105 27.5661 198.825 26.6461C198.023 24.806 197.908 24.001 197.908 24.001C197.908 24.001 203.986 25.036 206.05 24.576C208.688 24.001 212.816 24.691 214.307 28.2561C214.651 28.3711 214.881 28.4861 215.225 28.6011C217.174 29.6362 217.862 31.0162 218.092 32.5113C218.436 35.2714 216.945 38.2615 216.601 39.5266C216.601 39.5266 216.601 39.6416 216.716 39.6416C217.174 39.8716 217.289 40.2166 217.06 41.3666C216.716 44.3567 216.83 46.0818 215.339 45.7368L213.963 48.0369C213.963 48.2669 213.849 48.3819 213.849 48.6119C213.849 49.0719 213.849 49.8769 213.849 54.7071C213.849 54.8221 213.849 55.0521 213.849 55.1671C213.849 55.6272 214.078 55.9722 214.307 56.3172C214.422 56.4322 214.537 56.5472 214.651 56.6622C214.995 57.0072 215.339 57.2372 215.798 57.4672C219.239 58.9623 221.762 59.8823 223.597 60.5723C225.317 61.3774 226.464 61.9524 227.152 62.4124Z" fill="white"/>
<path d="M229.903 71.0367C224.743 75.8668 213.848 71.4967 206.164 71.4967C200.086 71.4967 187.356 76.3269 182.654 73.1067C181.737 72.4167 182.884 69.7716 183.228 68.9666C183.801 67.3565 184.375 65.7465 185.177 64.2514C186.898 60.9163 194.811 59.3062 198.022 57.5812C198.595 57.2362 198.939 57.0061 199.169 56.6611C202.953 61.9513 210.751 61.9513 214.536 56.7761C214.88 57.1211 215.224 57.3512 215.683 57.5812C215.797 57.5812 215.912 57.6962 216.027 57.6962C226.692 62.0663 227.38 61.4913 228.757 65.5165C228.986 66.2065 230.362 70.5766 229.903 71.0367Z" fill="white"/>
<path d="M229.903 71.0375C224.743 75.8677 213.848 71.4976 206.164 71.4976C200.086 71.4976 187.356 76.3277 182.654 73.1076C181.737 72.4176 182.884 69.7725 183.228 68.9675C183.801 67.3574 184.375 65.7473 185.177 64.2523C186.898 60.9172 194.811 59.3071 198.022 57.582C198.022 57.582 198.022 57.582 198.136 57.582C202.494 63.6773 211.554 63.6773 215.912 57.697H216.027C226.692 62.0672 227.38 61.4922 228.757 65.5173C228.986 66.2074 230.362 70.5775 229.903 71.0375Z" fill="#AAACBB"/>
<path d="M216.602 39.5256C216.716 38.8356 216.372 37.9155 216.143 37.2255C216.143 37.1105 216.028 36.9955 216.028 36.8805C214.882 34.5804 212.244 33.5454 209.836 33.4304C203.528 33.0853 202.955 34.3504 200.89 32.5103C201.464 33.4304 201.578 34.9254 200.661 36.7655C199.973 38.0305 198.711 38.6055 197.565 38.9506C194.698 32.3953 196.074 28.2552 198.941 26.7601C198.023 24.805 197.909 24 197.909 24C197.909 24 203.987 25.035 206.051 24.575C208.689 24 212.817 24.69 214.308 28.2552C216.831 29.2902 217.863 30.9003 218.093 32.6253C218.551 35.3854 216.946 38.3755 216.602 39.5256Z" fill="#26262E"/>
<path d="M199.625 48.1514C199.969 48.7264 200.313 49.1864 200.887 49.5314L205.474 52.7515C206.506 53.6716 208.111 53.6716 209.144 52.7515L210.749 51.2565" stroke="#26262E" stroke-miterlimit="10" stroke-linecap="round" stroke-linejoin="round"/>
<path d="M229.904 71.038C230.362 70.5779 229.101 66.2078 228.871 65.6328C227.495 61.4926 227.61 62.5276 215.798 57.5825C214.765 57.2374 214.077 56.2024 213.963 55.2824C213.848 54.8224 213.848 49.3021 214.077 48.1521L215.454 45.852C216.944 46.312 216.83 44.472 217.174 41.4819C217.289 40.3318 217.174 39.9868 216.83 39.7568C216.83 39.7568 216.83 39.6418 216.715 39.6418C217.174 37.5717 221.073 31.0165 214.421 28.3714C212.931 24.8062 208.802 24.2312 206.164 24.6912C204.1 25.1512 198.022 24.1162 198.022 24.1162C198.022 24.1162 198.022 24.9212 199.054 26.9913C194.926 29.0614 195.614 34.5816 197.678 39.1818L197.219 39.8718C196.646 40.1018 196.416 40.3318 196.646 41.5969C196.99 44.702 196.99 46.312 198.366 45.967L198.825 46.197C198.939 47.4621 199.398 48.1521 199.972 49.0721C199.972 54.4773 200.086 55.3974 199.742 56.2024C198.825 58.3875 191.026 60.2276 187.471 62.1826" stroke="#26262E" stroke-miterlimit="10" stroke-linecap="round" stroke-linejoin="round"/>
<path d="M202.428 74.7407C202.428 74.5017 202.307 74.1433 202.186 73.9043C202.065 73.4263 201.943 73.0679 201.822 72.7094C201.701 72.351 201.579 72.112 201.458 71.873C200.245 69.3638 198.305 66.974 195.637 65.6597C194.303 65.0623 192.847 64.5843 191.271 64.5843C190.786 64.5843 190.422 64.5843 190.058 64.5843C188.967 64.5843 188.239 64.4648 187.875 64.3453C187.269 64.2258 187.147 63.9869 187.147 63.9869V59.5658C188.603 58.371 189.816 57.1761 190.907 55.7423C191.877 54.3084 192.726 52.7551 193.09 51.0823C194.788 50.7238 196.001 49.1705 195.758 47.3782C195.637 46.5418 195.152 45.9443 195.152 45.1079C195.152 44.7495 195.152 44.2715 195.152 43.913C195.152 43.6741 195.152 43.4351 195.152 43.0766C195.152 42.8377 195.152 42.5987 195.03 42.2402C194.909 41.2843 194.667 40.2089 194.181 39.0141C194.06 38.6556 193.818 38.2972 193.696 37.9387C191.513 33.8761 187.147 31.1279 182.175 31.1279C181.205 31.1279 180.235 31.2474 179.264 31.4864C177.567 31.8449 175.869 32.6813 174.413 33.7566C174.171 33.9956 173.807 34.2346 173.564 34.4736C173.564 34.4736 173.443 34.5931 173.322 34.5931C171.745 36.0269 170.532 37.8192 169.926 39.8505C169.198 41.8818 169.077 43.913 169.32 46.0638V46.1833V46.3028C169.32 46.6612 169.441 46.6612 169.198 46.9002C169.077 47.0197 169.077 47.1392 168.956 47.2587C168.592 47.8561 168.349 48.6925 168.713 49.6484C169.32 51.4407 170.654 51.2018 171.988 52.2771C171.866 52.2771 171.866 52.3966 171.745 52.3966L170.169 52.9941C164.832 54.6669 162.528 58.8489 163.862 62.0751C164.105 62.4335 164.226 62.9115 164.59 63.2699C165.56 64.4648 167.137 65.4207 169.441 65.8987C168.835 65.8987 168.228 66.2571 167.864 66.6156C165.196 68.6469 163.498 71.873 163.013 74.9797C162.892 75.9356 163.62 76.772 164.59 76.772H200.73C201.822 76.6525 202.671 75.6966 202.428 74.7407ZM174.292 57.0566C174.656 57.5346 175.02 58.0125 175.505 58.4905C175.869 58.8489 176.232 59.0879 176.718 59.4464C176.96 59.6853 177.324 59.8048 177.567 60.0438L177.688 60.1633C177.809 60.1633 177.809 60.2828 177.93 60.4023V63.031L177.809 62.9115C177.567 62.6725 177.324 62.4335 177.081 62.3141C176.718 62.0751 176.232 61.8361 175.869 61.5971C175.747 61.4776 175.626 61.4776 175.505 61.3582C174.292 60.6412 173.079 59.8048 173.079 58.9684C173.079 58.371 173.443 57.7735 174.292 57.0566Z" fill="white"/>
<path d="M202.668 74.9811C201.577 76.0565 199.879 75.8175 198.666 76.6539H164.708C163.86 76.6539 163.253 76.0565 163.132 75.3396C163.132 75.2201 163.132 74.9811 163.132 74.8616C163.617 71.755 165.315 68.6483 167.983 66.4975C168.347 66.1391 168.953 65.9001 169.56 65.7806C167.255 65.3027 165.679 64.3468 164.708 63.1519C164.345 62.7934 164.223 62.435 163.981 61.957H172.591L172.955 62.435C174.896 65.0637 177.928 66.617 181.202 66.617C183.628 66.617 186.053 65.7806 187.872 64.2273C188.236 64.3468 188.721 64.3468 189.449 64.4663C189.692 64.4663 189.813 64.4663 190.055 64.4663C190.419 64.4663 190.783 64.4663 191.268 64.4663C192.845 64.4663 194.3 64.9442 195.634 65.5416C198.302 66.856 200.364 69.2457 201.455 71.755C201.577 71.9939 201.698 72.3524 201.819 72.5914C201.941 73.0693 202.547 74.6227 202.668 74.9811Z" fill="white"/>
<path d="M202.67 74.9777C201.578 76.053 199.881 75.8141 198.668 76.6505H165.074C164.346 76.292 163.74 75.8141 163.012 75.3361C163.012 75.2166 163.012 74.9777 163.012 74.8582C163.497 71.7515 165.195 68.6448 167.863 66.4941C168.227 66.1356 168.834 65.8966 169.44 65.7772C167.136 65.2992 165.559 64.3433 164.589 63.1484H171.865C173.927 66.0161 177.323 67.8084 181.083 67.8084C184.357 67.8084 187.146 66.4941 189.329 64.3433C189.572 64.3433 189.693 64.3433 189.936 64.3433C190.3 64.3433 190.663 64.3433 191.149 64.3433C192.725 64.3433 194.18 64.8213 195.515 65.4187C198.183 66.7331 200.244 69.1228 201.336 71.632C201.457 71.871 201.578 72.2295 201.7 72.4684C201.942 73.0659 202.549 74.6192 202.67 74.9777Z" fill="#C52D3A"/>
<path d="M194.908 43.1954C192.483 44.0318 189.936 44.2708 187.389 44.1513C183.387 43.7929 179.506 42.2395 176.474 39.6108C175.625 42.4785 173.078 44.6293 170.289 45.8241C169.925 45.9436 169.561 46.1826 169.198 46.3021V46.1826C168.955 44.1513 169.076 42.0006 169.804 39.9693C170.532 37.938 171.623 36.1457 173.2 34.7119C173.321 34.5924 173.321 34.5924 173.442 34.5924C173.685 34.3534 174.049 34.1144 174.291 33.8754C175.746 32.8001 177.323 32.0831 179.142 31.7247C180.112 31.4857 181.083 31.3662 182.053 31.3662C187.025 31.3662 191.391 34.1144 193.574 38.177C194.423 39.7303 194.787 41.1641 194.908 42.359C194.908 42.7175 194.908 42.9565 194.908 43.1954Z" fill="#26262E"/>
<path d="M174.533 60.6417C175.504 61.3586 176.959 61.9561 177.808 62.7925C179.748 63.8679 181.446 68.7668 179.627 71.0371C178.536 72.3515 176.595 72.3515 174.897 72.3515C176.716 70.6786 175.625 65.1822 169.44 65.7797H169.319C160.829 64.2263 161.799 55.5038 170.046 52.9946L171.38 52.5166C171.502 52.6361 171.502 52.6361 171.623 52.7556C172.229 54.4284 173.199 55.8622 174.17 57.0571C172.35 58.7299 173.078 59.6858 174.533 60.6417Z" fill="#26262E"/>
<path d="M178.052 60.2845C177.93 60.2845 177.93 60.165 177.809 60.165C179.507 61.0014 181.569 61.5989 184.237 60.7625" stroke="#26262E" stroke-miterlimit="10" stroke-linecap="round" stroke-linejoin="round"/>
<path d="M174.29 57.0566C174.654 57.5346 175.018 58.0125 175.503 58.4905C175.867 58.8489 176.231 59.0879 176.716 59.4464C176.958 59.6853 177.322 59.8048 177.565 60.0438L177.686 60.1633C177.807 60.1633 177.807 60.2828 177.929 60.4023V63.031M163.133 74.6212C163.133 74.7407 163.133 74.7407 163.133 74.8602C163.012 75.8161 163.739 76.6525 164.709 76.6525H200.85C201.942 76.6525 202.669 75.6966 202.427 74.7407C202.427 74.5017 202.305 74.1433 202.184 73.9043C202.063 73.4263 201.942 73.0679 201.82 72.7094C201.699 72.351 201.578 72.112 201.456 71.873C200.244 69.3638 198.303 66.974 195.635 65.6597C194.301 65.0623 192.846 64.5843 191.269 64.5843C190.784 64.5843 190.42 64.5843 190.056 64.5843C188.965 64.5843 188.237 64.4648 187.873 64.3453C187.267 64.2258 187.146 63.9869 187.146 63.9869V59.5658C188.601 58.371 189.814 57.1761 190.905 55.7423C191.876 54.3084 192.725 52.7551 193.088 51.0823C194.786 50.7238 195.999 49.1705 195.756 47.3782C195.635 46.5418 195.15 45.9443 195.15 45.1079C195.15 44.7495 195.15 44.2715 195.15 43.913C195.15 43.6741 195.15 43.4351 195.15 43.0766C195.15 42.8377 195.15 42.5987 195.029 42.2402C194.908 41.2843 194.665 40.2089 194.18 39.0141C194.059 38.6556 193.816 38.2972 193.695 37.9387C191.512 33.8761 187.146 31.1279 182.173 31.1279C181.203 31.1279 180.233 31.2474 179.263 31.4864C177.565 31.8449 175.867 32.6813 174.412 33.7566C174.169 33.9956 173.805 34.2346 173.563 34.4736C173.563 34.4736 173.441 34.5931 173.32 34.5931C171.744 36.0269 170.531 37.8192 169.924 39.8505C169.197 41.8818 169.075 43.913 169.318 46.0638V46.1833V46.3028C169.318 46.6612 169.439 46.6612 169.197 46.9002C169.075 47.0197 169.075 47.1392 168.954 47.2587C168.59 47.8561 168.348 48.6925 168.712 49.6484C169.318 51.4407 170.652 51.2018 171.986 52.2771C171.865 52.2771 171.865 52.3966 171.744 52.3966L170.167 52.9941C164.831 54.6669 162.526 58.8489 163.861 62.0751C164.103 62.4335 164.224 62.9115 164.588 63.2699C165.558 64.4648 167.135 65.4207 169.439 65.8987C168.833 65.8987 168.226 66.2571 167.863 66.6156C166.771 67.452 165.922 68.4079 165.195 69.4833L163.133 74.6212Z" stroke="#26262E" stroke-miterlimit="10" stroke-linecap="round" stroke-linejoin="round"/>
<path d="M221.082 304.316C215.985 304.451 209.881 304.316 205.656 304.249C201.364 304.316 195.261 304.451 190.231 304.316C193.785 302.299 195.663 299.071 196.602 296.112C197.005 294.901 197.206 293.691 197.273 292.682H214.107C214.174 293.691 214.375 294.901 214.777 296.112C215.716 299.071 217.594 302.366 221.082 304.316Z" fill="#AAACBB"/>
<path d="M180.773 304.518H238.518" stroke="#26262E" stroke-miterlimit="10" stroke-linecap="round" stroke-linejoin="round"/>
<path d="M174.47 304.169H177.354" stroke="#26262E" stroke-miterlimit="10" stroke-linecap="round" stroke-linejoin="round"/>
<path d="M192.511 302.635C194.59 300.752 195.864 298.331 196.535 296.112C196.937 294.901 197.139 293.691 197.206 292.682H214.04C214.107 293.691 214.308 294.901 214.71 296.112C215.649 299.071 217.527 302.299 221.082 304.316" stroke="#26262E" stroke-miterlimit="10" stroke-linecap="round" stroke-linejoin="round"/>
<path d="M237.311 248.231V292.145C237.311 293.153 236.439 294.028 235.433 294.028H175.878C174.872 294.028 174 293.153 174 292.145V248.231C174 247.222 174.872 246.348 175.878 246.348H235.366C236.439 246.348 237.311 247.155 237.311 248.231Z" fill="white"/>
<path d="M225.766 282.411H184.211C183.201 282.411 182.443 281.649 182.443 280.634V253.969C182.443 252.953 183.201 252.191 184.211 252.191H225.766C226.776 252.191 227.534 252.953 227.534 253.969V280.634C227.534 281.522 226.776 282.411 225.766 282.411Z" fill="#DCDDE5"/>
<path d="M206.694 278.22H187.496L197.095 267.3L206.694 278.22Z" fill="#AAACBB"/>
<path d="M222.481 278.222H194.947L208.714 262.477L222.481 278.222Z" fill="white"/>
<path d="M194.697 263.365C196.72 263.365 198.36 261.716 198.36 259.683C198.36 257.649 196.72 256 194.697 256C192.674 256 191.034 257.649 191.034 259.683C191.034 261.716 192.674 263.365 194.697 263.365Z" fill="white"/>
<path d="M230.873 293.679H175.878C174.872 293.679 174 292.805 174 291.796V247.883C174 246.874 174.872 246 175.878 246H235.366C236.372 246 237.244 246.874 237.244 247.883V291.796C237.244 292.805 236.372 293.679 235.366 293.679" stroke="#26262E" stroke-miterlimit="10" stroke-linecap="round" stroke-linejoin="round"/>
<path d="M235.838 285.004H196" stroke="#26262E" stroke-miterlimit="10" stroke-linecap="round" stroke-linejoin="round"/>
<path d="M205.656 291.07C206.508 291.07 207.199 290.377 207.199 289.523C207.199 288.669 206.508 287.976 205.656 287.976C204.805 287.976 204.114 288.669 204.114 289.523C204.114 290.377 204.805 291.07 205.656 291.07Z" fill="#DCDDE5"/>
<path d="M185.955 280.829C185.543 279.376 184.582 278.121 183.209 277.328C181.699 276.469 180.12 276.337 178.404 276.205C175.384 275.875 172.295 275.809 169.207 275.941C166.461 276.007 163.304 275.875 160.764 276.998C157.126 278.517 156.645 281.886 156.508 285.52C156.371 288.228 156.371 291.466 157.126 294.108C157.744 296.222 159.46 297.874 161.725 298.336C164.608 298.997 170.785 299.129 173.805 299.063C174.08 299.063 174.355 299.063 174.629 299.063C177.032 298.997 179.571 298.997 181.768 298.204C183.621 297.609 184.719 296.552 185.406 295.231C186.229 293.646 186.435 291.664 186.504 289.484C186.71 286.709 186.641 283.472 185.955 280.829Z" fill="#C52D3A"/>
<path d="M182.111 298.136C184.033 297.476 185.2 296.419 185.886 295.098C186.71 293.512 186.916 291.464 186.984 289.218C187.122 286.443 187.122 283.074 186.298 280.432C185.886 278.912 184.857 277.657 183.484 276.864C181.974 276.005 180.258 275.873 178.542 275.741C175.384 275.411 172.227 275.345 169.069 275.411C168.108 275.411 167.079 275.411 166.049 275.477M160.078 276.534C156.577 278.185 156.165 281.489 156.028 285.122C155.89 287.897 155.89 291.266 156.714 293.908C157.332 296.088 159.185 297.74 161.45 298.269C164.402 298.995 170.785 299.061 173.874 298.995C174.149 298.995 174.423 298.995 174.698 298.995C175.522 298.995 176.345 298.929 177.238 298.929M162.48 275.741C162.411 275.741 162.343 275.741 162.274 275.807L162.48 275.741Z" stroke="#26262E" stroke-miterlimit="10" stroke-linecap="round" stroke-linejoin="round"/>
<path d="M167.834 283.208C167.834 282.217 168.383 281.887 169.275 282.415C171.678 283.802 174.149 285.256 176.551 286.643C177.444 287.172 177.444 287.766 176.551 288.361C174.149 289.748 171.746 291.201 169.344 292.589C168.383 293.117 167.903 292.853 167.834 291.928C167.834 291.532 167.834 284.133 167.834 283.208Z" fill="white"/>
<path d="M62.1284 55.7342C62.1284 56.0826 61.4911 56.365 60.705 56.365C59.9188 56.365 59.2816 56.0826 59.2816 55.7342C59.2816 55.3859 59.9188 55.1035 60.705 55.1035C61.4911 55.1035 62.1284 55.3859 62.1284 55.7342Z" stroke="#C52D3A" stroke-miterlimit="10"/>
<path fill-rule="evenodd" clip-rule="evenodd" d="M19.8519 37.0479L19.8519 30.0295L19.8519 29.9244L19.8519 5.67621C19.8519 4.71843 20.5702 4.0001 21.528 4.0001L60.9166 4.00009C61.8744 4.00009 62.5927 4.83815 62.5927 5.6762L62.5927 30.0295C62.5927 30.9872 61.8744 31.7056 60.9166 31.7056L25.8619 31.7056L19.8519 37.0479Z" fill="#C52D3A" fill-opacity="0.32"/>
<path fill-rule="evenodd" clip-rule="evenodd" d="M25.8619 30.5699C25.5838 30.5699 25.3153 30.672 25.1074 30.8568L20.9875 34.5189L20.9875 5.67621C20.9875 5.34564 21.1974 5.13576 21.528 5.13576L60.9166 5.13575C61.0509 5.13575 61.182 5.19218 61.2914 5.30709C61.4083 5.42985 61.457 5.57484 61.457 5.6762L61.457 30.0295C61.457 30.36 61.2471 30.5699 60.9166 30.5699L25.8619 30.5699ZM19.8519 37.0479L25.8619 31.7056L60.9166 31.7056C61.8744 31.7056 62.5927 30.9872 62.5927 30.0295L62.5927 5.6762C62.5927 4.83815 61.8744 4.00009 60.9166 4.00009L21.528 4.0001C20.5702 4.0001 19.8519 4.71843 19.8519 5.67621L19.8519 37.0479Z" fill="#26262E"/>
<path d="M58.4606 20.131L30.5524 20.131C30.2325 20.131 30.0726 20.5955 30.0726 21.0601C30.0726 21.6795 30.3125 21.9893 30.5524 21.9893L58.3807 21.9893C58.7005 21.9893 58.8605 21.5247 58.8605 21.0601C58.9404 20.5955 58.7005 20.131 58.4606 20.131Z" fill="white"/>
<path d="M50.8303 14.3605L22.922 14.3605C22.6021 14.3605 22.4422 14.825 22.4422 15.2896C22.4422 15.909 22.6821 16.2187 22.922 16.2187L50.7503 16.2187C51.0702 16.2187 51.2301 15.7542 51.2301 15.2896C51.3101 14.825 51.0702 14.3605 50.8303 14.3605Z" fill="white"/>
<path d="M58.6018 9.17979L30.6935 9.17979C30.3736 9.17979 30.2137 9.64436 30.2137 10.1089C30.2137 10.7284 30.4536 11.0381 30.6935 11.0381L58.5218 11.0381C58.8417 11.0381 59.0016 10.5735 59.0016 10.1089C59.0816 9.64436 58.8417 9.17979 58.6018 9.17979Z" fill="white"/>
<path d="M58.3184 24.7755L52.0002 24.7755C51.6285 24.7755 51.4427 25.2401 51.4427 25.7046C51.4427 26.3241 51.7214 26.6338 52.0002 26.6338L58.3184 26.6338C58.69 26.6338 58.8759 26.1692 58.8759 25.7046C58.8759 25.2401 58.5971 24.7755 58.3184 24.7755Z" fill="#C52D3A"/>
<path fill-rule="evenodd" clip-rule="evenodd" d="M81.8094 62.4941L81.8094 54.6629C81.8094 54.6619 81.8094 54.6609 81.8094 54.6598L81.8094 26.5954C81.8094 25.5263 81.0075 24.7244 79.9384 24.7244L35.9707 24.7244C34.9016 24.7244 34.0998 25.6599 34.0998 26.5954L34.0998 54.6598C34.0998 55.729 34.9016 56.5308 35.9707 56.5308L75.1006 56.5308L81.8094 62.4941Z" fill="white"/>
<path fill-rule="evenodd" clip-rule="evenodd" d="M82.3773 63.7588L74.8848 57.0988L35.9708 57.0988C34.588 57.0988 33.532 56.0427 33.532 54.66L33.532 26.5955C33.532 25.3729 34.5623 24.1567 35.9708 24.1567L79.9385 24.1567C81.3212 24.1567 82.3773 25.2128 82.3773 26.5956L82.3773 63.7588ZM81.2416 61.2298L81.2416 26.5956C81.2416 25.84 80.694 25.2924 79.9385 25.2924L35.9708 25.2924C35.2411 25.2924 34.6676 25.9472 34.6676 26.5955L34.6676 54.66C34.6676 55.4155 35.2153 55.9632 35.9708 55.9632L75.3166 55.9632L81.2416 61.2298Z" fill="#26262E"/>
<path d="M49.7328 48.5775L79.1177 48.5775C79.586 48.5775 79.8201 49.0745 79.8201 49.5715C79.8201 50.2341 79.4689 50.5654 79.1177 50.5654L49.7328 50.5654C49.2645 50.5654 49.0304 50.0685 49.0304 49.5715C48.9133 48.9089 49.2645 48.5775 49.7328 48.5775Z" fill="#AAACBB"/>
<path d="M38.5321 43.6078L69.3499 43.6078C69.7031 43.6078 69.8797 44.1048 69.8797 44.6018C69.8797 45.2644 69.6148 45.5957 69.3499 45.5957L38.6204 45.5957C38.2672 45.5957 38.0906 45.0987 38.0906 44.6018C38.0023 44.1048 38.2672 43.6078 38.5321 43.6078Z" fill="#DCDDE5"/>
<path d="M45.4325 38.6381L72.398 38.6381C72.7071 38.6381 72.8616 39.1351 72.8616 39.632C72.8616 40.2947 72.6298 40.626 72.398 40.626L45.5098 40.626C45.2007 40.626 45.0462 40.129 45.0462 39.632C44.9689 39.135 45.2007 38.6381 45.4325 38.6381Z" fill="#DCDDE5"/>
<path d="M47.4929 33.6674L79.2738 33.6674C79.638 33.6674 79.8201 34.1643 79.8201 34.6613C79.8201 35.324 79.5469 35.6553 79.2738 35.6553L47.584 35.6553C47.2198 35.6553 47.0376 35.1583 47.0376 34.6613C46.9466 34.1643 47.2198 33.6674 47.4929 33.6674Z" fill="#DCDDE5"/>
<path d="M38.4605 28.6996L64.4629 28.6996C64.761 28.6996 64.91 29.1966 64.91 29.6936C64.91 30.3562 64.6865 30.6875 64.4629 30.6875L38.535 30.6875C38.2369 30.6875 38.0879 30.1905 38.0879 29.6935C38.0134 29.1966 38.2369 28.6996 38.4605 28.6996Z" fill="#DCDDE5"/>
<path d="M38.7442 48.5775L46.3479 48.5775C46.7952 48.5775 47.0189 49.0745 47.0189 49.5715C47.0189 50.2341 46.6834 50.5654 46.3479 50.5654L38.7442 50.5654C38.2969 50.5654 38.0733 50.0684 38.0733 49.5715C38.0733 49.0745 38.4088 48.5775 38.7442 48.5775Z" fill="#C52D3A"/>
<path d="M51.0747 61.6416C51.0747 62.5386 50.9852 63.3459 50.8957 64.2429C50.0012 70.1631 45.9758 75.007 40.5192 77.0701C38.6407 77.7877 36.6728 78.1465 34.6154 78.1465C28.8904 78.1465 23.7916 75.1864 20.8396 70.7013C19.14 68.1 18.1561 64.9605 18.1561 61.6416C18.1561 52.4922 25.4912 45.1367 34.6154 45.1367C43.6501 45.1367 51.0747 52.5819 51.0747 61.6416Z" fill="#C52D3A"/>
<path d="M31.2616 66.6968C31.2616 66.2483 31.4406 65.7101 31.7089 65.3513C33.3191 63.3779 34.8398 61.4941 36.3604 59.5207C36.8077 58.9825 36.271 58.7134 35.9132 58.9825C35.3765 59.431 30.7249 63.3779 30.0988 64.0058C30.0093 64.0955 29.8304 64.0955 29.741 64.0955C28.757 63.7367 27.8625 63.3779 26.8785 63.0191C26.4312 62.9294 26.1629 62.4809 26.2523 62.0324C26.3418 61.7632 26.5207 61.4941 26.789 61.4044C27.773 60.8662 38.7757 54.6769 39.7597 54.049C40.028 53.8696 40.2964 53.8696 40.5647 53.9593C40.8331 54.1387 40.9225 54.4078 40.8331 54.6769C40.6542 56.9194 39.9386 64.1852 39.6702 66.5174C39.5808 67.1453 39.3124 67.5041 38.7757 67.4144C38.6862 67.4144 38.5073 67.4144 38.4179 67.3247C37.255 66.8762 36.0026 66.4277 34.8398 65.9792C34.6609 65.8895 34.4819 65.8895 34.3925 66.0689C32.4245 68.0423 32.2456 68.0423 31.9773 68.132C31.53 68.2217 31.1722 67.9526 31.0827 67.5938C31.0827 67.5041 31.0827 67.5041 31.0827 67.4144C31.2617 67.235 31.2616 66.9659 31.2616 66.6968Z" fill="white"/>
<path d="M26.2952 46.0324C26.5634 45.9428 26.7422 45.7635 27.0104 45.6738" stroke="#26262E" stroke-miterlimit="10" stroke-linecap="round" stroke-linejoin="round"/>
<path d="M29.6065 44.7763C31.0377 44.4175 32.5584 44.1484 34.0791 44.1484C43.4717 44.1484 51.0751 51.773 51.0751 61.1018C51.0751 61.9988 50.9857 62.8958 50.8962 63.7928C49.9123 69.8925 45.7974 74.826 40.2514 76.9788C38.3729 77.6964 36.3154 78.1449 34.1686 78.1449C28.2647 78.1449 22.987 75.0951 20.0351 70.4307C18.246 67.7397 17.262 64.5104 17.262 61.1018C17.262 56.5271 19.0511 52.4009 22.003 49.3511" stroke="#26262E" stroke-miterlimit="10" stroke-linecap="round" stroke-linejoin="round"/>
<path opacity="0.3" d="M158.714 35.8177H156.602V33.7044C156.602 33.3522 156.251 33 155.899 33C155.547 33 155.195 33.3522 155.195 33.7044V35.8177H152.966C152.614 35.8177 152.262 36.1699 152.262 36.5221C152.262 36.8744 152.614 37.2266 152.966 37.2266H155.077V39.3399C155.077 39.6921 155.429 40.0443 155.781 40.0443C156.133 40.0443 156.485 39.6921 156.485 39.3399V37.2266H158.597C158.949 37.2266 159.301 36.8744 159.301 36.5221C159.301 36.1699 159.066 35.8177 158.714 35.8177Z" fill="#C52D3A"/>
<path opacity="0.2" d="M86.3914 91.4131C87.4388 91.0724 88.012 89.9464 87.6715 88.8981C87.3311 87.8498 86.206 87.2762 85.1586 87.617C84.1111 87.9577 83.538 89.0837 83.8784 90.132C84.2189 91.1803 85.344 91.7538 86.3914 91.4131Z" fill="#C52D3A"/>
<path opacity="0.2" d="M13.4691 46.3026C14.3289 46.023 14.7994 45.0986 14.5199 44.2381C14.2404 43.3776 13.3169 42.9068 12.4571 43.1864C11.5973 43.4661 11.1268 44.3905 11.4062 45.251C11.6857 46.1115 12.6093 46.5823 13.4691 46.3026Z" fill="#C52D3A"/>
<path d="M5.11446 86.944L3.35482 88.118L2.18173 86.357C1.8298 86.0048 1.47787 85.8874 1.12594 86.1222C0.774016 86.357 0.774016 86.8266 0.891325 87.0614L2.06442 88.8225L0.304778 89.9965C-0.0471496 90.2313 -0.0471493 90.7009 0.07016 90.9358C0.304779 91.288 0.774016 91.288 1.00863 91.1706L2.76828 89.9965L3.94137 91.7576C4.17599 92.1098 4.64523 92.1098 4.87984 91.9924C5.23177 91.7576 5.23177 91.288 5.11446 91.0532L3.94137 89.2921L5.70101 88.118C6.05294 87.8832 6.05294 87.4136 5.93563 87.1788C5.81832 86.8266 5.34908 86.7092 5.11446 86.944Z" fill="#DEDFE0"/>
<path d="M109.597 245.818H107.485V243.704C107.485 243.352 107.133 243 106.781 243C106.429 243 106.077 243.352 106.077 243.704V245.818H103.966C103.614 245.818 103.262 246.17 103.262 246.522C103.262 246.874 103.614 247.227 103.966 247.227H106.077V249.34C106.077 249.692 106.429 250.044 106.781 250.044C107.133 250.044 107.485 249.692 107.485 249.34V247.227H109.597C109.949 247.227 110.301 246.874 110.301 246.522C110.301 246.17 110.066 245.818 109.597 245.818Z" fill="#EFEFEF"/>
<path opacity="0.3" d="M19.5967 282.818H17.4852V280.704C17.4852 280.352 17.1332 280 16.7813 280C16.4294 280 16.0774 280.352 16.0774 280.704V282.818H13.9659C13.614 282.818 13.262 283.17 13.262 283.522C13.262 283.874 13.614 284.227 13.9659 284.227H16.0774V286.34C16.0774 286.692 16.4294 287.044 16.7813 287.044C17.1332 287.044 17.4852 286.692 17.4852 286.34V284.227H19.5967C19.9487 284.227 20.3006 283.874 20.3006 283.522C20.3006 283.17 20.066 282.818 19.5967 282.818Z" fill="#C52D3A"/>
<path d="M239.139 12.757C240.176 12.757 241.016 11.9159 241.016 10.8785C241.016 9.84102 240.176 9 239.139 9C238.102 9 237.262 9.84102 237.262 10.8785C237.262 11.9159 238.102 12.757 239.139 12.757Z" fill="#EFEFEF"/>
<path d="M28.762 304C29.5905 304 30.262 303.328 30.262 302.5C30.262 301.672 29.5905 301 28.762 301C27.9336 301 27.262 301.672 27.262 302.5C27.262 303.328 27.9336 304 28.762 304Z" fill="#EFEFEF"/>
<path opacity="0.5" d="M92.762 88C93.5905 88 94.262 87.3284 94.262 86.5C94.262 85.6716 93.5905 85 92.762 85C91.9336 85 91.262 85.6716 91.262 86.5C91.262 87.3284 91.9336 88 92.762 88Z" fill="#EFEFEF"/>
<path opacity="0.5" d="M233.268 21.3252C235.027 19.71 235.15 16.9677 233.542 15.2002C231.935 13.4327 229.206 13.3092 227.447 14.9245C225.688 16.5397 225.565 19.282 227.173 21.0495C228.78 22.817 231.509 22.9404 233.268 21.3252Z" fill="#EFEFEF"/>
<path d="M185.716 192.595C187.207 192.108 188.023 190.499 187.538 189.001C187.054 187.503 185.452 186.683 183.961 187.17C182.471 187.657 181.655 189.266 182.139 190.764C182.624 192.262 184.225 193.082 185.716 192.595Z" fill="#EFEFEF"/>
<path d="M191.912 183.289C192.926 182.958 193.48 181.863 193.151 180.845C192.821 179.826 191.732 179.269 190.719 179.6C189.705 179.931 189.15 181.025 189.48 182.044C189.809 183.062 190.898 183.62 191.912 183.289Z" fill="#EFEFEF"/>
</svg>
