<svg fill="none" height="174" viewBox="0 0 113 174" width="113" xmlns="http://www.w3.org/2000/svg"><rect fill="#dcdde5" height="173.193" rx="14" width="112" x=".5" y=".385742"/><g fill="#fefefe" opacity=".7"><rect height="18" rx="9" width="84" x="14.8145" y="92"/><rect height="18" rx="9" width="84" x="14.8145" y="116"/><rect height="18" rx="9" width="84" x="14.8145" y="140"/></g><path clip-rule="evenodd" d="m50.0386 34.1954c.4982.4983 1.3643.29 1.7181-.3193 1.2117-2.087 3.471-3.4904 6.0579-3.4904 3.866 0 7 3.134 7 7s-3.134 7-7 7c-2.5869 0-4.8462-1.4033-6.0579-3.4903-.3537-.6093-1.2199-.8176-1.7181-.3194-.2742.2742-.3555.6913-.1733 1.0336 1.5131 2.8416 4.5053 4.7761 7.9493 4.7761 4.9706 0 9-4.0294 9-9 0-4.9705-4.0294-9-9-9-3.444 0-6.4362 1.9345-7.9493 4.7762-.1822.3423-.1009.7593.1733 1.0335zm-2.9313.4832c.3906-.3905 1.0237-.3905 1.4143 0l1.7071 1.7071h7.5858c.5522 0 1 .4478 1 1 0 .5523-.4478 1-1 1h-7.5858l-1.7071 1.7071c-.3906.3906-1.0237.3906-1.4143 0-.3905-.3905-.3905-1.0236 0-1.4142l1.2929-1.2929-1.2929-1.2929c-.3905-.3905-.3905-1.0236 0-1.4142zm2 12.0003 2.6428-2.6428c.4984.4548 1.0482.8543 1.6396 1.1889l-2.8681 2.8681c-.3906.3905-1.0237.3905-1.4143 0-.3905-.3905-.3905-1.0237 0-1.4142zm16 1.4142-2.8681-2.8681c.5914-.3346 1.1412-.7341 1.6396-1.1889l2.6428 2.6428c.3905.3905.3905 1.0237 0 1.4142-.3906.3905-1.0237.3905-1.4143 0zm-9.1417-13.0701c-.2661.2085-.5805.3627-.9186.3627-.857 0-1.4053-.885-.8058-1.4974.9077-.9272 2.1732-1.5026 3.5732-1.5026 2.7614 0 5 2.2386 5 5 0 2.7615-2.2386 5-5 5-1.4 0-2.6655-.5753-3.5732-1.5025-.5995-.6124-.0512-1.4975.8058-1.4975.3381 0 .6525.1543.9186.3628.5095.3992 1.1514.6372 1.8488.6372 1.6569 0 3-1.3431 3-3 0-1.6568-1.3431-3-3-3-.6974 0-1.3393.238-1.8488.6373z" fill="#6d7080" fill-rule="evenodd"/><rect fill="#aaacbb" height="7" rx="2" width="74.6062" x="18.8145" y="73"/></svg>