<svg fill="none" height="174" viewBox="0 0 113 174" width="113" xmlns="http://www.w3.org/2000/svg"><rect fill="#dcdde5" height="173.193" rx="14" width="112" x=".5"/><g fill="#aaacbb"><rect height="7" rx="2" width="41" x="35.6176" y="91"/><rect height="7" rx="2" width="74.6062" x="18.8145" y="102"/><rect height="7" rx="2" width="60.3955" x="25.9198" y="113"/></g><rect fill="#fefefe" height="18" opacity=".7" rx="9" width="69" x="21.8145" y="137"/><path clip-rule="evenodd" d="m51.9079 41.6066c.8445-.3944 1.7983-.1864 2.5548.2928l.0296.0188 11.0168 8.1122c.7817.4637 1.504 1.1742 1.5054 2.1714.0013.99-.7145 1.7338-1.4959 2.2459l-10.9298 7.6443-.046.0254c-.7881.4362-1.7628.7052-2.6309.2416-.8784-.4692-1.1926-1.4424-1.2488-2.3867l-.0017-.0283-.0463-15.9756c-.0182-1.021.3958-1.943 1.2928-2.3618zm.7809 1.8852c-.0322.0618-.079.1978-.074.4452l.0002.0088.0462 15.9341c.0357.5337.1657.6862.1943.7139.0348.0079.2267.0374.6757-.2028l10.8677-7.6009.0139-.009c.2881-.1876.4509-.3472.5347-.4603.0421-.0568.0583-.0934.0643-.1113-.0168-.0439-.1075-.219-.5538-.4769l-.0479-.0277-11.0442-8.1325c-.3704-.2258-.5791-.1689-.6119-.1536-.0131.0061-.0368.0188-.0652.073z" fill="#6d7080" fill-rule="evenodd"/></svg>