<svg width="88" height="135" viewBox="0 0 88 135" fill="none" xmlns="http://www.w3.org/2000/svg">
<rect x="0.5" y="0.5" width="87" height="134" rx="7.5" fill="#F0F0F0" stroke="#B5B5B5"/>
<rect x="16" y="18" width="57" height="102" rx="6" fill="#E2E2E2"/>
<g opacity="0.32" clip-path="url(#clip0_4207_1808)">
<path d="M34.4166 60.3167C34.4166 61.119 35.0643 61.7667 35.8666 61.7667H39.25V71.9167C39.25 72.719 39.8976 73.3667 40.7 73.3667C41.5023 73.3667 42.15 72.719 42.15 71.9167V61.7667H45.5333C46.3356 61.7667 46.9833 61.119 46.9833 60.3167C46.9833 59.5144 46.3356 58.8667 45.5333 58.8667H35.8666C35.0643 58.8667 34.4166 59.5144 34.4166 60.3167ZM51.3333 63.7H45.5333C44.731 63.7 44.0833 64.3477 44.0833 65.15C44.0833 65.9524 44.731 66.6 45.5333 66.6H46.9833V71.9167C46.9833 72.719 47.631 73.3667 48.4333 73.3667C49.2356 73.3667 49.8833 72.719 49.8833 71.9167V66.6H51.3333C52.1356 66.6 52.7833 65.9524 52.7833 65.15C52.7833 64.3477 52.1356 63.7 51.3333 63.7Z" fill="#323232"/>
</g>
<defs>
<clipPath id="clip0_4207_1808">
<rect width="23.2" height="23.2" fill="white" transform="translate(32 55)"/>
</clipPath>
</defs>
</svg>
