<?xml version="1.0" encoding="utf-8"?>
<!-- Generator: Adobe Illustrator 25.4.1, SVG Export Plug-In . SVG Version: 6.00 Build 0)  -->
<svg version="1.1" id="Layer_1" xmlns="http://www.w3.org/2000/svg" xmlns:xlink="http://www.w3.org/1999/xlink" x="0px" y="0px"
	 viewBox="0 0 336 115.7" style="enable-background:new 0 0 336 115.7;" xml:space="preserve">
<style type="text/css">
	.st0{fill-rule:evenodd;clip-rule:evenodd;fill:#EF3340;}
</style>
<path class="st0" d="M142.1,0.8c4,0,7.2,3.4,7.2,7.6v104.4c0,1.9-1.7,3.3-3.5,2.8L5.3,74.2c-3.1-1-5.3-4-5.3-7.4V8.4
	c0-4.2,3.2-7.6,7.3-7.6H142.1z M248.3,78.5v21.7c0,7.6-3,11.5-9.7,13.1l-1.4-5.3c3.7-1,5.4-2.8,5.4-7.1V78.5H248.3z M313.1,78.5h6.1
	v5.2h-6.1v10.6c0,2.9,1,3.9,3.1,3.9c0.7,0,1.5-0.2,2.2-0.6l1.3,4.9c-1.2,0.6-2.4,0.9-3.8,0.9c-5.3,0-8.5-3.1-8.5-9.1V83.7h-3.6v-5.2
	h3.6v-6.1l5.7-3.8V78.5z M225.4,78.1c-3.6,0-6.5,1.3-8.6,3.6c-2.1,2.4-3.2,5.4-3.2,9.1c0,3.6,1.1,6.7,3.2,9c2.1,2.4,5,3.6,8.6,3.6
	c3.7,0,6.5-1.2,8.7-3.6c2.1-2.3,3.1-5.4,3.1-9c0-3.7-1-6.7-3.1-9.1C231.9,79.4,229.1,78.1,225.4,78.1z M290,83.3
	c2.4,0,4.2,1.3,5.5,4l5.1-2.2c-1.8-4.6-5.3-7-10.6-7c-3.6,0-6.4,1.3-8.4,3.6c-2,2.4-2.9,5.4-2.9,9.1c0,3.6,0.9,6.6,2.9,9
	c2,2.4,4.8,3.6,8.4,3.6c5.3,0,8.8-2.4,10.6-7l-5.1-2.2c-1.3,2.7-3.1,4-5.5,4c-3.5,0-5.3-3-5.3-7.4C284.7,86.3,286.5,83.3,290,83.3z
	 M258.8,92.7c0.1,3,2.2,5.5,5.5,5.5c2.3,0,4.2-1.2,5.6-3.8l4.6,1.8c-2,4.8-5.5,7.2-10.5,7.2c-8,0-11.2-6.8-11.2-12.6
	c0-5.9,3.2-12.7,11.2-12.7c3.6,0,6.6,1.6,8.3,4.1c1.7,2.4,2.5,5.3,2.5,8v2.5H258.8z M201.2,78.5v4c1.7-2.8,4.2-4.4,6.9-4.4
	c0.9,0,1.8,0.2,2.8,0.5l-1.1,5.6c-0.6-0.4-1.5-0.7-2.4-0.7c-3.6,0-6.2,3.4-6.2,10.8v8.7h-5.7V78.5H201.2z M181.1,69
	c6.6,0,10.1,4.1,10.1,10.4c0,6.2-3.5,10.3-10.1,10.3h-6.2V103h-6V69H181.1z M229.7,96.1c-1.1,1.4-2.5,2.1-4.3,2.1
	c-1.8,0-3.1-0.7-4.2-2.1c-1.1-1.5-1.6-3.3-1.6-5.3c0-2.1,0.5-3.9,1.6-5.3c1.1-1.5,2.4-2.2,4.2-2.2c1.8,0,3.2,0.7,4.3,2.2
	c1,1.4,1.5,3.2,1.5,5.3C231.2,92.8,230.7,94.6,229.7,96.1z M268.9,87.9c-0.6-3.1-2.3-4.6-4.9-4.6c-2.8,0-4.6,2.1-5.1,4.6H268.9z
	 M180.8,74.8h-5.9v9.1h5.9c2.9,0,4.3-1.5,4.3-4.5C185.1,76.3,183.7,74.8,180.8,74.8z M328.9,78.9c-4,0-7-3.1-7-7.2
	c0-4.1,3-7.2,7-7.2s7,3.1,7,7.2C335.9,75.8,332.9,78.9,328.9,78.9z M328.9,77.5c3.3,0,5.5-2.5,5.5-5.8c0-3.3-2.2-5.8-5.5-5.8
	c-3.3,0-5.6,2.5-5.6,5.8C323.3,75,325.6,77.5,328.9,77.5z M327.6,75.6h-1.4v-7.8h2.9c1.6,0,2.5,0.9,2.5,2.3c0,1.1-0.8,1.9-1.8,2.1
	l2.3,3.4h-1.5l-2.2-3.3h-0.8V75.6z M243.2,69c-1.3,1.4-1.3,3.6,0,4.9c1.2,1.4,3.3,1.4,4.6,0c1.3-1.3,1.3-3.5,0-4.9
	C246.5,67.7,244.4,67.7,243.2,69z M327.6,71.1h1.4c0.8,0,1.2-0.4,1.2-1c0-0.7-0.4-1.1-1.2-1.1h-1.4V71.1z M110.4,50V25.5h-5.7v9.7
	c0,6.2-2.3,10-5.3,10c-2.2,0-3.3-1.4-3.3-4V25.5h-5.7V43c0,4.8,2.8,7.3,7.1,7.3c2.9,0,5.3-1.4,7.2-4.3v4H110.4z M37.4,16h-6v22.7
	c0,4.3-1.5,5.8-4.3,5.8c-2.2,0-3.5-1.4-4-4.3l-5.9,1.4c0.6,5.4,4.3,8.7,9.9,8.7c6.7,0,10.3-3.5,10.3-12.3V16z M129.8,48
	c-1.5,1.6-3.5,2.3-5.9,2.3c-2.2,0-4.2-0.6-5.8-2c-1.6-1.3-2.7-2.8-3.4-4.6l4.5-2.5c1,2.6,2.5,4,4.7,4c1.9,0,2.9-0.9,2.9-2.6
	c0-0.8-0.4-1.4-1.3-1.9c-0.4-0.2-0.9-0.4-1.3-0.6c-0.8-0.3-2.4-0.9-3.3-1.3c-2.9-1.3-4.7-3.1-4.7-6.6c0-2,0.7-3.6,2.1-5
	c1.4-1.4,3.2-2.1,5.4-2.1c3.1,0,5.8,1.6,7.3,4l-3.5,3.3c-1-1.4-2.3-2.2-3.8-2.2c-1.2,0-2.2,0.8-2.2,2.1c0,1,0.8,1.8,2.3,2.4l1.6,0.6
	l2,0.7c0.4,0.2,0.9,0.5,1.7,0.9c0.7,0.5,1.3,0.9,1.6,1.3c0.7,0.8,1.5,2.3,1.5,4C132.2,44.5,131.4,46.4,129.8,48z M83.1,48
	c-1.5,1.6-3.5,2.3-6,2.3c-2.2,0-4.1-0.6-5.7-2c-1.6-1.3-2.8-2.8-3.5-4.6l4.6-2.5c0.9,2.6,2.5,4,4.6,4c1.9,0,2.9-0.9,2.9-2.6
	c0-0.8-0.4-1.4-1.2-1.9c-0.5-0.2-0.9-0.4-1.3-0.6c-0.8-0.3-2.4-0.9-3.3-1.3c-3-1.3-4.7-3.1-4.7-6.6c0-2,0.7-3.6,2.1-5
	c1.3-1.4,3.1-2.1,5.3-2.1c3.1,0,5.8,1.6,7.3,4l-3.4,3.3c-1.1-1.4-2.4-2.2-3.9-2.2c-1.1,0-2.1,0.8-2.1,2.1c0,1,0.7,1.8,2.2,2.4
	l1.7,0.6l1.9,0.7c0.4,0.2,1,0.5,1.7,0.9c0.8,0.5,1.3,0.9,1.7,1.3c0.7,0.8,1.4,2.3,1.4,4C85.4,44.5,84.6,46.4,83.1,48z M64.6,39.7
	v-2.5c0-2.8-0.8-5.6-2.5-8c-1.6-2.5-4.6-4.1-8.3-4.1c-8,0-11.2,6.8-11.2,12.6s3.2,12.6,11.2,12.6c5,0,8.5-2.3,10.5-7.1l-4.6-1.8
	c-1.4,2.5-3.3,3.8-5.6,3.8c-3.3,0-5.4-2.6-5.5-5.5H64.6z M194,50.2h5.8V25.7H194V50.2z M206,50.2h5.7V15.8H206V50.2z M168.9,16.2
	h20.4v5.9h-14.4v7.7h11.6v5.8h-11.6v14.6h-6V16.2z M223.5,25.7v4c1.8-2.9,4.1-4.3,6.7-4.3c3,0,5.5,1.7,6.5,5c1.8-3.3,4.1-5,7.1-5
	c4.3,0,6.9,2.8,6.9,7.5v17.3H245V33.9c0-2.3-1-3.4-2.9-3.4c-2.9,0-5,3.6-5,10.2v9.5h-5.7V33.9c0-2.3-1-3.4-2.9-3.4
	c-2.9,0-5,3.7-5,10.7v9h-5.7V25.7H223.5z M58.8,35.2h-10c0.5-2.5,2.3-4.6,5.1-4.6C56.5,30.6,58.2,32.1,58.8,35.2z M199.2,21.2
	c1.3-1.4,1.3-3.6,0-4.9c-1.2-1.4-3.4-1.4-4.6,0c-1.3,1.3-1.3,3.5,0,4.9C195.8,22.5,198,22.5,199.2,21.2L199.2,21.2z"/>
</svg>
