<svg xmlns="http://www.w3.org/2000/svg" width="139.075" height="117.94" stroke-linecap="round" stroke-linejoin="round" class="tl-container tl-theme__force-sRGB tl-theme__light" data-color-mode="light" style="background-color:transparent" viewBox="395.933 1939.894 139.075 117.94"><path fill="#e03131" d="m429.945 1971.894-.024 1.057.033 2.083.305 2.795.753 3.154 1.013 2.27 1.137 1.792 1.975 2.803 1.957 2.658 1.75 1.947 2.334 2.298 2.747 2.137 2.716 1.784 2.443 1.35 2.882 1.076 3.447.875 3.322.61 2.98.246 2.566-.095 2.102-.574 1.623-1.47.92-2.284-.372-1.99-1.427-.066-1.332 1.732-.91 2.111-.427 2.06-.034 2.05.494 1.87.914 1.646 2.167 2.421 2.448 2.312 1.83 1.485 2.642 1.66 3.004 1.362 2.735.758 2.583.324 2.784.093 2.583.063 2.374-.1 3.01-.353 2.745-.32 2.128-.271 2.259-.609 1.193-.43a2.174 2.174 0 0 1 1.38 4.122l-1.525.35-2.76.474-2.172.225-2.646.367-3.335.376-2.68.127-2.665-.005-3.02-.151-3.024-.503-3.268-1.004-2.712-1.12-1.85-.989-2.123-1.268-2.126-1.385-2.475-1.819-2.607-2.376-1.534-2.17-1.02-2.06-.597-2.218-.027-2.232.336-2.332.614-2.414.982-2.134 1.524-2.037 1.892-1.692 2.082-.816 2.195.143 1.969.99 1.44 1.457.607 1.948-.303 2.484-.848 2.165-1.211 1.766-2.106 1.691-2.259.887-2.096.157-2.82.002-3.208-.231-3.508-.594-3.73-.886-3.265-1.137-2.656-1.375-2.944-1.82-3.106-2.157-2.742-2.326-2.038-2.06-2.113-2.6-2.287-2.798-1.368-2.18-1.147-2.94-.9-3.76-.433-3.171-.14-2.233-.024-1.058a2.013 2.013 0 0 1 4.025 0Zm72.05 48.304-.545-.267-1.476-.655-2.123-.924-2.342-1.338-1.873-1.18-.722-.378a2.406 2.406 0 0 1 2.319-4.216l.671.392 1.523 1.002 1.801 1.188 2.052 1.102 1.92.976.82.452a2.174 2.174 0 0 1-2.026 3.846Zm-8.543-9.174.054-.017.054-.016a2.41 2.41 0 0 1 1.245 4.655l-.055.013-.054.013a2.406 2.406 0 0 1-1.244-4.648Zm2.34.5.424.364 1.478 1.14 2.447 1.224 2.747.994 1.792 1.44.308 2.078-.98 2.144-1.647 1.458-1.577 1.413-.97 1.807-.187.893a2.5 2.5 0 0 1-4.83-1.29l.782-2.026 1.574-2.987 1.929-1.186 1.913.366-.233.252-2.164-.634-2.145-.914-1.93-1.313-1.444-1.164-.505-.47a2.41 2.41 0 0 1 3.217-3.589Z"/></svg>