<svg xmlns="http://www.w3.org/2000/svg" width="145.434" height="130.87" stroke-linecap="round" stroke-linejoin="round" class="tl-container tl-theme__force-sRGB tl-theme__light" data-color-mode="light" style="background-color:transparent" viewBox="312.546 1943.097 145.434 130.87"><path fill="#e03131" d="m346.745 1975.21-.112 1.193.087 3.074 1.54 4.432 2.423 4.613 3.067 4.894 4.103 5.426 5.127 5.9 5.635 5.934 5.31 4.895 5.348 4.188 5.952 3.73 6.04 3.279 5.808 2.603 6.122 1.89 5.94 1.316 4.701.864 3.074.431 2.308.165 2.407.002 2.446-.111 1.549-.113.448-.036a1.838 1.838 0 0 1-.041 3.675l-.457-.046-1.601-.177-2.528-.317-2.495-.33-2.387-.35-3.133-.515-4.79-.874-6.127-1.358-6.394-1.98-5.974-2.657-6.189-3.34-6.167-3.833-5.53-4.276-5.474-4.957-5.788-5.962-5.329-5.944-4.395-5.543-3.324-4.855-2.524-4-1.683-2.983-.71-2.411-.347-2.43.065-2.136.024-1.197a1.99 1.99 0 0 1 3.975.228Zm79.293 62.244-.087.006-.087.005a1.849 1.849 0 0 1 .02-3.698l.086.006.087.006a1.838 1.838 0 0 1-.02 3.675Zm-1.07-.226-.585-.263-1.336-.884-1.647-1.323-1.7-1.487-1.633-1.507-1.899-1.673-1.792-1.87-.722-.917a2.33 2.33 0 0 1 3.937-2.492l.808.963 1.52 1.707 1.719 1.832 1.683 1.737 1.51 1.42 1.39 1.153.558.38a1.849 1.849 0 0 1-1.81 3.224Zm-8.145-13.167.796.477 1.819 1.23 1.812 1.32 1.58 1.116 1.599 1.128 1.533 1.563.519 2.23-1.273 2.141-2.17 1.662-2.054 1.534-1.766 1.49-1.74 1.658-1.537 1.48-.613.544a2.277 2.277 0 0 1-3.101-3.334l.586-.572 1.498-1.534 1.846-1.803 2.023-1.76 2.186-1.274-.006-1.106-2.29-1.64-1.978-1.458-1.23-.833-.44-.265a2.33 2.33 0 0 1 2.401-3.994Z"/></svg>