<svg xmlns="http://www.w3.org/2000/svg" width="130.453" height="106.84" stroke-linecap="round" stroke-linejoin="round" class="tl-container tl-theme__force-sRGB tl-theme__light" data-color-mode="light" style="background-color:transparent" viewBox="593.44 1925.365 130.453 106.84"><path fill="#e03131" d="m628.536 1958.26-.274.614-.434 1.658.168 2.11.69 2.06 1.12 1.895 1.49 1.844 2.028 2.455 2.72 2.895 3.244 2.925 2.9 2.29 2.565 1.531 2.96 1.695 4.713 2.217 5.526 2.157 6.511 2.024 7.037 1.94 5.187 1.4 3.794.966 2.559.47 2.426.092 2.442-.466 2.293-.899 1.136-.472a1.953 1.953 0 0 1 1.11 3.745l-.725.138-1.67.395-2.08.403-2.661-.062-2.744-.444-2.664-.575-3.836-.955-5.211-1.36-7.156-1.911-6.67-1.987-5.796-2.154-4.874-2.114-3.13-1.547-2.946-1.51-2.544-1.618-2.072-1.5-2.276-2.017-3.023-2.924-2.818-2.96-2.015-2.372-1.095-2.043-.751-2.323-.359-2.514.333-2.524.61-1.847.278-.613a2.184 2.184 0 0 1 3.984 1.793Zm61.433 35.61-.037-.137-.036-.136a1.978 1.978 0 0 1 3.897-.68l.012.14.011.14a1.953 1.953 0 0 1-3.847.672Zm.48.79-.417-.364-1.134-.999-1.523-1.374-1.602-1.576-1.376-1.879-1.013-2.131-.83-1.446-.397-.357a2.4 2.4 0 0 1 3.498-3.284l.845 1.174 1.249 2.343.908 1.965 1.238 1.576 1.562 1.636 1.305 1.384.477.525a1.978 1.978 0 0 1-2.79 2.806Zm-4.723-10.206-.091.116-.092.115a2.41 2.41 0 0 1-3.657-3.14l.1-.108.1-.108a2.4 2.4 0 0 1 3.64 3.125Zm.293-2.044.289.93.697 1.986.994 2.231 1.171 1.948 1.449 1.65 1.722 1.38.859.505a2.516 2.516 0 0 1-3.382 3.727l-.659-.477-1.59-1.418-1.749-1.86-1.35-1.904-1.035-2.007-.963-2.156-.762-2.13-.3-.995a2.41 2.41 0 0 1 4.609-1.41Zm7.816 13.452-.058.151-.059.151a2.523 2.523 0 0 1-4.665-1.922l.065-.149.065-.148a2.516 2.516 0 0 1 4.652 1.917Zm-1.913 1.806-.637.138-1.996.378-2.296.558-2.077.783-2.104.84-2.054 1.047-1.087.672a2.486 2.486 0 0 1-3.254-3.759l1.45-.998 2.385-1.333 2.036-.803 2.088-.838 1.876-.654 1.881-.435 1.853-.338.863-.188a2.523 2.523 0 0 1 1.073 4.93Z"/></svg>