<svg xmlns="http://www.w3.org/2000/svg" width="110.354" height="137.86" stroke-linecap="round" stroke-linejoin="round" class="tl-container tl-theme__force-sRGB tl-theme__light" data-color-mode="light" style="background-color:transparent" viewBox="501.151 1931.663 110.354 137.86"><path fill="#e03131" d="m545.485 1964.306-.337.92-.796 1.954-.888 1.891-1.142 2.102-1.344 2.413-1.565 3.174-1.592 3.778-1.264 3.92-1.043 3.606-.658 3.133-.346 3.096-.112 2.903.072 2.576.275 2.218.462 2.243.658 2.425 1.223 3.218 1.487 3.262 1.499 2.53 1.52 2.11 1.509 1.676 2.024 1.845 2.04 1.706 2.475 1.67 3.006 1.755 3.075 1.453 3.074 1.15 2.531.642 3.212.406 3.79.148 3.175-.058 2.548-.105 2.055-.209 1.768-.374.836-.223a2.149 2.149 0 0 1 .869 4.208l-1.096.173-2.21.129-2.245-.114-2.582-.16-3.257-.243-3.118-.259-2.25-.326-2.136-.55-2.717-.75-3.313-1.17-3.292-1.458-3.325-1.805-2.642-1.803-2.135-1.804-2.272-2.06-1.587-1.922-1.605-2.26-1.756-2.685-1.572-3.483-1.29-3.556-.708-2.634-.39-2.505-.144-2.419.008-2.695.087-3.074.34-3.339.604-3.323.948-3.718 1.174-4.173 1.463-4.055 1.42-3.346 1.53-3.271 1.36-3.007.72-1.862.328-.922a1.894 1.894 0 0 1 3.564 1.287Zm31.52 67.236-.013-.09-.013-.091a2.16 2.16 0 0 1 4.305-.36l.002.092.002.092a2.149 2.149 0 0 1-4.283.357Zm.806 1.349-.469-.325-1.258-.97-1.58-1.224-1.531-1.17-1.499-1.289-1.364-.896-.607-.197a2.434 2.434 0 0 1 2.142-4.37l.402.226 1.367.85 1.843 1.455 1.641 1.452 1.588 1.351 1.394 1.208.571.479a2.16 2.16 0 0 1-2.64 3.42Zm-9.422-9.328.021-.047.021-.046a2.437 2.437 0 0 1 4.376 2.145l-.024.046-.024.045a2.434 2.434 0 0 1-4.37-2.143Zm3.642-1.007.708.492 1.72.949 2.188.987 2.547 1.108 1.37.579a2.503 2.503 0 0 1-2.117 4.535l-.85-.42-2.259-.991-2.33-1-1.799-.937-1.44-.918-.561-.411a2.437 2.437 0 0 1 2.823-3.973Zm8.834 8.484-1.054.644-2.214 1.072-2.23.989-1.699 1.26-1.046 1.906-.42 1.208a2.444 2.444 0 0 1-4.739-1.192l.561-1.684 1.297-2.75 1.952-1.885 2.245-1.37 2.225-1.047 1.8-.925.603-.429a2.503 2.503 0 0 1 2.719 4.203Z"/></svg>