<svg fill="none" height="174" viewBox="0 0 113 174" width="113" xmlns="http://www.w3.org/2000/svg"><rect fill="#dcdde5" height="173.193" rx="14" width="112" x=".5"/><path clip-rule="evenodd" d="m51.5934 64.6066c.8446-.3944 1.7984-.1864 2.5549.2928l.0296.0188 11.0168 8.1122c.7817.4637 1.504 1.1742 1.5053 2.1714.0014.99-.7145 1.7338-1.4959 2.2459l-10.9298 7.6443-.0459.0254c-.7882.4362-1.7629.7052-2.6309.2416-.8784-.4692-1.1927-1.4424-1.2489-2.3867l-.0017-.0283-.0463-15.9756c-.0182-1.021.3958-1.943 1.2928-2.3618zm.781 1.8852c-.0323.0618-.0791.1978-.074.4452l.0002.0088.0462 15.9341c.0356.5337.1656.6862.1942.7139.0348.0079.2268.0374.6758-.2028l10.8676-7.6009.014-.009c.2881-.1876.4509-.3472.5346-.4603.0421-.0568.0584-.0934.0644-.1113-.0169-.0439-.1076-.219-.5538-.4769l-.048-.0277-11.0442-8.1325c-.3703-.2258-.579-.1689-.6118-.1536-.0131.0061-.0369.0188-.0652.073z" fill="#6d7080" fill-rule="evenodd"/><rect fill="#fefefe" height="4" opacity=".7" rx="2" width="94" x="10.5" y="144"/><rect fill="#aaacbb" height="4" rx="2" width="26" x="10.5" y="144"/></svg>