<svg fill="none" height="174" viewBox="0 0 113 174" width="113" xmlns="http://www.w3.org/2000/svg"><rect fill="#dcdde5" height="173.193" rx="14" width="112" x=".5" y=".192871"/><g fill="#fefefe" opacity=".7"><path d="m14.5 105c0-1.657 1.3431-3 3-3h78c1.6569 0 3 1.343 3 3v11.211h-84z"/><path d="m14.5 119.211h84v14.2107h-84z"/><path d="m14.5 136.421h84v11.211c0 1.657-1.3431 3-3 3h-78c-1.6569 0-3-1.343-3-3z"/></g><rect fill="#aaacbb" height="7" rx="2" width="37" x="14.5" y="73"/><rect fill="#aaacbb" height="7" rx="2" width="79" x="14.5" y="84"/><path clip-rule="evenodd" d="m56.4999 29.5933c-4.7496 0-8.6 3.8503-8.6 8.6 0 4.7496 3.8504 8.6 8.6 8.6 4.7497 0 8.6-3.8504 8.6-8.6 0-4.7497-3.8503-8.6-8.6-8.6zm-10.6 8.6c0-5.8543 4.7458-10.6 10.6-10.6s10.6 4.7457 10.6 10.6c0 5.8542-4.7458 10.6-10.6 10.6s-10.6-4.7458-10.6-10.6zm10.6-4.4c-.7556 0-1.4.6293-1.4 1.4453 0 .5523-.4477 1-1 1s-1-.4477-1-1c0-1.8851 1.5047-3.4453 3.4-3.4453s3.4 1.5602 3.4 3.4453c0 1.5384-1.0021 2.8604-2.4008 3.2947-.0001.2318-.0002.4979-.0002.7808 0 .5523-.4478 1-1 1-.5523 0-1-.4477-1-1 0-.4505.0002-.8584.0005-1.1536l.0005-.4775c.0008-.5517.4483-.9991 1-.9991.7556 0 1.4-.6294 1.4-1.4453 0-.816-.6444-1.4453-1.4-1.4453zm-.001 8.2c.5522 0 1 .4477 1 1v.0421c0 .5523-.4478 1.0001-1 1.0001-.5523 0-1-.4478-1-1.0001v-.0421c0-.5523.4477-1 1-1z" fill="#6d7080" fill-rule="evenodd"/><g stroke="#aaacbb"><path d="m20.5 125.6 2.0833 2.4 2.9167-4" stroke-linecap="round" stroke-linejoin="round" stroke-width="1.2"/><rect height="5" rx="2.5" width="5" x="20" y="106.5"/><rect height="5" rx="2.5" width="5" x="20" y="141.5"/></g></svg>