<svg aria-roledescription="er" role="graphics-document document" viewBox="0 0 440.59771728515625 211" style="max-width: 440.598px; background-color: white;" xmlns:xlink="http://www.w3.org/1999/xlink" xmlns="http://www.w3.org/2000/svg" width="100%" id="my-svg"><style>#my-svg{font-family:"trebuchet ms",verdana,arial,sans-serif;font-size:16px;fill:#000000;}#my-svg .error-icon{fill:#552222;}#my-svg .error-text{fill:#552222;stroke:#552222;}#my-svg .edge-thickness-normal{stroke-width:2px;}#my-svg .edge-thickness-thick{stroke-width:3.5px;}#my-svg .edge-pattern-solid{stroke-dasharray:0;}#my-svg .edge-pattern-dashed{stroke-dasharray:3;}#my-svg .edge-pattern-dotted{stroke-dasharray:2;}#my-svg .marker{fill:#000000;stroke:#000000;}#my-svg .marker.cross{stroke:#000000;}#my-svg svg{font-family:"trebuchet ms",verdana,arial,sans-serif;font-size:16px;}#my-svg .entityBox{fill:#cde498;stroke:#13540c;}#my-svg .attributeBoxOdd{fill:#ffffff;stroke:#13540c;}#my-svg .attributeBoxEven{fill:#f2f2f2;stroke:#13540c;}#my-svg .relationshipLabelBox{fill:hsl(78.1578947368, 58.4615384615%, 84.5098039216%);opacity:0.7;background-color:hsl(78.1578947368, 58.4615384615%, 84.5098039216%);}#my-svg .relationshipLabelBox rect{opacity:0.5;}#my-svg .relationshipLine{stroke:#000000;}#my-svg .entityTitleText{text-anchor:middle;font-size:18px;fill:#000000;}#my-svg #MD_PARENT_START{fill:#f5f5f5!important;stroke:#000000!important;stroke-width:1;}#my-svg #MD_PARENT_END{fill:#f5f5f5!important;stroke:#000000!important;stroke-width:1;}#my-svg :root{--mermaid-font-family:"trebuchet ms",verdana,arial,sans-serif;}</style><g/><defs><marker orient="auto" markerHeight="240" markerWidth="190" refY="7" refX="0" id="MD_PARENT_START"><path d="M 18,7 L9,13 L1,7 L9,1 Z"/></marker></defs><defs><marker orient="auto" markerHeight="28" markerWidth="20" refY="7" refX="19" id="MD_PARENT_END"><path d="M 18,7 L9,13 L1,7 L9,1 Z"/></marker></defs><defs><marker orient="auto" markerHeight="18" markerWidth="18" refY="9" refX="0" id="ONLY_ONE_START"><path d="M9,0 L9,18 M15,0 L15,18" fill="none" stroke="gray"/></marker></defs><defs><marker orient="auto" markerHeight="18" markerWidth="18" refY="9" refX="18" id="ONLY_ONE_END"><path d="M3,0 L3,18 M9,0 L9,18" fill="none" stroke="gray"/></marker></defs><defs><marker orient="auto" markerHeight="18" markerWidth="30" refY="9" refX="0" id="ZERO_OR_ONE_START"><circle r="6" cy="9" cx="21" fill="white" stroke="gray"/><path d="M9,0 L9,18" fill="none" stroke="gray"/></marker></defs><defs><marker orient="auto" markerHeight="18" markerWidth="30" refY="9" refX="30" id="ZERO_OR_ONE_END"><circle r="6" cy="9" cx="9" fill="white" stroke="gray"/><path d="M21,0 L21,18" fill="none" stroke="gray"/></marker></defs><defs><marker orient="auto" markerHeight="36" markerWidth="45" refY="18" refX="18" id="ONE_OR_MORE_START"><path d="M0,18 Q 18,0 36,18 Q 18,36 0,18 M42,9 L42,27" fill="none" stroke="gray"/></marker></defs><defs><marker orient="auto" markerHeight="36" markerWidth="45" refY="18" refX="27" id="ONE_OR_MORE_END"><path d="M3,9 L3,27 M9,18 Q27,0 45,18 Q27,36 9,18" fill="none" stroke="gray"/></marker></defs><defs><marker orient="auto" markerHeight="36" markerWidth="57" refY="18" refX="18" id="ZERO_OR_MORE_START"><circle r="6" cy="18" cx="48" fill="white" stroke="gray"/><path d="M0,18 Q18,0 36,18 Q18,36 0,18" fill="none" stroke="gray"/></marker></defs><defs><marker orient="auto" markerHeight="36" markerWidth="57" refY="18" refX="39" id="ZERO_OR_MORE_END"><circle r="6" cy="18" cx="9" fill="white" stroke="gray"/><path d="M21,18 Q39,0 57,18 Q39,36 21,18" fill="none" stroke="gray"/></marker></defs><g transform="translate(20,30.5 )" id="entity-CloudflareImage-97349b1b-ec5e-5fd0-bf85-6fd6194c0502"><rect height="150" width="138.5625" y="0" x="0" class="er entityBox"/><text style="dominant-baseline: middle; text-anchor: middle; font-size: 12px;" transform="translate(69.28125,12)" y="0" x="0" id="text-entity-CloudflareImage-97349b1b-ec5e-5fd0-bf85-6fd6194c0502" class="er entityLabel">CloudflareImage</text><rect height="21" width="59.28125" y="24" x="0" class="er attributeBoxOdd"/><text style="dominant-baseline: middle; font-size: 10.2px;" transform="translate(5,34.5)" y="0" x="0" id="text-entity-CloudflareImage-97349b1b-ec5e-5fd0-bf85-6fd6194c0502-attr-1-type" class="er entityLabel">String</text><rect height="21" width="63.15625" y="24" x="59.28125" class="er attributeBoxOdd"/><text style="dominant-baseline: middle; font-size: 10.2px;" transform="translate(64.28125,34.5)" y="0" x="0" id="text-entity-CloudflareImage-97349b1b-ec5e-5fd0-bf85-6fd6194c0502-attr-1-name" class="er entityLabel">id</text><rect height="21" width="16.125" y="24" x="122.4375" class="er attributeBoxOdd"/><text style="dominant-baseline: middle; font-size: 10.2px;" transform="translate(127.4375,34.5)" y="0" x="0" id="text-entity-CloudflareImage-97349b1b-ec5e-5fd0-bf85-6fd6194c0502-attr-1-comment" class="er entityLabel">🗝️</text><rect height="21" width="59.28125" y="45" x="0" class="er attributeBoxEven"/><text style="dominant-baseline: middle; font-size: 10.2px;" transform="translate(5,55.5)" y="0" x="0" id="text-entity-CloudflareImage-97349b1b-ec5e-5fd0-bf85-6fd6194c0502-attr-2-type" class="er entityLabel">String</text><rect height="21" width="63.15625" y="45" x="59.28125" class="er attributeBoxEven"/><text style="dominant-baseline: middle; font-size: 10.2px;" transform="translate(64.28125,55.5)" y="0" x="0" id="text-entity-CloudflareImage-97349b1b-ec5e-5fd0-bf85-6fd6194c0502-attr-2-name" class="er entityLabel">uploadUrl</text><rect height="21" width="16.125" y="45" x="122.4375" class="er attributeBoxEven"/><text style="dominant-baseline: middle; font-size: 10.2px;" transform="translate(127.4375,55.5)" y="0" x="0" id="text-entity-CloudflareImage-97349b1b-ec5e-5fd0-bf85-6fd6194c0502-attr-2-comment" class="er entityLabel">❓</text><rect height="21" width="59.28125" y="66" x="0" class="er attributeBoxOdd"/><text style="dominant-baseline: middle; font-size: 10.2px;" transform="translate(5,76.5)" y="0" x="0" id="text-entity-CloudflareImage-97349b1b-ec5e-5fd0-bf85-6fd6194c0502-attr-3-type" class="er entityLabel">String</text><rect height="21" width="63.15625" y="66" x="59.28125" class="er attributeBoxOdd"/><text style="dominant-baseline: middle; font-size: 10.2px;" transform="translate(64.28125,76.5)" y="0" x="0" id="text-entity-CloudflareImage-97349b1b-ec5e-5fd0-bf85-6fd6194c0502-attr-3-name" class="er entityLabel">userId</text><rect height="21" width="16.125" y="66" x="122.4375" class="er attributeBoxOdd"/><text style="dominant-baseline: middle; font-size: 10.2px;" transform="translate(127.4375,76.5)" y="0" x="0" id="text-entity-CloudflareImage-97349b1b-ec5e-5fd0-bf85-6fd6194c0502-attr-3-comment" class="er entityLabel"/><rect height="21" width="59.28125" y="87" x="0" class="er attributeBoxEven"/><text style="dominant-baseline: middle; font-size: 10.2px;" transform="translate(5,97.5)" y="0" x="0" id="text-entity-CloudflareImage-97349b1b-ec5e-5fd0-bf85-6fd6194c0502-attr-4-type" class="er entityLabel">DateTime</text><rect height="21" width="63.15625" y="87" x="59.28125" class="er attributeBoxEven"/><text style="dominant-baseline: middle; font-size: 10.2px;" transform="translate(64.28125,97.5)" y="0" x="0" id="text-entity-CloudflareImage-97349b1b-ec5e-5fd0-bf85-6fd6194c0502-attr-4-name" class="er entityLabel">createdAt</text><rect height="21" width="16.125" y="87" x="122.4375" class="er attributeBoxEven"/><text style="dominant-baseline: middle; font-size: 10.2px;" transform="translate(127.4375,97.5)" y="0" x="0" id="text-entity-CloudflareImage-97349b1b-ec5e-5fd0-bf85-6fd6194c0502-attr-4-comment" class="er entityLabel"/><rect height="21" width="59.28125" y="108" x="0" class="er attributeBoxOdd"/><text style="dominant-baseline: middle; font-size: 10.2px;" transform="translate(5,118.5)" y="0" x="0" id="text-entity-CloudflareImage-97349b1b-ec5e-5fd0-bf85-6fd6194c0502-attr-5-type" class="er entityLabel">Boolean</text><rect height="21" width="63.15625" y="108" x="59.28125" class="er attributeBoxOdd"/><text style="dominant-baseline: middle; font-size: 10.2px;" transform="translate(64.28125,118.5)" y="0" x="0" id="text-entity-CloudflareImage-97349b1b-ec5e-5fd0-bf85-6fd6194c0502-attr-5-name" class="er entityLabel">uploaded</text><rect height="21" width="16.125" y="108" x="122.4375" class="er attributeBoxOdd"/><text style="dominant-baseline: middle; font-size: 10.2px;" transform="translate(127.4375,118.5)" y="0" x="0" id="text-entity-CloudflareImage-97349b1b-ec5e-5fd0-bf85-6fd6194c0502-attr-5-comment" class="er entityLabel"/><rect height="21" width="59.28125" y="129" x="0" class="er attributeBoxEven"/><text style="dominant-baseline: middle; font-size: 10.2px;" transform="translate(5,139.5)" y="0" x="0" id="text-entity-CloudflareImage-97349b1b-ec5e-5fd0-bf85-6fd6194c0502-attr-6-type" class="er entityLabel">DateTime</text><rect height="21" width="63.15625" y="129" x="59.28125" class="er attributeBoxEven"/><text style="dominant-baseline: middle; font-size: 10.2px;" transform="translate(64.28125,139.5)" y="0" x="0" id="text-entity-CloudflareImage-97349b1b-ec5e-5fd0-bf85-6fd6194c0502-attr-6-name" class="er entityLabel">updatedAt</text><rect height="21" width="16.125" y="129" x="122.4375" class="er attributeBoxEven"/><text style="dominant-baseline: middle; font-size: 10.2px;" transform="translate(127.4375,139.5)" y="0" x="0" id="text-entity-CloudflareImage-97349b1b-ec5e-5fd0-bf85-6fd6194c0502-attr-6-comment" class="er entityLabel"/></g><g transform="translate(258.5625,20 )" id="entity-CloudflareVideo-e162e006-10e1-5dd2-b24e-84a8175fdeae"><rect height="171" width="162.0352020263672" y="0" x="0" class="er entityBox"/><text style="dominant-baseline: middle; text-anchor: middle; font-size: 12px;" transform="translate(81.0176010131836,12)" y="0" x="0" id="text-entity-CloudflareVideo-e162e006-10e1-5dd2-b24e-84a8175fdeae" class="er entityLabel">CloudflareVideo</text><rect height="21" width="59.28125" y="24" x="0" class="er attributeBoxOdd"/><text style="dominant-baseline: middle; font-size: 10.2px;" transform="translate(5,34.5)" y="0" x="0" id="text-entity-CloudflareVideo-e162e006-10e1-5dd2-b24e-84a8175fdeae-attr-1-type" class="er entityLabel">String</text><rect height="21" width="86.62895202636719" y="24" x="59.28125" class="er attributeBoxOdd"/><text style="dominant-baseline: middle; font-size: 10.2px;" transform="translate(64.28125,34.5)" y="0" x="0" id="text-entity-CloudflareVideo-e162e006-10e1-5dd2-b24e-84a8175fdeae-attr-1-name" class="er entityLabel">id</text><rect height="21" width="16.125" y="24" x="145.9102020263672" class="er attributeBoxOdd"/><text style="dominant-baseline: middle; font-size: 10.2px;" transform="translate(150.9102020263672,34.5)" y="0" x="0" id="text-entity-CloudflareVideo-e162e006-10e1-5dd2-b24e-84a8175fdeae-attr-1-comment" class="er entityLabel">🗝️</text><rect height="21" width="59.28125" y="45" x="0" class="er attributeBoxEven"/><text style="dominant-baseline: middle; font-size: 10.2px;" transform="translate(5,55.5)" y="0" x="0" id="text-entity-CloudflareVideo-e162e006-10e1-5dd2-b24e-84a8175fdeae-attr-2-type" class="er entityLabel">String</text><rect height="21" width="86.62895202636719" y="45" x="59.28125" class="er attributeBoxEven"/><text style="dominant-baseline: middle; font-size: 10.2px;" transform="translate(64.28125,55.5)" y="0" x="0" id="text-entity-CloudflareVideo-e162e006-10e1-5dd2-b24e-84a8175fdeae-attr-2-name" class="er entityLabel">uploadUrl</text><rect height="21" width="16.125" y="45" x="145.9102020263672" class="er attributeBoxEven"/><text style="dominant-baseline: middle; font-size: 10.2px;" transform="translate(150.9102020263672,55.5)" y="0" x="0" id="text-entity-CloudflareVideo-e162e006-10e1-5dd2-b24e-84a8175fdeae-attr-2-comment" class="er entityLabel">❓</text><rect height="21" width="59.28125" y="66" x="0" class="er attributeBoxOdd"/><text style="dominant-baseline: middle; font-size: 10.2px;" transform="translate(5,76.5)" y="0" x="0" id="text-entity-CloudflareVideo-e162e006-10e1-5dd2-b24e-84a8175fdeae-attr-3-type" class="er entityLabel">String</text><rect height="21" width="86.62895202636719" y="66" x="59.28125" class="er attributeBoxOdd"/><text style="dominant-baseline: middle; font-size: 10.2px;" transform="translate(64.28125,76.5)" y="0" x="0" id="text-entity-CloudflareVideo-e162e006-10e1-5dd2-b24e-84a8175fdeae-attr-3-name" class="er entityLabel">userId</text><rect height="21" width="16.125" y="66" x="145.9102020263672" class="er attributeBoxOdd"/><text style="dominant-baseline: middle; font-size: 10.2px;" transform="translate(150.9102020263672,76.5)" y="0" x="0" id="text-entity-CloudflareVideo-e162e006-10e1-5dd2-b24e-84a8175fdeae-attr-3-comment" class="er entityLabel"/><rect height="21" width="59.28125" y="87" x="0" class="er attributeBoxEven"/><text style="dominant-baseline: middle; font-size: 10.2px;" transform="translate(5,97.5)" y="0" x="0" id="text-entity-CloudflareVideo-e162e006-10e1-5dd2-b24e-84a8175fdeae-attr-4-type" class="er entityLabel">String</text><rect height="21" width="86.62895202636719" y="87" x="59.28125" class="er attributeBoxEven"/><text style="dominant-baseline: middle; font-size: 10.2px;" transform="translate(64.28125,97.5)" y="0" x="0" id="text-entity-CloudflareVideo-e162e006-10e1-5dd2-b24e-84a8175fdeae-attr-4-name" class="er entityLabel">name</text><rect height="21" width="16.125" y="87" x="145.9102020263672" class="er attributeBoxEven"/><text style="dominant-baseline: middle; font-size: 10.2px;" transform="translate(150.9102020263672,97.5)" y="0" x="0" id="text-entity-CloudflareVideo-e162e006-10e1-5dd2-b24e-84a8175fdeae-attr-4-comment" class="er entityLabel">❓</text><rect height="21" width="59.28125" y="108" x="0" class="er attributeBoxOdd"/><text style="dominant-baseline: middle; font-size: 10.2px;" transform="translate(5,118.5)" y="0" x="0" id="text-entity-CloudflareVideo-e162e006-10e1-5dd2-b24e-84a8175fdeae-attr-5-type" class="er entityLabel">DateTime</text><rect height="21" width="86.62895202636719" y="108" x="59.28125" class="er attributeBoxOdd"/><text style="dominant-baseline: middle; font-size: 10.2px;" transform="translate(64.28125,118.5)" y="0" x="0" id="text-entity-CloudflareVideo-e162e006-10e1-5dd2-b24e-84a8175fdeae-attr-5-name" class="er entityLabel">createdAt</text><rect height="21" width="16.125" y="108" x="145.9102020263672" class="er attributeBoxOdd"/><text style="dominant-baseline: middle; font-size: 10.2px;" transform="translate(150.9102020263672,118.5)" y="0" x="0" id="text-entity-CloudflareVideo-e162e006-10e1-5dd2-b24e-84a8175fdeae-attr-5-comment" class="er entityLabel"/><rect height="21" width="59.28125" y="129" x="0" class="er attributeBoxEven"/><text style="dominant-baseline: middle; font-size: 10.2px;" transform="translate(5,139.5)" y="0" x="0" id="text-entity-CloudflareVideo-e162e006-10e1-5dd2-b24e-84a8175fdeae-attr-6-type" class="er entityLabel">Boolean</text><rect height="21" width="86.62895202636719" y="129" x="59.28125" class="er attributeBoxEven"/><text style="dominant-baseline: middle; font-size: 10.2px;" transform="translate(64.28125,139.5)" y="0" x="0" id="text-entity-CloudflareVideo-e162e006-10e1-5dd2-b24e-84a8175fdeae-attr-6-name" class="er entityLabel">readyToStream</text><rect height="21" width="16.125" y="129" x="145.9102020263672" class="er attributeBoxEven"/><text style="dominant-baseline: middle; font-size: 10.2px;" transform="translate(150.9102020263672,139.5)" y="0" x="0" id="text-entity-CloudflareVideo-e162e006-10e1-5dd2-b24e-84a8175fdeae-attr-6-comment" class="er entityLabel"/><rect height="21" width="59.28125" y="150" x="0" class="er attributeBoxOdd"/><text style="dominant-baseline: middle; font-size: 10.2px;" transform="translate(5,160.5)" y="0" x="0" id="text-entity-CloudflareVideo-e162e006-10e1-5dd2-b24e-84a8175fdeae-attr-7-type" class="er entityLabel">DateTime</text><rect height="21" width="86.62895202636719" y="150" x="59.28125" class="er attributeBoxOdd"/><text style="dominant-baseline: middle; font-size: 10.2px;" transform="translate(64.28125,160.5)" y="0" x="0" id="text-entity-CloudflareVideo-e162e006-10e1-5dd2-b24e-84a8175fdeae-attr-7-name" class="er entityLabel">updatedAt</text><rect height="21" width="16.125" y="150" x="145.9102020263672" class="er attributeBoxOdd"/><text style="dominant-baseline: middle; font-size: 10.2px;" transform="translate(150.9102020263672,160.5)" y="0" x="0" id="text-entity-CloudflareVideo-e162e006-10e1-5dd2-b24e-84a8175fdeae-attr-7-comment" class="er entityLabel"/></g></svg>